G04 #@! TF.GenerationSoftware,KiCad,Pcbnew,(5.0.0)*
G04 #@! TF.CreationDate,2018-09-08T19:21:57+02:00*
G04 #@! TF.ProjectId,hal9k-badge,68616C396B2D62616467652E6B696361,rev?*
G04 #@! TF.SameCoordinates,PX5f5e100PY8f0d180*
G04 #@! TF.FileFunction,Soldermask,Bot*
G04 #@! TF.FilePolarity,Negative*
%FSLAX46Y46*%
G04 Gerber Fmt 4.6, Leading zero omitted, Abs format (unit mm)*
G04 Created by KiCad (PCBNEW (5.0.0)) date 09/08/18 19:21:57*
%MOMM*%
%LPD*%
G01*
G04 APERTURE LIST*
%ADD10C,0.150000*%
%ADD11C,1.200000*%
%ADD12C,0.100000*%
%ADD13C,1.100000*%
%ADD14C,1.300000*%
%ADD15R,1.650000X1.900000*%
%ADD16R,1.900000X1.650000*%
%ADD17R,1.150000X1.600000*%
%ADD18O,2.100000X2.100000*%
%ADD19R,2.100000X2.100000*%
%ADD20R,1.400000X1.900000*%
%ADD21C,1.000000*%
%ADD22R,1.900000X1.400000*%
%ADD23R,2.800000X2.800000*%
%ADD24R,1.700000X1.900000*%
%ADD25R,1.900000X1.700000*%
%ADD26C,2.000000*%
%ADD27R,1.200000X1.300000*%
%ADD28R,2.000000X0.700000*%
%ADD29C,1.550000*%
%ADD30R,0.850000X1.780000*%
%ADD31R,1.875000X2.500000*%
%ADD32R,2.775000X2.300000*%
%ADD33R,1.575000X2.300000*%
%ADD34R,1.750000X1.750000*%
%ADD35O,1.750000X1.750000*%
%ADD36R,2.400000X4.900000*%
%ADD37R,1.300000X1.200000*%
G04 APERTURE END LIST*
D10*
G36*
X18250000Y59770000D02*
X81850000Y59770000D01*
X81850000Y70390000D01*
X18270000Y70390000D01*
X18250000Y59770000D01*
G37*
X18250000Y59770000D02*
X81850000Y59770000D01*
X81850000Y70390000D01*
X18270000Y70390000D01*
X18250000Y59770000D01*
D11*
G04 #@! TO.C,S4*
X35358294Y5259873D03*
D12*
G36*
X36239485Y5530985D02*
X35760987Y4430513D01*
X34477103Y4988761D01*
X34955601Y6089233D01*
X36239485Y5530985D01*
X36239485Y5530985D01*
G37*
D11*
X28663755Y8170741D03*
D12*
G36*
X29544946Y8441853D02*
X29066448Y7341381D01*
X27782564Y7899629D01*
X28261062Y9000101D01*
X29544946Y8441853D01*
X29544946Y8441853D01*
G37*
D11*
X27782520Y6144038D03*
D12*
G36*
X28663711Y6415150D02*
X28185213Y5314678D01*
X26901329Y5872926D01*
X27379827Y6973398D01*
X28663711Y6415150D01*
X28663711Y6415150D01*
G37*
D11*
X34477058Y3233170D03*
D12*
G36*
X35358249Y3504282D02*
X34879751Y2403810D01*
X33595867Y2962058D01*
X34074365Y4062530D01*
X35358249Y3504282D01*
X35358249Y3504282D01*
G37*
D13*
X30206826Y8208581D03*
D12*
G36*
X31090021Y8860476D02*
X30332397Y7118062D01*
X29323631Y7556686D01*
X30081255Y9299100D01*
X31090021Y8860476D01*
X31090021Y8860476D01*
G37*
D13*
X31582416Y7610458D03*
D12*
G36*
X32465611Y8262353D02*
X31707987Y6519939D01*
X30699221Y6958563D01*
X31456845Y8700977D01*
X32465611Y8262353D01*
X32465611Y8262353D01*
G37*
D13*
X34333595Y6414211D03*
D12*
G36*
X35216790Y7066106D02*
X34459166Y5323692D01*
X33450400Y5762316D01*
X34208024Y7504730D01*
X35216790Y7066106D01*
X35216790Y7066106D01*
G37*
D14*
X30192823Y6295494D03*
X32944003Y5099247D03*
G04 #@! TD*
D15*
G04 #@! TO.C,C1*
X63700000Y55590000D03*
X63700000Y53090000D03*
G04 #@! TD*
G04 #@! TO.C,C2*
X61460000Y55590000D03*
X61460000Y53090000D03*
G04 #@! TD*
G04 #@! TO.C,C3*
X60300000Y7850000D03*
X60300000Y10350000D03*
G04 #@! TD*
D16*
G04 #@! TO.C,C4*
X61050000Y16100000D03*
X63550000Y16100000D03*
G04 #@! TD*
G04 #@! TO.C,C5*
X96090000Y39960000D03*
X93590000Y39960000D03*
G04 #@! TD*
D15*
G04 #@! TO.C,C6*
X35240000Y34020000D03*
X35240000Y31520000D03*
G04 #@! TD*
G04 #@! TO.C,C7*
X18000000Y51250000D03*
X18000000Y48750000D03*
G04 #@! TD*
G04 #@! TO.C,C8*
X38250000Y31440000D03*
X38250000Y33940000D03*
G04 #@! TD*
G04 #@! TO.C,C9*
X25400000Y49650000D03*
X25400000Y52150000D03*
G04 #@! TD*
D16*
G04 #@! TO.C,C10*
X23020000Y34820000D03*
X20520000Y34820000D03*
G04 #@! TD*
G04 #@! TO.C,C11*
X61050000Y18500000D03*
X63550000Y18500000D03*
G04 #@! TD*
D17*
G04 #@! TO.C,C37*
X30900000Y27200000D03*
X30900000Y25300000D03*
G04 #@! TD*
G04 #@! TO.C,C38*
X30900000Y20600000D03*
X30900000Y18700000D03*
G04 #@! TD*
G04 #@! TO.C,C39*
X6460000Y53270000D03*
X6460000Y51370000D03*
G04 #@! TD*
G04 #@! TO.C,C40*
X6450000Y46650000D03*
X6450000Y44750000D03*
G04 #@! TD*
D18*
G04 #@! TO.C,J6*
X36470000Y49880000D03*
X33930000Y49880000D03*
X36470000Y52420000D03*
X33930000Y52420000D03*
X36470000Y54960000D03*
D19*
X33930000Y54960000D03*
G04 #@! TD*
D18*
G04 #@! TO.C,J7*
X51270000Y88540000D03*
X51270000Y86000000D03*
X48730000Y88540000D03*
D19*
X48730000Y86000000D03*
G04 #@! TD*
G04 #@! TO.C,J8*
X46190000Y43500000D03*
D18*
X48730000Y43500000D03*
X51270000Y43500000D03*
X53810000Y43500000D03*
G04 #@! TD*
D20*
G04 #@! TO.C,JP1*
X68250000Y30700000D03*
D21*
X66950000Y30700000D03*
D12*
G36*
X67489018Y31646157D02*
X67526537Y31634776D01*
X67561114Y31616294D01*
X67591421Y31591421D01*
X67616294Y31561114D01*
X67634776Y31526537D01*
X67646157Y31489018D01*
X67650000Y31450000D01*
X67650000Y31200000D01*
X67850000Y31200000D01*
X67889018Y31196157D01*
X67926537Y31184776D01*
X67961114Y31166294D01*
X67991421Y31141421D01*
X68016294Y31111114D01*
X68034776Y31076537D01*
X68046157Y31039018D01*
X68050000Y31000000D01*
X68050000Y30400000D01*
X68046157Y30360982D01*
X68034776Y30323463D01*
X68016294Y30288886D01*
X67991421Y30258579D01*
X67961114Y30233706D01*
X67926537Y30215224D01*
X67889018Y30203843D01*
X67850000Y30200000D01*
X67650000Y30200000D01*
X67650000Y29950000D01*
X67646157Y29910982D01*
X67634776Y29873463D01*
X67616294Y29838886D01*
X67591421Y29808579D01*
X67561114Y29783706D01*
X67526537Y29765224D01*
X67489018Y29753843D01*
X67450000Y29750000D01*
X66450000Y29750000D01*
X66410982Y29753843D01*
X66373463Y29765224D01*
X66338886Y29783706D01*
X66308579Y29808579D01*
X66283706Y29838886D01*
X66265224Y29873463D01*
X66253843Y29910982D01*
X66250000Y29950000D01*
X66250000Y31450000D01*
X66253843Y31489018D01*
X66265224Y31526537D01*
X66283706Y31561114D01*
X66308579Y31591421D01*
X66338886Y31616294D01*
X66373463Y31634776D01*
X66410982Y31646157D01*
X66450000Y31650000D01*
X67450000Y31650000D01*
X67489018Y31646157D01*
X67489018Y31646157D01*
G37*
G04 #@! TD*
D21*
G04 #@! TO.C,JP2*
X66850000Y27600000D03*
D12*
G36*
X67389018Y28546157D02*
X67426537Y28534776D01*
X67461114Y28516294D01*
X67491421Y28491421D01*
X67516294Y28461114D01*
X67534776Y28426537D01*
X67546157Y28389018D01*
X67550000Y28350000D01*
X67550000Y28100000D01*
X67750000Y28100000D01*
X67789018Y28096157D01*
X67826537Y28084776D01*
X67861114Y28066294D01*
X67891421Y28041421D01*
X67916294Y28011114D01*
X67934776Y27976537D01*
X67946157Y27939018D01*
X67950000Y27900000D01*
X67950000Y27300000D01*
X67946157Y27260982D01*
X67934776Y27223463D01*
X67916294Y27188886D01*
X67891421Y27158579D01*
X67861114Y27133706D01*
X67826537Y27115224D01*
X67789018Y27103843D01*
X67750000Y27100000D01*
X67550000Y27100000D01*
X67550000Y26850000D01*
X67546157Y26810982D01*
X67534776Y26773463D01*
X67516294Y26738886D01*
X67491421Y26708579D01*
X67461114Y26683706D01*
X67426537Y26665224D01*
X67389018Y26653843D01*
X67350000Y26650000D01*
X66350000Y26650000D01*
X66310982Y26653843D01*
X66273463Y26665224D01*
X66238886Y26683706D01*
X66208579Y26708579D01*
X66183706Y26738886D01*
X66165224Y26773463D01*
X66153843Y26810982D01*
X66150000Y26850000D01*
X66150000Y28350000D01*
X66153843Y28389018D01*
X66165224Y28426537D01*
X66183706Y28461114D01*
X66208579Y28491421D01*
X66238886Y28516294D01*
X66273463Y28534776D01*
X66310982Y28546157D01*
X66350000Y28550000D01*
X67350000Y28550000D01*
X67389018Y28546157D01*
X67389018Y28546157D01*
G37*
D20*
X68150000Y27600000D03*
G04 #@! TD*
D21*
G04 #@! TO.C,JP3*
X27610000Y34690000D03*
D12*
G36*
X27070982Y33743843D02*
X27033463Y33755224D01*
X26998886Y33773706D01*
X26968579Y33798579D01*
X26943706Y33828886D01*
X26925224Y33863463D01*
X26913843Y33900982D01*
X26910000Y33940000D01*
X26910000Y34190000D01*
X26710000Y34190000D01*
X26670982Y34193843D01*
X26633463Y34205224D01*
X26598886Y34223706D01*
X26568579Y34248579D01*
X26543706Y34278886D01*
X26525224Y34313463D01*
X26513843Y34350982D01*
X26510000Y34390000D01*
X26510000Y34990000D01*
X26513843Y35029018D01*
X26525224Y35066537D01*
X26543706Y35101114D01*
X26568579Y35131421D01*
X26598886Y35156294D01*
X26633463Y35174776D01*
X26670982Y35186157D01*
X26710000Y35190000D01*
X26910000Y35190000D01*
X26910000Y35440000D01*
X26913843Y35479018D01*
X26925224Y35516537D01*
X26943706Y35551114D01*
X26968579Y35581421D01*
X26998886Y35606294D01*
X27033463Y35624776D01*
X27070982Y35636157D01*
X27110000Y35640000D01*
X28110000Y35640000D01*
X28149018Y35636157D01*
X28186537Y35624776D01*
X28221114Y35606294D01*
X28251421Y35581421D01*
X28276294Y35551114D01*
X28294776Y35516537D01*
X28306157Y35479018D01*
X28310000Y35440000D01*
X28310000Y33940000D01*
X28306157Y33900982D01*
X28294776Y33863463D01*
X28276294Y33828886D01*
X28251421Y33798579D01*
X28221114Y33773706D01*
X28186537Y33755224D01*
X28149018Y33743843D01*
X28110000Y33740000D01*
X27110000Y33740000D01*
X27070982Y33743843D01*
X27070982Y33743843D01*
G37*
D20*
X26310000Y34690000D03*
G04 #@! TD*
D22*
G04 #@! TO.C,JP4*
X60900000Y22050000D03*
D21*
X60900000Y20750000D03*
D12*
G36*
X59953843Y21289018D02*
X59965224Y21326537D01*
X59983706Y21361114D01*
X60008579Y21391421D01*
X60038886Y21416294D01*
X60073463Y21434776D01*
X60110982Y21446157D01*
X60150000Y21450000D01*
X60400000Y21450000D01*
X60400000Y21650000D01*
X60403843Y21689018D01*
X60415224Y21726537D01*
X60433706Y21761114D01*
X60458579Y21791421D01*
X60488886Y21816294D01*
X60523463Y21834776D01*
X60560982Y21846157D01*
X60600000Y21850000D01*
X61200000Y21850000D01*
X61239018Y21846157D01*
X61276537Y21834776D01*
X61311114Y21816294D01*
X61341421Y21791421D01*
X61366294Y21761114D01*
X61384776Y21726537D01*
X61396157Y21689018D01*
X61400000Y21650000D01*
X61400000Y21450000D01*
X61650000Y21450000D01*
X61689018Y21446157D01*
X61726537Y21434776D01*
X61761114Y21416294D01*
X61791421Y21391421D01*
X61816294Y21361114D01*
X61834776Y21326537D01*
X61846157Y21289018D01*
X61850000Y21250000D01*
X61850000Y20250000D01*
X61846157Y20210982D01*
X61834776Y20173463D01*
X61816294Y20138886D01*
X61791421Y20108579D01*
X61761114Y20083706D01*
X61726537Y20065224D01*
X61689018Y20053843D01*
X61650000Y20050000D01*
X60150000Y20050000D01*
X60110982Y20053843D01*
X60073463Y20065224D01*
X60038886Y20083706D01*
X60008579Y20108579D01*
X59983706Y20138886D01*
X59965224Y20173463D01*
X59953843Y20210982D01*
X59950000Y20250000D01*
X59950000Y21250000D01*
X59953843Y21289018D01*
X59953843Y21289018D01*
G37*
G04 #@! TD*
D23*
G04 #@! TO.C,M1*
X56980000Y8950000D03*
X43010000Y8950000D03*
X43080000Y31750000D03*
X46280000Y31750000D03*
X53780000Y31750000D03*
X56980000Y31750000D03*
G04 #@! TD*
D24*
G04 #@! TO.C,R1*
X77000000Y50650000D03*
X77000000Y53350000D03*
G04 #@! TD*
G04 #@! TO.C,R2*
X72960000Y45570000D03*
X72960000Y48270000D03*
G04 #@! TD*
G04 #@! TO.C,R3*
X71000000Y48250000D03*
X71000000Y45550000D03*
G04 #@! TD*
G04 #@! TO.C,R4*
X69010000Y45490000D03*
X69010000Y48190000D03*
G04 #@! TD*
D25*
G04 #@! TO.C,R5*
X82530000Y31330000D03*
X79830000Y31330000D03*
G04 #@! TD*
G04 #@! TO.C,R6*
X82550000Y33660000D03*
X79850000Y33660000D03*
G04 #@! TD*
G04 #@! TO.C,R9*
X93620000Y44030000D03*
X96320000Y44030000D03*
G04 #@! TD*
G04 #@! TO.C,R10*
X27610000Y55760000D03*
X24910000Y55760000D03*
G04 #@! TD*
G04 #@! TO.C,R13*
X51350000Y82500000D03*
X48650000Y82500000D03*
G04 #@! TD*
G04 #@! TO.C,R14*
X48650000Y80000000D03*
X51350000Y80000000D03*
G04 #@! TD*
D26*
G04 #@! TO.C,S1*
X76335620Y76924380D03*
D12*
G36*
X74716345Y77129441D02*
X76130559Y78543655D01*
X77954895Y76719319D01*
X76540681Y75305105D01*
X74716345Y77129441D01*
X74716345Y77129441D01*
G37*
D26*
X69844380Y83415620D03*
D12*
G36*
X68225105Y83620681D02*
X69639319Y85034895D01*
X71463655Y83210559D01*
X70049441Y81796345D01*
X68225105Y83620681D01*
X68225105Y83620681D01*
G37*
G04 #@! TD*
D14*
G04 #@! TO.C,S2*
X69807177Y6295494D03*
X67055997Y5099247D03*
D13*
X69793174Y8208581D03*
D12*
G36*
X69918745Y9299100D02*
X70676369Y7556686D01*
X69667603Y7118062D01*
X68909979Y8860476D01*
X69918745Y9299100D01*
X69918745Y9299100D01*
G37*
D13*
X67041994Y7012334D03*
D12*
G36*
X67167565Y8102853D02*
X67925189Y6360439D01*
X66916423Y5921815D01*
X66158799Y7664229D01*
X67167565Y8102853D01*
X67167565Y8102853D01*
G37*
D13*
X65666405Y6414211D03*
D12*
G36*
X65791976Y7504730D02*
X66549600Y5762316D01*
X65540834Y5323692D01*
X64783210Y7066106D01*
X65791976Y7504730D01*
X65791976Y7504730D01*
G37*
D11*
X72217480Y6144038D03*
D12*
G36*
X72620173Y6973398D02*
X73098671Y5872926D01*
X71814787Y5314678D01*
X71336289Y6415150D01*
X72620173Y6973398D01*
X72620173Y6973398D01*
G37*
D11*
X65522942Y3233170D03*
D12*
G36*
X65925635Y4062530D02*
X66404133Y2962058D01*
X65120249Y2403810D01*
X64641751Y3504282D01*
X65925635Y4062530D01*
X65925635Y4062530D01*
G37*
D11*
X64641706Y5259873D03*
D12*
G36*
X65044399Y6089233D02*
X65522897Y4988761D01*
X64239013Y4430513D01*
X63760515Y5530985D01*
X65044399Y6089233D01*
X65044399Y6089233D01*
G37*
D11*
X71336245Y8170741D03*
D12*
G36*
X71738938Y9000101D02*
X72217436Y7899629D01*
X70933552Y7341381D01*
X70455054Y8441853D01*
X71738938Y9000101D01*
X71738938Y9000101D01*
G37*
G04 #@! TD*
D26*
G04 #@! TO.C,S3*
X29355620Y82905620D03*
D12*
G36*
X29560681Y84524895D02*
X30974895Y83110681D01*
X29150559Y81286345D01*
X27736345Y82700559D01*
X29560681Y84524895D01*
X29560681Y84524895D01*
G37*
D26*
X22864380Y76414380D03*
D12*
G36*
X23069441Y78033655D02*
X24483655Y76619441D01*
X22659319Y74795105D01*
X21245105Y76209319D01*
X23069441Y78033655D01*
X23069441Y78033655D01*
G37*
G04 #@! TD*
D27*
G04 #@! TO.C,U2*
X62500000Y11800000D03*
X63450000Y13800000D03*
X61550000Y13800000D03*
G04 #@! TD*
D28*
G04 #@! TO.C,Y1*
X34530000Y23960000D03*
X34530000Y23010000D03*
X34530000Y22060000D03*
G04 #@! TD*
G04 #@! TO.C,Y2*
X10550000Y49880000D03*
X10550000Y48930000D03*
X10550000Y47980000D03*
G04 #@! TD*
D12*
G04 #@! TO.C,D26*
G36*
X59396071Y5498377D02*
X59428781Y5493525D01*
X59460857Y5485491D01*
X59491991Y5474351D01*
X59521884Y5460213D01*
X59550247Y5443213D01*
X59576807Y5423515D01*
X59601308Y5401308D01*
X59623515Y5376807D01*
X59643213Y5350247D01*
X59660213Y5321884D01*
X59674351Y5291991D01*
X59685491Y5260857D01*
X59693525Y5228781D01*
X59698377Y5196071D01*
X59700000Y5163044D01*
X59700000Y4036956D01*
X59698377Y4003929D01*
X59693525Y3971219D01*
X59685491Y3939143D01*
X59674351Y3908009D01*
X59660213Y3878116D01*
X59643213Y3849753D01*
X59623515Y3823193D01*
X59601308Y3798692D01*
X59576807Y3776485D01*
X59550247Y3756787D01*
X59521884Y3739787D01*
X59491991Y3725649D01*
X59460857Y3714509D01*
X59428781Y3706475D01*
X59396071Y3701623D01*
X59363044Y3700000D01*
X58486956Y3700000D01*
X58453929Y3701623D01*
X58421219Y3706475D01*
X58389143Y3714509D01*
X58358009Y3725649D01*
X58328116Y3739787D01*
X58299753Y3756787D01*
X58273193Y3776485D01*
X58248692Y3798692D01*
X58226485Y3823193D01*
X58206787Y3849753D01*
X58189787Y3878116D01*
X58175649Y3908009D01*
X58164509Y3939143D01*
X58156475Y3971219D01*
X58151623Y4003929D01*
X58150000Y4036956D01*
X58150000Y5163044D01*
X58151623Y5196071D01*
X58156475Y5228781D01*
X58164509Y5260857D01*
X58175649Y5291991D01*
X58189787Y5321884D01*
X58206787Y5350247D01*
X58226485Y5376807D01*
X58248692Y5401308D01*
X58273193Y5423515D01*
X58299753Y5443213D01*
X58328116Y5460213D01*
X58358009Y5474351D01*
X58389143Y5485491D01*
X58421219Y5493525D01*
X58453929Y5498377D01*
X58486956Y5500000D01*
X59363044Y5500000D01*
X59396071Y5498377D01*
X59396071Y5498377D01*
G37*
D29*
X58925000Y4600000D03*
D12*
G36*
X57346071Y5498377D02*
X57378781Y5493525D01*
X57410857Y5485491D01*
X57441991Y5474351D01*
X57471884Y5460213D01*
X57500247Y5443213D01*
X57526807Y5423515D01*
X57551308Y5401308D01*
X57573515Y5376807D01*
X57593213Y5350247D01*
X57610213Y5321884D01*
X57624351Y5291991D01*
X57635491Y5260857D01*
X57643525Y5228781D01*
X57648377Y5196071D01*
X57650000Y5163044D01*
X57650000Y4036956D01*
X57648377Y4003929D01*
X57643525Y3971219D01*
X57635491Y3939143D01*
X57624351Y3908009D01*
X57610213Y3878116D01*
X57593213Y3849753D01*
X57573515Y3823193D01*
X57551308Y3798692D01*
X57526807Y3776485D01*
X57500247Y3756787D01*
X57471884Y3739787D01*
X57441991Y3725649D01*
X57410857Y3714509D01*
X57378781Y3706475D01*
X57346071Y3701623D01*
X57313044Y3700000D01*
X56436956Y3700000D01*
X56403929Y3701623D01*
X56371219Y3706475D01*
X56339143Y3714509D01*
X56308009Y3725649D01*
X56278116Y3739787D01*
X56249753Y3756787D01*
X56223193Y3776485D01*
X56198692Y3798692D01*
X56176485Y3823193D01*
X56156787Y3849753D01*
X56139787Y3878116D01*
X56125649Y3908009D01*
X56114509Y3939143D01*
X56106475Y3971219D01*
X56101623Y4003929D01*
X56100000Y4036956D01*
X56100000Y5163044D01*
X56101623Y5196071D01*
X56106475Y5228781D01*
X56114509Y5260857D01*
X56125649Y5291991D01*
X56139787Y5321884D01*
X56156787Y5350247D01*
X56176485Y5376807D01*
X56198692Y5401308D01*
X56223193Y5423515D01*
X56249753Y5443213D01*
X56278116Y5460213D01*
X56308009Y5474351D01*
X56339143Y5485491D01*
X56371219Y5493525D01*
X56403929Y5498377D01*
X56436956Y5500000D01*
X57313044Y5500000D01*
X57346071Y5498377D01*
X57346071Y5498377D01*
G37*
D29*
X56875000Y4600000D03*
G04 #@! TD*
D30*
G04 #@! TO.C,J5*
X51300000Y4460000D03*
X50650000Y4460000D03*
X50000000Y4460000D03*
X49350000Y4460000D03*
X48700000Y4460000D03*
D31*
X52462500Y4100000D03*
X47537500Y4100000D03*
D32*
X52910000Y1800000D03*
X47090000Y1800000D03*
D33*
X50840000Y1800000D03*
X49160000Y1800000D03*
G04 #@! TD*
D20*
G04 #@! TO.C,JP5*
X48700000Y73500000D03*
X50000000Y73500000D03*
X51300000Y73500000D03*
G04 #@! TD*
G04 #@! TO.C,JP6*
X51310000Y55790000D03*
X50010000Y55790000D03*
X48710000Y55790000D03*
G04 #@! TD*
G04 #@! TO.C,JP7*
X51300000Y77000000D03*
X50000000Y77000000D03*
X48700000Y77000000D03*
G04 #@! TD*
D34*
G04 #@! TO.C,J1*
X15000000Y69000000D03*
G04 #@! TD*
G04 #@! TO.C,J2*
X14000000Y62000000D03*
G04 #@! TD*
G04 #@! TO.C,J3*
X85000000Y69000000D03*
G04 #@! TD*
G04 #@! TO.C,J4*
X86000000Y62000000D03*
G04 #@! TD*
G04 #@! TO.C,J13*
X25000000Y19000000D03*
G04 #@! TD*
G04 #@! TO.C,J14*
X75000000Y19000000D03*
G04 #@! TD*
D20*
G04 #@! TO.C,JP8*
X50770000Y52170000D03*
X49470000Y52170000D03*
G04 #@! TD*
G04 #@! TO.C,JP9*
X49610000Y47740000D03*
X50910000Y47740000D03*
G04 #@! TD*
D34*
G04 #@! TO.C,J15*
X15000000Y40000000D03*
D35*
X17000000Y40000000D03*
X19000000Y40000000D03*
X21000000Y40000000D03*
X23000000Y40000000D03*
X25000000Y40000000D03*
X27000000Y40000000D03*
X29000000Y40000000D03*
X31000000Y40000000D03*
X33000000Y40000000D03*
X35000000Y40000000D03*
X37000000Y40000000D03*
X39000000Y40000000D03*
X41000000Y40000000D03*
X43000000Y40000000D03*
X45000000Y40000000D03*
X47000000Y40000000D03*
X49000000Y40000000D03*
X51000000Y40000000D03*
X53000000Y40000000D03*
G04 #@! TD*
D34*
G04 #@! TO.C,J16*
X63000000Y38000000D03*
D35*
X65000000Y38000000D03*
X67000000Y38000000D03*
X69000000Y38000000D03*
X71000000Y38000000D03*
X73000000Y38000000D03*
X75000000Y38000000D03*
X77000000Y38000000D03*
X79000000Y38000000D03*
X81000000Y38000000D03*
X83000000Y38000000D03*
X85000000Y38000000D03*
G04 #@! TD*
D36*
G04 #@! TO.C,Y3*
X34580000Y27200000D03*
X34580000Y18700000D03*
G04 #@! TD*
G04 #@! TO.C,Y4*
X10500000Y53270000D03*
X10500000Y44770000D03*
G04 #@! TD*
D37*
G04 #@! TO.C,Q1*
X86560000Y32410000D03*
X84560000Y33360000D03*
X84560000Y31460000D03*
G04 #@! TD*
G04 #@! TO.C,Q2*
X77800000Y33470000D03*
X77800000Y31570000D03*
X75800000Y32520000D03*
G04 #@! TD*
M02*
