G04 #@! TF.GenerationSoftware,KiCad,Pcbnew,(5.0.0)*
G04 #@! TF.CreationDate,2018-09-08T19:21:57+02:00*
G04 #@! TF.ProjectId,hal9k-badge,68616C396B2D62616467652E6B696361,rev?*
G04 #@! TF.SameCoordinates,PX5f5e100PY8f0d180*
G04 #@! TF.FileFunction,Soldermask,Top*
G04 #@! TF.FilePolarity,Negative*
%FSLAX46Y46*%
G04 Gerber Fmt 4.6, Leading zero omitted, Abs format (unit mm)*
G04 Created by KiCad (PCBNEW (5.0.0)) date 09/08/18 19:21:57*
%MOMM*%
%LPD*%
G01*
G04 APERTURE LIST*
%ADD10C,0.010000*%
%ADD11C,0.100000*%
%ADD12R,1.900000X1.000000*%
%ADD13C,1.400000*%
%ADD14R,1.900000X1.400000*%
%ADD15R,1.400000X1.900000*%
%ADD16C,1.650000*%
%ADD17C,1.300000*%
%ADD18R,1.650000X1.900000*%
%ADD19O,2.100000X2.100000*%
%ADD20R,2.100000X2.100000*%
%ADD21R,1.900000X1.700000*%
%ADD22R,2.000000X0.950000*%
%ADD23R,0.950000X2.000000*%
%ADD24C,1.350000*%
%ADD25R,1.500000X2.900000*%
%ADD26R,1.750000X1.750000*%
%ADD27O,1.750000X1.750000*%
G04 APERTURE END LIST*
D10*
G04 #@! TO.C,*
G36*
X81370630Y70111750D02*
X81320290Y70014403D01*
X81297106Y69972284D01*
X81244935Y69879267D01*
X81166207Y69739637D01*
X81063351Y69557680D01*
X80938794Y69337683D01*
X80794966Y69083932D01*
X80634296Y68800711D01*
X80459211Y68492309D01*
X80272142Y68163009D01*
X80075517Y67817099D01*
X79966395Y67625215D01*
X79766906Y67274104D01*
X79576730Y66938646D01*
X79398182Y66622966D01*
X79233575Y66331189D01*
X79085222Y66067440D01*
X78955438Y65835844D01*
X78846535Y65640526D01*
X78760828Y65485611D01*
X78700631Y65375225D01*
X78668256Y65313492D01*
X78663138Y65301625D01*
X78678032Y65269755D01*
X78721227Y65186036D01*
X78790628Y65054369D01*
X78884137Y64878655D01*
X78999657Y64662798D01*
X79135091Y64410697D01*
X79288342Y64126254D01*
X79457314Y63813372D01*
X79639909Y63475952D01*
X79834031Y63117895D01*
X80037582Y62743102D01*
X80095593Y62636405D01*
X80301245Y62258148D01*
X80498059Y61895951D01*
X80683944Y61553673D01*
X80856807Y61235177D01*
X81014556Y60944323D01*
X81155100Y60684972D01*
X81276346Y60460985D01*
X81376202Y60276223D01*
X81452577Y60134547D01*
X81503378Y60039817D01*
X81526513Y59995895D01*
X81527750Y59993218D01*
X81496788Y59991712D01*
X81407054Y59990278D01*
X81263278Y59988934D01*
X81070187Y59987696D01*
X80832510Y59986584D01*
X80554975Y59985614D01*
X80242312Y59984805D01*
X79899248Y59984176D01*
X79530511Y59983743D01*
X79140832Y59983524D01*
X78961943Y59983500D01*
X76396137Y59983500D01*
X76009132Y60769313D01*
X75622126Y61555125D01*
X75622188Y65118880D01*
X75622250Y68682634D01*
X75979109Y69397192D01*
X76335969Y70111751D01*
X78853299Y70111751D01*
X81370630Y70111750D01*
X81370630Y70111750D01*
G37*
X81370630Y70111750D02*
X81320290Y70014403D01*
X81297106Y69972284D01*
X81244935Y69879267D01*
X81166207Y69739637D01*
X81063351Y69557680D01*
X80938794Y69337683D01*
X80794966Y69083932D01*
X80634296Y68800711D01*
X80459211Y68492309D01*
X80272142Y68163009D01*
X80075517Y67817099D01*
X79966395Y67625215D01*
X79766906Y67274104D01*
X79576730Y66938646D01*
X79398182Y66622966D01*
X79233575Y66331189D01*
X79085222Y66067440D01*
X78955438Y65835844D01*
X78846535Y65640526D01*
X78760828Y65485611D01*
X78700631Y65375225D01*
X78668256Y65313492D01*
X78663138Y65301625D01*
X78678032Y65269755D01*
X78721227Y65186036D01*
X78790628Y65054369D01*
X78884137Y64878655D01*
X78999657Y64662798D01*
X79135091Y64410697D01*
X79288342Y64126254D01*
X79457314Y63813372D01*
X79639909Y63475952D01*
X79834031Y63117895D01*
X80037582Y62743102D01*
X80095593Y62636405D01*
X80301245Y62258148D01*
X80498059Y61895951D01*
X80683944Y61553673D01*
X80856807Y61235177D01*
X81014556Y60944323D01*
X81155100Y60684972D01*
X81276346Y60460985D01*
X81376202Y60276223D01*
X81452577Y60134547D01*
X81503378Y60039817D01*
X81526513Y59995895D01*
X81527750Y59993218D01*
X81496788Y59991712D01*
X81407054Y59990278D01*
X81263278Y59988934D01*
X81070187Y59987696D01*
X80832510Y59986584D01*
X80554975Y59985614D01*
X80242312Y59984805D01*
X79899248Y59984176D01*
X79530511Y59983743D01*
X79140832Y59983524D01*
X78961943Y59983500D01*
X76396137Y59983500D01*
X76009132Y60769313D01*
X75622126Y61555125D01*
X75622188Y65118880D01*
X75622250Y68682634D01*
X75979109Y69397192D01*
X76335969Y70111751D01*
X78853299Y70111751D01*
X81370630Y70111750D01*
G36*
X74352250Y59983500D02*
X70002500Y59983500D01*
X70002500Y70111750D01*
X74352250Y70111750D01*
X74352250Y59983500D01*
X74352250Y59983500D01*
G37*
X74352250Y59983500D02*
X70002500Y59983500D01*
X70002500Y70111750D01*
X74352250Y70111750D01*
X74352250Y59983500D01*
D11*
G36*
X63013815Y70095811D02*
X63458773Y70095567D01*
X63848513Y70095071D01*
X64187178Y70094247D01*
X64478908Y70093022D01*
X64727845Y70091321D01*
X64938131Y70089071D01*
X65113907Y70086196D01*
X65259314Y70082623D01*
X65378494Y70078277D01*
X65475588Y70073084D01*
X65554737Y70066971D01*
X65620083Y70059862D01*
X65675768Y70051683D01*
X65725932Y70042361D01*
X65747501Y70037839D01*
X66169111Y69918695D01*
X66548241Y69752425D01*
X66884238Y69539679D01*
X67176447Y69281111D01*
X67424217Y68977370D01*
X67626893Y68629110D01*
X67783823Y68236980D01*
X67869639Y67921084D01*
X67879291Y67872768D01*
X67887719Y67817020D01*
X67895001Y67749469D01*
X67901222Y67665748D01*
X67906460Y67561487D01*
X67910799Y67432318D01*
X67914319Y67273870D01*
X67917101Y67081776D01*
X67919228Y66851665D01*
X67920780Y66579170D01*
X67921839Y66259921D01*
X67922487Y65889549D01*
X67922804Y65463685D01*
X67922875Y65063500D01*
X67922839Y64578027D01*
X67922582Y64151480D01*
X67921876Y63779287D01*
X67920492Y63456875D01*
X67918203Y63179670D01*
X67914783Y62943100D01*
X67910002Y62742592D01*
X67903634Y62573571D01*
X67895451Y62431466D01*
X67885226Y62311702D01*
X67872731Y62209708D01*
X67857738Y62120910D01*
X67840019Y62040734D01*
X67819348Y61964608D01*
X67795497Y61887959D01*
X67768238Y61806213D01*
X67759505Y61780435D01*
X67601411Y61408958D01*
X67393076Y61074009D01*
X67138110Y60778461D01*
X66840122Y60525186D01*
X66502720Y60317060D01*
X66129513Y60156955D01*
X65724111Y60047745D01*
X65545955Y60017862D01*
X65474761Y60012490D01*
X65345957Y60007634D01*
X65165265Y60003293D01*
X64938412Y59999467D01*
X64671121Y59996155D01*
X64369116Y59993355D01*
X64038121Y59991069D01*
X63683862Y59989293D01*
X63312061Y59988029D01*
X62928443Y59987275D01*
X62538732Y59987030D01*
X62148653Y59987295D01*
X61763930Y59988067D01*
X61390287Y59989346D01*
X61033448Y59991132D01*
X60699137Y59993424D01*
X60393080Y59996220D01*
X60120998Y59999522D01*
X59888619Y60003326D01*
X59701664Y60007634D01*
X59565859Y60012444D01*
X59486927Y60017755D01*
X59480065Y60018636D01*
X59060519Y60109225D01*
X58675118Y60252180D01*
X58326032Y60445003D01*
X58015429Y60685200D01*
X57745478Y60970273D01*
X57518347Y61297728D01*
X57336204Y61665068D01*
X57201219Y62069797D01*
X57115559Y62509420D01*
X57089966Y62769563D01*
X57070672Y63063250D01*
X61715750Y63063250D01*
X61715750Y61444000D01*
X63144500Y61444000D01*
X63144500Y64492000D01*
X57076144Y64492000D01*
X57087568Y66135063D01*
X57098993Y67778125D01*
X57185037Y68088722D01*
X57327252Y68495753D01*
X57407886Y68651250D01*
X61715750Y68651250D01*
X61715750Y65952500D01*
X63144500Y65952500D01*
X63144500Y68651250D01*
X61715750Y68651250D01*
X57407886Y68651250D01*
X57515988Y68859717D01*
X57750308Y69179741D01*
X58029278Y69454951D01*
X58351961Y69684472D01*
X58717423Y69867432D01*
X59124726Y70002955D01*
X59271498Y70037839D01*
X59320540Y70047693D01*
X59373264Y70056370D01*
X59433813Y70063944D01*
X59506328Y70070490D01*
X59594949Y70076082D01*
X59703819Y70080794D01*
X59837079Y70084701D01*
X59998871Y70087877D01*
X60193335Y70090395D01*
X60424613Y70092331D01*
X60696847Y70093758D01*
X61014178Y70094750D01*
X61380747Y70095383D01*
X61800696Y70095729D01*
X62278166Y70095864D01*
X62509500Y70095875D01*
X63013815Y70095811D01*
X63013815Y70095811D01*
G37*
D10*
G36*
X49746000Y61444000D02*
X51143000Y61444000D01*
X51143000Y64333250D01*
X55429250Y64333250D01*
X55429250Y59983500D01*
X45396250Y59983500D01*
X45396250Y70111750D01*
X49746000Y70111750D01*
X49746000Y61444000D01*
X49746000Y61444000D01*
G37*
X49746000Y61444000D02*
X51143000Y61444000D01*
X51143000Y64333250D01*
X55429250Y64333250D01*
X55429250Y59983500D01*
X45396250Y59983500D01*
X45396250Y70111750D01*
X49746000Y70111750D01*
X49746000Y61444000D01*
G36*
X43173750Y70111750D02*
X43173750Y59983500D01*
X38824000Y59983500D01*
X38824000Y68651250D01*
X37395250Y68651250D01*
X37395250Y63606876D01*
X36514187Y61795741D01*
X35633125Y59984606D01*
X32894687Y59984053D01*
X32483770Y59984150D01*
X32091540Y59984594D01*
X31722576Y59985358D01*
X31381454Y59986416D01*
X31072751Y59987744D01*
X30801044Y59989316D01*
X30570911Y59991105D01*
X30386927Y59993086D01*
X30253671Y59995234D01*
X30175719Y59997523D01*
X30156250Y59999415D01*
X30170219Y60029028D01*
X30211176Y60112565D01*
X30277693Y60247165D01*
X30368343Y60429963D01*
X30481700Y60658098D01*
X30616336Y60928706D01*
X30770824Y61238925D01*
X30943738Y61585890D01*
X31133650Y61966741D01*
X31339134Y62378612D01*
X31558762Y62818642D01*
X31791107Y63283968D01*
X32034743Y63771727D01*
X32288242Y64279055D01*
X32550178Y64803090D01*
X32680394Y65063540D01*
X35204539Y70111751D01*
X39189144Y70111751D01*
X43173750Y70111750D01*
X43173750Y70111750D01*
G37*
X43173750Y70111750D02*
X43173750Y59983500D01*
X38824000Y59983500D01*
X38824000Y68651250D01*
X37395250Y68651250D01*
X37395250Y63606876D01*
X36514187Y61795741D01*
X35633125Y59984606D01*
X32894687Y59984053D01*
X32483770Y59984150D01*
X32091540Y59984594D01*
X31722576Y59985358D01*
X31381454Y59986416D01*
X31072751Y59987744D01*
X30801044Y59989316D01*
X30570911Y59991105D01*
X30386927Y59993086D01*
X30253671Y59995234D01*
X30175719Y59997523D01*
X30156250Y59999415D01*
X30170219Y60029028D01*
X30211176Y60112565D01*
X30277693Y60247165D01*
X30368343Y60429963D01*
X30481700Y60658098D01*
X30616336Y60928706D01*
X30770824Y61238925D01*
X30943738Y61585890D01*
X31133650Y61966741D01*
X31339134Y62378612D01*
X31558762Y62818642D01*
X31791107Y63283968D01*
X32034743Y63771727D01*
X32288242Y64279055D01*
X32550178Y64803090D01*
X32680394Y65063540D01*
X35204539Y70111751D01*
X39189144Y70111751D01*
X43173750Y70111750D01*
G36*
X22853750Y65825500D02*
X24250750Y65825500D01*
X24250750Y70111750D01*
X28600500Y70111750D01*
X28600500Y59983500D01*
X24250750Y59983500D01*
X24250750Y64333250D01*
X22853750Y64333250D01*
X22853750Y59983500D01*
X18472250Y59983500D01*
X18472250Y70111750D01*
X22853750Y70111750D01*
X22853750Y65825500D01*
X22853750Y65825500D01*
G37*
X22853750Y65825500D02*
X24250750Y65825500D01*
X24250750Y70111750D01*
X28600500Y70111750D01*
X28600500Y59983500D01*
X24250750Y59983500D01*
X24250750Y64333250D01*
X22853750Y64333250D01*
X22853750Y59983500D01*
X18472250Y59983500D01*
X18472250Y70111750D01*
X22853750Y70111750D01*
X22853750Y65825500D01*
G04 #@! TD*
D12*
G04 #@! TO.C,U5*
X55300000Y27445000D03*
X55300000Y26175000D03*
X55300000Y24905000D03*
X55300000Y23635000D03*
X55300000Y22365000D03*
X55300000Y21095000D03*
X55300000Y19825000D03*
X55300000Y18555000D03*
X60700000Y18555000D03*
X60700000Y19825000D03*
X60700000Y21095000D03*
X60700000Y22365000D03*
X60700000Y23635000D03*
X60700000Y24905000D03*
X60700000Y26175000D03*
X60700000Y27445000D03*
G04 #@! TD*
D13*
G04 #@! TO.C,D7*
X95646250Y40305551D03*
D11*
G36*
X96076520Y39206748D02*
X94724224Y39569095D01*
X95215980Y41404354D01*
X96568276Y41042007D01*
X96076520Y39206748D01*
X96076520Y39206748D01*
G37*
D13*
X92555287Y41133772D03*
D11*
G36*
X92985557Y40034969D02*
X91633261Y40397316D01*
X92125017Y42232575D01*
X93477313Y41870228D01*
X92985557Y40034969D01*
X92985557Y40034969D01*
G37*
D13*
X94378037Y35572514D03*
D11*
G36*
X94808307Y34473711D02*
X93456011Y34836058D01*
X93947767Y36671317D01*
X95300063Y36308970D01*
X94808307Y34473711D01*
X94808307Y34473711D01*
G37*
D13*
X91287074Y36400735D03*
D11*
G36*
X91717344Y35301932D02*
X90365048Y35664279D01*
X90856804Y37499538D01*
X92209100Y37137191D01*
X91717344Y35301932D01*
X91717344Y35301932D01*
G37*
G04 #@! TD*
D13*
G04 #@! TO.C,D8*
X91581784Y28821762D03*
D11*
G36*
X91713002Y27649038D02*
X90500566Y28349038D01*
X91450566Y29994486D01*
X92663002Y29294486D01*
X91713002Y27649038D01*
X91713002Y27649038D01*
G37*
D13*
X88810502Y30421762D03*
D11*
G36*
X88941720Y29249038D02*
X87729284Y29949038D01*
X88679284Y31594486D01*
X89891720Y30894486D01*
X88941720Y29249038D01*
X88941720Y29249038D01*
G37*
D13*
X89131784Y24578238D03*
D11*
G36*
X89263002Y23405514D02*
X88050566Y24105514D01*
X89000566Y25750962D01*
X90213002Y25050962D01*
X89263002Y23405514D01*
X89263002Y23405514D01*
G37*
D13*
X86360502Y26178238D03*
D11*
G36*
X86491720Y25005514D02*
X85279284Y25705514D01*
X86229284Y27350962D01*
X87441720Y26650962D01*
X86491720Y25005514D01*
X86491720Y25005514D01*
G37*
G04 #@! TD*
D13*
G04 #@! TO.C,D9*
X84683587Y18781236D03*
D11*
G36*
X84506810Y17614510D02*
X83516861Y18604459D01*
X84860364Y19947962D01*
X85850313Y18958013D01*
X84506810Y17614510D01*
X84506810Y17614510D01*
G37*
D13*
X82420846Y21043977D03*
D11*
G36*
X82244069Y19877251D02*
X81254120Y20867200D01*
X82597623Y22210703D01*
X83587572Y21220754D01*
X82244069Y19877251D01*
X82244069Y19877251D01*
G37*
D13*
X81218764Y15316413D03*
D11*
G36*
X81041987Y14149687D02*
X80052038Y15139636D01*
X81395541Y16483139D01*
X82385490Y15493190D01*
X81041987Y14149687D01*
X81041987Y14149687D01*
G37*
D13*
X78956023Y17579154D03*
D11*
G36*
X78779246Y16412428D02*
X77789297Y17402377D01*
X79132800Y18745880D01*
X80122749Y17755931D01*
X78779246Y16412428D01*
X78779246Y16412428D01*
G37*
G04 #@! TD*
D13*
G04 #@! TO.C,D10*
X75421762Y10868216D03*
D11*
G36*
X74949038Y9786998D02*
X74249038Y10999434D01*
X75894486Y11949434D01*
X76594486Y10736998D01*
X74949038Y9786998D01*
X74949038Y9786998D01*
G37*
D13*
X73821762Y13639498D03*
D11*
G36*
X73349038Y12558280D02*
X72649038Y13770716D01*
X74294486Y14720716D01*
X74994486Y13508280D01*
X73349038Y12558280D01*
X73349038Y12558280D01*
G37*
D13*
X71178238Y8418216D03*
D11*
G36*
X70705514Y7336998D02*
X70005514Y8549434D01*
X71650962Y9499434D01*
X72350962Y8286998D01*
X70705514Y7336998D01*
X70705514Y7336998D01*
G37*
D13*
X69578238Y11189498D03*
D11*
G36*
X69105514Y10108280D02*
X68405514Y11320716D01*
X70050962Y12270716D01*
X70750962Y11058280D01*
X69105514Y10108280D01*
X69105514Y10108280D01*
G37*
G04 #@! TD*
D13*
G04 #@! TO.C,D11*
X64427486Y5621963D03*
D11*
G36*
X63691030Y4699937D02*
X63328683Y6052233D01*
X65163942Y6543989D01*
X65526289Y5191693D01*
X63691030Y4699937D01*
X63691030Y4699937D01*
G37*
D13*
X63599265Y8712926D03*
D11*
G36*
X62862809Y7790900D02*
X62500462Y9143196D01*
X64335721Y9634952D01*
X64698068Y8282656D01*
X62862809Y7790900D01*
X62862809Y7790900D01*
G37*
D13*
X59694449Y4353750D03*
D11*
G36*
X58957993Y3431724D02*
X58595646Y4784020D01*
X60430905Y5275776D01*
X60793252Y3923480D01*
X58957993Y3431724D01*
X58957993Y3431724D01*
G37*
D13*
X58866228Y7444713D03*
D11*
G36*
X58129772Y6522687D02*
X57767425Y7874983D01*
X59602684Y8366739D01*
X59965031Y7014443D01*
X58129772Y6522687D01*
X58129772Y6522687D01*
G37*
G04 #@! TD*
D14*
G04 #@! TO.C,D12*
X52450000Y3400000D03*
X52450000Y6600000D03*
X47550000Y3400000D03*
X47550000Y6600000D03*
G04 #@! TD*
D13*
G04 #@! TO.C,D13*
X40305551Y4353750D03*
D11*
G36*
X39206748Y3923480D02*
X39569095Y5275776D01*
X41404354Y4784020D01*
X41042007Y3431724D01*
X39206748Y3923480D01*
X39206748Y3923480D01*
G37*
D13*
X41133772Y7444713D03*
D11*
G36*
X40034969Y7014443D02*
X40397316Y8366739D01*
X42232575Y7874983D01*
X41870228Y6522687D01*
X40034969Y7014443D01*
X40034969Y7014443D01*
G37*
D13*
X35572514Y5621963D03*
D11*
G36*
X34473711Y5191693D02*
X34836058Y6543989D01*
X36671317Y6052233D01*
X36308970Y4699937D01*
X34473711Y5191693D01*
X34473711Y5191693D01*
G37*
D13*
X36400735Y8712926D03*
D11*
G36*
X35301932Y8282656D02*
X35664279Y9634952D01*
X37499538Y9143196D01*
X37137191Y7790900D01*
X35301932Y8282656D01*
X35301932Y8282656D01*
G37*
G04 #@! TD*
D13*
G04 #@! TO.C,D14*
X28821762Y8418216D03*
D11*
G36*
X27649038Y8286998D02*
X28349038Y9499434D01*
X29994486Y8549434D01*
X29294486Y7336998D01*
X27649038Y8286998D01*
X27649038Y8286998D01*
G37*
D13*
X30421762Y11189498D03*
D11*
G36*
X29249038Y11058280D02*
X29949038Y12270716D01*
X31594486Y11320716D01*
X30894486Y10108280D01*
X29249038Y11058280D01*
X29249038Y11058280D01*
G37*
D13*
X24578238Y10868216D03*
D11*
G36*
X23405514Y10736998D02*
X24105514Y11949434D01*
X25750962Y10999434D01*
X25050962Y9786998D01*
X23405514Y10736998D01*
X23405514Y10736998D01*
G37*
D13*
X26178238Y13639498D03*
D11*
G36*
X25005514Y13508280D02*
X25705514Y14720716D01*
X27350962Y13770716D01*
X26650962Y12558280D01*
X25005514Y13508280D01*
X25005514Y13508280D01*
G37*
G04 #@! TD*
D13*
G04 #@! TO.C,D15*
X18781236Y15316413D03*
D11*
G36*
X17614510Y15493190D02*
X18604459Y16483139D01*
X19947962Y15139636D01*
X18958013Y14149687D01*
X17614510Y15493190D01*
X17614510Y15493190D01*
G37*
D13*
X21043977Y17579154D03*
D11*
G36*
X19877251Y17755931D02*
X20867200Y18745880D01*
X22210703Y17402377D01*
X21220754Y16412428D01*
X19877251Y17755931D01*
X19877251Y17755931D01*
G37*
D13*
X15316413Y18781236D03*
D11*
G36*
X14149687Y18958013D02*
X15139636Y19947962D01*
X16483139Y18604459D01*
X15493190Y17614510D01*
X14149687Y18958013D01*
X14149687Y18958013D01*
G37*
D13*
X17579154Y21043977D03*
D11*
G36*
X16412428Y21220754D02*
X17402377Y22210703D01*
X18745880Y20867200D01*
X17755931Y19877251D01*
X16412428Y21220754D01*
X16412428Y21220754D01*
G37*
G04 #@! TD*
D13*
G04 #@! TO.C,D16*
X10868216Y24578238D03*
D11*
G36*
X9786998Y25050962D02*
X10999434Y25750962D01*
X11949434Y24105514D01*
X10736998Y23405514D01*
X9786998Y25050962D01*
X9786998Y25050962D01*
G37*
D13*
X13639498Y26178238D03*
D11*
G36*
X12558280Y26650962D02*
X13770716Y27350962D01*
X14720716Y25705514D01*
X13508280Y25005514D01*
X12558280Y26650962D01*
X12558280Y26650962D01*
G37*
D13*
X8418216Y28821762D03*
D11*
G36*
X7336998Y29294486D02*
X8549434Y29994486D01*
X9499434Y28349038D01*
X8286998Y27649038D01*
X7336998Y29294486D01*
X7336998Y29294486D01*
G37*
D13*
X11189498Y30421762D03*
D11*
G36*
X10108280Y30894486D02*
X11320716Y31594486D01*
X12270716Y29949038D01*
X11058280Y29249038D01*
X10108280Y30894486D01*
X10108280Y30894486D01*
G37*
G04 #@! TD*
D13*
G04 #@! TO.C,D17*
X5621963Y35572514D03*
D11*
G36*
X4699937Y36308970D02*
X6052233Y36671317D01*
X6543989Y34836058D01*
X5191693Y34473711D01*
X4699937Y36308970D01*
X4699937Y36308970D01*
G37*
D13*
X8712926Y36400735D03*
D11*
G36*
X7790900Y37137191D02*
X9143196Y37499538D01*
X9634952Y35664279D01*
X8282656Y35301932D01*
X7790900Y37137191D01*
X7790900Y37137191D01*
G37*
D13*
X4353750Y40305551D03*
D11*
G36*
X3431724Y41042007D02*
X4784020Y41404354D01*
X5275776Y39569095D01*
X3923480Y39206748D01*
X3431724Y41042007D01*
X3431724Y41042007D01*
G37*
D13*
X7444713Y41133772D03*
D11*
G36*
X6522687Y41870228D02*
X7874983Y42232575D01*
X8366739Y40397316D01*
X7014443Y40034969D01*
X6522687Y41870228D01*
X6522687Y41870228D01*
G37*
G04 #@! TD*
D15*
G04 #@! TO.C,D18*
X3400000Y47550000D03*
X6600000Y47550000D03*
X3400000Y52450000D03*
X6600000Y52450000D03*
G04 #@! TD*
D13*
G04 #@! TO.C,D19*
X4353750Y59694449D03*
D11*
G36*
X3923480Y60793252D02*
X5275776Y60430905D01*
X4784020Y58595646D01*
X3431724Y58957993D01*
X3923480Y60793252D01*
X3923480Y60793252D01*
G37*
D13*
X7444713Y58866228D03*
D11*
G36*
X7014443Y59965031D02*
X8366739Y59602684D01*
X7874983Y57767425D01*
X6522687Y58129772D01*
X7014443Y59965031D01*
X7014443Y59965031D01*
G37*
D13*
X5621963Y64427486D03*
D11*
G36*
X5191693Y65526289D02*
X6543989Y65163942D01*
X6052233Y63328683D01*
X4699937Y63691030D01*
X5191693Y65526289D01*
X5191693Y65526289D01*
G37*
D13*
X8712926Y63599265D03*
D11*
G36*
X8282656Y64698068D02*
X9634952Y64335721D01*
X9143196Y62500462D01*
X7790900Y62862809D01*
X8282656Y64698068D01*
X8282656Y64698068D01*
G37*
G04 #@! TD*
D13*
G04 #@! TO.C,D20*
X8418216Y71178238D03*
D11*
G36*
X8286998Y72350962D02*
X9499434Y71650962D01*
X8549434Y70005514D01*
X7336998Y70705514D01*
X8286998Y72350962D01*
X8286998Y72350962D01*
G37*
D13*
X11189498Y69578238D03*
D11*
G36*
X11058280Y70750962D02*
X12270716Y70050962D01*
X11320716Y68405514D01*
X10108280Y69105514D01*
X11058280Y70750962D01*
X11058280Y70750962D01*
G37*
D13*
X10868216Y75421762D03*
D11*
G36*
X10736998Y76594486D02*
X11949434Y75894486D01*
X10999434Y74249038D01*
X9786998Y74949038D01*
X10736998Y76594486D01*
X10736998Y76594486D01*
G37*
D13*
X13639498Y73821762D03*
D11*
G36*
X13508280Y74994486D02*
X14720716Y74294486D01*
X13770716Y72649038D01*
X12558280Y73349038D01*
X13508280Y74994486D01*
X13508280Y74994486D01*
G37*
G04 #@! TD*
D13*
G04 #@! TO.C,D21*
X15316413Y81218764D03*
D11*
G36*
X15493190Y82385490D02*
X16483139Y81395541D01*
X15139636Y80052038D01*
X14149687Y81041987D01*
X15493190Y82385490D01*
X15493190Y82385490D01*
G37*
D13*
X17579154Y78956023D03*
D11*
G36*
X17755931Y80122749D02*
X18745880Y79132800D01*
X17402377Y77789297D01*
X16412428Y78779246D01*
X17755931Y80122749D01*
X17755931Y80122749D01*
G37*
D13*
X18781236Y84683587D03*
D11*
G36*
X18958013Y85850313D02*
X19947962Y84860364D01*
X18604459Y83516861D01*
X17614510Y84506810D01*
X18958013Y85850313D01*
X18958013Y85850313D01*
G37*
D13*
X21043977Y82420846D03*
D11*
G36*
X21220754Y83587572D02*
X22210703Y82597623D01*
X20867200Y81254120D01*
X19877251Y82244069D01*
X21220754Y83587572D01*
X21220754Y83587572D01*
G37*
G04 #@! TD*
D13*
G04 #@! TO.C,D22*
X24578238Y89131784D03*
D11*
G36*
X25050962Y90213002D02*
X25750962Y89000566D01*
X24105514Y88050566D01*
X23405514Y89263002D01*
X25050962Y90213002D01*
X25050962Y90213002D01*
G37*
D13*
X26178238Y86360502D03*
D11*
G36*
X26650962Y87441720D02*
X27350962Y86229284D01*
X25705514Y85279284D01*
X25005514Y86491720D01*
X26650962Y87441720D01*
X26650962Y87441720D01*
G37*
D13*
X28821762Y91581784D03*
D11*
G36*
X29294486Y92663002D02*
X29994486Y91450566D01*
X28349038Y90500566D01*
X27649038Y91713002D01*
X29294486Y92663002D01*
X29294486Y92663002D01*
G37*
D13*
X30421762Y88810502D03*
D11*
G36*
X30894486Y89891720D02*
X31594486Y88679284D01*
X29949038Y87729284D01*
X29249038Y88941720D01*
X30894486Y89891720D01*
X30894486Y89891720D01*
G37*
G04 #@! TD*
D13*
G04 #@! TO.C,D23*
X35572514Y94378037D03*
D11*
G36*
X36308970Y95300063D02*
X36671317Y93947767D01*
X34836058Y93456011D01*
X34473711Y94808307D01*
X36308970Y95300063D01*
X36308970Y95300063D01*
G37*
D13*
X36400735Y91287074D03*
D11*
G36*
X37137191Y92209100D02*
X37499538Y90856804D01*
X35664279Y90365048D01*
X35301932Y91717344D01*
X37137191Y92209100D01*
X37137191Y92209100D01*
G37*
D13*
X40305551Y95646250D03*
D11*
G36*
X41042007Y96568276D02*
X41404354Y95215980D01*
X39569095Y94724224D01*
X39206748Y96076520D01*
X41042007Y96568276D01*
X41042007Y96568276D01*
G37*
D13*
X41133772Y92555287D03*
D11*
G36*
X41870228Y93477313D02*
X42232575Y92125017D01*
X40397316Y91633261D01*
X40034969Y92985557D01*
X41870228Y93477313D01*
X41870228Y93477313D01*
G37*
G04 #@! TD*
D14*
G04 #@! TO.C,D24*
X47550000Y96600000D03*
X47550000Y93400000D03*
X52450000Y96600000D03*
X52450000Y93400000D03*
G04 #@! TD*
D13*
G04 #@! TO.C,D1*
X59694449Y95646250D03*
D11*
G36*
X60793252Y96076520D02*
X60430905Y94724224D01*
X58595646Y95215980D01*
X58957993Y96568276D01*
X60793252Y96076520D01*
X60793252Y96076520D01*
G37*
D13*
X58866228Y92555287D03*
D11*
G36*
X59965031Y92985557D02*
X59602684Y91633261D01*
X57767425Y92125017D01*
X58129772Y93477313D01*
X59965031Y92985557D01*
X59965031Y92985557D01*
G37*
D13*
X64427486Y94378037D03*
D11*
G36*
X65526289Y94808307D02*
X65163942Y93456011D01*
X63328683Y93947767D01*
X63691030Y95300063D01*
X65526289Y94808307D01*
X65526289Y94808307D01*
G37*
D13*
X63599265Y91287074D03*
D11*
G36*
X64698068Y91717344D02*
X64335721Y90365048D01*
X62500462Y90856804D01*
X62862809Y92209100D01*
X64698068Y91717344D01*
X64698068Y91717344D01*
G37*
G04 #@! TD*
D13*
G04 #@! TO.C,D2*
X71178238Y91581784D03*
D11*
G36*
X72350962Y91713002D02*
X71650962Y90500566D01*
X70005514Y91450566D01*
X70705514Y92663002D01*
X72350962Y91713002D01*
X72350962Y91713002D01*
G37*
D13*
X69578238Y88810502D03*
D11*
G36*
X70750962Y88941720D02*
X70050962Y87729284D01*
X68405514Y88679284D01*
X69105514Y89891720D01*
X70750962Y88941720D01*
X70750962Y88941720D01*
G37*
D13*
X75421762Y89131784D03*
D11*
G36*
X76594486Y89263002D02*
X75894486Y88050566D01*
X74249038Y89000566D01*
X74949038Y90213002D01*
X76594486Y89263002D01*
X76594486Y89263002D01*
G37*
D13*
X73821762Y86360502D03*
D11*
G36*
X74994486Y86491720D02*
X74294486Y85279284D01*
X72649038Y86229284D01*
X73349038Y87441720D01*
X74994486Y86491720D01*
X74994486Y86491720D01*
G37*
G04 #@! TD*
D13*
G04 #@! TO.C,D3*
X81218764Y84683587D03*
D11*
G36*
X82385490Y84506810D02*
X81395541Y83516861D01*
X80052038Y84860364D01*
X81041987Y85850313D01*
X82385490Y84506810D01*
X82385490Y84506810D01*
G37*
D13*
X78956023Y82420846D03*
D11*
G36*
X80122749Y82244069D02*
X79132800Y81254120D01*
X77789297Y82597623D01*
X78779246Y83587572D01*
X80122749Y82244069D01*
X80122749Y82244069D01*
G37*
D13*
X84683587Y81218764D03*
D11*
G36*
X85850313Y81041987D02*
X84860364Y80052038D01*
X83516861Y81395541D01*
X84506810Y82385490D01*
X85850313Y81041987D01*
X85850313Y81041987D01*
G37*
D13*
X82420846Y78956023D03*
D11*
G36*
X83587572Y78779246D02*
X82597623Y77789297D01*
X81254120Y79132800D01*
X82244069Y80122749D01*
X83587572Y78779246D01*
X83587572Y78779246D01*
G37*
G04 #@! TD*
D13*
G04 #@! TO.C,D4*
X89131784Y75421762D03*
D11*
G36*
X90213002Y74949038D02*
X89000566Y74249038D01*
X88050566Y75894486D01*
X89263002Y76594486D01*
X90213002Y74949038D01*
X90213002Y74949038D01*
G37*
D13*
X86360502Y73821762D03*
D11*
G36*
X87441720Y73349038D02*
X86229284Y72649038D01*
X85279284Y74294486D01*
X86491720Y74994486D01*
X87441720Y73349038D01*
X87441720Y73349038D01*
G37*
D13*
X91581784Y71178238D03*
D11*
G36*
X92663002Y70705514D02*
X91450566Y70005514D01*
X90500566Y71650962D01*
X91713002Y72350962D01*
X92663002Y70705514D01*
X92663002Y70705514D01*
G37*
D13*
X88810502Y69578238D03*
D11*
G36*
X89891720Y69105514D02*
X88679284Y68405514D01*
X87729284Y70050962D01*
X88941720Y70750962D01*
X89891720Y69105514D01*
X89891720Y69105514D01*
G37*
G04 #@! TD*
D13*
G04 #@! TO.C,D5*
X94378037Y64427486D03*
D11*
G36*
X95300063Y63691030D02*
X93947767Y63328683D01*
X93456011Y65163942D01*
X94808307Y65526289D01*
X95300063Y63691030D01*
X95300063Y63691030D01*
G37*
D13*
X91287074Y63599265D03*
D11*
G36*
X92209100Y62862809D02*
X90856804Y62500462D01*
X90365048Y64335721D01*
X91717344Y64698068D01*
X92209100Y62862809D01*
X92209100Y62862809D01*
G37*
D13*
X95646250Y59694449D03*
D11*
G36*
X96568276Y58957993D02*
X95215980Y58595646D01*
X94724224Y60430905D01*
X96076520Y60793252D01*
X96568276Y58957993D01*
X96568276Y58957993D01*
G37*
D13*
X92555287Y58866228D03*
D11*
G36*
X93477313Y58129772D02*
X92125017Y57767425D01*
X91633261Y59602684D01*
X92985557Y59965031D01*
X93477313Y58129772D01*
X93477313Y58129772D01*
G37*
G04 #@! TD*
D15*
G04 #@! TO.C,D6*
X96600000Y52450000D03*
X93400000Y52450000D03*
X96600000Y47550000D03*
X93400000Y47550000D03*
G04 #@! TD*
D14*
G04 #@! TO.C,D25*
X52450000Y48400000D03*
X52450000Y51600000D03*
X47550000Y48400000D03*
X47550000Y51600000D03*
G04 #@! TD*
D16*
G04 #@! TO.C,C18*
X90419729Y33257600D03*
D11*
G36*
X89226330Y32858949D02*
X89857757Y34383350D01*
X91613128Y33656251D01*
X90981701Y32131850D01*
X89226330Y32858949D01*
X89226330Y32858949D01*
G37*
D16*
X92729427Y32300892D03*
D11*
G36*
X91536028Y31902241D02*
X92167455Y33426642D01*
X93922826Y32699543D01*
X93291399Y31175142D01*
X91536028Y31902241D01*
X91536028Y31902241D01*
G37*
G04 #@! TD*
D16*
G04 #@! TO.C,C19*
X84709208Y23366689D03*
D11*
G36*
X83453294Y23290496D02*
X84457751Y24599529D01*
X85965122Y23442882D01*
X84960665Y22133849D01*
X83453294Y23290496D01*
X83453294Y23290496D01*
G37*
D16*
X86692592Y21844785D03*
D11*
G36*
X85436678Y21768592D02*
X86441135Y23077625D01*
X87948506Y21920978D01*
X86944049Y20611945D01*
X85436678Y21768592D01*
X85436678Y21768592D01*
G37*
G04 #@! TD*
D16*
G04 #@! TO.C,C20*
X76633312Y15290793D03*
D11*
G36*
X75400472Y15542250D02*
X76709505Y16546707D01*
X77866152Y15039336D01*
X76557119Y14034879D01*
X75400472Y15542250D01*
X75400472Y15542250D01*
G37*
D16*
X78155216Y13307409D03*
D11*
G36*
X76922376Y13558866D02*
X78231409Y14563323D01*
X79388056Y13055952D01*
X78079023Y12051495D01*
X76922376Y13558866D01*
X76922376Y13558866D01*
G37*
G04 #@! TD*
D16*
G04 #@! TO.C,C21*
X66742401Y9580271D03*
D11*
G36*
X65616651Y10142243D02*
X67141052Y10773670D01*
X67868151Y9018299D01*
X66343750Y8386872D01*
X65616651Y10142243D01*
X65616651Y10142243D01*
G37*
D16*
X67699109Y7270573D03*
D11*
G36*
X66573359Y7832545D02*
X68097760Y8463972D01*
X68824859Y6708601D01*
X67300458Y6077174D01*
X66573359Y7832545D01*
X66573359Y7832545D01*
G37*
G04 #@! TD*
D16*
G04 #@! TO.C,C22*
X55710521Y6624288D03*
D11*
G36*
X54768579Y7458477D02*
X56404463Y7673845D01*
X56652463Y5790099D01*
X55016579Y5574731D01*
X54768579Y7458477D01*
X54768579Y7458477D01*
G37*
D16*
X56036837Y4145676D03*
D11*
G36*
X55094895Y4979865D02*
X56730779Y5195233D01*
X56978779Y3311487D01*
X55342895Y3096119D01*
X55094895Y4979865D01*
X55094895Y4979865D01*
G37*
G04 #@! TD*
D16*
G04 #@! TO.C,C23*
X44289480Y6624288D03*
D11*
G36*
X43595538Y7673845D02*
X45231422Y7458477D01*
X44983422Y5574731D01*
X43347538Y5790099D01*
X43595538Y7673845D01*
X43595538Y7673845D01*
G37*
D16*
X43963164Y4145676D03*
D11*
G36*
X43269222Y5195233D02*
X44905106Y4979865D01*
X44657106Y3096119D01*
X43021222Y3311487D01*
X43269222Y5195233D01*
X43269222Y5195233D01*
G37*
G04 #@! TD*
D16*
G04 #@! TO.C,C24*
X33257600Y9580271D03*
D11*
G36*
X32858949Y10773670D02*
X34383350Y10142243D01*
X33656251Y8386872D01*
X32131850Y9018299D01*
X32858949Y10773670D01*
X32858949Y10773670D01*
G37*
D16*
X32300892Y7270573D03*
D11*
G36*
X31902241Y8463972D02*
X33426642Y7832545D01*
X32699543Y6077174D01*
X31175142Y6708601D01*
X31902241Y8463972D01*
X31902241Y8463972D01*
G37*
G04 #@! TD*
D16*
G04 #@! TO.C,C25*
X23366689Y15290792D03*
D11*
G36*
X23290496Y16546706D02*
X24599529Y15542249D01*
X23442882Y14034878D01*
X22133849Y15039335D01*
X23290496Y16546706D01*
X23290496Y16546706D01*
G37*
D16*
X21844785Y13307408D03*
D11*
G36*
X21768592Y14563322D02*
X23077625Y13558865D01*
X21920978Y12051494D01*
X20611945Y13055951D01*
X21768592Y14563322D01*
X21768592Y14563322D01*
G37*
G04 #@! TD*
D16*
G04 #@! TO.C,C26*
X15290793Y23366688D03*
D11*
G36*
X15542250Y24599528D02*
X16546707Y23290495D01*
X15039336Y22133848D01*
X14034879Y23442881D01*
X15542250Y24599528D01*
X15542250Y24599528D01*
G37*
D16*
X13307409Y21844784D03*
D11*
G36*
X13558866Y23077624D02*
X14563323Y21768591D01*
X13055952Y20611944D01*
X12051495Y21920977D01*
X13558866Y23077624D01*
X13558866Y23077624D01*
G37*
G04 #@! TD*
D16*
G04 #@! TO.C,C27*
X9580271Y33257599D03*
D11*
G36*
X10142243Y34383349D02*
X10773670Y32858948D01*
X9018299Y32131849D01*
X8386872Y33656250D01*
X10142243Y34383349D01*
X10142243Y34383349D01*
G37*
D16*
X7270573Y32300891D03*
D11*
G36*
X7832545Y33426641D02*
X8463972Y31902240D01*
X6708601Y31175141D01*
X6077174Y32699542D01*
X7832545Y33426641D01*
X7832545Y33426641D01*
G37*
G04 #@! TD*
D16*
G04 #@! TO.C,C28*
X6624288Y44289479D03*
D11*
G36*
X7458477Y45231421D02*
X7673845Y43595537D01*
X5790099Y43347537D01*
X5574731Y44983421D01*
X7458477Y45231421D01*
X7458477Y45231421D01*
G37*
D16*
X4145676Y43963163D03*
D11*
G36*
X4979865Y44905105D02*
X5195233Y43269221D01*
X3311487Y43021221D01*
X3096119Y44657105D01*
X4979865Y44905105D01*
X4979865Y44905105D01*
G37*
G04 #@! TD*
D16*
G04 #@! TO.C,C29*
X6624288Y55710520D03*
D11*
G36*
X7673845Y56404462D02*
X7458477Y54768578D01*
X5574731Y55016578D01*
X5790099Y56652462D01*
X7673845Y56404462D01*
X7673845Y56404462D01*
G37*
D16*
X4145676Y56036836D03*
D11*
G36*
X5195233Y56730778D02*
X4979865Y55094894D01*
X3096119Y55342894D01*
X3311487Y56978778D01*
X5195233Y56730778D01*
X5195233Y56730778D01*
G37*
G04 #@! TD*
D16*
G04 #@! TO.C,C30*
X9580271Y66742400D03*
D11*
G36*
X10773670Y67141051D02*
X10142243Y65616650D01*
X8386872Y66343749D01*
X9018299Y67868150D01*
X10773670Y67141051D01*
X10773670Y67141051D01*
G37*
D16*
X7270573Y67699108D03*
D11*
G36*
X8463972Y68097759D02*
X7832545Y66573358D01*
X6077174Y67300457D01*
X6708601Y68824858D01*
X8463972Y68097759D01*
X8463972Y68097759D01*
G37*
G04 #@! TD*
D16*
G04 #@! TO.C,C31*
X15290792Y76633311D03*
D11*
G36*
X16546706Y76709504D02*
X15542249Y75400471D01*
X14034878Y76557118D01*
X15039335Y77866151D01*
X16546706Y76709504D01*
X16546706Y76709504D01*
G37*
D16*
X13307408Y78155215D03*
D11*
G36*
X14563322Y78231408D02*
X13558865Y76922375D01*
X12051494Y78079022D01*
X13055951Y79388055D01*
X14563322Y78231408D01*
X14563322Y78231408D01*
G37*
G04 #@! TD*
D16*
G04 #@! TO.C,C32*
X23366688Y84709207D03*
D11*
G36*
X24599528Y84457750D02*
X23290495Y83453293D01*
X22133848Y84960664D01*
X23442881Y85965121D01*
X24599528Y84457750D01*
X24599528Y84457750D01*
G37*
D16*
X21844784Y86692591D03*
D11*
G36*
X23077624Y86441134D02*
X21768591Y85436677D01*
X20611944Y86944048D01*
X21920977Y87948505D01*
X23077624Y86441134D01*
X23077624Y86441134D01*
G37*
G04 #@! TD*
D16*
G04 #@! TO.C,C33*
X33257599Y90419729D03*
D11*
G36*
X34383349Y89857757D02*
X32858948Y89226330D01*
X32131849Y90981701D01*
X33656250Y91613128D01*
X34383349Y89857757D01*
X34383349Y89857757D01*
G37*
D16*
X32300891Y92729427D03*
D11*
G36*
X33426641Y92167455D02*
X31902240Y91536028D01*
X31175141Y93291399D01*
X32699542Y93922826D01*
X33426641Y92167455D01*
X33426641Y92167455D01*
G37*
G04 #@! TD*
D16*
G04 #@! TO.C,C34*
X44289479Y93375712D03*
D11*
G36*
X45231421Y92541523D02*
X43595537Y92326155D01*
X43347537Y94209901D01*
X44983421Y94425269D01*
X45231421Y92541523D01*
X45231421Y92541523D01*
G37*
D16*
X43963163Y95854324D03*
D11*
G36*
X44905105Y95020135D02*
X43269221Y94804767D01*
X43021221Y96688513D01*
X44657105Y96903881D01*
X44905105Y95020135D01*
X44905105Y95020135D01*
G37*
G04 #@! TD*
D16*
G04 #@! TO.C,C35*
X55710520Y93375712D03*
D11*
G36*
X56404462Y92326155D02*
X54768578Y92541523D01*
X55016578Y94425269D01*
X56652462Y94209901D01*
X56404462Y92326155D01*
X56404462Y92326155D01*
G37*
D16*
X56036836Y95854324D03*
D11*
G36*
X56730778Y94804767D02*
X55094894Y95020135D01*
X55342894Y96903881D01*
X56978778Y96688513D01*
X56730778Y94804767D01*
X56730778Y94804767D01*
G37*
G04 #@! TD*
D16*
G04 #@! TO.C,C12*
X66742400Y90419729D03*
D11*
G36*
X67141051Y89226330D02*
X65616650Y89857757D01*
X66343749Y91613128D01*
X67868150Y90981701D01*
X67141051Y89226330D01*
X67141051Y89226330D01*
G37*
D16*
X67699108Y92729427D03*
D11*
G36*
X68097759Y91536028D02*
X66573358Y92167455D01*
X67300457Y93922826D01*
X68824858Y93291399D01*
X68097759Y91536028D01*
X68097759Y91536028D01*
G37*
G04 #@! TD*
D16*
G04 #@! TO.C,C13*
X76633311Y84709208D03*
D11*
G36*
X76709504Y83453294D02*
X75400471Y84457751D01*
X76557118Y85965122D01*
X77866151Y84960665D01*
X76709504Y83453294D01*
X76709504Y83453294D01*
G37*
D16*
X78155215Y86692592D03*
D11*
G36*
X78231408Y85436678D02*
X76922375Y86441135D01*
X78079022Y87948506D01*
X79388055Y86944049D01*
X78231408Y85436678D01*
X78231408Y85436678D01*
G37*
G04 #@! TD*
D16*
G04 #@! TO.C,C14*
X84709207Y76633312D03*
D11*
G36*
X84457750Y75400472D02*
X83453293Y76709505D01*
X84960664Y77866152D01*
X85965121Y76557119D01*
X84457750Y75400472D01*
X84457750Y75400472D01*
G37*
D16*
X86692591Y78155216D03*
D11*
G36*
X86441134Y76922376D02*
X85436677Y78231409D01*
X86944048Y79388056D01*
X87948505Y78079023D01*
X86441134Y76922376D01*
X86441134Y76922376D01*
G37*
G04 #@! TD*
D16*
G04 #@! TO.C,C15*
X90419729Y66742401D03*
D11*
G36*
X89857757Y65616651D02*
X89226330Y67141052D01*
X90981701Y67868151D01*
X91613128Y66343750D01*
X89857757Y65616651D01*
X89857757Y65616651D01*
G37*
D16*
X92729427Y67699109D03*
D11*
G36*
X92167455Y66573359D02*
X91536028Y68097760D01*
X93291399Y68824859D01*
X93922826Y67300458D01*
X92167455Y66573359D01*
X92167455Y66573359D01*
G37*
G04 #@! TD*
D16*
G04 #@! TO.C,C16*
X93375712Y55710521D03*
D11*
G36*
X92541523Y54768579D02*
X92326155Y56404463D01*
X94209901Y56652463D01*
X94425269Y55016579D01*
X92541523Y54768579D01*
X92541523Y54768579D01*
G37*
D16*
X95854324Y56036837D03*
D11*
G36*
X95020135Y55094895D02*
X94804767Y56730779D01*
X96688513Y56978779D01*
X96903881Y55342895D01*
X95020135Y55094895D01*
X95020135Y55094895D01*
G37*
G04 #@! TD*
D17*
G04 #@! TO.C,S4*
X30192823Y6295494D03*
X32944003Y5099247D03*
G04 #@! TD*
D16*
G04 #@! TO.C,C17*
X95854324Y43963164D03*
D11*
G36*
X94804767Y43269222D02*
X95020135Y44905106D01*
X96903881Y44657106D01*
X96688513Y43021222D01*
X94804767Y43269222D01*
X94804767Y43269222D01*
G37*
D16*
X93375712Y44289480D03*
D11*
G36*
X92326155Y43595538D02*
X92541523Y45231422D01*
X94425269Y44983422D01*
X94209901Y43347538D01*
X92326155Y43595538D01*
X92326155Y43595538D01*
G37*
G04 #@! TD*
D18*
G04 #@! TO.C,C36*
X56190000Y48740000D03*
X56190000Y51240000D03*
G04 #@! TD*
D19*
G04 #@! TO.C,J6*
X36470000Y49880000D03*
X33930000Y49880000D03*
X36470000Y52420000D03*
X33930000Y52420000D03*
X36470000Y54960000D03*
D20*
X33930000Y54960000D03*
G04 #@! TD*
D19*
G04 #@! TO.C,J7*
X51270000Y88540000D03*
X51270000Y86000000D03*
X48730000Y88540000D03*
D20*
X48730000Y86000000D03*
G04 #@! TD*
G04 #@! TO.C,J8*
X46190000Y43500000D03*
D19*
X48730000Y43500000D03*
X51270000Y43500000D03*
X53810000Y43500000D03*
G04 #@! TD*
D21*
G04 #@! TO.C,R7*
X51240000Y21420000D03*
X48540000Y21420000D03*
G04 #@! TD*
G04 #@! TO.C,R8*
X48470000Y25530000D03*
X51170000Y25530000D03*
G04 #@! TD*
G04 #@! TO.C,R11*
X28350000Y44600000D03*
X25650000Y44600000D03*
G04 #@! TD*
G04 #@! TO.C,R12*
X51350000Y16600000D03*
X48650000Y16600000D03*
G04 #@! TD*
D17*
G04 #@! TO.C,S2*
X69807177Y6295494D03*
X67055997Y5099247D03*
G04 #@! TD*
D12*
G04 #@! TO.C,U3*
X44700000Y27445000D03*
X44700000Y26175000D03*
X44700000Y24905000D03*
X44700000Y23635000D03*
X44700000Y22365000D03*
X44700000Y21095000D03*
X44700000Y19825000D03*
X44700000Y18555000D03*
X39300000Y18555000D03*
X39300000Y19825000D03*
X39300000Y21095000D03*
X39300000Y22365000D03*
X39300000Y23635000D03*
X39300000Y24905000D03*
X39300000Y26175000D03*
X39300000Y27445000D03*
G04 #@! TD*
D22*
G04 #@! TO.C,U4*
X13750000Y52800000D03*
X13750000Y52000000D03*
X13750000Y51200000D03*
X13750000Y50400000D03*
X13750000Y49600000D03*
X13750000Y48800000D03*
X13750000Y48000000D03*
X13750000Y47200000D03*
D23*
X15200000Y45750000D03*
X16000000Y45750000D03*
X16800000Y45750000D03*
X17600000Y45750000D03*
X18400000Y45750000D03*
X19200000Y45750000D03*
X20000000Y45750000D03*
X20800000Y45750000D03*
D22*
X22250000Y47200000D03*
X22250000Y48000000D03*
X22250000Y48800000D03*
X22250000Y49600000D03*
X22250000Y50400000D03*
X22250000Y51200000D03*
X22250000Y52000000D03*
X22250000Y52800000D03*
D23*
X20800000Y54250000D03*
X20000000Y54250000D03*
X19200000Y54250000D03*
X18400000Y54250000D03*
X17600000Y54250000D03*
X16800000Y54250000D03*
X16000000Y54250000D03*
X15200000Y54250000D03*
G04 #@! TD*
D11*
G04 #@! TO.C,D27*
G36*
X26545581Y47173375D02*
X26578343Y47168515D01*
X26610471Y47160467D01*
X26641656Y47149309D01*
X26671596Y47135148D01*
X26700005Y47118121D01*
X26726608Y47098391D01*
X26751149Y47076149D01*
X26773391Y47051608D01*
X26793121Y47025005D01*
X26810148Y46996596D01*
X26824309Y46966656D01*
X26835467Y46935471D01*
X26843515Y46903343D01*
X26848375Y46870581D01*
X26850000Y46837500D01*
X26850000Y46162500D01*
X26848375Y46129419D01*
X26843515Y46096657D01*
X26835467Y46064529D01*
X26824309Y46033344D01*
X26810148Y46003404D01*
X26793121Y45974995D01*
X26773391Y45948392D01*
X26751149Y45923851D01*
X26726608Y45901609D01*
X26700005Y45881879D01*
X26671596Y45864852D01*
X26641656Y45850691D01*
X26610471Y45839533D01*
X26578343Y45831485D01*
X26545581Y45826625D01*
X26512500Y45825000D01*
X25737500Y45825000D01*
X25704419Y45826625D01*
X25671657Y45831485D01*
X25639529Y45839533D01*
X25608344Y45850691D01*
X25578404Y45864852D01*
X25549995Y45881879D01*
X25523392Y45901609D01*
X25498851Y45923851D01*
X25476609Y45948392D01*
X25456879Y45974995D01*
X25439852Y46003404D01*
X25425691Y46033344D01*
X25414533Y46064529D01*
X25406485Y46096657D01*
X25401625Y46129419D01*
X25400000Y46162500D01*
X25400000Y46837500D01*
X25401625Y46870581D01*
X25406485Y46903343D01*
X25414533Y46935471D01*
X25425691Y46966656D01*
X25439852Y46996596D01*
X25456879Y47025005D01*
X25476609Y47051608D01*
X25498851Y47076149D01*
X25523392Y47098391D01*
X25549995Y47118121D01*
X25578404Y47135148D01*
X25608344Y47149309D01*
X25639529Y47160467D01*
X25671657Y47168515D01*
X25704419Y47173375D01*
X25737500Y47175000D01*
X26512500Y47175000D01*
X26545581Y47173375D01*
X26545581Y47173375D01*
G37*
D24*
X26125000Y46500000D03*
D11*
G36*
X28295581Y47173375D02*
X28328343Y47168515D01*
X28360471Y47160467D01*
X28391656Y47149309D01*
X28421596Y47135148D01*
X28450005Y47118121D01*
X28476608Y47098391D01*
X28501149Y47076149D01*
X28523391Y47051608D01*
X28543121Y47025005D01*
X28560148Y46996596D01*
X28574309Y46966656D01*
X28585467Y46935471D01*
X28593515Y46903343D01*
X28598375Y46870581D01*
X28600000Y46837500D01*
X28600000Y46162500D01*
X28598375Y46129419D01*
X28593515Y46096657D01*
X28585467Y46064529D01*
X28574309Y46033344D01*
X28560148Y46003404D01*
X28543121Y45974995D01*
X28523391Y45948392D01*
X28501149Y45923851D01*
X28476608Y45901609D01*
X28450005Y45881879D01*
X28421596Y45864852D01*
X28391656Y45850691D01*
X28360471Y45839533D01*
X28328343Y45831485D01*
X28295581Y45826625D01*
X28262500Y45825000D01*
X27487500Y45825000D01*
X27454419Y45826625D01*
X27421657Y45831485D01*
X27389529Y45839533D01*
X27358344Y45850691D01*
X27328404Y45864852D01*
X27299995Y45881879D01*
X27273392Y45901609D01*
X27248851Y45923851D01*
X27226609Y45948392D01*
X27206879Y45974995D01*
X27189852Y46003404D01*
X27175691Y46033344D01*
X27164533Y46064529D01*
X27156485Y46096657D01*
X27151625Y46129419D01*
X27150000Y46162500D01*
X27150000Y46837500D01*
X27151625Y46870581D01*
X27156485Y46903343D01*
X27164533Y46935471D01*
X27175691Y46966656D01*
X27189852Y46996596D01*
X27206879Y47025005D01*
X27226609Y47051608D01*
X27248851Y47076149D01*
X27273392Y47098391D01*
X27299995Y47118121D01*
X27328404Y47135148D01*
X27358344Y47149309D01*
X27389529Y47160467D01*
X27421657Y47168515D01*
X27454419Y47173375D01*
X27487500Y47175000D01*
X28262500Y47175000D01*
X28295581Y47173375D01*
X28295581Y47173375D01*
G37*
D24*
X27875000Y46500000D03*
G04 #@! TD*
D11*
G04 #@! TO.C,D28*
G36*
X49545581Y11673375D02*
X49578343Y11668515D01*
X49610471Y11660467D01*
X49641656Y11649309D01*
X49671596Y11635148D01*
X49700005Y11618121D01*
X49726608Y11598391D01*
X49751149Y11576149D01*
X49773391Y11551608D01*
X49793121Y11525005D01*
X49810148Y11496596D01*
X49824309Y11466656D01*
X49835467Y11435471D01*
X49843515Y11403343D01*
X49848375Y11370581D01*
X49850000Y11337500D01*
X49850000Y10662500D01*
X49848375Y10629419D01*
X49843515Y10596657D01*
X49835467Y10564529D01*
X49824309Y10533344D01*
X49810148Y10503404D01*
X49793121Y10474995D01*
X49773391Y10448392D01*
X49751149Y10423851D01*
X49726608Y10401609D01*
X49700005Y10381879D01*
X49671596Y10364852D01*
X49641656Y10350691D01*
X49610471Y10339533D01*
X49578343Y10331485D01*
X49545581Y10326625D01*
X49512500Y10325000D01*
X48737500Y10325000D01*
X48704419Y10326625D01*
X48671657Y10331485D01*
X48639529Y10339533D01*
X48608344Y10350691D01*
X48578404Y10364852D01*
X48549995Y10381879D01*
X48523392Y10401609D01*
X48498851Y10423851D01*
X48476609Y10448392D01*
X48456879Y10474995D01*
X48439852Y10503404D01*
X48425691Y10533344D01*
X48414533Y10564529D01*
X48406485Y10596657D01*
X48401625Y10629419D01*
X48400000Y10662500D01*
X48400000Y11337500D01*
X48401625Y11370581D01*
X48406485Y11403343D01*
X48414533Y11435471D01*
X48425691Y11466656D01*
X48439852Y11496596D01*
X48456879Y11525005D01*
X48476609Y11551608D01*
X48498851Y11576149D01*
X48523392Y11598391D01*
X48549995Y11618121D01*
X48578404Y11635148D01*
X48608344Y11649309D01*
X48639529Y11660467D01*
X48671657Y11668515D01*
X48704419Y11673375D01*
X48737500Y11675000D01*
X49512500Y11675000D01*
X49545581Y11673375D01*
X49545581Y11673375D01*
G37*
D24*
X49125000Y11000000D03*
D11*
G36*
X51295581Y11673375D02*
X51328343Y11668515D01*
X51360471Y11660467D01*
X51391656Y11649309D01*
X51421596Y11635148D01*
X51450005Y11618121D01*
X51476608Y11598391D01*
X51501149Y11576149D01*
X51523391Y11551608D01*
X51543121Y11525005D01*
X51560148Y11496596D01*
X51574309Y11466656D01*
X51585467Y11435471D01*
X51593515Y11403343D01*
X51598375Y11370581D01*
X51600000Y11337500D01*
X51600000Y10662500D01*
X51598375Y10629419D01*
X51593515Y10596657D01*
X51585467Y10564529D01*
X51574309Y10533344D01*
X51560148Y10503404D01*
X51543121Y10474995D01*
X51523391Y10448392D01*
X51501149Y10423851D01*
X51476608Y10401609D01*
X51450005Y10381879D01*
X51421596Y10364852D01*
X51391656Y10350691D01*
X51360471Y10339533D01*
X51328343Y10331485D01*
X51295581Y10326625D01*
X51262500Y10325000D01*
X50487500Y10325000D01*
X50454419Y10326625D01*
X50421657Y10331485D01*
X50389529Y10339533D01*
X50358344Y10350691D01*
X50328404Y10364852D01*
X50299995Y10381879D01*
X50273392Y10401609D01*
X50248851Y10423851D01*
X50226609Y10448392D01*
X50206879Y10474995D01*
X50189852Y10503404D01*
X50175691Y10533344D01*
X50164533Y10564529D01*
X50156485Y10596657D01*
X50151625Y10629419D01*
X50150000Y10662500D01*
X50150000Y11337500D01*
X50151625Y11370581D01*
X50156485Y11403343D01*
X50164533Y11435471D01*
X50175691Y11466656D01*
X50189852Y11496596D01*
X50206879Y11525005D01*
X50226609Y11551608D01*
X50248851Y11576149D01*
X50273392Y11598391D01*
X50299995Y11618121D01*
X50328404Y11635148D01*
X50358344Y11649309D01*
X50389529Y11660467D01*
X50421657Y11668515D01*
X50454419Y11673375D01*
X50487500Y11675000D01*
X51262500Y11675000D01*
X51295581Y11673375D01*
X51295581Y11673375D01*
G37*
D24*
X50875000Y11000000D03*
G04 #@! TD*
D25*
G04 #@! TO.C,U1*
X81000000Y42150000D03*
X79000000Y42150000D03*
X77000000Y42150000D03*
X75000000Y42150000D03*
X73000000Y42150000D03*
X71000000Y42150000D03*
X69000000Y42150000D03*
X67000000Y42150000D03*
X67000000Y57550000D03*
X69000000Y57550000D03*
X71000000Y57550000D03*
X73000000Y57550000D03*
X75000000Y57550000D03*
X77000000Y57550000D03*
X79000000Y57550000D03*
X81000000Y57550000D03*
G04 #@! TD*
D26*
G04 #@! TO.C,J1*
X15000000Y69000000D03*
G04 #@! TD*
G04 #@! TO.C,J2*
X14000000Y62000000D03*
G04 #@! TD*
G04 #@! TO.C,J3*
X85000000Y69000000D03*
G04 #@! TD*
G04 #@! TO.C,J4*
X86000000Y62000000D03*
G04 #@! TD*
G04 #@! TO.C,J13*
X25000000Y19000000D03*
G04 #@! TD*
G04 #@! TO.C,J14*
X75000000Y19000000D03*
G04 #@! TD*
G04 #@! TO.C,J15*
X15000000Y40000000D03*
D27*
X17000000Y40000000D03*
X19000000Y40000000D03*
X21000000Y40000000D03*
X23000000Y40000000D03*
X25000000Y40000000D03*
X27000000Y40000000D03*
X29000000Y40000000D03*
X31000000Y40000000D03*
X33000000Y40000000D03*
X35000000Y40000000D03*
X37000000Y40000000D03*
X39000000Y40000000D03*
X41000000Y40000000D03*
X43000000Y40000000D03*
X45000000Y40000000D03*
X47000000Y40000000D03*
X49000000Y40000000D03*
X51000000Y40000000D03*
X53000000Y40000000D03*
G04 #@! TD*
D26*
G04 #@! TO.C,J16*
X63000000Y38000000D03*
D27*
X65000000Y38000000D03*
X67000000Y38000000D03*
X69000000Y38000000D03*
X71000000Y38000000D03*
X73000000Y38000000D03*
X75000000Y38000000D03*
X77000000Y38000000D03*
X79000000Y38000000D03*
X81000000Y38000000D03*
X83000000Y38000000D03*
X85000000Y38000000D03*
G04 #@! TD*
M02*
