M48
;DRILL file {KiCad (5.0.0)} date 09/08/18 19:22:06
;FORMAT={-:-/ absolute / metric / decimal}
FMAT,2
METRIC,TZ
T1C0.400
T2C0.800
T3C1.000
T4C0.900
%
G90
G05
M71
T1
X3.764Y45.8
X4.246Y57.8
X6.465Y33.9
X7.865Y69.5
X9.1Y41.13
X12.1Y23.198
X12.3Y48.
X12.322Y47.
X14.255Y79.6
X15.142Y57.578
X15.37Y49.57
X15.56Y51.28
X16.84Y48.8
X18.3Y55.98
X19.39Y55.91
X20.02Y48.57
X20.3Y14.32
X21.3Y41.7
X23.198Y87.9
X23.7Y56.9
X23.78Y50.93
X23.9Y49.6
X24.74Y47.
X26.6Y8.3
X27.7Y24.9
X31.106Y41.8
X31.5Y42.8
X32.7Y43.5
X33.9Y93.535
X34.4Y14.5
X35.4Y11.6
X36.5Y19.9
X36.5Y18.6
X38.2Y29.1
X39.Y54.1
X40.9Y22.3
X41.Y27.8
X41.6Y21.1
X42.2Y4.246
X42.7Y48.3
X43.1Y52.408
X43.83Y57.46
X44.17Y75.63
X44.18Y74.23
X44.64Y58.53
X45.7Y96.215
X46.58Y50.02
X46.6Y24.5
X48.4Y23.6
X49.4Y50.
X50.7Y23.6
X52.2Y11.
X52.95Y58.17
X52.96Y76.98
X52.98Y72.68
X53.78Y95.32
X54.91Y48.74
X55.Y2.5
X55.2Y46.8
X56.7Y21.1
X56.71Y39.81
X56.9Y25.2
X56.98Y34.38
X57.4Y19.2
X57.8Y95.754
X58.Y47.8
X58.1Y27.5
X58.74Y89.96
X58.9Y49.
X61.07Y41.69
X62.4Y27.4
X62.5Y10.3
X62.9Y33.3
X62.9Y4.7
X63.71Y57.19
X64.4Y31.8
X64.4Y24.8
X66.Y13.5
X66.2Y25.6
X67.Y44.2
X67.3Y49.1
X69.Y54.3
X69.Y44.
X69.4Y92.168
X71.Y53.7
X71.Y44.
X71.2Y50.6
X71.67Y74.15
X72.02Y72.39
X73.Y44.
X74.7Y49.1
X75.3Y36.
X75.7Y49.
X76.8Y12.098
X76.81Y45.69
X77.Y55.2
X77.3Y44.41
X77.8Y35.9
X78.84Y47.72
X79.Y54.9
X79.54Y49.48
X79.6Y85.745
X80.96Y55.73
X85.745Y20.4
X87.902Y76.8
X90.86Y43.27
X91.37Y50.22
X92.168Y30.6
X93.535Y66.1
X95.754Y42.2
X96.215Y54.3
X96.83Y45.71
T2
X15.Y40.
X17.Y40.
X19.Y40.
X21.Y40.
X23.Y40.
X25.Y40.
X27.Y40.
X29.Y40.
X31.Y40.
X33.Y40.
X35.Y40.
X37.Y40.
X39.Y40.
X41.Y40.
X43.Y40.
X45.Y40.
X47.Y40.
X49.Y40.
X51.Y40.
X53.Y40.
X15.Y69.
X63.Y38.
X65.Y38.
X67.Y38.
X69.Y38.
X71.Y38.
X73.Y38.
X75.Y38.
X77.Y38.
X79.Y38.
X81.Y38.
X83.Y38.
X85.Y38.
X86.Y62.
X25.Y19.
X85.Y69.
X14.Y62.
X75.Y19.
T3
X33.93Y54.96
X33.93Y52.42
X33.93Y49.88
X36.47Y54.96
X36.47Y52.42
X36.47Y49.88
X46.19Y43.5
X48.73Y43.5
X51.27Y43.5
X53.81Y43.5
X48.73Y88.54
X48.73Y86.
X51.27Y88.54
X51.27Y86.
T4
X67.056Y5.099
X69.807Y6.295
X30.193Y6.295
X32.944Y5.099
T0
M30
