G04 #@! TF.GenerationSoftware,KiCad,Pcbnew,(5.0.0)*
G04 #@! TF.CreationDate,2018-09-13T19:48:45+02:00*
G04 #@! TF.ProjectId,noname.kicad_pcb_45_grader,6E6F6E616D652E6B696361645F706362,rev?*
G04 #@! TF.SameCoordinates,PX5f5e100PY8f0d180*
G04 #@! TF.FileFunction,Legend,Bot*
G04 #@! TF.FilePolarity,Positive*
%FSLAX46Y46*%
G04 Gerber Fmt 4.6, Leading zero omitted, Abs format (unit mm)*
G04 Created by KiCad (PCBNEW (5.0.0)) date 09/13/18 19:48:45*
%MOMM*%
%LPD*%
G01*
G04 APERTURE LIST*
%ADD10C,0.300000*%
%ADD11C,0.010000*%
%ADD12C,0.120000*%
%ADD13C,0.200000*%
%ADD14C,0.150000*%
%ADD15C,0.050000*%
G04 APERTURE END LIST*
D10*
X93112530Y63617336D02*
X91369189Y63464814D01*
X91405504Y63049733D01*
X91510309Y62807947D01*
X91690867Y62656441D01*
X91864163Y62587950D01*
X92203491Y62533986D01*
X92452539Y62555775D01*
X92777341Y62667843D01*
X92936111Y62765385D01*
X93087617Y62945944D01*
X93148845Y63202255D01*
X93112530Y63617336D01*
X93240140Y61202603D02*
X93308630Y61375898D01*
X93279578Y61707963D01*
X93182036Y61866733D01*
X93008741Y61935223D01*
X92344611Y61877119D01*
X92185841Y61779577D01*
X92117351Y61606282D01*
X92146403Y61274217D01*
X92243945Y61115447D01*
X92417241Y61046957D01*
X92583273Y61061483D01*
X92676676Y61906171D01*
X93305507Y60455457D02*
X93403049Y60296687D01*
X93432101Y59964622D01*
X93363610Y59791327D01*
X93204841Y59693785D01*
X93121825Y59686522D01*
X92948529Y59755012D01*
X92850987Y59913782D01*
X92829198Y60162830D01*
X92731656Y60321600D01*
X92558361Y60390090D01*
X92475344Y60382827D01*
X92316575Y60285285D01*
X92248085Y60111989D01*
X92269874Y59862941D01*
X92367416Y59704171D01*
X93519256Y58968428D02*
X92357029Y58866746D01*
X91775916Y58815905D02*
X91851669Y58906184D01*
X91941948Y58830431D01*
X91866195Y58740152D01*
X91775916Y58815905D01*
X91941948Y58830431D01*
X92495026Y57289438D02*
X93906302Y57412908D01*
X94065071Y57510451D01*
X94140824Y57600730D01*
X94209315Y57774025D01*
X94187526Y58023074D01*
X94089984Y58181843D01*
X93574237Y57383857D02*
X93642727Y57557152D01*
X93613675Y57889217D01*
X93516133Y58047986D01*
X93425854Y58123740D01*
X93252558Y58192230D01*
X92754461Y58148652D01*
X92595692Y58051110D01*
X92519938Y57960831D01*
X92451448Y57787535D01*
X92480500Y57455470D01*
X92578042Y57296701D01*
X92567656Y56459276D02*
X93729883Y56560957D01*
X92733688Y56473802D02*
X92657935Y56383522D01*
X92589445Y56210227D01*
X92611234Y55961178D01*
X92708776Y55802409D01*
X92882071Y55733918D01*
X93795250Y55813811D01*
X93842967Y54312256D02*
X93911457Y54485552D01*
X93882405Y54817617D01*
X93784863Y54976386D01*
X93611568Y55044876D01*
X92947438Y54986772D01*
X92788669Y54889230D01*
X92720178Y54715935D01*
X92749230Y54383870D01*
X92846772Y54225100D01*
X93020068Y54156610D01*
X93186100Y54171136D01*
X93279503Y55015824D01*
X94063980Y52742211D02*
X92320639Y52589688D01*
X93980964Y52734948D02*
X94049454Y52908243D01*
X94020402Y53240308D01*
X93922860Y53399078D01*
X93832581Y53474831D01*
X93659285Y53543321D01*
X93161188Y53499743D01*
X93002418Y53402201D01*
X92926665Y53311922D01*
X92858175Y53138627D01*
X92887227Y52806562D01*
X92984769Y52647792D01*
X94252817Y50583789D02*
X92509477Y50431267D01*
X93173606Y50489370D02*
X93105116Y50316075D01*
X93134168Y49984010D01*
X93231710Y49825241D01*
X93321989Y49749487D01*
X93495285Y49680997D01*
X93993382Y49724575D01*
X94152152Y49822117D01*
X94227905Y49912396D01*
X94296395Y50085692D01*
X94267343Y50417757D01*
X94169801Y50576526D01*
X93214061Y49070832D02*
X94412603Y48757432D01*
X93286691Y48240669D02*
X94412603Y48757432D01*
X94813158Y48959779D01*
X94888911Y49050059D01*
X94957402Y49223354D01*
X94340989Y47663695D02*
X94431268Y47587942D01*
X94507022Y47678221D01*
X94416742Y47753974D01*
X94340989Y47663695D01*
X94507022Y47678221D01*
X93427811Y47583802D02*
X93518090Y47508049D01*
X93593843Y47598328D01*
X93503564Y47674082D01*
X93427811Y47583802D01*
X93593843Y47598328D01*
X95593668Y63081543D02*
X95666298Y62251381D01*
X96077240Y63291154D02*
X94384740Y62557518D01*
X96178921Y62128927D01*
X95067535Y61446131D02*
X96229762Y61547813D01*
X95233567Y61460657D02*
X95157814Y61370378D01*
X95089324Y61197083D01*
X95111113Y60948034D01*
X95208655Y60789265D01*
X95381950Y60720774D01*
X96295129Y60800667D01*
X96433125Y59223359D02*
X94689785Y59070836D01*
X96350109Y59216096D02*
X96418600Y59389391D01*
X96389548Y59721456D01*
X96292005Y59880226D01*
X96201726Y59955979D01*
X96028431Y60024469D01*
X95530333Y59980891D01*
X95371564Y59883349D01*
X95295811Y59793070D01*
X95227320Y59619774D01*
X95256372Y59287710D01*
X95353915Y59128940D01*
X96480843Y57721804D02*
X96549333Y57895099D01*
X96520281Y58227164D01*
X96422739Y58385934D01*
X96249444Y58454424D01*
X95585314Y58396320D01*
X95426544Y58298778D01*
X95358054Y58125482D01*
X95387106Y57793417D01*
X95484648Y57634648D01*
X95657944Y57566158D01*
X95823976Y57580684D01*
X95917379Y58425372D01*
X96636489Y56898904D02*
X95474262Y56797223D01*
X95806327Y56826275D02*
X95647557Y56728733D01*
X95571804Y56638453D01*
X95503314Y56465158D01*
X95517840Y56299125D01*
X96640628Y55895447D02*
X96738171Y55736677D01*
X96767223Y55404612D01*
X96698732Y55231317D01*
X96539963Y55133775D01*
X96456947Y55126512D01*
X96283651Y55195002D01*
X96186109Y55353772D01*
X96164320Y55602820D01*
X96066778Y55761590D01*
X95893482Y55830080D01*
X95810466Y55822817D01*
X95651697Y55725275D01*
X95583206Y55551979D01*
X95604995Y55302931D01*
X95702538Y55144161D01*
X95089249Y54504944D02*
X96883430Y54076353D01*
X95190930Y53342717D01*
X95400541Y52859145D02*
X95324787Y52768866D01*
X95256297Y52595571D01*
X95292612Y52180490D01*
X95390154Y52021720D01*
X95480433Y51945967D01*
X95653729Y51877477D01*
X95819761Y51892003D01*
X96061547Y51996808D01*
X96970586Y53080158D01*
X97065005Y52000947D01*
X95416083Y50769214D02*
X95430609Y50603181D01*
X95528151Y50444412D01*
X95618430Y50368659D01*
X95791725Y50300168D01*
X96131053Y50246204D01*
X96546134Y50282519D01*
X96870936Y50394587D01*
X97029706Y50492129D01*
X97105459Y50582408D01*
X97173949Y50755704D01*
X97159423Y50921736D01*
X97061881Y51080506D01*
X96971602Y51156259D01*
X96798307Y51224749D01*
X96458979Y51278714D01*
X96043898Y51242399D01*
X95719096Y51130331D01*
X95560326Y51032788D01*
X95484573Y50942509D01*
X95416083Y50769214D01*
X97282894Y49510460D02*
X97311946Y49178396D01*
X97243456Y49005100D01*
X97167702Y48914821D01*
X96933180Y48727000D01*
X96608378Y48614931D01*
X95944248Y48556828D01*
X95770953Y48625318D01*
X95680673Y48701071D01*
X95583131Y48859841D01*
X95554079Y49191905D01*
X95622569Y49365201D01*
X95698323Y49455480D01*
X95857092Y49553022D01*
X96272173Y49589337D01*
X96445469Y49520847D01*
X96535748Y49445094D01*
X96633290Y49286324D01*
X96662342Y48954259D01*
X96593852Y48780964D01*
X96518099Y48690685D01*
X96359329Y48593142D01*
X40910099Y92798624D02*
X39903285Y92432174D01*
X40287503Y93256132D02*
X41349839Y91590448D01*
X40257397Y91876946D02*
X41264211Y92243396D01*
X40879993Y91419438D02*
X39817657Y93085122D01*
X39775459Y91321472D02*
X39262429Y92731010D01*
X39457869Y92194043D02*
X39299197Y92212304D01*
X39030713Y92114584D01*
X38920902Y91998603D01*
X38878211Y91907052D01*
X38859950Y91748380D01*
X39006530Y91345655D01*
X39122511Y91235843D01*
X39214062Y91193152D01*
X39372734Y91174891D01*
X39641217Y91272611D01*
X39751029Y91388592D01*
X37896074Y90637431D02*
X37627344Y91375761D01*
X37645605Y91534433D01*
X37755416Y91650414D01*
X38023900Y91748134D01*
X38182572Y91729873D01*
X37871644Y90704552D02*
X38030316Y90686291D01*
X38365920Y90808441D01*
X38475732Y90924422D01*
X38493993Y91083094D01*
X38445133Y91217336D01*
X38329152Y91327148D01*
X38170480Y91345409D01*
X37834875Y91223258D01*
X37676204Y91241519D01*
X36620777Y90173261D02*
X36107746Y91582800D01*
X36596347Y90240382D02*
X36755018Y90222121D01*
X37023502Y90319841D01*
X37133314Y90435822D01*
X37176005Y90527373D01*
X37194266Y90686045D01*
X37047686Y91088770D01*
X36931705Y91198582D01*
X36840154Y91241273D01*
X36681482Y91259534D01*
X36412998Y91161814D01*
X36303186Y91045833D01*
X35003459Y90648783D02*
X35418770Y89507728D01*
X35534750Y89397916D01*
X35626301Y89355225D01*
X35784973Y89336965D01*
X35986336Y89410255D01*
X36096148Y89526236D01*
X35321049Y89776212D02*
X35479721Y89757951D01*
X35748205Y89855671D01*
X35858017Y89971652D01*
X35900708Y90063203D01*
X35918968Y90221875D01*
X35772388Y90624600D01*
X35656407Y90734412D01*
X35564857Y90777103D01*
X35406185Y90795364D01*
X35137701Y90697643D01*
X35027889Y90581663D01*
X34112873Y89336472D02*
X34271545Y89318211D01*
X34540029Y89415931D01*
X34649840Y89531912D01*
X34668101Y89690583D01*
X34472661Y90227551D01*
X34356680Y90337362D01*
X34198009Y90355623D01*
X33929525Y90257903D01*
X33819713Y90141922D01*
X33801452Y89983251D01*
X33850312Y89849009D01*
X34570381Y89959067D01*
X33264732Y88951761D02*
X33374543Y89067741D01*
X33392804Y89226413D01*
X32953064Y90434589D01*
X32727764Y88756320D02*
X32385744Y89696013D01*
X32214734Y90165859D02*
X32306285Y90123168D01*
X32263594Y90031618D01*
X32172043Y90074308D01*
X32214734Y90165859D01*
X32263594Y90031618D01*
X31915898Y89525003D02*
X31378931Y89329563D01*
X32056555Y88512020D02*
X31616815Y89720197D01*
X31500834Y89830008D01*
X31342162Y89848269D01*
X31207921Y89799409D01*
X30689707Y88090541D02*
X30848379Y88072280D01*
X31116863Y88170000D01*
X31226674Y88285981D01*
X31244935Y88444653D01*
X31049495Y88981620D01*
X30933514Y89091432D01*
X30774843Y89109693D01*
X30506359Y89011973D01*
X30396547Y88895992D01*
X30378286Y88737320D01*
X30427146Y88603078D01*
X31147215Y88713137D01*
D11*
G04 #@! TO.C,REF\002A\002A*
G36*
X12957920Y70679411D02*
X13213046Y70305744D01*
X13084504Y69996892D01*
X12955960Y69688039D01*
X12515189Y69604081D01*
X12392038Y69580279D01*
X12281267Y69558213D01*
X12188000Y69538958D01*
X12117361Y69523587D01*
X12074474Y69513176D01*
X12063716Y69509420D01*
X12059646Y69487342D01*
X12056603Y69434509D01*
X12054537Y69357235D01*
X12053399Y69261832D01*
X12053142Y69154610D01*
X12053716Y69041880D01*
X12055073Y68929955D01*
X12057165Y68825147D01*
X12059943Y68733765D01*
X12063358Y68662123D01*
X12067362Y68616532D01*
X12070688Y68603262D01*
X12093143Y68595116D01*
X12146717Y68581654D01*
X12226027Y68564047D01*
X12325682Y68543462D01*
X12440297Y68521071D01*
X12506089Y68508718D01*
X12626137Y68486075D01*
X12733797Y68464969D01*
X12823764Y68446507D01*
X12890733Y68431794D01*
X12929401Y68421933D01*
X12936664Y68418999D01*
X12946249Y68399601D01*
X12966649Y68352451D01*
X12995134Y68284318D01*
X13028971Y68201967D01*
X13065431Y68112165D01*
X13101784Y68021680D01*
X13135299Y67937277D01*
X13163243Y67865724D01*
X13182889Y67813787D01*
X13191504Y67788233D01*
X13191676Y67787061D01*
X13181640Y67770500D01*
X13153501Y67727805D01*
X13110215Y67663364D01*
X13054736Y67581562D01*
X12990022Y67486784D01*
X12952164Y67431588D01*
X12883175Y67330153D01*
X12821647Y67237748D01*
X12770628Y67159113D01*
X12733166Y67098987D01*
X12712312Y67062109D01*
X12709051Y67053764D01*
X12720573Y67030875D01*
X12754845Y66987432D01*
X12807321Y66927974D01*
X12873453Y66857043D01*
X12948694Y66779180D01*
X13028496Y66698925D01*
X13108315Y66620818D01*
X13183601Y66549403D01*
X13249809Y66489219D01*
X13302390Y66444806D01*
X13336797Y66420706D01*
X13345979Y66417707D01*
X13371756Y66428885D01*
X13421345Y66457602D01*
X13488341Y66499905D01*
X13566338Y66551842D01*
X13593231Y66570305D01*
X13722603Y66659619D01*
X13825105Y66729862D01*
X13904234Y66783247D01*
X13963484Y66821987D01*
X14006350Y66848294D01*
X14036329Y66864381D01*
X14056913Y66872462D01*
X14071600Y66874749D01*
X14074012Y66874711D01*
X14105604Y66866826D01*
X14162097Y66846494D01*
X14236986Y66816614D01*
X14323759Y66780085D01*
X14415909Y66739804D01*
X14506925Y66698670D01*
X14590300Y66659581D01*
X14659523Y66625435D01*
X14708085Y66599131D01*
X14729479Y66583567D01*
X14729882Y66582677D01*
X14735111Y66557699D01*
X14745942Y66502064D01*
X14761268Y66421587D01*
X14779984Y66322081D01*
X14800988Y66209358D01*
X14806929Y66177296D01*
X14829249Y66061842D01*
X14851125Y65958011D01*
X14871179Y65871647D01*
X14888036Y65808590D01*
X14900317Y65774681D01*
X14902630Y65771320D01*
X14926629Y65765492D01*
X14981277Y65761054D01*
X15060173Y65757953D01*
X15156914Y65756137D01*
X15265097Y65755553D01*
X15378320Y65756151D01*
X15490180Y65757875D01*
X15594276Y65760677D01*
X15684204Y65764503D01*
X15753562Y65769301D01*
X15795948Y65775018D01*
X15805595Y65778678D01*
X15814032Y65801216D01*
X15826725Y65851940D01*
X15841712Y65922483D01*
X15852257Y65977744D01*
X15870851Y66078389D01*
X15893149Y66197298D01*
X15915740Y66316345D01*
X15928003Y66380232D01*
X15969708Y66596275D01*
X16136381Y66645964D01*
X16211290Y66669624D01*
X16273116Y66691615D01*
X16312833Y66708613D01*
X16321631Y66714251D01*
X16318640Y66734600D01*
X16302784Y66784702D01*
X16275827Y66860238D01*
X16239533Y66956884D01*
X16195665Y67070322D01*
X16145987Y67196231D01*
X16092264Y67330291D01*
X16036259Y67468182D01*
X15979735Y67605583D01*
X15924457Y67738174D01*
X15872188Y67861635D01*
X15824692Y67971645D01*
X15783733Y68063885D01*
X15751075Y68134033D01*
X15728482Y68177771D01*
X15718792Y68190861D01*
X15690787Y68191914D01*
X15637699Y68185994D01*
X15570594Y68174370D01*
X15565096Y68173261D01*
X15381912Y68152960D01*
X15204860Y68165936D01*
X15037689Y68209863D01*
X14884148Y68282413D01*
X14747985Y68381259D01*
X14632950Y68504074D01*
X14542792Y68648530D01*
X14481261Y68812301D01*
X14471655Y68851987D01*
X14450357Y69029740D01*
X14462852Y69202074D01*
X14506358Y69365379D01*
X14578092Y69516039D01*
X14675270Y69650439D01*
X14795111Y69764968D01*
X14934829Y69856009D01*
X15091644Y69919948D01*
X15262771Y69953172D01*
X15322363Y69956793D01*
X15490405Y69949628D01*
X15641241Y69916021D01*
X15784821Y69852856D01*
X15909585Y69772879D01*
X16030210Y69663310D01*
X16127445Y69529208D01*
X16199252Y69376356D01*
X16243594Y69210535D01*
X16258434Y69037526D01*
X16241735Y68863113D01*
X16237489Y68842242D01*
X16224924Y68775234D01*
X16218264Y68721404D01*
X16218864Y68691885D01*
X16219130Y68691199D01*
X16238524Y68678013D01*
X16287802Y68653347D01*
X16362643Y68618964D01*
X16458725Y68576626D01*
X16571731Y68528095D01*
X16697340Y68475136D01*
X16831230Y68419509D01*
X16969084Y68362978D01*
X17106579Y68307306D01*
X17239397Y68254254D01*
X17363217Y68205585D01*
X17473718Y68163063D01*
X17566581Y68128449D01*
X17637486Y68103507D01*
X17682112Y68089999D01*
X17696011Y68088631D01*
X17709212Y68113721D01*
X17729093Y68165488D01*
X17752325Y68234907D01*
X17764297Y68273881D01*
X17813987Y68440553D01*
X18030030Y68482259D01*
X18140473Y68503390D01*
X18261642Y68526273D01*
X18375409Y68547497D01*
X18432518Y68558005D01*
X18511997Y68573624D01*
X18577564Y68588584D01*
X18620761Y68600838D01*
X18633037Y68606572D01*
X18637320Y68628502D01*
X18641698Y68682141D01*
X18645913Y68762121D01*
X18649711Y68863069D01*
X18652837Y68979618D01*
X18654269Y69053875D01*
X18655425Y69185138D01*
X18654459Y69300544D01*
X18651547Y69395289D01*
X18646866Y69464573D01*
X18640591Y69503592D01*
X18637565Y69509758D01*
X18612795Y69519951D01*
X18557306Y69535156D01*
X18476911Y69554030D01*
X18377423Y69575226D01*
X18264657Y69597403D01*
X18232965Y69603332D01*
X18117662Y69624765D01*
X18014001Y69644211D01*
X17927793Y69660565D01*
X17864853Y69672722D01*
X17830994Y69679578D01*
X17827584Y69680379D01*
X17813311Y69698554D01*
X17787995Y69744579D01*
X17754534Y69811945D01*
X17715827Y69894144D01*
X17674771Y69984666D01*
X17634265Y70077001D01*
X17597207Y70164642D01*
X17566496Y70241079D01*
X17545029Y70299802D01*
X17535707Y70334303D01*
X17535551Y70336249D01*
X17536987Y70350209D01*
X17543796Y70369404D01*
X17558191Y70397328D01*
X17582386Y70437476D01*
X17618592Y70493344D01*
X17669024Y70568426D01*
X17735893Y70666217D01*
X17821412Y70790212D01*
X17839956Y70817030D01*
X17894192Y70897240D01*
X17940091Y70968551D01*
X17973699Y71024554D01*
X17991064Y71058847D01*
X17992555Y71064283D01*
X17980770Y71087483D01*
X17946318Y71131211D01*
X17893741Y71190924D01*
X17827579Y71262073D01*
X17752374Y71340109D01*
X17672667Y71420488D01*
X17592997Y71498661D01*
X17517906Y71570081D01*
X17451935Y71630203D01*
X17399624Y71674477D01*
X17365515Y71698359D01*
X17356498Y71701210D01*
X17333348Y71690033D01*
X17284525Y71660689D01*
X17214770Y71616227D01*
X17128820Y71559695D01*
X17031413Y71494143D01*
X16978673Y71458098D01*
X16878701Y71389616D01*
X16789327Y71328769D01*
X16714938Y71278512D01*
X16659920Y71241803D01*
X16628661Y71221595D01*
X16623200Y71218585D01*
X16602231Y71225238D01*
X16553832Y71243374D01*
X16484774Y71270256D01*
X16401826Y71303149D01*
X16311758Y71339318D01*
X16221339Y71376027D01*
X16137339Y71410538D01*
X16066528Y71440120D01*
X16015676Y71462033D01*
X15991552Y71473542D01*
X15990656Y71474203D01*
X15983751Y71495409D01*
X15971452Y71547798D01*
X15954867Y71626051D01*
X15935103Y71724845D01*
X15913270Y71838858D01*
X15901048Y71904667D01*
X15878334Y72025028D01*
X15856749Y72133339D01*
X15837464Y72224202D01*
X15821648Y72292214D01*
X15810471Y72331973D01*
X15806826Y72339747D01*
X15784664Y72344163D01*
X15731761Y72348007D01*
X15654429Y72351234D01*
X15558978Y72353800D01*
X15451723Y72355657D01*
X15338976Y72356763D01*
X15227046Y72357068D01*
X15122249Y72356531D01*
X15030895Y72355104D01*
X14959296Y72352742D01*
X14913765Y72349402D01*
X14900557Y72346261D01*
X14894325Y72325871D01*
X14882376Y72274148D01*
X14865782Y72196210D01*
X14845612Y72097179D01*
X14822938Y71982173D01*
X14806181Y71895073D01*
X14722223Y71454302D01*
X14104517Y71197215D01*
X13730851Y71452342D01*
X13357184Y71707468D01*
X12702793Y71053078D01*
X12957920Y70679411D01*
X12957920Y70679411D01*
G37*
X12957920Y70679411D02*
X13213046Y70305744D01*
X13084504Y69996892D01*
X12955960Y69688039D01*
X12515189Y69604081D01*
X12392038Y69580279D01*
X12281267Y69558213D01*
X12188000Y69538958D01*
X12117361Y69523587D01*
X12074474Y69513176D01*
X12063716Y69509420D01*
X12059646Y69487342D01*
X12056603Y69434509D01*
X12054537Y69357235D01*
X12053399Y69261832D01*
X12053142Y69154610D01*
X12053716Y69041880D01*
X12055073Y68929955D01*
X12057165Y68825147D01*
X12059943Y68733765D01*
X12063358Y68662123D01*
X12067362Y68616532D01*
X12070688Y68603262D01*
X12093143Y68595116D01*
X12146717Y68581654D01*
X12226027Y68564047D01*
X12325682Y68543462D01*
X12440297Y68521071D01*
X12506089Y68508718D01*
X12626137Y68486075D01*
X12733797Y68464969D01*
X12823764Y68446507D01*
X12890733Y68431794D01*
X12929401Y68421933D01*
X12936664Y68418999D01*
X12946249Y68399601D01*
X12966649Y68352451D01*
X12995134Y68284318D01*
X13028971Y68201967D01*
X13065431Y68112165D01*
X13101784Y68021680D01*
X13135299Y67937277D01*
X13163243Y67865724D01*
X13182889Y67813787D01*
X13191504Y67788233D01*
X13191676Y67787061D01*
X13181640Y67770500D01*
X13153501Y67727805D01*
X13110215Y67663364D01*
X13054736Y67581562D01*
X12990022Y67486784D01*
X12952164Y67431588D01*
X12883175Y67330153D01*
X12821647Y67237748D01*
X12770628Y67159113D01*
X12733166Y67098987D01*
X12712312Y67062109D01*
X12709051Y67053764D01*
X12720573Y67030875D01*
X12754845Y66987432D01*
X12807321Y66927974D01*
X12873453Y66857043D01*
X12948694Y66779180D01*
X13028496Y66698925D01*
X13108315Y66620818D01*
X13183601Y66549403D01*
X13249809Y66489219D01*
X13302390Y66444806D01*
X13336797Y66420706D01*
X13345979Y66417707D01*
X13371756Y66428885D01*
X13421345Y66457602D01*
X13488341Y66499905D01*
X13566338Y66551842D01*
X13593231Y66570305D01*
X13722603Y66659619D01*
X13825105Y66729862D01*
X13904234Y66783247D01*
X13963484Y66821987D01*
X14006350Y66848294D01*
X14036329Y66864381D01*
X14056913Y66872462D01*
X14071600Y66874749D01*
X14074012Y66874711D01*
X14105604Y66866826D01*
X14162097Y66846494D01*
X14236986Y66816614D01*
X14323759Y66780085D01*
X14415909Y66739804D01*
X14506925Y66698670D01*
X14590300Y66659581D01*
X14659523Y66625435D01*
X14708085Y66599131D01*
X14729479Y66583567D01*
X14729882Y66582677D01*
X14735111Y66557699D01*
X14745942Y66502064D01*
X14761268Y66421587D01*
X14779984Y66322081D01*
X14800988Y66209358D01*
X14806929Y66177296D01*
X14829249Y66061842D01*
X14851125Y65958011D01*
X14871179Y65871647D01*
X14888036Y65808590D01*
X14900317Y65774681D01*
X14902630Y65771320D01*
X14926629Y65765492D01*
X14981277Y65761054D01*
X15060173Y65757953D01*
X15156914Y65756137D01*
X15265097Y65755553D01*
X15378320Y65756151D01*
X15490180Y65757875D01*
X15594276Y65760677D01*
X15684204Y65764503D01*
X15753562Y65769301D01*
X15795948Y65775018D01*
X15805595Y65778678D01*
X15814032Y65801216D01*
X15826725Y65851940D01*
X15841712Y65922483D01*
X15852257Y65977744D01*
X15870851Y66078389D01*
X15893149Y66197298D01*
X15915740Y66316345D01*
X15928003Y66380232D01*
X15969708Y66596275D01*
X16136381Y66645964D01*
X16211290Y66669624D01*
X16273116Y66691615D01*
X16312833Y66708613D01*
X16321631Y66714251D01*
X16318640Y66734600D01*
X16302784Y66784702D01*
X16275827Y66860238D01*
X16239533Y66956884D01*
X16195665Y67070322D01*
X16145987Y67196231D01*
X16092264Y67330291D01*
X16036259Y67468182D01*
X15979735Y67605583D01*
X15924457Y67738174D01*
X15872188Y67861635D01*
X15824692Y67971645D01*
X15783733Y68063885D01*
X15751075Y68134033D01*
X15728482Y68177771D01*
X15718792Y68190861D01*
X15690787Y68191914D01*
X15637699Y68185994D01*
X15570594Y68174370D01*
X15565096Y68173261D01*
X15381912Y68152960D01*
X15204860Y68165936D01*
X15037689Y68209863D01*
X14884148Y68282413D01*
X14747985Y68381259D01*
X14632950Y68504074D01*
X14542792Y68648530D01*
X14481261Y68812301D01*
X14471655Y68851987D01*
X14450357Y69029740D01*
X14462852Y69202074D01*
X14506358Y69365379D01*
X14578092Y69516039D01*
X14675270Y69650439D01*
X14795111Y69764968D01*
X14934829Y69856009D01*
X15091644Y69919948D01*
X15262771Y69953172D01*
X15322363Y69956793D01*
X15490405Y69949628D01*
X15641241Y69916021D01*
X15784821Y69852856D01*
X15909585Y69772879D01*
X16030210Y69663310D01*
X16127445Y69529208D01*
X16199252Y69376356D01*
X16243594Y69210535D01*
X16258434Y69037526D01*
X16241735Y68863113D01*
X16237489Y68842242D01*
X16224924Y68775234D01*
X16218264Y68721404D01*
X16218864Y68691885D01*
X16219130Y68691199D01*
X16238524Y68678013D01*
X16287802Y68653347D01*
X16362643Y68618964D01*
X16458725Y68576626D01*
X16571731Y68528095D01*
X16697340Y68475136D01*
X16831230Y68419509D01*
X16969084Y68362978D01*
X17106579Y68307306D01*
X17239397Y68254254D01*
X17363217Y68205585D01*
X17473718Y68163063D01*
X17566581Y68128449D01*
X17637486Y68103507D01*
X17682112Y68089999D01*
X17696011Y68088631D01*
X17709212Y68113721D01*
X17729093Y68165488D01*
X17752325Y68234907D01*
X17764297Y68273881D01*
X17813987Y68440553D01*
X18030030Y68482259D01*
X18140473Y68503390D01*
X18261642Y68526273D01*
X18375409Y68547497D01*
X18432518Y68558005D01*
X18511997Y68573624D01*
X18577564Y68588584D01*
X18620761Y68600838D01*
X18633037Y68606572D01*
X18637320Y68628502D01*
X18641698Y68682141D01*
X18645913Y68762121D01*
X18649711Y68863069D01*
X18652837Y68979618D01*
X18654269Y69053875D01*
X18655425Y69185138D01*
X18654459Y69300544D01*
X18651547Y69395289D01*
X18646866Y69464573D01*
X18640591Y69503592D01*
X18637565Y69509758D01*
X18612795Y69519951D01*
X18557306Y69535156D01*
X18476911Y69554030D01*
X18377423Y69575226D01*
X18264657Y69597403D01*
X18232965Y69603332D01*
X18117662Y69624765D01*
X18014001Y69644211D01*
X17927793Y69660565D01*
X17864853Y69672722D01*
X17830994Y69679578D01*
X17827584Y69680379D01*
X17813311Y69698554D01*
X17787995Y69744579D01*
X17754534Y69811945D01*
X17715827Y69894144D01*
X17674771Y69984666D01*
X17634265Y70077001D01*
X17597207Y70164642D01*
X17566496Y70241079D01*
X17545029Y70299802D01*
X17535707Y70334303D01*
X17535551Y70336249D01*
X17536987Y70350209D01*
X17543796Y70369404D01*
X17558191Y70397328D01*
X17582386Y70437476D01*
X17618592Y70493344D01*
X17669024Y70568426D01*
X17735893Y70666217D01*
X17821412Y70790212D01*
X17839956Y70817030D01*
X17894192Y70897240D01*
X17940091Y70968551D01*
X17973699Y71024554D01*
X17991064Y71058847D01*
X17992555Y71064283D01*
X17980770Y71087483D01*
X17946318Y71131211D01*
X17893741Y71190924D01*
X17827579Y71262073D01*
X17752374Y71340109D01*
X17672667Y71420488D01*
X17592997Y71498661D01*
X17517906Y71570081D01*
X17451935Y71630203D01*
X17399624Y71674477D01*
X17365515Y71698359D01*
X17356498Y71701210D01*
X17333348Y71690033D01*
X17284525Y71660689D01*
X17214770Y71616227D01*
X17128820Y71559695D01*
X17031413Y71494143D01*
X16978673Y71458098D01*
X16878701Y71389616D01*
X16789327Y71328769D01*
X16714938Y71278512D01*
X16659920Y71241803D01*
X16628661Y71221595D01*
X16623200Y71218585D01*
X16602231Y71225238D01*
X16553832Y71243374D01*
X16484774Y71270256D01*
X16401826Y71303149D01*
X16311758Y71339318D01*
X16221339Y71376027D01*
X16137339Y71410538D01*
X16066528Y71440120D01*
X16015676Y71462033D01*
X15991552Y71473542D01*
X15990656Y71474203D01*
X15983751Y71495409D01*
X15971452Y71547798D01*
X15954867Y71626051D01*
X15935103Y71724845D01*
X15913270Y71838858D01*
X15901048Y71904667D01*
X15878334Y72025028D01*
X15856749Y72133339D01*
X15837464Y72224202D01*
X15821648Y72292214D01*
X15810471Y72331973D01*
X15806826Y72339747D01*
X15784664Y72344163D01*
X15731761Y72348007D01*
X15654429Y72351234D01*
X15558978Y72353800D01*
X15451723Y72355657D01*
X15338976Y72356763D01*
X15227046Y72357068D01*
X15122249Y72356531D01*
X15030895Y72355104D01*
X14959296Y72352742D01*
X14913765Y72349402D01*
X14900557Y72346261D01*
X14894325Y72325871D01*
X14882376Y72274148D01*
X14865782Y72196210D01*
X14845612Y72097179D01*
X14822938Y71982173D01*
X14806181Y71895073D01*
X14722223Y71454302D01*
X14104517Y71197215D01*
X13730851Y71452342D01*
X13357184Y71707468D01*
X12702793Y71053078D01*
X12957920Y70679411D01*
D12*
G04 #@! TO.C,JP9*
X53762849Y50827207D02*
X51782950Y48847308D01*
X51782950Y48847308D02*
X53197163Y47433095D01*
X53197163Y47433095D02*
X55177062Y49412994D01*
X55177062Y49412994D02*
X53762849Y50827207D01*
G04 #@! TO.C,Q1*
X88700994Y64905704D02*
X89358604Y64248095D01*
X90935452Y62671246D02*
X90277843Y63328856D01*
X90935452Y62671246D02*
X89408101Y61143896D01*
X88700994Y64905704D02*
X87668619Y63873328D01*
G04 #@! TO.C,JP8*
X51945584Y52446483D02*
X50531371Y53860696D01*
X49965685Y50466584D02*
X51945584Y52446483D01*
X48551472Y51880797D02*
X49965685Y50466584D01*
X50531371Y53860696D02*
X48551472Y51880797D01*
G04 #@! TO.C,S4*
X66924681Y4557283D02*
X66635146Y5292312D01*
X73055027Y7821171D02*
X73344562Y7086143D01*
X70948928Y8120083D02*
X69367218Y7497031D01*
X73156478Y5926519D02*
X67853098Y3837462D01*
X71070616Y3718402D02*
X70597830Y4918641D01*
X72171041Y3926166D02*
X71333666Y3596315D01*
X71807373Y5395092D02*
X72280159Y4194854D01*
X71070616Y3718402D02*
X71333666Y3596315D01*
X72280159Y4194854D02*
X72171041Y3926166D01*
X68157675Y7020579D02*
X67971592Y6947279D01*
G04 #@! TO.C,Y4*
X21525850Y28461421D02*
X30435395Y19551875D01*
X17919605Y24855176D02*
X21525850Y28461421D01*
X26829151Y15945631D02*
X17919605Y24855176D01*
G04 #@! TO.C,S2*
X94195680Y31479618D02*
X94122379Y31293534D01*
X99073812Y32567472D02*
X99195899Y32304423D01*
X98597360Y31357929D02*
X98866048Y31467048D01*
X97873573Y33040258D02*
X99073812Y32567472D01*
X99195899Y32304423D02*
X98866048Y31467048D01*
X98597360Y31357929D02*
X97397122Y31830717D01*
X98405000Y34389364D02*
X96315943Y29085984D01*
X95295183Y34270870D02*
X94672131Y32689161D01*
X96950150Y35607316D02*
X97685179Y35317781D01*
X95156319Y28897900D02*
X94421291Y29187435D01*
G04 #@! TO.C,Q2*
X83588613Y55479970D02*
X84620988Y56512346D01*
X81354155Y57714428D02*
X82881506Y59241778D01*
X81354155Y57714428D02*
X82011764Y57056818D01*
X83588613Y55479970D02*
X82931003Y56137579D01*
G04 #@! TO.C,S1*
X43631781Y90014872D02*
X43631781Y86394872D01*
X49751781Y90014872D02*
X43631781Y90014872D01*
X49751781Y86394872D02*
X49751781Y90014872D01*
X43631781Y86394872D02*
X49751781Y86394872D01*
G04 #@! TO.C,Y3*
X57552940Y26488592D02*
X66462486Y17579047D01*
X66462486Y17579047D02*
X62856241Y13972802D01*
X62856241Y13972802D02*
X53946696Y22882348D01*
G04 #@! TO.C,J4*
X67169593Y84485491D02*
X68668659Y85984557D01*
X67212019Y84443065D02*
X67169593Y84485491D01*
X68711085Y85942131D02*
X68668659Y85984557D01*
X67212019Y84443065D02*
X68711085Y85942131D01*
X67919126Y83735958D02*
X68668659Y82986425D01*
X68668659Y82986425D02*
X69418192Y83735958D01*
G04 #@! TO.C,J3*
X63011805Y87229065D02*
X63761338Y87978598D01*
X62262272Y87978598D02*
X63011805Y87229065D01*
X61555165Y88685705D02*
X63054231Y90184771D01*
X63054231Y90184771D02*
X63011805Y90227197D01*
X61555165Y88685705D02*
X61512739Y88728131D01*
X61512739Y88728131D02*
X63011805Y90227197D01*
G04 #@! TO.C,S3*
X12022528Y57684371D02*
X12022528Y51564371D01*
X12022528Y51564371D02*
X15642528Y51564371D01*
X15642528Y51564371D02*
X15642528Y57684371D01*
X15642528Y57684371D02*
X12022528Y57684371D01*
G04 #@! TO.C,JP6*
X46868557Y52488908D02*
X49767695Y55388046D01*
X49767695Y55388046D02*
X48353481Y56802260D01*
X48353481Y56802260D02*
X45454343Y53903122D01*
X45454343Y53903122D02*
X46868557Y52488908D01*
G04 #@! TO.C,J1*
X13514330Y37731591D02*
X14263863Y38481124D01*
X12764797Y38481124D02*
X13514330Y37731591D01*
X12057690Y39188231D02*
X13556756Y40687297D01*
X13556756Y40687297D02*
X13514330Y40729723D01*
X12057690Y39188231D02*
X12015264Y39230657D01*
X12015264Y39230657D02*
X13514330Y40729723D01*
G04 #@! TO.C,J5*
X89464669Y18165945D02*
X89280822Y18349793D01*
X87668618Y19961996D02*
X86417039Y21213575D01*
X86417039Y21213575D02*
X86148339Y20944875D01*
X81028886Y15825422D02*
X82280465Y14573843D01*
X83892668Y12961639D02*
X84076516Y12777792D01*
X81028886Y15825422D02*
X81297586Y16094122D01*
G04 #@! TO.C,U2*
X88495934Y33658656D02*
X87838325Y33001046D01*
X86261476Y31424198D02*
X86919086Y32081807D01*
X86261476Y31424198D02*
X84734126Y32951549D01*
X88495934Y33658656D02*
X87463558Y34691031D01*
D13*
G04 #@! TO.C,Y2*
X26150329Y20372118D02*
G75*
G03X26150329Y20372118I-70711J0D01*
G01*
D12*
G04 #@! TO.C,D26*
X91380929Y24664257D02*
X89358604Y22641932D01*
X90023284Y26021902D02*
X91380929Y24664257D01*
X88000959Y23999577D02*
X90023284Y26021902D01*
D13*
G04 #@! TO.C,Y1*
X58394398Y22040891D02*
G75*
G03X58394398Y22040891I-70711J0D01*
G01*
D12*
G04 #@! TO.C,R13*
X28519136Y74571853D02*
X27670608Y73723325D01*
X28915116Y72478817D02*
X29763644Y73327345D01*
G04 #@! TO.C,R14*
X30682883Y70711050D02*
X31531411Y71559578D01*
X30286903Y72804086D02*
X29438375Y71955558D01*
G04 #@! TO.C,JP7*
X31863751Y67479572D02*
X34762889Y70378710D01*
X34762889Y70378710D02*
X33348675Y71792924D01*
X33348675Y71792924D02*
X30449537Y68893786D01*
X30449537Y68893786D02*
X31863751Y67479572D01*
G04 #@! TO.C,JP5*
X32924411Y66418912D02*
X34338625Y65004698D01*
X35823549Y69318050D02*
X32924411Y66418912D01*
X37237763Y67903836D02*
X35823549Y69318050D01*
X34338625Y65004698D02*
X37237763Y67903836D01*
G04 #@! TO.C,J2*
X16257905Y33573802D02*
X17756971Y35072868D01*
X16300331Y33531376D02*
X16257905Y33573802D01*
X17799397Y35030442D02*
X17756971Y35072868D01*
X16300331Y33531376D02*
X17799397Y35030442D01*
X17007438Y32824269D02*
X17756971Y32074736D01*
X17756971Y32074736D02*
X18506504Y32824269D01*
G04 #@! TO.C,R1*
X70422284Y71248452D02*
X69573756Y72096980D01*
X68329248Y70852472D02*
X69177776Y70003944D01*
D14*
G04 #@! TO.C,M1*
X75760940Y13725315D02*
X88488862Y26453237D01*
X55961950Y33524305D02*
X75760940Y13725315D01*
X68689872Y46252227D02*
X55961950Y33524305D01*
X88488862Y26453237D02*
X68689872Y46252227D01*
D12*
G04 #@! TO.C,JP2*
X79628814Y45382486D02*
X81608713Y47362385D01*
X81608713Y47362385D02*
X80194500Y48776598D01*
X80194500Y48776598D02*
X78214601Y46796699D01*
X78214601Y46796699D02*
X79628814Y45382486D01*
G04 #@! TO.C,JP3*
X46515004Y25123876D02*
X44535105Y23143977D01*
X44535105Y23143977D02*
X45949318Y21729764D01*
X45949318Y21729764D02*
X47929217Y23709663D01*
X47929217Y23709663D02*
X46515004Y25123876D01*
G04 #@! TO.C,JP1*
X76093281Y49059441D02*
X77507494Y47645228D01*
X78073180Y51039340D02*
X76093281Y49059441D01*
X79487393Y49625127D02*
X78073180Y51039340D01*
X77507494Y47645228D02*
X79487393Y49625127D01*
G04 #@! TO.C,R10*
X30640456Y38877103D02*
X29791928Y38028575D01*
X31036436Y36784067D02*
X31884964Y37632595D01*
G04 #@! TO.C,R9*
X87916106Y77075012D02*
X88764634Y77923540D01*
X87520126Y79168048D02*
X86671598Y78319520D01*
G04 #@! TO.C,R4*
X68421172Y61949998D02*
X67572644Y62798526D01*
X66328136Y61554018D02*
X67176664Y60705490D01*
G04 #@! TO.C,R5*
X86749380Y60436789D02*
X85900852Y59588261D01*
X87145360Y58343753D02*
X87993888Y59192281D01*
G04 #@! TO.C,R3*
X67692852Y63003586D02*
X68541380Y62155058D01*
X69785888Y63399566D02*
X68937360Y64248094D01*
G04 #@! TO.C,R2*
X71157675Y64799638D02*
X70309147Y65648166D01*
X69064639Y64403658D02*
X69913167Y63555130D01*
G04 #@! TO.C,JP4*
X79911657Y36331519D02*
X81325870Y37745732D01*
X77931758Y38311418D02*
X79911657Y36331519D01*
X79345971Y39725631D02*
X77931758Y38311418D01*
X81325870Y37745732D02*
X79345971Y39725631D01*
G04 #@! TO.C,R6*
X85115963Y62098490D02*
X84267435Y61249962D01*
X85511943Y60005454D02*
X86360471Y60853982D01*
G04 #@! TO.C,C7*
X29318167Y28871542D02*
X30025274Y28164435D01*
X28823193Y26962354D02*
X28116086Y27669461D01*
G04 #@! TO.C,C10*
X43424947Y19601373D02*
X42717840Y18894266D01*
X41515759Y20096347D02*
X42222866Y20803454D01*
G04 #@! TO.C,C4*
X83411836Y35518346D02*
X84118943Y36225453D01*
X85321024Y35023372D02*
X84613917Y34316265D01*
G04 #@! TO.C,C37*
X55657894Y20421616D02*
X55162920Y20916590D01*
X54314392Y20068062D02*
X54809366Y19573088D01*
G04 #@! TO.C,C8*
X55382123Y29041248D02*
X54675016Y29748355D01*
X55877097Y30950436D02*
X56584204Y30243329D01*
G04 #@! TO.C,C5*
X91458711Y74904194D02*
X90751604Y74197087D01*
X89549523Y75399168D02*
X90256630Y76106275D01*
G04 #@! TO.C,C40*
X24615906Y16886083D02*
X24120932Y17381057D01*
X23272404Y16532529D02*
X23767378Y16037555D01*
G04 #@! TO.C,C39*
X19941931Y21574201D02*
X19446957Y22069175D01*
X18598429Y21220647D02*
X19093403Y20725673D01*
G04 #@! TO.C,C3*
X87654477Y27952304D02*
X86947370Y28659411D01*
X88149451Y29861492D02*
X88856558Y29154385D01*
G04 #@! TO.C,C9*
X33419387Y32831340D02*
X32712280Y33538447D01*
X33914361Y34740528D02*
X34621468Y34033421D01*
G04 #@! TO.C,C38*
X60324799Y15754712D02*
X59829825Y16249686D01*
X58981297Y15401158D02*
X59476271Y14906184D01*
G04 #@! TO.C,C2*
X56980184Y62671246D02*
X57687291Y61964139D01*
X56485210Y60762058D02*
X55778103Y61469165D01*
G04 #@! TO.C,C11*
X81714780Y37215402D02*
X82421887Y37922509D01*
X83623968Y36720428D02*
X82916861Y36013321D01*
G04 #@! TO.C,C6*
X53692137Y28878613D02*
X54399244Y28171506D01*
X53197163Y26969425D02*
X52490056Y27676532D01*
G04 #@! TO.C,C1*
X58564103Y64255165D02*
X59271210Y63548058D01*
X58069129Y62345977D02*
X57362022Y63053084D01*
D11*
G04 #@! TO.C,*
G36*
X52136503Y13965732D02*
X51238477Y13067706D01*
X52136503Y12169680D01*
X53034528Y13067706D01*
X52136503Y13965732D01*
X52136503Y13965732D01*
G37*
X52136503Y13965732D02*
X51238477Y13067706D01*
X52136503Y12169680D01*
X53034528Y13067706D01*
X52136503Y13965732D01*
G36*
X46748349Y8577578D02*
X45850323Y7679552D01*
X46748349Y6781527D01*
X47646375Y7679552D01*
X46748349Y8577578D01*
X46748349Y8577578D01*
G37*
X46748349Y8577578D02*
X45850323Y7679552D01*
X46748349Y6781527D01*
X47646375Y7679552D01*
X46748349Y8577578D01*
G36*
X46748349Y16959151D02*
X46449007Y16659808D01*
X46748349Y16360466D01*
X47047691Y16659808D01*
X46748349Y16959151D01*
X46748349Y16959151D01*
G37*
X46748349Y16959151D02*
X46449007Y16659808D01*
X46748349Y16360466D01*
X47047691Y16659808D01*
X46748349Y16959151D01*
G36*
X47347033Y18755201D02*
X47047691Y18455860D01*
X47347033Y18156518D01*
X47646375Y18455860D01*
X47347033Y18755201D01*
X47347033Y18755201D01*
G37*
X47347033Y18755201D02*
X47047691Y18455860D01*
X47347033Y18156518D01*
X47646375Y18455860D01*
X47347033Y18755201D01*
G36*
X47945716Y11570996D02*
X47646375Y11271655D01*
X47945716Y10972313D01*
X48245058Y11271655D01*
X47945716Y11570996D01*
X47945716Y11570996D01*
G37*
X47945716Y11570996D02*
X47646375Y11271655D01*
X47945716Y10972313D01*
X48245058Y11271655D01*
X47945716Y11570996D01*
G36*
X47646375Y10672972D02*
X47945717Y10373629D01*
X48245059Y10672971D01*
X47945716Y10972313D01*
X47646375Y10672972D01*
X47646375Y10672972D01*
G37*
X47646375Y10672972D02*
X47945717Y10373629D01*
X48245059Y10672971D01*
X47945716Y10972313D01*
X47646375Y10672972D01*
G36*
X48544400Y10972312D02*
X48843743Y11271655D01*
X48544400Y11570997D01*
X48245058Y11271655D01*
X48544400Y10972312D01*
X48544400Y10972312D01*
G37*
X48544400Y10972312D02*
X48843743Y11271655D01*
X48544400Y11570997D01*
X48245058Y11271655D01*
X48544400Y10972312D01*
G36*
X46149665Y14564416D02*
X46449007Y14863757D01*
X46149665Y15163099D01*
X45850323Y14863757D01*
X46149665Y14564416D01*
X46149665Y14564416D01*
G37*
X46149665Y14564416D02*
X46449007Y14863757D01*
X46149665Y15163099D01*
X45850323Y14863757D01*
X46149665Y14564416D01*
G36*
X45550982Y15163099D02*
X45251640Y14863757D01*
X45550982Y14564416D01*
X45850323Y14863757D01*
X45550982Y15163099D01*
X45550982Y15163099D01*
G37*
X45550982Y15163099D02*
X45251640Y14863757D01*
X45550982Y14564416D01*
X45850323Y14863757D01*
X45550982Y15163099D01*
G36*
X44652956Y16061124D02*
X44353615Y15761783D01*
X44652956Y15462441D01*
X44952298Y15761783D01*
X44652956Y16061124D01*
X44652956Y16061124D01*
G37*
X44652956Y16061124D02*
X44353615Y15761783D01*
X44652956Y15462441D01*
X44952298Y15761783D01*
X44652956Y16061124D01*
G36*
X41360195Y13965732D02*
X40462170Y13067706D01*
X41360195Y12169680D01*
X42258221Y13067706D01*
X41360195Y13965732D01*
X41360195Y13965732D01*
G37*
X41360195Y13965732D02*
X40462170Y13067706D01*
X41360195Y12169680D01*
X42258221Y13067706D01*
X41360195Y13965732D01*
G36*
X49442426Y8876920D02*
X48843742Y8278236D01*
X49143084Y7978894D01*
X49741768Y8577578D01*
X49442426Y8876920D01*
X49442426Y8876920D01*
G37*
X49442426Y8876920D02*
X48843742Y8278236D01*
X49143084Y7978894D01*
X49741768Y8577578D01*
X49442426Y8876920D01*
G36*
X52136503Y15163100D02*
X50041109Y13067706D01*
X51837160Y11271655D01*
X52136503Y11570997D01*
X50639794Y13067706D01*
X52136503Y14564415D01*
X53633212Y13067706D01*
X52136503Y11570997D01*
X51837160Y11271655D01*
X52136503Y10972312D01*
X54231896Y13067706D01*
X52136503Y15163100D01*
X52136503Y15163100D01*
G37*
X52136503Y15163100D02*
X50041109Y13067706D01*
X51837160Y11271655D01*
X52136503Y11570997D01*
X50639794Y13067706D01*
X52136503Y14564415D01*
X53633212Y13067706D01*
X52136503Y11570997D01*
X51837160Y11271655D01*
X52136503Y10972312D01*
X54231896Y13067706D01*
X52136503Y15163100D01*
G36*
X46748349Y9774946D02*
X44652955Y7679552D01*
X46449007Y5883501D01*
X46748349Y6182843D01*
X45251640Y7679552D01*
X46748349Y9176261D01*
X48245058Y7679552D01*
X46748349Y6182843D01*
X46449007Y5883501D01*
X46748349Y5584159D01*
X48843743Y7679552D01*
X46748349Y9774946D01*
X46748349Y9774946D01*
G37*
X46748349Y9774946D02*
X44652955Y7679552D01*
X46449007Y5883501D01*
X46748349Y6182843D01*
X45251640Y7679552D01*
X46748349Y9176261D01*
X48245058Y7679552D01*
X46748349Y6182843D01*
X46449007Y5883501D01*
X46748349Y5584159D01*
X48843743Y7679552D01*
X46748349Y9774946D01*
G36*
X50939135Y15163099D02*
X50041110Y14265073D01*
X50340451Y13965732D01*
X51238477Y14863757D01*
X50939135Y15163099D01*
X50939135Y15163099D01*
G37*
X50939135Y15163099D02*
X50041110Y14265073D01*
X50340451Y13965732D01*
X51238477Y14863757D01*
X50939135Y15163099D01*
G36*
X43156247Y10972312D02*
X42557563Y10373629D01*
X42856905Y10074288D01*
X43156247Y10373629D01*
X43455588Y10074288D01*
X43754930Y10373629D01*
X43455588Y10672971D01*
X44054272Y11271655D01*
X43754931Y11570996D01*
X43455589Y11271655D01*
X43156247Y11570997D01*
X42856904Y11271655D01*
X43156247Y10972312D01*
X43156247Y10972312D01*
G37*
X43156247Y10972312D02*
X42557563Y10373629D01*
X42856905Y10074288D01*
X43156247Y10373629D01*
X43455588Y10074288D01*
X43754930Y10373629D01*
X43455588Y10672971D01*
X44054272Y11271655D01*
X43754931Y11570996D01*
X43455589Y11271655D01*
X43156247Y11570997D01*
X42856904Y11271655D01*
X43156247Y10972312D01*
G36*
X42557563Y11570996D02*
X42258221Y11271655D01*
X42557563Y10972313D01*
X42856904Y11271655D01*
X42557563Y11570996D01*
X42557563Y11570996D01*
G37*
X42557563Y11570996D02*
X42258221Y11271655D01*
X42557563Y10972313D01*
X42856904Y11271655D01*
X42557563Y11570996D01*
G36*
X42258221Y10672972D02*
X41958879Y10373629D01*
X42258221Y10074287D01*
X42557563Y10373629D01*
X42258221Y10672972D01*
X42258221Y10672972D01*
G37*
X42258221Y10672972D02*
X41958879Y10373629D01*
X42258221Y10074287D01*
X42557563Y10373629D01*
X42258221Y10672972D01*
G36*
X44054272Y10074287D02*
X43455589Y9475604D01*
X43754931Y9176262D01*
X44353614Y9774945D01*
X44054272Y10074287D01*
X44054272Y10074287D01*
G37*
X44054272Y10074287D02*
X43455589Y9475604D01*
X43754931Y9176262D01*
X44353614Y9774945D01*
X44054272Y10074287D01*
G36*
X43455588Y8876920D02*
X43754930Y8577578D01*
X44054272Y8876920D01*
X43754931Y9176262D01*
X43455588Y8876920D01*
X43455588Y8876920D01*
G37*
X43455588Y8876920D02*
X43754930Y8577578D01*
X44054272Y8876920D01*
X43754931Y9176262D01*
X43455588Y8876920D01*
G36*
X44353615Y8577578D02*
X44054272Y8278236D01*
X44353614Y7978894D01*
X45550982Y9176262D01*
X45251640Y9475604D01*
X44652956Y8876920D01*
X44353614Y9176262D01*
X44054272Y8876920D01*
X44353615Y8577578D01*
X44353615Y8577578D01*
G37*
X44353615Y8577578D02*
X44054272Y8278236D01*
X44353614Y7978894D01*
X45550982Y9176262D01*
X45251640Y9475604D01*
X44652956Y8876920D01*
X44353614Y9176262D01*
X44054272Y8876920D01*
X44353615Y8577578D01*
G36*
X45251640Y11271655D02*
X45550982Y10972313D01*
X46149665Y11570996D01*
X45850323Y11870338D01*
X46149666Y12169680D01*
X45850323Y12469023D01*
X46449007Y13067706D01*
X46149665Y13367048D01*
X47347033Y14564416D01*
X47646375Y14863757D01*
X47047691Y15462441D01*
X48245058Y16659808D01*
X47945716Y16959150D01*
X48544400Y17557834D01*
X49143084Y16959150D01*
X49442426Y17258492D01*
X49741767Y16959150D01*
X49442426Y16659808D01*
X50041110Y16061124D01*
X49741768Y15761783D01*
X48843743Y16659808D01*
X47945717Y15761783D01*
X48245059Y15462441D01*
X47646375Y14863757D01*
X47347033Y14564416D01*
X47646375Y14265074D01*
X46449007Y13067706D01*
X46748349Y12768364D01*
X46449007Y12469022D01*
X46748349Y12169680D01*
X47047691Y12469022D01*
X46748349Y12768364D01*
X47646375Y13666389D01*
X47945717Y13965732D01*
X47646375Y14265074D01*
X48245058Y14863757D01*
X48843742Y15462441D01*
X48544400Y15761783D01*
X48843742Y16061124D01*
X49143083Y15761783D01*
X48843742Y15462441D01*
X48245058Y14863757D01*
X48544400Y14564415D01*
X47945717Y13965732D01*
X47646375Y13666389D01*
X47945716Y13367048D01*
X48544400Y13965732D01*
X49143084Y14564416D01*
X49442426Y14265074D01*
X48843742Y13666390D01*
X48544400Y13965732D01*
X47945716Y13367048D01*
X47047691Y12469022D01*
X46748349Y12169680D01*
X47047691Y11870339D01*
X47347032Y12169680D01*
X47646375Y11870338D01*
X47945717Y12169680D01*
X47646375Y12469023D01*
X47945716Y12768364D01*
X48245059Y12469022D01*
X48843743Y13067706D01*
X48544400Y13367048D01*
X48843742Y13666390D01*
X49442426Y13067706D01*
X48245059Y11870339D01*
X48544400Y11570997D01*
X48843742Y11870339D01*
X49143084Y11570996D01*
X49442426Y11870338D01*
X49143083Y12169680D01*
X49442426Y12469023D01*
X49741768Y12169680D01*
X49442426Y11870338D01*
X49143084Y11570996D01*
X50041110Y10672971D01*
X49741768Y10373629D01*
X49442426Y10672972D01*
X49143083Y10373629D01*
X48843742Y10672971D01*
X48245059Y10074288D01*
X47945717Y10373629D01*
X47646375Y10074287D01*
X47347032Y10373629D01*
X47646375Y10672972D01*
X47347033Y10972313D01*
X47047691Y10672971D01*
X46748349Y10972312D01*
X47047691Y11271655D01*
X46748349Y11570997D01*
X45850323Y10672972D01*
X45550982Y10972313D01*
X45251639Y10672971D01*
X45550981Y10373629D01*
X45251639Y10074288D01*
X45550982Y9774945D01*
X45850323Y10074287D01*
X45550981Y10373629D01*
X45850323Y10672972D01*
X46149666Y10373629D01*
X45850323Y10074287D01*
X46149665Y9774945D01*
X46449007Y10074288D01*
X46149666Y10373629D01*
X46449007Y10672971D01*
X46748349Y10373629D01*
X47047691Y10672971D01*
X47347032Y10373629D01*
X47047691Y10074288D01*
X47347033Y9774945D01*
X47646375Y10074287D01*
X47945716Y9774945D01*
X47646375Y9475604D01*
X48544400Y8577578D01*
X48843742Y8876920D01*
X48544400Y9176261D01*
X48843743Y9475604D01*
X48544400Y9774946D01*
X48843742Y10074288D01*
X49442426Y9475604D01*
X50041110Y10074288D01*
X50340451Y9774946D01*
X50639793Y10074288D01*
X50041110Y10672971D01*
X50340451Y10972312D01*
X50939135Y10373629D01*
X51238477Y10672972D01*
X50939135Y10972313D01*
X51238477Y11271655D01*
X50639793Y11870339D01*
X50340451Y11570997D01*
X50041110Y11870339D01*
X50340451Y12169680D01*
X49442426Y13067706D01*
X49741767Y13367048D01*
X49442426Y13666389D01*
X49741768Y13965732D01*
X49442426Y14265074D01*
X49741767Y14564416D01*
X49442426Y14863757D01*
X49143084Y14564416D01*
X48843743Y14863757D01*
X49442426Y15462440D01*
X49741767Y15163099D01*
X50340451Y15761783D01*
X50041110Y16061124D01*
X50340451Y16360466D01*
X50639793Y16061124D01*
X50340451Y15761783D01*
X49741767Y15163099D01*
X50041109Y14863757D01*
X50939135Y15761783D01*
X51537819Y15163099D01*
X51837161Y15462441D01*
X49442426Y17857176D01*
X49143083Y17557834D01*
X48843742Y17857176D01*
X48544400Y17557834D01*
X48245059Y17857176D01*
X48843743Y18455860D01*
X47646375Y19653228D01*
X47347032Y19353885D01*
X47047691Y19653227D01*
X47347033Y19952569D01*
X46748349Y20551253D01*
X45550981Y19353885D01*
X45850323Y19054543D01*
X46449007Y19653227D01*
X46748349Y19353885D01*
X46149665Y18755201D01*
X45850323Y19054543D01*
X45251640Y18455860D01*
X45550982Y18156518D01*
X45251639Y17857176D01*
X44952298Y18156517D01*
X44652956Y17857176D01*
X44353614Y18156518D01*
X43754930Y17557834D01*
X44054272Y17258492D01*
X43754931Y16959150D01*
X43455588Y17258492D01*
X42856904Y16659808D01*
X43156247Y16360466D01*
X42856905Y16061124D01*
X42557563Y16360467D01*
X42258221Y16061125D01*
X42557563Y15761783D01*
X42856905Y16061124D01*
X43156247Y15761783D01*
X43455588Y16061124D01*
X43156247Y16360466D01*
X43455589Y16659808D01*
X43754931Y16360467D01*
X43455588Y16061124D01*
X43156247Y15761783D01*
X42856905Y15462441D01*
X42557563Y15761783D01*
X42258221Y15462440D01*
X41958879Y15761783D01*
X41659537Y15462441D01*
X42856905Y14265073D01*
X43156247Y14564415D01*
X42557563Y15163099D01*
X42856905Y15462441D01*
X43156247Y15163100D01*
X43455588Y15462441D01*
X43754931Y15163099D01*
X43156247Y14564415D01*
X43455588Y14265073D01*
X43754931Y14564416D01*
X44054272Y14265074D01*
X43754930Y13965732D01*
X44054272Y13666389D01*
X43754931Y13367048D01*
X44054272Y13067706D01*
X44353614Y13367048D01*
X44054272Y13666389D01*
X44652956Y14265073D01*
X43754931Y15163099D01*
X44353615Y15761783D01*
X43754931Y16360467D01*
X44353614Y16959150D01*
X44054272Y17258492D01*
X44353615Y17557834D01*
X44652956Y17258492D01*
X44353614Y16959150D01*
X44652955Y16659808D01*
X44952298Y16959151D01*
X44652956Y17258492D01*
X44952298Y17557834D01*
X45251639Y17258492D01*
X44952298Y16959151D01*
X44652955Y16659808D01*
X44353614Y16360467D01*
X44652956Y16061124D01*
X45251640Y16659808D01*
X45850323Y17258492D01*
X45550981Y17557834D01*
X45850323Y17857176D01*
X46149665Y18156518D01*
X45850323Y18455860D01*
X46149665Y18755201D01*
X46449007Y18455860D01*
X46149665Y18156518D01*
X45850323Y17857176D01*
X46149666Y17557834D01*
X45850323Y17258492D01*
X45251640Y16659808D01*
X45850323Y16061125D01*
X45251639Y15462441D01*
X45550982Y15163099D01*
X45850323Y15462440D01*
X46149665Y15163099D01*
X46449007Y15462441D01*
X46748349Y15761783D01*
X45850323Y16659808D01*
X46748349Y17557834D01*
X47347033Y16959150D01*
X47646375Y17258492D01*
X46748349Y18156517D01*
X47047691Y18455860D01*
X46748349Y18755202D01*
X47047691Y19054544D01*
X47347033Y18755201D01*
X47646375Y19054543D01*
X47945716Y18755201D01*
X47646375Y18455860D01*
X47945716Y18156518D01*
X47646375Y17857176D01*
X47945717Y17557834D01*
X47646375Y17258492D01*
X47347033Y16959150D01*
X47646375Y16659808D01*
X46748349Y15761783D01*
X46449007Y15462441D01*
X47047691Y14863757D01*
X46449007Y14265073D01*
X46149665Y14564416D01*
X45550981Y13965732D01*
X45251639Y14265073D01*
X44952298Y13965732D01*
X45251639Y13666390D01*
X44952298Y13367048D01*
X44652956Y13666390D01*
X44353614Y13367048D01*
X44054272Y13067706D01*
X43455588Y12469022D01*
X43754930Y12169680D01*
X44353614Y12768364D01*
X44652956Y12469022D01*
X44952298Y12768364D01*
X44652955Y13067706D01*
X44952298Y13367048D01*
X45251640Y13067706D01*
X44952298Y12768364D01*
X44652956Y12469022D01*
X44054272Y11870338D01*
X44353614Y11570996D01*
X44652956Y11870339D01*
X44952298Y11570997D01*
X45251639Y11870339D01*
X44952298Y12169680D01*
X45251639Y12469022D01*
X45550982Y12768364D01*
X45251640Y13067706D01*
X45850323Y13666389D01*
X46149665Y13367048D01*
X45550982Y12768364D01*
X45251639Y12469022D01*
X45550981Y12169680D01*
X45251639Y11870339D01*
X44952298Y11570997D01*
X44353614Y10972313D01*
X44652956Y10672971D01*
X45251640Y11271655D01*
X45251640Y11271655D01*
G37*
X45251640Y11271655D02*
X45550982Y10972313D01*
X46149665Y11570996D01*
X45850323Y11870338D01*
X46149666Y12169680D01*
X45850323Y12469023D01*
X46449007Y13067706D01*
X46149665Y13367048D01*
X47347033Y14564416D01*
X47646375Y14863757D01*
X47047691Y15462441D01*
X48245058Y16659808D01*
X47945716Y16959150D01*
X48544400Y17557834D01*
X49143084Y16959150D01*
X49442426Y17258492D01*
X49741767Y16959150D01*
X49442426Y16659808D01*
X50041110Y16061124D01*
X49741768Y15761783D01*
X48843743Y16659808D01*
X47945717Y15761783D01*
X48245059Y15462441D01*
X47646375Y14863757D01*
X47347033Y14564416D01*
X47646375Y14265074D01*
X46449007Y13067706D01*
X46748349Y12768364D01*
X46449007Y12469022D01*
X46748349Y12169680D01*
X47047691Y12469022D01*
X46748349Y12768364D01*
X47646375Y13666389D01*
X47945717Y13965732D01*
X47646375Y14265074D01*
X48245058Y14863757D01*
X48843742Y15462441D01*
X48544400Y15761783D01*
X48843742Y16061124D01*
X49143083Y15761783D01*
X48843742Y15462441D01*
X48245058Y14863757D01*
X48544400Y14564415D01*
X47945717Y13965732D01*
X47646375Y13666389D01*
X47945716Y13367048D01*
X48544400Y13965732D01*
X49143084Y14564416D01*
X49442426Y14265074D01*
X48843742Y13666390D01*
X48544400Y13965732D01*
X47945716Y13367048D01*
X47047691Y12469022D01*
X46748349Y12169680D01*
X47047691Y11870339D01*
X47347032Y12169680D01*
X47646375Y11870338D01*
X47945717Y12169680D01*
X47646375Y12469023D01*
X47945716Y12768364D01*
X48245059Y12469022D01*
X48843743Y13067706D01*
X48544400Y13367048D01*
X48843742Y13666390D01*
X49442426Y13067706D01*
X48245059Y11870339D01*
X48544400Y11570997D01*
X48843742Y11870339D01*
X49143084Y11570996D01*
X49442426Y11870338D01*
X49143083Y12169680D01*
X49442426Y12469023D01*
X49741768Y12169680D01*
X49442426Y11870338D01*
X49143084Y11570996D01*
X50041110Y10672971D01*
X49741768Y10373629D01*
X49442426Y10672972D01*
X49143083Y10373629D01*
X48843742Y10672971D01*
X48245059Y10074288D01*
X47945717Y10373629D01*
X47646375Y10074287D01*
X47347032Y10373629D01*
X47646375Y10672972D01*
X47347033Y10972313D01*
X47047691Y10672971D01*
X46748349Y10972312D01*
X47047691Y11271655D01*
X46748349Y11570997D01*
X45850323Y10672972D01*
X45550982Y10972313D01*
X45251639Y10672971D01*
X45550981Y10373629D01*
X45251639Y10074288D01*
X45550982Y9774945D01*
X45850323Y10074287D01*
X45550981Y10373629D01*
X45850323Y10672972D01*
X46149666Y10373629D01*
X45850323Y10074287D01*
X46149665Y9774945D01*
X46449007Y10074288D01*
X46149666Y10373629D01*
X46449007Y10672971D01*
X46748349Y10373629D01*
X47047691Y10672971D01*
X47347032Y10373629D01*
X47047691Y10074288D01*
X47347033Y9774945D01*
X47646375Y10074287D01*
X47945716Y9774945D01*
X47646375Y9475604D01*
X48544400Y8577578D01*
X48843742Y8876920D01*
X48544400Y9176261D01*
X48843743Y9475604D01*
X48544400Y9774946D01*
X48843742Y10074288D01*
X49442426Y9475604D01*
X50041110Y10074288D01*
X50340451Y9774946D01*
X50639793Y10074288D01*
X50041110Y10672971D01*
X50340451Y10972312D01*
X50939135Y10373629D01*
X51238477Y10672972D01*
X50939135Y10972313D01*
X51238477Y11271655D01*
X50639793Y11870339D01*
X50340451Y11570997D01*
X50041110Y11870339D01*
X50340451Y12169680D01*
X49442426Y13067706D01*
X49741767Y13367048D01*
X49442426Y13666389D01*
X49741768Y13965732D01*
X49442426Y14265074D01*
X49741767Y14564416D01*
X49442426Y14863757D01*
X49143084Y14564416D01*
X48843743Y14863757D01*
X49442426Y15462440D01*
X49741767Y15163099D01*
X50340451Y15761783D01*
X50041110Y16061124D01*
X50340451Y16360466D01*
X50639793Y16061124D01*
X50340451Y15761783D01*
X49741767Y15163099D01*
X50041109Y14863757D01*
X50939135Y15761783D01*
X51537819Y15163099D01*
X51837161Y15462441D01*
X49442426Y17857176D01*
X49143083Y17557834D01*
X48843742Y17857176D01*
X48544400Y17557834D01*
X48245059Y17857176D01*
X48843743Y18455860D01*
X47646375Y19653228D01*
X47347032Y19353885D01*
X47047691Y19653227D01*
X47347033Y19952569D01*
X46748349Y20551253D01*
X45550981Y19353885D01*
X45850323Y19054543D01*
X46449007Y19653227D01*
X46748349Y19353885D01*
X46149665Y18755201D01*
X45850323Y19054543D01*
X45251640Y18455860D01*
X45550982Y18156518D01*
X45251639Y17857176D01*
X44952298Y18156517D01*
X44652956Y17857176D01*
X44353614Y18156518D01*
X43754930Y17557834D01*
X44054272Y17258492D01*
X43754931Y16959150D01*
X43455588Y17258492D01*
X42856904Y16659808D01*
X43156247Y16360466D01*
X42856905Y16061124D01*
X42557563Y16360467D01*
X42258221Y16061125D01*
X42557563Y15761783D01*
X42856905Y16061124D01*
X43156247Y15761783D01*
X43455588Y16061124D01*
X43156247Y16360466D01*
X43455589Y16659808D01*
X43754931Y16360467D01*
X43455588Y16061124D01*
X43156247Y15761783D01*
X42856905Y15462441D01*
X42557563Y15761783D01*
X42258221Y15462440D01*
X41958879Y15761783D01*
X41659537Y15462441D01*
X42856905Y14265073D01*
X43156247Y14564415D01*
X42557563Y15163099D01*
X42856905Y15462441D01*
X43156247Y15163100D01*
X43455588Y15462441D01*
X43754931Y15163099D01*
X43156247Y14564415D01*
X43455588Y14265073D01*
X43754931Y14564416D01*
X44054272Y14265074D01*
X43754930Y13965732D01*
X44054272Y13666389D01*
X43754931Y13367048D01*
X44054272Y13067706D01*
X44353614Y13367048D01*
X44054272Y13666389D01*
X44652956Y14265073D01*
X43754931Y15163099D01*
X44353615Y15761783D01*
X43754931Y16360467D01*
X44353614Y16959150D01*
X44054272Y17258492D01*
X44353615Y17557834D01*
X44652956Y17258492D01*
X44353614Y16959150D01*
X44652955Y16659808D01*
X44952298Y16959151D01*
X44652956Y17258492D01*
X44952298Y17557834D01*
X45251639Y17258492D01*
X44952298Y16959151D01*
X44652955Y16659808D01*
X44353614Y16360467D01*
X44652956Y16061124D01*
X45251640Y16659808D01*
X45850323Y17258492D01*
X45550981Y17557834D01*
X45850323Y17857176D01*
X46149665Y18156518D01*
X45850323Y18455860D01*
X46149665Y18755201D01*
X46449007Y18455860D01*
X46149665Y18156518D01*
X45850323Y17857176D01*
X46149666Y17557834D01*
X45850323Y17258492D01*
X45251640Y16659808D01*
X45850323Y16061125D01*
X45251639Y15462441D01*
X45550982Y15163099D01*
X45850323Y15462440D01*
X46149665Y15163099D01*
X46449007Y15462441D01*
X46748349Y15761783D01*
X45850323Y16659808D01*
X46748349Y17557834D01*
X47347033Y16959150D01*
X47646375Y17258492D01*
X46748349Y18156517D01*
X47047691Y18455860D01*
X46748349Y18755202D01*
X47047691Y19054544D01*
X47347033Y18755201D01*
X47646375Y19054543D01*
X47945716Y18755201D01*
X47646375Y18455860D01*
X47945716Y18156518D01*
X47646375Y17857176D01*
X47945717Y17557834D01*
X47646375Y17258492D01*
X47347033Y16959150D01*
X47646375Y16659808D01*
X46748349Y15761783D01*
X46449007Y15462441D01*
X47047691Y14863757D01*
X46449007Y14265073D01*
X46149665Y14564416D01*
X45550981Y13965732D01*
X45251639Y14265073D01*
X44952298Y13965732D01*
X45251639Y13666390D01*
X44952298Y13367048D01*
X44652956Y13666390D01*
X44353614Y13367048D01*
X44054272Y13067706D01*
X43455588Y12469022D01*
X43754930Y12169680D01*
X44353614Y12768364D01*
X44652956Y12469022D01*
X44952298Y12768364D01*
X44652955Y13067706D01*
X44952298Y13367048D01*
X45251640Y13067706D01*
X44952298Y12768364D01*
X44652956Y12469022D01*
X44054272Y11870338D01*
X44353614Y11570996D01*
X44652956Y11870339D01*
X44952298Y11570997D01*
X45251639Y11870339D01*
X44952298Y12169680D01*
X45251639Y12469022D01*
X45550982Y12768364D01*
X45251640Y13067706D01*
X45850323Y13666389D01*
X46149665Y13367048D01*
X45550982Y12768364D01*
X45251639Y12469022D01*
X45550981Y12169680D01*
X45251639Y11870339D01*
X44952298Y11570997D01*
X44353614Y10972313D01*
X44652956Y10672971D01*
X45251640Y11271655D01*
G36*
X51537819Y10373629D02*
X51837161Y10672971D01*
X51537819Y10972313D01*
X51238477Y10672972D01*
X51537819Y10373629D01*
X51537819Y10373629D01*
G37*
X51537819Y10373629D02*
X51837161Y10672971D01*
X51537819Y10972313D01*
X51238477Y10672972D01*
X51537819Y10373629D01*
G36*
X44652955Y9475604D02*
X44952298Y9774946D01*
X44652956Y10074288D01*
X44353614Y9774945D01*
X44652955Y9475604D01*
X44652955Y9475604D01*
G37*
X44652955Y9475604D02*
X44952298Y9774946D01*
X44652956Y10074288D01*
X44353614Y9774945D01*
X44652955Y9475604D01*
G36*
X44353615Y10373629D02*
X44652956Y10074288D01*
X44952298Y10373629D01*
X44652956Y10672971D01*
X44353615Y10373629D01*
X44353615Y10373629D01*
G37*
X44353615Y10373629D02*
X44652956Y10074288D01*
X44952298Y10373629D01*
X44652956Y10672971D01*
X44353615Y10373629D01*
G36*
X41360195Y15163100D02*
X39264802Y13067706D01*
X41060853Y11271655D01*
X41360195Y11570997D01*
X39863486Y13067706D01*
X41360195Y14564415D01*
X42856904Y13067706D01*
X41360195Y11570997D01*
X41060853Y11271655D01*
X41360195Y10972312D01*
X43455589Y13067706D01*
X41360195Y15163100D01*
X41360195Y15163100D01*
G37*
X41360195Y15163100D02*
X39264802Y13067706D01*
X41060853Y11271655D01*
X41360195Y11570997D01*
X39863486Y13067706D01*
X41360195Y14564415D01*
X42856904Y13067706D01*
X41360195Y11570997D01*
X41060853Y11271655D01*
X41360195Y10972312D01*
X43455589Y13067706D01*
X41360195Y15163100D01*
G04 #@! TO.C,JP9*
D14*
X52409244Y51379424D02*
X52914320Y50874348D01*
X53049007Y50807005D01*
X53183694Y50807005D01*
X53318381Y50874348D01*
X53385725Y50941692D01*
X52779633Y50335600D02*
X52072526Y51042707D01*
X51803152Y50773333D01*
X51769481Y50672318D01*
X51769481Y50604974D01*
X51803152Y50503959D01*
X51904168Y50402943D01*
X52005183Y50369272D01*
X52072526Y50369272D01*
X52173542Y50402943D01*
X52442916Y50672318D01*
X52038855Y49594821D02*
X51904168Y49460134D01*
X51803152Y49426463D01*
X51735809Y49426463D01*
X51567450Y49460134D01*
X51399091Y49561150D01*
X51129717Y49830524D01*
X51096046Y49931539D01*
X51096046Y49998882D01*
X51129717Y50099898D01*
X51264404Y50234585D01*
X51365420Y50268256D01*
X51432763Y50268256D01*
X51533778Y50234585D01*
X51702137Y50066226D01*
X51735809Y49965211D01*
X51735809Y49897867D01*
X51702137Y49796852D01*
X51567450Y49662165D01*
X51466435Y49628493D01*
X51399091Y49628493D01*
X51298076Y49662165D01*
G04 #@! TO.C,Q1*
X88151471Y64783813D02*
X88185143Y64884828D01*
X88185143Y65019515D01*
X88185143Y65221546D01*
X88218815Y65322561D01*
X88286158Y65389904D01*
X88420845Y65187874D02*
X88454517Y65288889D01*
X88454517Y65423576D01*
X88353502Y65591935D01*
X88117799Y65827637D01*
X87949441Y65928652D01*
X87814754Y65928652D01*
X87713738Y65894981D01*
X87579051Y65760294D01*
X87545380Y65659278D01*
X87545380Y65524591D01*
X87646395Y65356233D01*
X87882097Y65120530D01*
X88050456Y65019515D01*
X88185143Y65019515D01*
X88286158Y65053187D01*
X88420845Y65187874D01*
X87444364Y64211393D02*
X87848425Y64615454D01*
X87646395Y64413424D02*
X86939288Y65120530D01*
X87107647Y65086859D01*
X87242334Y65086859D01*
X87343349Y65120530D01*
G04 #@! TO.C,JP8*
X49177766Y54412913D02*
X49682842Y53907837D01*
X49817529Y53840494D01*
X49952216Y53840494D01*
X50086903Y53907837D01*
X50154247Y53975181D01*
X49548155Y53369089D02*
X48841048Y54076196D01*
X48571674Y53806822D01*
X48538003Y53705807D01*
X48538003Y53638463D01*
X48571674Y53537448D01*
X48672690Y53436432D01*
X48773705Y53402761D01*
X48841048Y53402761D01*
X48942064Y53436432D01*
X49211438Y53705807D01*
X48335972Y52965028D02*
X48369644Y53066043D01*
X48369644Y53133387D01*
X48335972Y53234402D01*
X48302300Y53268074D01*
X48201285Y53301745D01*
X48133942Y53301745D01*
X48032926Y53268074D01*
X47898239Y53133387D01*
X47864568Y53032371D01*
X47864568Y52965028D01*
X47898239Y52864013D01*
X47931911Y52830341D01*
X48032926Y52796669D01*
X48100270Y52796669D01*
X48201285Y52830341D01*
X48335972Y52965028D01*
X48436987Y52998700D01*
X48504331Y52998700D01*
X48605346Y52965028D01*
X48740033Y52830341D01*
X48773705Y52729326D01*
X48773705Y52661982D01*
X48740033Y52560967D01*
X48605346Y52426280D01*
X48504331Y52392608D01*
X48436987Y52392608D01*
X48335972Y52426280D01*
X48201285Y52560967D01*
X48167613Y52661982D01*
X48167613Y52729326D01*
X48201285Y52830341D01*
G04 #@! TO.C,S4*
X69555172Y9371591D02*
X69439707Y9274928D01*
X69218179Y9187666D01*
X69112116Y9197067D01*
X69050358Y9223920D01*
X68971147Y9295078D01*
X68936242Y9383690D01*
X68945643Y9489753D01*
X68972496Y9551511D01*
X69043655Y9630722D01*
X69203425Y9744837D01*
X69274584Y9824048D01*
X69301437Y9885806D01*
X69310838Y9991869D01*
X69275933Y10080481D01*
X69196722Y10151639D01*
X69134964Y10178492D01*
X69028901Y10187893D01*
X68807373Y10100631D01*
X68691908Y10003968D01*
X67999122Y9423991D02*
X68243456Y8803712D01*
X68081031Y9865698D02*
X68564345Y9288376D01*
X67988372Y9061494D01*
G04 #@! TO.C,Y4*
X19469852Y27669462D02*
X19806570Y27332744D01*
X19335165Y28275553D02*
X19469852Y27669462D01*
X18863761Y27804149D01*
X18560715Y27029699D02*
X19032119Y26558294D01*
X18459700Y27467431D02*
X19133135Y27130714D01*
X18695402Y26692981D01*
G04 #@! TO.C,S2*
X93429349Y34105069D02*
X93421297Y33954700D01*
X93334035Y33733172D01*
X93254825Y33662013D01*
X93193067Y33635160D01*
X93087003Y33625759D01*
X92998392Y33660664D01*
X92927233Y33739875D01*
X92900380Y33801633D01*
X92890979Y33907697D01*
X92916483Y34102371D01*
X92907083Y34208435D01*
X92880229Y34270193D01*
X92809071Y34349403D01*
X92720460Y34384308D01*
X92614396Y34374908D01*
X92552638Y34348054D01*
X92473427Y34276896D01*
X92386165Y34055368D01*
X92378113Y33904999D01*
X92282800Y33533101D02*
X92221042Y33506248D01*
X92141831Y33435089D01*
X92054569Y33213561D01*
X92063970Y33107498D01*
X92090823Y33045740D01*
X92161981Y32966529D01*
X92250593Y32931624D01*
X92400962Y32923573D01*
X93142058Y33245811D01*
X92915177Y32669838D01*
G04 #@! TO.C,Q2*
X81695586Y58582486D02*
X81729258Y58683501D01*
X81729258Y58818188D01*
X81729258Y59020219D01*
X81762930Y59121234D01*
X81830273Y59188577D01*
X81964960Y58986547D02*
X81998632Y59087562D01*
X81998632Y59222249D01*
X81897617Y59390608D01*
X81661914Y59626310D01*
X81493556Y59727325D01*
X81358869Y59727325D01*
X81257853Y59693654D01*
X81123166Y59558967D01*
X81089495Y59457951D01*
X81089495Y59323264D01*
X81190510Y59154906D01*
X81426212Y58919203D01*
X81594571Y58818188D01*
X81729258Y58818188D01*
X81830273Y58851860D01*
X81964960Y58986547D01*
X80752777Y59053890D02*
X80685434Y59053890D01*
X80584418Y59020219D01*
X80416060Y58851860D01*
X80382388Y58750845D01*
X80382388Y58683501D01*
X80416060Y58582486D01*
X80483403Y58515142D01*
X80618090Y58447799D01*
X81426212Y58447799D01*
X80988479Y58010066D01*
G04 #@! TO.C,S1*
X47573893Y90522472D02*
X47431036Y90474853D01*
X47192941Y90474853D01*
X47097703Y90522472D01*
X47050084Y90570091D01*
X47002465Y90665329D01*
X47002465Y90760567D01*
X47050084Y90855805D01*
X47097703Y90903424D01*
X47192941Y90951043D01*
X47383417Y90998662D01*
X47478655Y91046281D01*
X47526274Y91093900D01*
X47573893Y91189138D01*
X47573893Y91284376D01*
X47526274Y91379614D01*
X47478655Y91427233D01*
X47383417Y91474853D01*
X47145322Y91474853D01*
X47002465Y91427233D01*
X46050084Y90474853D02*
X46621512Y90474853D01*
X46335798Y90474853D02*
X46335798Y91474853D01*
X46431036Y91331995D01*
X46526274Y91236757D01*
X46621512Y91189138D01*
G04 #@! TO.C,Y3*
X54111013Y25385506D02*
X54447731Y25048788D01*
X53976326Y25991597D02*
X54111013Y25385506D01*
X53504922Y25520193D01*
X53336563Y25351834D02*
X52898830Y24914101D01*
X53403906Y24880430D01*
X53302891Y24779414D01*
X53269219Y24678399D01*
X53269219Y24611056D01*
X53302891Y24510040D01*
X53471250Y24341682D01*
X53572265Y24308010D01*
X53639609Y24308010D01*
X53740624Y24341682D01*
X53942654Y24543712D01*
X53976326Y24644727D01*
X53976326Y24712071D01*
G04 #@! TO.C,S3*
X11637288Y55386276D02*
X11684907Y55243419D01*
X11684907Y55005324D01*
X11637288Y54910086D01*
X11589669Y54862467D01*
X11494431Y54814848D01*
X11399193Y54814848D01*
X11303955Y54862467D01*
X11256336Y54910086D01*
X11208717Y55005324D01*
X11161098Y55195800D01*
X11113479Y55291038D01*
X11065860Y55338657D01*
X10970622Y55386276D01*
X10875384Y55386276D01*
X10780146Y55338657D01*
X10732527Y55291038D01*
X10684907Y55195800D01*
X10684907Y54957705D01*
X10732527Y54814848D01*
X10684907Y54481514D02*
X10684907Y53862467D01*
X11065860Y54195800D01*
X11065860Y54052943D01*
X11113479Y53957705D01*
X11161098Y53910086D01*
X11256336Y53862467D01*
X11494431Y53862467D01*
X11589669Y53910086D01*
X11637288Y53957705D01*
X11684907Y54052943D01*
X11684907Y54338657D01*
X11637288Y54433895D01*
X11589669Y54481514D01*
G04 #@! TO.C,JP6*
X46504901Y56972639D02*
X47009977Y56467563D01*
X47144664Y56400220D01*
X47279351Y56400220D01*
X47414038Y56467563D01*
X47481382Y56534907D01*
X46875290Y55928815D02*
X46168183Y56635922D01*
X45898809Y56366548D01*
X45865138Y56265533D01*
X45865138Y56198189D01*
X45898809Y56097174D01*
X45999825Y55996158D01*
X46100840Y55962487D01*
X46168183Y55962487D01*
X46269199Y55996158D01*
X46538573Y56265533D01*
X45158031Y55625769D02*
X45292718Y55760456D01*
X45393733Y55794128D01*
X45461077Y55794128D01*
X45629435Y55760456D01*
X45797794Y55659441D01*
X46067168Y55390067D01*
X46100840Y55289052D01*
X46100840Y55221708D01*
X46067168Y55120693D01*
X45932481Y54986006D01*
X45831466Y54952334D01*
X45764122Y54952334D01*
X45663107Y54986006D01*
X45494748Y55154365D01*
X45461077Y55255380D01*
X45461077Y55322723D01*
X45494748Y55423739D01*
X45629435Y55558426D01*
X45730451Y55592097D01*
X45797794Y55592097D01*
X45898809Y55558426D01*
X47289117Y50743702D02*
X46952399Y51080419D01*
X47154430Y50474328D02*
X47625834Y51417137D01*
X46683025Y50945732D01*
X47255445Y51787526D02*
X46851384Y52191587D01*
X46346308Y51282450D02*
X47053415Y51989557D01*
X45908575Y51720183D02*
X46615682Y52427289D01*
X45874903Y52157915D01*
X46144277Y52898694D01*
X45437171Y52191587D01*
X45470842Y52898694D02*
X45235140Y53134396D01*
X44763736Y52865022D02*
X45100453Y52528305D01*
X45807560Y53235411D01*
X45470842Y53572129D01*
X44763736Y54211892D02*
X44864751Y54178220D01*
X44965766Y54077205D01*
X45033110Y53942518D01*
X45033110Y53807831D01*
X44999438Y53706816D01*
X44898423Y53538457D01*
X44797407Y53437442D01*
X44629049Y53336427D01*
X44528033Y53302755D01*
X44393346Y53302755D01*
X44258659Y53370098D01*
X44191316Y53437442D01*
X44123972Y53572129D01*
X44123972Y53639472D01*
X44359675Y53875175D01*
X44494362Y53740488D01*
X43989285Y54043533D02*
X43652568Y54380251D01*
X43854598Y53774159D02*
X44326003Y54716968D01*
X43383194Y54245564D01*
X50603427Y55940263D02*
X50367725Y56175966D01*
X49896320Y55906592D02*
X50233038Y55569874D01*
X50940144Y56276981D01*
X50603427Y56613698D01*
X49660618Y56209637D02*
X49525931Y56276981D01*
X49357572Y56445340D01*
X49323900Y56546355D01*
X49323900Y56613698D01*
X49357572Y56714714D01*
X49424916Y56782057D01*
X49525931Y56815729D01*
X49593274Y56815729D01*
X49694290Y56782057D01*
X49862648Y56681042D01*
X49963664Y56647370D01*
X50031007Y56647370D01*
X50132022Y56681042D01*
X50199366Y56748385D01*
X50233038Y56849401D01*
X50233038Y56916744D01*
X50199366Y57017759D01*
X50031007Y57186118D01*
X49896320Y57253462D01*
X48919839Y56883072D02*
X49626946Y57590179D01*
X49357572Y57859553D01*
X49256557Y57893225D01*
X49189213Y57893225D01*
X49088198Y57859553D01*
X48987183Y57758538D01*
X48953511Y57657523D01*
X48953511Y57590179D01*
X48987183Y57489164D01*
X49256557Y57219790D01*
G04 #@! TO.C,J5*
X82447140Y20266726D02*
X82952216Y19761650D01*
X83086903Y19694306D01*
X83221590Y19694306D01*
X83356277Y19761650D01*
X83423620Y19828993D01*
X81773705Y19593291D02*
X82110422Y19930008D01*
X82480811Y19626963D01*
X82413468Y19626963D01*
X82312453Y19593291D01*
X82144094Y19424932D01*
X82110422Y19323917D01*
X82110422Y19256573D01*
X82144094Y19155558D01*
X82312453Y18987199D01*
X82413468Y18953528D01*
X82480811Y18953528D01*
X82581827Y18987199D01*
X82750185Y19155558D01*
X82783857Y19256573D01*
X82783857Y19323917D01*
G04 #@! TO.C,U2*
X89297994Y35673574D02*
X89870414Y35101154D01*
X89904086Y35000139D01*
X89904086Y34932795D01*
X89870414Y34831780D01*
X89735727Y34697093D01*
X89634712Y34663421D01*
X89567368Y34663421D01*
X89466353Y34697093D01*
X88893933Y35269513D01*
X88658231Y34899123D02*
X88590888Y34899123D01*
X88489872Y34865452D01*
X88321514Y34697093D01*
X88287842Y34596078D01*
X88287842Y34528734D01*
X88321514Y34427719D01*
X88388857Y34360375D01*
X88523544Y34293032D01*
X89331666Y34293032D01*
X88893933Y33855299D01*
G04 #@! TO.C,Y2*
D15*
X23292080Y20370142D02*
X23185794Y20263856D01*
X23483394Y20412656D02*
X23292080Y20370142D01*
X23334594Y20561457D01*
X23249565Y20603971D02*
X23249565Y20625228D01*
X23238937Y20657114D01*
X23185794Y20710257D01*
X23153908Y20720885D01*
X23132651Y20720885D01*
X23100765Y20710257D01*
X23079508Y20689000D01*
X23058251Y20646485D01*
X23058251Y20391399D01*
X22920079Y20529571D01*
G04 #@! TO.C,D26*
D14*
X91944257Y23357457D02*
X91237150Y24064563D01*
X91068791Y23896205D01*
X91001448Y23761518D01*
X91001448Y23626831D01*
X91035120Y23525815D01*
X91136135Y23357457D01*
X91237150Y23256441D01*
X91405509Y23155426D01*
X91506524Y23121754D01*
X91641211Y23121754D01*
X91775898Y23189098D01*
X91944257Y23357457D01*
X90631058Y23323785D02*
X90563715Y23323785D01*
X90462700Y23290113D01*
X90294341Y23121754D01*
X90260669Y23020739D01*
X90260669Y22953396D01*
X90294341Y22852380D01*
X90361684Y22785037D01*
X90496371Y22717693D01*
X91304494Y22717693D01*
X90866761Y22279960D01*
X89553562Y22380976D02*
X89688249Y22515663D01*
X89789265Y22549334D01*
X89856608Y22549334D01*
X90024967Y22515663D01*
X90193326Y22414647D01*
X90462700Y22145273D01*
X90496371Y22044258D01*
X90496371Y21976915D01*
X90462700Y21875899D01*
X90328013Y21741212D01*
X90226997Y21707541D01*
X90159654Y21707541D01*
X90058639Y21741212D01*
X89890280Y21909571D01*
X89856608Y22010586D01*
X89856608Y22077930D01*
X89890280Y22178945D01*
X90024967Y22313632D01*
X90125982Y22347304D01*
X90193326Y22347304D01*
X90294341Y22313632D01*
G04 #@! TO.C,Y1*
D15*
X58810054Y19061995D02*
X58703768Y18955709D01*
X59001368Y19104509D02*
X58810054Y19061995D01*
X58852568Y19253310D01*
X58438053Y19221424D02*
X58565596Y19093881D01*
X58501825Y19157652D02*
X58725025Y19380853D01*
X58714396Y19327710D01*
X58714396Y19285195D01*
X58725025Y19253310D01*
G04 #@! TO.C,R13*
D14*
X32164440Y76403597D02*
X32063425Y76976016D01*
X32568501Y76807658D02*
X31861394Y77514764D01*
X31592020Y77245390D01*
X31558348Y77144375D01*
X31558348Y77077032D01*
X31592020Y76976016D01*
X31693035Y76875001D01*
X31794051Y76841329D01*
X31861394Y76841329D01*
X31962409Y76875001D01*
X32231783Y77144375D01*
X31491005Y75730161D02*
X31895066Y76134222D01*
X31693035Y75932192D02*
X30985928Y76639299D01*
X31154287Y76605627D01*
X31288974Y76605627D01*
X31389990Y76639299D01*
X30548196Y76201566D02*
X30110463Y75763833D01*
X30615539Y75730161D01*
X30514524Y75629146D01*
X30480852Y75528131D01*
X30480852Y75460787D01*
X30514524Y75359772D01*
X30682883Y75191413D01*
X30783898Y75157742D01*
X30851241Y75157742D01*
X30952257Y75191413D01*
X31154287Y75393444D01*
X31187959Y75494459D01*
X31187959Y75561803D01*
G04 #@! TO.C,R14*
X33953420Y74515622D02*
X33852405Y75088041D01*
X34357481Y74919683D02*
X33650374Y75626789D01*
X33381000Y75357415D01*
X33347328Y75256400D01*
X33347328Y75189057D01*
X33381000Y75088041D01*
X33482015Y74987026D01*
X33583031Y74953354D01*
X33650374Y74953354D01*
X33751389Y74987026D01*
X34020763Y75256400D01*
X33279985Y73842186D02*
X33684046Y74246247D01*
X33482015Y74044217D02*
X32774908Y74751324D01*
X32943267Y74717652D01*
X33077954Y74717652D01*
X33178970Y74751324D01*
X32202489Y73707499D02*
X32673893Y73236095D01*
X32101473Y74145232D02*
X32774908Y73808515D01*
X32337176Y73370782D01*
G04 #@! TO.C,JP7*
X31570806Y71779455D02*
X32075882Y71274379D01*
X32210569Y71207036D01*
X32345256Y71207036D01*
X32479943Y71274379D01*
X32547287Y71341723D01*
X31941195Y70735631D02*
X31234088Y71442738D01*
X30964714Y71173364D01*
X30931043Y71072349D01*
X30931043Y71005005D01*
X30964714Y70903990D01*
X31065730Y70802975D01*
X31166745Y70769303D01*
X31234088Y70769303D01*
X31335104Y70802974D01*
X31604478Y71072349D01*
X30594325Y70802974D02*
X30122921Y70331570D01*
X31133073Y69927509D01*
G04 #@! TO.C,JP5*
X34066893Y69368221D02*
X34571969Y68863145D01*
X34706656Y68795802D01*
X34841343Y68795802D01*
X34976030Y68863145D01*
X35043374Y68930489D01*
X34437282Y68324397D02*
X33730175Y69031504D01*
X33460801Y68762130D01*
X33427130Y68661115D01*
X33427130Y68593771D01*
X33460801Y68492756D01*
X33561817Y68391741D01*
X33662832Y68358069D01*
X33730175Y68358069D01*
X33831191Y68391740D01*
X34100565Y68661115D01*
X32686351Y67987679D02*
X33023069Y68324397D01*
X33393458Y68021351D01*
X33326114Y68021351D01*
X33225099Y67987679D01*
X33056740Y67819321D01*
X33023069Y67718305D01*
X33023069Y67650962D01*
X33056740Y67549947D01*
X33225099Y67381588D01*
X33326114Y67347916D01*
X33393458Y67347916D01*
X33494473Y67381588D01*
X33662832Y67549947D01*
X33696504Y67650962D01*
X33696504Y67718305D01*
X37359317Y69976333D02*
X37123615Y70212036D01*
X36652210Y69942662D02*
X36988928Y69605944D01*
X37696034Y70313051D01*
X37359317Y70649768D01*
X36416508Y70245707D02*
X36281821Y70313051D01*
X36113462Y70481410D01*
X36079790Y70582425D01*
X36079790Y70649768D01*
X36113462Y70750784D01*
X36180806Y70818127D01*
X36281821Y70851799D01*
X36349164Y70851799D01*
X36450180Y70818127D01*
X36618538Y70717112D01*
X36719554Y70683440D01*
X36786897Y70683440D01*
X36887912Y70717112D01*
X36955256Y70784455D01*
X36988928Y70885471D01*
X36988928Y70952814D01*
X36955256Y71053829D01*
X36786897Y71222188D01*
X36652210Y71289532D01*
X35675729Y70919142D02*
X36382836Y71626249D01*
X36113462Y71895623D01*
X36012447Y71929295D01*
X35945103Y71929295D01*
X35844088Y71895623D01*
X35743073Y71794608D01*
X35709401Y71693593D01*
X35709401Y71626249D01*
X35743073Y71525234D01*
X36012447Y71255860D01*
X33238905Y64242371D02*
X32902187Y64579088D01*
X33104218Y63972997D02*
X33575622Y64915806D01*
X32632813Y64444401D01*
X33205233Y65286195D02*
X32801172Y65690256D01*
X32296096Y64781119D02*
X33003203Y65488226D01*
X31858363Y65218852D02*
X32565470Y65925958D01*
X31824691Y65656584D01*
X32094065Y66397363D01*
X31386959Y65690256D01*
X31420630Y66397363D02*
X31184928Y66633065D01*
X30713524Y66363691D02*
X31050241Y66026974D01*
X31757348Y66734080D01*
X31420630Y67070798D01*
X30713524Y67710561D02*
X30814539Y67676889D01*
X30915554Y67575874D01*
X30982898Y67441187D01*
X30982898Y67306500D01*
X30949226Y67205485D01*
X30848211Y67037126D01*
X30747195Y66936111D01*
X30578837Y66835096D01*
X30477821Y66801424D01*
X30343134Y66801424D01*
X30208447Y66868767D01*
X30141104Y66936111D01*
X30073760Y67070798D01*
X30073760Y67138141D01*
X30309463Y67373844D01*
X30444150Y67239157D01*
X29939073Y67542202D02*
X29602356Y67878920D01*
X29804386Y67272828D02*
X30275791Y68215637D01*
X29332982Y67744233D01*
G04 #@! TO.C,R1*
X67253771Y73337448D02*
X67152756Y73909868D01*
X67657832Y73741509D02*
X66950726Y74448616D01*
X66681351Y74179242D01*
X66647680Y74078227D01*
X66647680Y74010883D01*
X66681351Y73909868D01*
X66782367Y73808853D01*
X66883382Y73775181D01*
X66950726Y73775181D01*
X67051741Y73808853D01*
X67321115Y74078227D01*
X66580336Y72664013D02*
X66984397Y73068074D01*
X66782367Y72866043D02*
X66075260Y73573150D01*
X66243619Y73539478D01*
X66378306Y73539478D01*
X66479321Y73573150D01*
G04 #@! TO.C,M1*
X79195459Y32985557D02*
X79902565Y33692664D01*
X79161787Y33423290D01*
X79431161Y34164068D01*
X78724054Y33456962D01*
X78016947Y34164068D02*
X78421008Y33760007D01*
X78218978Y33962038D02*
X78926085Y34669145D01*
X78892413Y34500786D01*
X78892413Y34366099D01*
X78926085Y34265084D01*
X84515595Y27497061D02*
X83976847Y28035809D01*
X83976847Y27497061D02*
X84515595Y28035809D01*
X82832008Y28641901D02*
X83303412Y29113306D01*
X83539115Y29349008D02*
X83539115Y29281664D01*
X83471771Y29281664D01*
X83471771Y29349008D01*
X83539115Y29349008D01*
X83471771Y29281664D01*
X82966695Y29450023D02*
X82495290Y28978619D01*
X82899351Y29382680D02*
X82899351Y29450023D01*
X82865679Y29551038D01*
X82764664Y29652054D01*
X82663649Y29685725D01*
X82562634Y29652054D01*
X82192244Y29281664D01*
X74329890Y18287838D02*
X73757470Y17715418D01*
X73723799Y17614403D01*
X73723799Y17547059D01*
X73757470Y17446044D01*
X73858486Y17345029D01*
X73959501Y17311357D01*
X73892157Y17850105D02*
X73925829Y17749090D01*
X74060516Y17614403D01*
X74161531Y17580731D01*
X74228875Y17580731D01*
X74329890Y17614403D01*
X74531921Y17816433D01*
X74565592Y17917448D01*
X74565592Y17984792D01*
X74531921Y18085807D01*
X74397234Y18220494D01*
X74296218Y18254166D01*
X73993173Y18624555D02*
X73521768Y18153151D01*
X73925829Y18557212D02*
X73925829Y18624555D01*
X73892157Y18725570D01*
X73791142Y18826586D01*
X73690127Y18860257D01*
X73589112Y18826586D01*
X73218722Y18456196D01*
X72578959Y19095960D02*
X73286066Y19803066D01*
X72612631Y19129631D02*
X72646303Y19028616D01*
X72780990Y18893929D01*
X72882005Y18860257D01*
X72949348Y18860257D01*
X73050364Y18893929D01*
X73252394Y19095960D01*
X73286066Y19196975D01*
X73286066Y19264318D01*
X73252394Y19365334D01*
X73117707Y19500021D01*
X73016692Y19533692D01*
X71703494Y19971425D02*
X72174898Y20442830D01*
X72410600Y20678532D02*
X72410600Y20611188D01*
X72343257Y20611188D01*
X72343257Y20678532D01*
X72410600Y20678532D01*
X72343257Y20611188D01*
X71838181Y20779547D02*
X71366776Y20308143D01*
X71770837Y20712204D02*
X71770837Y20779547D01*
X71737165Y20880562D01*
X71636150Y20981578D01*
X71535135Y21015249D01*
X71434120Y20981578D01*
X71063730Y20611188D01*
X64430396Y28187333D02*
X63857976Y27614913D01*
X63824304Y27513898D01*
X63824304Y27446555D01*
X63857976Y27345539D01*
X63958991Y27244524D01*
X64060006Y27210852D01*
X63992663Y27749600D02*
X64026335Y27648585D01*
X64161022Y27513898D01*
X64262037Y27480226D01*
X64329380Y27480226D01*
X64430396Y27513898D01*
X64632426Y27715929D01*
X64666098Y27816944D01*
X64666098Y27884287D01*
X64632426Y27985303D01*
X64497739Y28119990D01*
X64396724Y28153661D01*
X64093678Y28524051D02*
X63622274Y28052646D01*
X64026335Y28456707D02*
X64026335Y28524051D01*
X63992663Y28625066D01*
X63891648Y28726081D01*
X63790632Y28759753D01*
X63689617Y28726081D01*
X63319228Y28355692D01*
X62679465Y28995455D02*
X63386571Y29702562D01*
X62713136Y29029127D02*
X62746808Y28928112D01*
X62881495Y28793425D01*
X62982510Y28759753D01*
X63049854Y28759753D01*
X63150869Y28793425D01*
X63352900Y28995455D01*
X63386571Y29096470D01*
X63386571Y29163814D01*
X63352900Y29264829D01*
X63218213Y29399516D01*
X63117197Y29433188D01*
X61702984Y29971936D02*
X61803999Y29938264D01*
X61871342Y29938264D01*
X61972358Y29971936D01*
X62174388Y30173967D01*
X62208060Y30274982D01*
X62208060Y30342325D01*
X62174388Y30443341D01*
X62073373Y30544356D01*
X61972358Y30578028D01*
X61905014Y30578028D01*
X61803999Y30544356D01*
X61601968Y30342325D01*
X61568297Y30241310D01*
X61568297Y30173967D01*
X61601968Y30072951D01*
X61702984Y29971936D01*
X61332594Y31285134D02*
X60861190Y30813730D01*
X61635640Y30982089D02*
X61265251Y30611699D01*
X61164236Y30578028D01*
X61063220Y30611699D01*
X60962205Y30712715D01*
X60928533Y30813730D01*
X60928533Y30881073D01*
X61096892Y31520837D02*
X60827518Y31790211D01*
X61231579Y31857554D02*
X60625488Y31251463D01*
X60524472Y31217791D01*
X60423457Y31251463D01*
X60356114Y31318806D01*
X74262547Y38457217D02*
X73723799Y38995965D01*
X73723799Y38457217D02*
X74262547Y38995965D01*
X72477944Y39703072D02*
X72578959Y39669400D01*
X72646303Y39669400D01*
X72747318Y39703072D01*
X72949348Y39905102D01*
X72983020Y40006118D01*
X72983020Y40073461D01*
X72949348Y40174476D01*
X72848333Y40275492D01*
X72747318Y40309163D01*
X72679974Y40309163D01*
X72578959Y40275492D01*
X72376929Y40073461D01*
X72343257Y39972446D01*
X72343257Y39905102D01*
X72376929Y39804087D01*
X72477944Y39703072D01*
X72107555Y41016270D02*
X71636150Y40544866D01*
X72410600Y40713224D02*
X72040211Y40342835D01*
X71939196Y40309163D01*
X71838181Y40342835D01*
X71737165Y40443850D01*
X71703494Y40544866D01*
X71703494Y40612209D01*
X71871852Y41251972D02*
X71602478Y41521346D01*
X72006539Y41588690D02*
X71400448Y40982598D01*
X71299433Y40948927D01*
X71198417Y40982598D01*
X71131074Y41049942D01*
X71989703Y35780313D02*
X71450955Y36319061D01*
X71450955Y35780313D02*
X71989703Y36319061D01*
X70306116Y36925152D02*
X71013222Y37632259D01*
X70743848Y37362885D02*
X70710177Y37463900D01*
X70575490Y37598587D01*
X70474474Y37632259D01*
X70407131Y37632259D01*
X70306116Y37598587D01*
X70104085Y37396557D01*
X70070413Y37295541D01*
X70070413Y37228198D01*
X70104085Y37127183D01*
X70238772Y36992496D01*
X70339787Y36958824D01*
X69363307Y37867961D02*
X69733696Y38238350D01*
X69834711Y38272022D01*
X69935726Y38238350D01*
X70070413Y38103663D01*
X70104085Y38002648D01*
X69396978Y37901633D02*
X69430650Y37800618D01*
X69599009Y37632259D01*
X69700024Y37598587D01*
X69801039Y37632259D01*
X69868383Y37699602D01*
X69902055Y37800618D01*
X69868383Y37901633D01*
X69700024Y38069992D01*
X69666352Y38171007D01*
X69599009Y38575068D02*
X69329635Y38844442D01*
X69733696Y38911785D02*
X69127604Y38305694D01*
X69026589Y38272022D01*
X68925574Y38305694D01*
X68858230Y38373037D01*
X69194948Y38979129D02*
X68925574Y39248503D01*
X69329635Y39315846D02*
X68723543Y38709755D01*
X68622528Y38676083D01*
X68521513Y38709755D01*
X68454169Y38777098D01*
X66686402Y30477012D02*
X66147654Y31015760D01*
X65002815Y31621851D02*
X65709921Y32328958D01*
X65440547Y32059584D02*
X65406876Y32160599D01*
X65272189Y32295286D01*
X65171173Y32328958D01*
X65103830Y32328958D01*
X65002815Y32295286D01*
X64800784Y32093256D01*
X64767112Y31992240D01*
X64767112Y31924897D01*
X64800784Y31823882D01*
X64935471Y31689195D01*
X65036486Y31655523D01*
X64060006Y32564660D02*
X64430395Y32935049D01*
X64531410Y32968721D01*
X64632425Y32935049D01*
X64767112Y32800362D01*
X64800784Y32699347D01*
X64093677Y32598332D02*
X64127349Y32497317D01*
X64295708Y32328958D01*
X64396723Y32295286D01*
X64497738Y32328958D01*
X64565082Y32396301D01*
X64598754Y32497317D01*
X64565082Y32598332D01*
X64396723Y32766691D01*
X64363051Y32867706D01*
X64295708Y33271767D02*
X64026334Y33541141D01*
X64430395Y33608484D02*
X63824303Y33002393D01*
X63723288Y32968721D01*
X63622273Y33002393D01*
X63554929Y33069736D01*
X63891647Y33675828D02*
X63622273Y33945202D01*
X64026334Y34012545D02*
X63420242Y33406454D01*
X63319227Y33372782D01*
X63218212Y33406454D01*
X63150868Y33473797D01*
G04 #@! TO.C,JP2*
X81782459Y46882226D02*
X82287535Y46377150D01*
X82422222Y46309807D01*
X82556909Y46309807D01*
X82691596Y46377150D01*
X82758940Y46444494D01*
X82152848Y45838402D02*
X81445741Y46545509D01*
X81176367Y46276135D01*
X81142696Y46175120D01*
X81142696Y46107776D01*
X81176367Y46006761D01*
X81277383Y45905745D01*
X81378398Y45872074D01*
X81445741Y45872074D01*
X81546757Y45905745D01*
X81816131Y46175120D01*
X80839650Y45804730D02*
X80772306Y45804730D01*
X80671291Y45771058D01*
X80502932Y45602700D01*
X80469261Y45501684D01*
X80469261Y45434341D01*
X80502932Y45333326D01*
X80570276Y45265982D01*
X80704963Y45198639D01*
X81513085Y45198639D01*
X81075352Y44760906D01*
G04 #@! TO.C,JP3*
X45161399Y25676093D02*
X45666475Y25171017D01*
X45801162Y25103674D01*
X45935849Y25103674D01*
X46070536Y25171017D01*
X46137880Y25238361D01*
X45531788Y24632269D02*
X44824681Y25339376D01*
X44555307Y25070002D01*
X44521636Y24968987D01*
X44521636Y24901643D01*
X44555307Y24800628D01*
X44656323Y24699612D01*
X44757338Y24665941D01*
X44824681Y24665941D01*
X44925697Y24699612D01*
X45195071Y24968987D01*
X44184918Y24699612D02*
X43747185Y24261880D01*
X44252262Y24228208D01*
X44151246Y24127193D01*
X44117575Y24026177D01*
X44117575Y23958834D01*
X44151246Y23857819D01*
X44319605Y23689460D01*
X44420620Y23655788D01*
X44487964Y23655788D01*
X44588979Y23689460D01*
X44791010Y23891490D01*
X44824681Y23992506D01*
X44824681Y24059849D01*
G04 #@! TO.C,JP1*
X76627651Y51810760D02*
X77132727Y51305684D01*
X77267414Y51238341D01*
X77402101Y51238341D01*
X77536788Y51305684D01*
X77604132Y51373028D01*
X76998040Y50766936D02*
X76290933Y51474043D01*
X76021559Y51204669D01*
X75987888Y51103654D01*
X75987888Y51036310D01*
X76021559Y50935295D01*
X76122575Y50834279D01*
X76223590Y50800608D01*
X76290933Y50800608D01*
X76391949Y50834279D01*
X76661323Y51103654D01*
X75920544Y49689440D02*
X76324605Y50093501D01*
X76122575Y49891470D02*
X75415468Y50598577D01*
X75583827Y50564905D01*
X75718514Y50564905D01*
X75819529Y50598577D01*
G04 #@! TO.C,R10*
X30439099Y39153212D02*
X30338084Y39725631D01*
X30843160Y39557273D02*
X30136053Y40264379D01*
X29866679Y39995005D01*
X29833007Y39893990D01*
X29833007Y39826647D01*
X29866679Y39725631D01*
X29967694Y39624616D01*
X30068710Y39590944D01*
X30136053Y39590944D01*
X30237068Y39624616D01*
X30506442Y39893990D01*
X29765664Y38479776D02*
X30169725Y38883837D01*
X29967694Y38681807D02*
X29260587Y39388914D01*
X29428946Y39355242D01*
X29563633Y39355242D01*
X29664649Y39388914D01*
X28620824Y38749150D02*
X28553481Y38681807D01*
X28519809Y38580792D01*
X28519809Y38513448D01*
X28553481Y38412433D01*
X28654496Y38244074D01*
X28822855Y38075715D01*
X28991213Y37974700D01*
X29092229Y37941028D01*
X29159572Y37941028D01*
X29260587Y37974700D01*
X29327931Y38042044D01*
X29361603Y38143059D01*
X29361603Y38210402D01*
X29327931Y38311418D01*
X29226916Y38479776D01*
X29058557Y38648135D01*
X28890198Y38749150D01*
X28789183Y38782822D01*
X28721839Y38782822D01*
X28620824Y38749150D01*
G04 #@! TO.C,R9*
X86897198Y79093297D02*
X86796183Y79665717D01*
X87301259Y79497358D02*
X86594153Y80204465D01*
X86324778Y79935091D01*
X86291107Y79834076D01*
X86291107Y79766732D01*
X86324778Y79665717D01*
X86425794Y79564702D01*
X86526809Y79531030D01*
X86594153Y79531030D01*
X86695168Y79564702D01*
X86964542Y79834076D01*
X86560481Y78756579D02*
X86425794Y78621892D01*
X86324778Y78588221D01*
X86257435Y78588221D01*
X86089076Y78621892D01*
X85920717Y78722908D01*
X85651343Y78992282D01*
X85617672Y79093297D01*
X85617672Y79160640D01*
X85651343Y79261656D01*
X85786030Y79396343D01*
X85887046Y79430015D01*
X85954389Y79430015D01*
X86055404Y79396343D01*
X86223763Y79227984D01*
X86257435Y79126969D01*
X86257435Y79059625D01*
X86223763Y78958610D01*
X86089076Y78823923D01*
X85988061Y78790251D01*
X85920717Y78790251D01*
X85819702Y78823923D01*
G04 #@! TO.C,R4*
X65358725Y63848075D02*
X65257710Y64420495D01*
X65762786Y64252136D02*
X65055680Y64959243D01*
X64786305Y64689869D01*
X64752634Y64588854D01*
X64752634Y64521510D01*
X64786305Y64420495D01*
X64887321Y64319480D01*
X64988336Y64285808D01*
X65055680Y64285808D01*
X65156695Y64319480D01*
X65426069Y64588854D01*
X64281229Y63713388D02*
X64752634Y63241983D01*
X64180214Y64151121D02*
X64853649Y63814403D01*
X64415916Y63376670D01*
G04 #@! TO.C,R5*
X88587184Y57986159D02*
X88486169Y58558579D01*
X88991245Y58390220D02*
X88284139Y59097327D01*
X88014764Y58827953D01*
X87981093Y58726938D01*
X87981093Y58659594D01*
X88014764Y58558579D01*
X88115780Y58457564D01*
X88216795Y58423892D01*
X88284139Y58423892D01*
X88385154Y58457564D01*
X88654528Y58726938D01*
X87240314Y58053502D02*
X87577032Y58390220D01*
X87947421Y58087174D01*
X87880077Y58087174D01*
X87779062Y58053502D01*
X87610703Y57885144D01*
X87577032Y57784128D01*
X87577032Y57716785D01*
X87610703Y57615770D01*
X87779062Y57447411D01*
X87880077Y57413739D01*
X87947421Y57413739D01*
X88048436Y57447411D01*
X88216795Y57615770D01*
X88250467Y57716785D01*
X88250467Y57784128D01*
G04 #@! TO.C,R3*
X66822436Y65311785D02*
X66721421Y65884205D01*
X67226497Y65715846D02*
X66519391Y66422953D01*
X66250016Y66153579D01*
X66216345Y66052564D01*
X66216345Y65985220D01*
X66250016Y65884205D01*
X66351032Y65783190D01*
X66452047Y65749518D01*
X66519391Y65749518D01*
X66620406Y65783190D01*
X66889780Y66052564D01*
X65879627Y65783190D02*
X65441894Y65345457D01*
X65946971Y65311785D01*
X65845955Y65210770D01*
X65812284Y65109754D01*
X65812284Y65042411D01*
X65845955Y64941396D01*
X66014314Y64773037D01*
X66115329Y64739365D01*
X66182673Y64739365D01*
X66283688Y64773037D01*
X66485719Y64975067D01*
X66519391Y65076083D01*
X66519391Y65143426D01*
G04 #@! TO.C,R2*
X68201294Y66690644D02*
X68100279Y67263064D01*
X68605355Y67094705D02*
X67898249Y67801812D01*
X67628874Y67532438D01*
X67595203Y67431423D01*
X67595203Y67364079D01*
X67628874Y67263064D01*
X67729890Y67162049D01*
X67830905Y67128377D01*
X67898249Y67128377D01*
X67999264Y67162049D01*
X68268638Y67431423D01*
X67292157Y67061033D02*
X67224813Y67061033D01*
X67123798Y67027362D01*
X66955439Y66859003D01*
X66921768Y66757987D01*
X66921768Y66690644D01*
X66955439Y66589629D01*
X67022783Y66522285D01*
X67157470Y66454942D01*
X67965592Y66454942D01*
X67527859Y66017209D01*
G04 #@! TO.C,JP4*
X78105503Y40829391D02*
X78610579Y40324315D01*
X78745266Y40256972D01*
X78879953Y40256972D01*
X79014640Y40324315D01*
X79081984Y40391659D01*
X78475892Y39785567D02*
X77768785Y40492674D01*
X77499411Y40223300D01*
X77465740Y40122285D01*
X77465740Y40054941D01*
X77499411Y39953926D01*
X77600427Y39852910D01*
X77701442Y39819239D01*
X77768785Y39819239D01*
X77869801Y39852910D01*
X78139175Y40122285D01*
X76994335Y39246819D02*
X77465740Y38775414D01*
X76893320Y39684552D02*
X77566755Y39347834D01*
X77129022Y38910101D01*
G04 #@! TO.C,R6*
X84549603Y62052024D02*
X84448588Y62624444D01*
X84953664Y62456085D02*
X84246558Y63163192D01*
X83977183Y62893818D01*
X83943512Y62792803D01*
X83943512Y62725459D01*
X83977183Y62624444D01*
X84078199Y62523429D01*
X84179214Y62489757D01*
X84246558Y62489757D01*
X84347573Y62523429D01*
X84616947Y62792803D01*
X83236405Y62153039D02*
X83371092Y62287726D01*
X83472107Y62321398D01*
X83539451Y62321398D01*
X83707809Y62287726D01*
X83876168Y62186711D01*
X84145542Y61917337D01*
X84179214Y61816322D01*
X84179214Y61748978D01*
X84145542Y61647963D01*
X84010855Y61513276D01*
X83909840Y61479604D01*
X83842496Y61479604D01*
X83741481Y61513276D01*
X83573122Y61681635D01*
X83539451Y61782650D01*
X83539451Y61849993D01*
X83573122Y61951009D01*
X83707809Y62085696D01*
X83808825Y62119367D01*
X83876168Y62119367D01*
X83977183Y62085696D01*
G04 #@! TO.C,C7*
X27319749Y29946008D02*
X27387092Y29946008D01*
X27521779Y30013352D01*
X27589123Y30080695D01*
X27656466Y30215383D01*
X27656466Y30350070D01*
X27622795Y30451085D01*
X27521779Y30619444D01*
X27420764Y30720459D01*
X27252405Y30821474D01*
X27151390Y30855146D01*
X27016703Y30855146D01*
X26882016Y30787802D01*
X26814672Y30720459D01*
X26747329Y30585772D01*
X26747329Y30518428D01*
X26444283Y30350070D02*
X25972879Y29878665D01*
X26983031Y29474604D01*
G04 #@! TO.C,C10*
X42060230Y21153978D02*
X42127574Y21153978D01*
X42262261Y21221322D01*
X42329604Y21288665D01*
X42396948Y21423352D01*
X42396948Y21558039D01*
X42363276Y21659054D01*
X42262261Y21827413D01*
X42161246Y21928428D01*
X41992887Y22029444D01*
X41891872Y22063115D01*
X41757185Y22063115D01*
X41622498Y21995772D01*
X41555154Y21928428D01*
X41487811Y21793741D01*
X41487811Y21726398D01*
X41454139Y20413199D02*
X41858200Y20817260D01*
X41656169Y20615230D02*
X40949062Y21322337D01*
X41117421Y21288665D01*
X41252108Y21288665D01*
X41353124Y21322337D01*
X40309299Y20682573D02*
X40241956Y20615230D01*
X40208284Y20514215D01*
X40208284Y20446871D01*
X40241956Y20345856D01*
X40342971Y20177497D01*
X40511330Y20009138D01*
X40679688Y19908123D01*
X40780704Y19874451D01*
X40848047Y19874451D01*
X40949062Y19908123D01*
X41016406Y19975467D01*
X41050078Y20076482D01*
X41050078Y20143825D01*
X41016406Y20244841D01*
X40915391Y20413199D01*
X40747032Y20581558D01*
X40578673Y20682573D01*
X40477658Y20716245D01*
X40410314Y20716245D01*
X40309299Y20682573D01*
G04 #@! TO.C,C4*
X87126840Y37596904D02*
X87194183Y37596904D01*
X87328870Y37664248D01*
X87396214Y37731591D01*
X87463557Y37866279D01*
X87463557Y38000966D01*
X87429886Y38101981D01*
X87328870Y38270340D01*
X87227855Y38371355D01*
X87059496Y38472370D01*
X86958481Y38506042D01*
X86823794Y38506042D01*
X86689107Y38438698D01*
X86621763Y38371355D01*
X86554420Y38236668D01*
X86554420Y38169324D01*
X86116687Y37394874D02*
X86588092Y36923469D01*
X86015672Y37832607D02*
X86689107Y37495889D01*
X86251374Y37058156D01*
G04 #@! TO.C,C37*
X53805274Y22292419D02*
X53872618Y22292419D01*
X54007305Y22359763D01*
X54074648Y22427106D01*
X54141992Y22561793D01*
X54141992Y22696480D01*
X54108320Y22797495D01*
X54007305Y22965854D01*
X53906290Y23066869D01*
X53737931Y23167885D01*
X53636916Y23201556D01*
X53502229Y23201556D01*
X53367542Y23134213D01*
X53300198Y23066869D01*
X53232855Y22932182D01*
X53232855Y22864839D01*
X52929809Y22696480D02*
X52492076Y22258747D01*
X52997152Y22225076D01*
X52896137Y22124060D01*
X52862465Y22023045D01*
X52862465Y21955701D01*
X52896137Y21854686D01*
X53064496Y21686327D01*
X53165511Y21652656D01*
X53232855Y21652656D01*
X53333870Y21686327D01*
X53535900Y21888358D01*
X53569572Y21989373D01*
X53569572Y22056717D01*
X52256374Y22023045D02*
X51784969Y21551640D01*
X52795122Y21147579D01*
G04 #@! TO.C,C8*
X53793826Y32138039D02*
X53861169Y32138039D01*
X53995856Y32205383D01*
X54063200Y32272726D01*
X54130543Y32407414D01*
X54130543Y32542101D01*
X54096872Y32643116D01*
X53995856Y32811475D01*
X53894841Y32912490D01*
X53726482Y33013505D01*
X53625467Y33047177D01*
X53490780Y33047177D01*
X53356093Y32979833D01*
X53288749Y32912490D01*
X53221406Y32777803D01*
X53221406Y32710459D01*
X53053047Y32070696D02*
X53086719Y32171711D01*
X53086719Y32239055D01*
X53053047Y32340070D01*
X53019375Y32373742D01*
X52918360Y32407414D01*
X52851017Y32407414D01*
X52750001Y32373742D01*
X52615314Y32239055D01*
X52581643Y32138039D01*
X52581643Y32070696D01*
X52615314Y31969681D01*
X52648986Y31936009D01*
X52750001Y31902337D01*
X52817345Y31902337D01*
X52918360Y31936009D01*
X53053047Y32070696D01*
X53154062Y32104368D01*
X53221406Y32104368D01*
X53322421Y32070696D01*
X53457108Y31936009D01*
X53490780Y31834994D01*
X53490780Y31767650D01*
X53457108Y31666635D01*
X53322421Y31531948D01*
X53221406Y31498276D01*
X53154062Y31498276D01*
X53053047Y31531948D01*
X52918360Y31666635D01*
X52884688Y31767650D01*
X52884688Y31834994D01*
X52918360Y31936009D01*
G04 #@! TO.C,C5*
X89637069Y76254431D02*
X89704412Y76254431D01*
X89839099Y76321775D01*
X89906443Y76389118D01*
X89973786Y76523806D01*
X89973786Y76658493D01*
X89940115Y76759508D01*
X89839099Y76927867D01*
X89738084Y77028882D01*
X89569725Y77129897D01*
X89468710Y77163569D01*
X89334023Y77163569D01*
X89199336Y77096225D01*
X89131992Y77028882D01*
X89064649Y76894195D01*
X89064649Y76826851D01*
X88357542Y76254431D02*
X88694260Y76591149D01*
X89064649Y76288103D01*
X88997305Y76288103D01*
X88896290Y76254431D01*
X88727931Y76086073D01*
X88694260Y75985057D01*
X88694260Y75917714D01*
X88727931Y75816699D01*
X88896290Y75648340D01*
X88997305Y75614668D01*
X89064649Y75614668D01*
X89165664Y75648340D01*
X89334023Y75816699D01*
X89367695Y75917714D01*
X89367695Y75985057D01*
G04 #@! TO.C,C40*
X22918849Y18629606D02*
X22986193Y18629606D01*
X23120880Y18696950D01*
X23188223Y18764293D01*
X23255567Y18898980D01*
X23255567Y19033667D01*
X23221895Y19134682D01*
X23120880Y19303041D01*
X23019865Y19404056D01*
X22851506Y19505072D01*
X22750491Y19538743D01*
X22615804Y19538743D01*
X22481117Y19471400D01*
X22413773Y19404056D01*
X22346430Y19269369D01*
X22346430Y19202026D01*
X21908697Y18427575D02*
X22380101Y17956171D01*
X21807681Y18865308D02*
X22481117Y18528591D01*
X22043384Y18090858D01*
X21167918Y18158201D02*
X21100575Y18090858D01*
X21066903Y17989843D01*
X21066903Y17922499D01*
X21100575Y17821484D01*
X21201590Y17653125D01*
X21369949Y17484766D01*
X21538307Y17383751D01*
X21639323Y17350079D01*
X21706666Y17350079D01*
X21807681Y17383751D01*
X21875025Y17451095D01*
X21908697Y17552110D01*
X21908697Y17619453D01*
X21875025Y17720469D01*
X21774010Y17888827D01*
X21605651Y18057186D01*
X21437292Y18158201D01*
X21336277Y18191873D01*
X21268933Y18191873D01*
X21167918Y18158201D01*
G04 #@! TO.C,C39*
X17898392Y23225801D02*
X17965736Y23225801D01*
X18100423Y23293145D01*
X18167766Y23360488D01*
X18235110Y23495175D01*
X18235110Y23629862D01*
X18201438Y23730877D01*
X18100423Y23899236D01*
X17999408Y24000251D01*
X17831049Y24101267D01*
X17730034Y24134938D01*
X17595347Y24134938D01*
X17460660Y24067595D01*
X17393316Y24000251D01*
X17325973Y23865564D01*
X17325973Y23798221D01*
X17022927Y23629862D02*
X16585194Y23192129D01*
X17090270Y23158458D01*
X16989255Y23057442D01*
X16955583Y22956427D01*
X16955583Y22889083D01*
X16989255Y22788068D01*
X17157614Y22619709D01*
X17258629Y22586038D01*
X17325973Y22586038D01*
X17426988Y22619709D01*
X17629018Y22821740D01*
X17662690Y22922755D01*
X17662690Y22990099D01*
X16955583Y22148305D02*
X16820896Y22013618D01*
X16719881Y21979946D01*
X16652537Y21979946D01*
X16484179Y22013618D01*
X16315820Y22114633D01*
X16046446Y22384007D01*
X16012774Y22485022D01*
X16012774Y22552366D01*
X16046446Y22653381D01*
X16181133Y22788068D01*
X16282148Y22821740D01*
X16349492Y22821740D01*
X16450507Y22788068D01*
X16618866Y22619709D01*
X16652537Y22518694D01*
X16652537Y22451351D01*
X16618866Y22350335D01*
X16484179Y22215648D01*
X16383163Y22181977D01*
X16315820Y22181977D01*
X16214805Y22215648D01*
G04 #@! TO.C,C3*
X89728993Y30214709D02*
X89796336Y30214709D01*
X89931023Y30282053D01*
X89998367Y30349396D01*
X90065710Y30484084D01*
X90065710Y30618771D01*
X90032039Y30719786D01*
X89931023Y30888145D01*
X89830008Y30989160D01*
X89661649Y31090175D01*
X89560634Y31123847D01*
X89425947Y31123847D01*
X89291260Y31056503D01*
X89223916Y30989160D01*
X89156573Y30854473D01*
X89156573Y30787129D01*
X88853527Y30618771D02*
X88415794Y30181038D01*
X88920871Y30147366D01*
X88819855Y30046351D01*
X88786184Y29945335D01*
X88786184Y29877992D01*
X88819855Y29776977D01*
X88988214Y29608618D01*
X89089229Y29574946D01*
X89156573Y29574946D01*
X89257588Y29608618D01*
X89459619Y29810648D01*
X89493291Y29911664D01*
X89493291Y29979007D01*
G04 #@! TO.C,C9*
X31965440Y35836207D02*
X32032783Y35836207D01*
X32167470Y35903551D01*
X32234814Y35970894D01*
X32302157Y36105582D01*
X32302157Y36240269D01*
X32268486Y36341284D01*
X32167470Y36509643D01*
X32066455Y36610658D01*
X31898096Y36711673D01*
X31797081Y36745345D01*
X31662394Y36745345D01*
X31527707Y36678001D01*
X31460363Y36610658D01*
X31393020Y36475971D01*
X31393020Y36408627D01*
X31696066Y35432146D02*
X31561379Y35297459D01*
X31460363Y35263788D01*
X31393020Y35263788D01*
X31224661Y35297459D01*
X31056302Y35398475D01*
X30786928Y35667849D01*
X30753257Y35768864D01*
X30753257Y35836207D01*
X30786928Y35937223D01*
X30921615Y36071910D01*
X31022631Y36105582D01*
X31089974Y36105582D01*
X31190989Y36071910D01*
X31359348Y35903551D01*
X31393020Y35802536D01*
X31393020Y35735192D01*
X31359348Y35634177D01*
X31224661Y35499490D01*
X31123646Y35465818D01*
X31056302Y35465818D01*
X30955287Y35499490D01*
G04 #@! TO.C,C38*
X58691382Y17660870D02*
X58758726Y17660870D01*
X58893413Y17728214D01*
X58960756Y17795557D01*
X59028100Y17930244D01*
X59028100Y18064931D01*
X58994428Y18165946D01*
X58893413Y18334305D01*
X58792398Y18435320D01*
X58624039Y18536336D01*
X58523024Y18570007D01*
X58388337Y18570007D01*
X58253650Y18502664D01*
X58186306Y18435320D01*
X58118963Y18300633D01*
X58118963Y18233290D01*
X57815917Y18064931D02*
X57378184Y17627198D01*
X57883260Y17593527D01*
X57782245Y17492511D01*
X57748573Y17391496D01*
X57748573Y17324152D01*
X57782245Y17223137D01*
X57950604Y17054778D01*
X58051619Y17021107D01*
X58118963Y17021107D01*
X58219978Y17054778D01*
X58422008Y17256809D01*
X58455680Y17357824D01*
X58455680Y17425168D01*
X57277169Y16920091D02*
X57310840Y17021107D01*
X57310840Y17088450D01*
X57277169Y17189465D01*
X57243497Y17223137D01*
X57142482Y17256809D01*
X57075138Y17256809D01*
X56974123Y17223137D01*
X56839436Y17088450D01*
X56805764Y16987435D01*
X56805764Y16920091D01*
X56839436Y16819076D01*
X56873108Y16785404D01*
X56974123Y16751733D01*
X57041466Y16751733D01*
X57142482Y16785404D01*
X57277169Y16920091D01*
X57378184Y16953763D01*
X57445527Y16953763D01*
X57546543Y16920091D01*
X57681230Y16785404D01*
X57714901Y16684389D01*
X57714901Y16617046D01*
X57681230Y16516030D01*
X57546543Y16381343D01*
X57445527Y16347672D01*
X57378184Y16347672D01*
X57277169Y16381343D01*
X57142482Y16516030D01*
X57108810Y16617046D01*
X57108810Y16684389D01*
X57142482Y16785404D01*
G04 #@! TO.C,C2*
X54819131Y63837636D02*
X54886474Y63837636D01*
X55021161Y63904980D01*
X55088505Y63972323D01*
X55155848Y64107011D01*
X55155848Y64241698D01*
X55122177Y64342713D01*
X55021161Y64511072D01*
X54920146Y64612087D01*
X54751787Y64713102D01*
X54650772Y64746774D01*
X54516085Y64746774D01*
X54381398Y64679430D01*
X54314054Y64612087D01*
X54246711Y64477400D01*
X54246711Y64410056D01*
X53977337Y64140682D02*
X53909993Y64140682D01*
X53808978Y64107011D01*
X53640619Y63938652D01*
X53606948Y63837636D01*
X53606948Y63770293D01*
X53640619Y63669278D01*
X53707963Y63601934D01*
X53842650Y63534591D01*
X54650772Y63534591D01*
X54213039Y63096858D01*
G04 #@! TO.C,C11*
X86098841Y39948876D02*
X86166185Y39948876D01*
X86300872Y40016220D01*
X86368215Y40083563D01*
X86435559Y40218250D01*
X86435559Y40352937D01*
X86401887Y40453952D01*
X86300872Y40622311D01*
X86199857Y40723326D01*
X86031498Y40824342D01*
X85930483Y40858013D01*
X85795796Y40858013D01*
X85661109Y40790670D01*
X85593765Y40723326D01*
X85526422Y40588639D01*
X85526422Y40521296D01*
X85492750Y39208097D02*
X85896811Y39612158D01*
X85694780Y39410128D02*
X84987673Y40117235D01*
X85156032Y40083563D01*
X85290719Y40083563D01*
X85391735Y40117235D01*
X84819315Y38534662D02*
X85223376Y38938723D01*
X85021345Y38736693D02*
X84314238Y39443800D01*
X84482597Y39410128D01*
X84617284Y39410128D01*
X84718299Y39443800D01*
G04 #@! TO.C,C6*
X51764429Y29967221D02*
X51831772Y29967221D01*
X51966459Y30034565D01*
X52033803Y30101908D01*
X52101146Y30236596D01*
X52101146Y30371283D01*
X52067475Y30472298D01*
X51966459Y30640657D01*
X51865444Y30741672D01*
X51697085Y30842687D01*
X51596070Y30876359D01*
X51461383Y30876359D01*
X51326696Y30809015D01*
X51259352Y30741672D01*
X51192009Y30606985D01*
X51192009Y30539641D01*
X50518574Y30000893D02*
X50653261Y30135580D01*
X50754276Y30169252D01*
X50821620Y30169252D01*
X50989978Y30135580D01*
X51158337Y30034565D01*
X51427711Y29765191D01*
X51461383Y29664176D01*
X51461383Y29596832D01*
X51427711Y29495817D01*
X51293024Y29361130D01*
X51192009Y29327458D01*
X51124665Y29327458D01*
X51023650Y29361130D01*
X50855291Y29529489D01*
X50821620Y29630504D01*
X50821620Y29697847D01*
X50855291Y29798863D01*
X50989978Y29933550D01*
X51090994Y29967221D01*
X51158337Y29967221D01*
X51259352Y29933550D01*
G04 #@! TO.C,C1*
X56339410Y65386199D02*
X56406753Y65386199D01*
X56541440Y65453543D01*
X56608784Y65520886D01*
X56676127Y65655574D01*
X56676127Y65790261D01*
X56642456Y65891276D01*
X56541440Y66059635D01*
X56440425Y66160650D01*
X56272066Y66261665D01*
X56171051Y66295337D01*
X56036364Y66295337D01*
X55901677Y66227993D01*
X55834333Y66160650D01*
X55766990Y66025963D01*
X55766990Y65958619D01*
X55733318Y64645421D02*
X56137379Y65049482D01*
X55935349Y64847451D02*
X55228242Y65554558D01*
X55396601Y65520886D01*
X55531288Y65520886D01*
X55632303Y65554558D01*
G04 #@! TD*
M02*
