G04 #@! TF.GenerationSoftware,KiCad,Pcbnew,(5.0.0)*
G04 #@! TF.CreationDate,2018-09-13T19:48:46+02:00*
G04 #@! TF.ProjectId,noname.kicad_pcb_45_grader,6E6F6E616D652E6B696361645F706362,rev?*
G04 #@! TF.SameCoordinates,PX5f5e100PY8f0d180*
G04 #@! TF.FileFunction,Soldermask,Bot*
G04 #@! TF.FilePolarity,Negative*
%FSLAX46Y46*%
G04 Gerber Fmt 4.6, Leading zero omitted, Abs format (unit mm)*
G04 Created by KiCad (PCBNEW (5.0.0)) date 09/13/18 19:48:46*
%MOMM*%
%LPD*%
G01*
G04 APERTURE LIST*
%ADD10C,0.150000*%
%ADD11C,1.400000*%
%ADD12C,0.100000*%
%ADD13C,1.200000*%
%ADD14C,1.100000*%
%ADD15C,1.300000*%
%ADD16C,2.400000*%
%ADD17C,1.750000*%
%ADD18R,2.580000X2.000000*%
%ADD19C,1.750000*%
%ADD20R,2.000000X2.580000*%
%ADD21C,1.575000*%
%ADD22C,2.300000*%
%ADD23C,1.875000*%
%ADD24C,0.850000*%
%ADD25C,0.700000*%
%ADD26C,1.550000*%
%ADD27C,1.700000*%
%ADD28C,2.800000*%
%ADD29C,1.000000*%
%ADD30C,2.100000*%
%ADD31C,2.100000*%
%ADD32C,1.650000*%
%ADD33C,1.150000*%
G04 APERTURE END LIST*
D10*
G36*
X22339023Y35002158D02*
X67311014Y79974149D01*
X59801540Y87483623D01*
X14843691Y42525774D01*
X22339023Y35002158D01*
G37*
X22339023Y35002158D02*
X67311014Y79974149D01*
X59801540Y87483623D01*
X14843691Y42525774D01*
X22339023Y35002158D01*
D11*
G04 #@! TO.C,JP9*
X53939625Y49589770D03*
D12*
G36*
X53762848Y50756496D02*
X55106351Y49412993D01*
X54116402Y48423044D01*
X52772899Y49766547D01*
X53762848Y50756496D01*
X53762848Y50756496D01*
G37*
D11*
X53020387Y48670532D03*
D12*
G36*
X52843610Y49837258D02*
X54187113Y48493755D01*
X53197164Y47503806D01*
X51853661Y48847309D01*
X52843610Y49837258D01*
X52843610Y49837258D01*
G37*
G04 #@! TD*
D13*
G04 #@! TO.C,Q1*
X89245467Y61872216D03*
D12*
G36*
X89210112Y60988333D02*
X88361584Y61836861D01*
X89280822Y62756099D01*
X90129350Y61907571D01*
X89210112Y60988333D01*
X89210112Y60988333D01*
G37*
D13*
X87901964Y63215719D03*
D12*
G36*
X87866609Y62331836D02*
X87018081Y63180364D01*
X87937319Y64099602D01*
X88785847Y63251074D01*
X87866609Y62331836D01*
X87866609Y62331836D01*
G37*
D13*
X89987929Y63958181D03*
D12*
G36*
X89952574Y63074298D02*
X89104046Y63922826D01*
X90023284Y64842064D01*
X90871812Y63993536D01*
X89952574Y63074298D01*
X89952574Y63074298D01*
G37*
G04 #@! TD*
D11*
G04 #@! TO.C,JP8*
X49788909Y51704021D03*
D12*
G36*
X49612132Y52870747D02*
X50955635Y51527244D01*
X49965686Y50537295D01*
X48622183Y51880798D01*
X49612132Y52870747D01*
X49612132Y52870747D01*
G37*
D11*
X50708147Y52623259D03*
D12*
G36*
X50531370Y53789985D02*
X51874873Y52446482D01*
X50884924Y51456533D01*
X49541421Y52800036D01*
X50531370Y53789985D01*
X50531370Y53789985D01*
G37*
G04 #@! TD*
D13*
G04 #@! TO.C,S4*
X72980894Y8555068D03*
D12*
G36*
X73412286Y9369869D02*
X73852087Y8253368D01*
X72549502Y7740267D01*
X72109701Y8856768D01*
X73412286Y9369869D01*
X73412286Y9369869D01*
G37*
D13*
X66188846Y5879609D03*
D12*
G36*
X66620238Y6694410D02*
X67060039Y5577909D01*
X65757454Y5064808D01*
X65317653Y6181309D01*
X66620238Y6694410D01*
X66620238Y6694410D01*
G37*
D13*
X66998814Y3823385D03*
D12*
G36*
X67430206Y4638186D02*
X67870007Y3521685D01*
X66567422Y3008584D01*
X66127621Y4125085D01*
X67430206Y4638186D01*
X67430206Y4638186D01*
G37*
D13*
X73790862Y6498845D03*
D12*
G36*
X74222254Y7313646D02*
X74662055Y6197145D01*
X73359470Y5684044D01*
X72919669Y6800545D01*
X74222254Y7313646D01*
X74222254Y7313646D01*
G37*
D14*
X67253205Y6997482D03*
D12*
G36*
X67416758Y8082954D02*
X68113111Y6315161D01*
X67089652Y5912010D01*
X66393299Y7679803D01*
X67416758Y8082954D01*
X67416758Y8082954D01*
G37*
D14*
X68648831Y7547234D03*
D12*
G36*
X68812384Y8632706D02*
X69508737Y6864913D01*
X68485278Y6461762D01*
X67788925Y8229555D01*
X68812384Y8632706D01*
X68812384Y8632706D01*
G37*
D14*
X71440083Y8646738D03*
D12*
G36*
X71603636Y9732210D02*
X72299989Y7964417D01*
X71276530Y7561266D01*
X70580177Y9329059D01*
X71603636Y9732210D01*
X71603636Y9732210D01*
G37*
D15*
X68596060Y5634823D03*
X71387313Y6734327D03*
G04 #@! TD*
D16*
G04 #@! TO.C,Y4*
X27465547Y18915479D03*
D12*
G36*
X24884607Y19799362D02*
X26581664Y21496419D01*
X30046487Y18031596D01*
X28349430Y16334539D01*
X24884607Y19799362D01*
X24884607Y19799362D01*
G37*
D16*
X21455139Y24925887D03*
D12*
G36*
X18874199Y25809770D02*
X20571256Y27506827D01*
X24036079Y24042004D01*
X22339022Y22344947D01*
X18874199Y25809770D01*
X18874199Y25809770D01*
G37*
G04 #@! TD*
D17*
G04 #@! TO.C,J14*
X91296076Y46301724D03*
D12*
G36*
X91296076Y45064287D02*
X90058639Y46301724D01*
X91296076Y47539161D01*
X92533513Y46301724D01*
X91296076Y45064287D01*
X91296076Y45064287D01*
G37*
G04 #@! TD*
D15*
G04 #@! TO.C,S2*
X96607639Y33646402D03*
X95508135Y30855149D03*
D14*
X95244980Y34989257D03*
D12*
G36*
X94562659Y35849163D02*
X96330452Y35152810D01*
X95927301Y34129351D01*
X94159508Y34825704D01*
X94562659Y35849163D01*
X94562659Y35849163D01*
G37*
D14*
X94145476Y32198005D03*
D12*
G36*
X93463155Y33057911D02*
X95230948Y32361558D01*
X94827797Y31338099D01*
X93060004Y32034452D01*
X93463155Y33057911D01*
X93463155Y33057911D01*
G37*
D14*
X93595724Y30802379D03*
D12*
G36*
X92913403Y31662285D02*
X94681196Y30965932D01*
X94278045Y29942473D01*
X92510252Y30638826D01*
X92913403Y31662285D01*
X92913403Y31662285D01*
G37*
D13*
X98419077Y35243648D03*
D12*
G36*
X98117377Y36114841D02*
X99233878Y35675040D01*
X98720777Y34372455D01*
X97604276Y34812256D01*
X98117377Y36114841D01*
X98117377Y36114841D01*
G37*
D13*
X95743617Y28451600D03*
D12*
G36*
X95441917Y29322793D02*
X96558418Y28882992D01*
X96045317Y27580407D01*
X94928816Y28020208D01*
X95441917Y29322793D01*
X95441917Y29322793D01*
G37*
D13*
X93687394Y29261568D03*
D12*
G36*
X93385694Y30132761D02*
X94502195Y29692960D01*
X93989094Y28390375D01*
X92872593Y28830176D01*
X93385694Y30132761D01*
X93385694Y30132761D01*
G37*
D13*
X96362853Y36053616D03*
D12*
G36*
X96061153Y36924809D02*
X97177654Y36485008D01*
X96664553Y35182423D01*
X95548052Y35622224D01*
X96061153Y36924809D01*
X96061153Y36924809D01*
G37*
G04 #@! TD*
D13*
G04 #@! TO.C,Q2*
X82301678Y56427493D03*
D12*
G36*
X82337033Y57311376D02*
X83185561Y56462848D01*
X82266323Y55543610D01*
X81417795Y56392138D01*
X82337033Y57311376D01*
X82337033Y57311376D01*
G37*
D13*
X84387643Y57169955D03*
D12*
G36*
X84422998Y58053838D02*
X85271526Y57205310D01*
X84352288Y56286072D01*
X83503760Y57134600D01*
X84422998Y58053838D01*
X84422998Y58053838D01*
G37*
D13*
X83044140Y58513458D03*
D12*
G36*
X83079495Y59397341D02*
X83928023Y58548813D01*
X83008785Y57629575D01*
X82160257Y58478103D01*
X83079495Y59397341D01*
X83079495Y59397341D01*
G37*
G04 #@! TD*
D18*
G04 #@! TO.C,S1*
X51281781Y88204872D03*
X42101781Y88204872D03*
G04 #@! TD*
D16*
G04 #@! TO.C,Y3*
X62926952Y17508336D03*
D12*
G36*
X65507892Y16624453D02*
X63810835Y14927396D01*
X60346012Y18392219D01*
X62043069Y20089276D01*
X65507892Y16624453D01*
X65507892Y16624453D01*
G37*
D16*
X56916544Y23518744D03*
D12*
G36*
X59497484Y22634861D02*
X57800427Y20937804D01*
X54335604Y24402627D01*
X56032661Y26099684D01*
X59497484Y22634861D01*
X59497484Y22634861D01*
G37*
G04 #@! TD*
D17*
G04 #@! TO.C,J13*
X55940737Y10946385D03*
D12*
G36*
X55940737Y9708948D02*
X54703300Y10946385D01*
X55940737Y12183822D01*
X57178174Y10946385D01*
X55940737Y9708948D01*
X55940737Y9708948D01*
G37*
G04 #@! TD*
D17*
G04 #@! TO.C,J4*
X68668659Y84485491D03*
D12*
G36*
X68668659Y83248054D02*
X67431222Y84485491D01*
X68668659Y85722928D01*
X69906096Y84485491D01*
X68668659Y83248054D01*
X68668659Y83248054D01*
G37*
G04 #@! TD*
D17*
G04 #@! TO.C,J16*
X84932115Y66807821D03*
D19*
X84932115Y66807821D02*
X84932115Y66807821D01*
D17*
X83517902Y65393608D03*
D19*
X83517902Y65393608D02*
X83517902Y65393608D01*
D17*
X82103688Y63979394D03*
D19*
X82103688Y63979394D02*
X82103688Y63979394D01*
D17*
X80689474Y62565180D03*
D19*
X80689474Y62565180D02*
X80689474Y62565180D01*
D17*
X79275261Y61150967D03*
D19*
X79275261Y61150967D02*
X79275261Y61150967D01*
D17*
X77861047Y59736753D03*
D19*
X77861047Y59736753D02*
X77861047Y59736753D01*
D17*
X76446834Y58322540D03*
D19*
X76446834Y58322540D02*
X76446834Y58322540D01*
D17*
X75032620Y56908326D03*
D19*
X75032620Y56908326D02*
X75032620Y56908326D01*
D17*
X73618407Y55494113D03*
D19*
X73618407Y55494113D02*
X73618407Y55494113D01*
D17*
X72204193Y54079899D03*
D19*
X72204193Y54079899D02*
X72204193Y54079899D01*
D17*
X70789980Y52665686D03*
D19*
X70789980Y52665686D02*
X70789980Y52665686D01*
D17*
X69375766Y51251472D03*
D12*
G36*
X70613203Y51251472D02*
X69375766Y50014035D01*
X68138329Y51251472D01*
X69375766Y52488909D01*
X70613203Y51251472D01*
X70613203Y51251472D01*
G37*
G04 #@! TD*
D17*
G04 #@! TO.C,J3*
X63011805Y88728131D03*
D12*
G36*
X63011805Y87490694D02*
X61774368Y88728131D01*
X63011805Y89965568D01*
X64249242Y88728131D01*
X63011805Y87490694D01*
X63011805Y87490694D01*
G37*
G04 #@! TD*
D20*
G04 #@! TO.C,S3*
X13832528Y59214371D03*
X13832528Y50034371D03*
G04 #@! TD*
D17*
G04 #@! TO.C,J15*
X60890485Y45594618D03*
D19*
X60890485Y45594618D02*
X60890485Y45594618D01*
D17*
X59476271Y44180404D03*
D19*
X59476271Y44180404D02*
X59476271Y44180404D01*
D17*
X58062058Y42766191D03*
D19*
X58062058Y42766191D02*
X58062058Y42766191D01*
D17*
X56647844Y41351977D03*
D19*
X56647844Y41351977D02*
X56647844Y41351977D01*
D17*
X55233630Y39937763D03*
D19*
X55233630Y39937763D02*
X55233630Y39937763D01*
D17*
X53819417Y38523550D03*
D19*
X53819417Y38523550D02*
X53819417Y38523550D01*
D17*
X52405203Y37109336D03*
D19*
X52405203Y37109336D02*
X52405203Y37109336D01*
D17*
X50990990Y35695123D03*
D19*
X50990990Y35695123D02*
X50990990Y35695123D01*
D17*
X49576776Y34280909D03*
D19*
X49576776Y34280909D02*
X49576776Y34280909D01*
D17*
X48162563Y32866696D03*
D19*
X48162563Y32866696D02*
X48162563Y32866696D01*
D17*
X46748349Y31452482D03*
D19*
X46748349Y31452482D02*
X46748349Y31452482D01*
D17*
X45334135Y30038268D03*
D19*
X45334135Y30038268D02*
X45334135Y30038268D01*
D17*
X43919922Y28624055D03*
D19*
X43919922Y28624055D02*
X43919922Y28624055D01*
D17*
X42505708Y27209841D03*
D19*
X42505708Y27209841D02*
X42505708Y27209841D01*
D17*
X41091495Y25795628D03*
D19*
X41091495Y25795628D02*
X41091495Y25795628D01*
D17*
X39677281Y24381414D03*
D19*
X39677281Y24381414D02*
X39677281Y24381414D01*
D17*
X38263068Y22967201D03*
D19*
X38263068Y22967201D02*
X38263068Y22967201D01*
D17*
X36848854Y21552987D03*
D19*
X36848854Y21552987D02*
X36848854Y21552987D01*
D17*
X35434641Y20138774D03*
D19*
X35434641Y20138774D02*
X35434641Y20138774D01*
D17*
X34020427Y18724560D03*
D12*
G36*
X35257864Y18724560D02*
X34020427Y17487123D01*
X32782990Y18724560D01*
X34020427Y19961997D01*
X35257864Y18724560D01*
X35257864Y18724560D01*
G37*
G04 #@! TD*
D11*
G04 #@! TO.C,JP6*
X46691780Y53726345D03*
D12*
G36*
X46868557Y52559619D02*
X45525054Y53903122D01*
X46515003Y54893071D01*
X47858506Y53549568D01*
X46868557Y52559619D01*
X46868557Y52559619D01*
G37*
D11*
X47611019Y54645584D03*
D12*
G36*
X47787796Y53478858D02*
X46444293Y54822361D01*
X47434242Y55812310D01*
X48777745Y54468807D01*
X47787796Y53478858D01*
X47787796Y53478858D01*
G37*
D11*
X48530258Y55564823D03*
D12*
G36*
X48707035Y54398097D02*
X47363532Y55741600D01*
X48353481Y56731549D01*
X49696984Y55388046D01*
X48707035Y54398097D01*
X48707035Y54398097D01*
G37*
G04 #@! TD*
D17*
G04 #@! TO.C,J1*
X13514330Y39230657D03*
D12*
G36*
X13514330Y37993220D02*
X12276893Y39230657D01*
X13514330Y40468094D01*
X14751767Y39230657D01*
X13514330Y37993220D01*
X13514330Y37993220D01*
G37*
G04 #@! TD*
D21*
G04 #@! TO.C,J5*
X85186673Y15867848D03*
D12*
G36*
X84930347Y17237867D02*
X86556692Y15611522D01*
X85442999Y14497829D01*
X83816654Y16124174D01*
X84930347Y17237867D01*
X84930347Y17237867D01*
G37*
D21*
X86374613Y17055788D03*
D12*
G36*
X86118287Y18425807D02*
X87744632Y16799462D01*
X86630939Y15685769D01*
X85004594Y17312114D01*
X86118287Y18425807D01*
X86118287Y18425807D01*
G37*
D22*
X83722962Y14404137D03*
D12*
G36*
X83890900Y16198420D02*
X85517245Y14572075D01*
X83555024Y12609854D01*
X81928679Y14236199D01*
X83890900Y16198420D01*
X83890900Y16198420D01*
G37*
D22*
X87838324Y18519499D03*
D12*
G36*
X88006262Y20313782D02*
X89632607Y18687437D01*
X87670386Y16725216D01*
X86044041Y18351561D01*
X88006262Y20313782D01*
X88006262Y20313782D01*
G37*
D23*
X82413047Y16346913D03*
D12*
G36*
X82192076Y17893709D02*
X83959843Y16125942D01*
X82634018Y14800117D01*
X80866251Y16567884D01*
X82192076Y17893709D01*
X82192076Y17893709D01*
G37*
D23*
X85895548Y19829414D03*
D12*
G36*
X85674577Y21376210D02*
X87442344Y19608443D01*
X86116519Y18282618D01*
X84348752Y20050385D01*
X85674577Y21376210D01*
X85674577Y21376210D01*
G37*
D24*
X82980500Y17423483D03*
D12*
G36*
X82651695Y18353328D02*
X83910345Y17094678D01*
X83309305Y16493638D01*
X82050655Y17752288D01*
X82651695Y18353328D01*
X82651695Y18353328D01*
G37*
D24*
X83440120Y17883102D03*
D12*
G36*
X83111315Y18812947D02*
X84369965Y17554297D01*
X83768925Y16953257D01*
X82510275Y18211907D01*
X83111315Y18812947D01*
X83111315Y18812947D01*
G37*
D24*
X83899739Y18342722D03*
D12*
G36*
X83570934Y19272567D02*
X84829584Y18013917D01*
X84228544Y17412877D01*
X82969894Y18671527D01*
X83570934Y19272567D01*
X83570934Y19272567D01*
G37*
D24*
X84359359Y18802341D03*
D12*
G36*
X84030554Y19732186D02*
X85289204Y18473536D01*
X84688164Y17872496D01*
X83429514Y19131146D01*
X84030554Y19732186D01*
X84030554Y19732186D01*
G37*
D24*
X84818978Y19261961D03*
D12*
G36*
X84490173Y20191806D02*
X85748823Y18933156D01*
X85147783Y18332116D01*
X83889133Y19590766D01*
X84490173Y20191806D01*
X84490173Y20191806D01*
G37*
G04 #@! TD*
D13*
G04 #@! TO.C,U2*
X85462446Y33114183D03*
D12*
G36*
X84578563Y33149538D02*
X85427091Y33998066D01*
X86346329Y33078828D01*
X85497801Y32230300D01*
X84578563Y33149538D01*
X84578563Y33149538D01*
G37*
D13*
X86805949Y34457686D03*
D12*
G36*
X85922066Y34493041D02*
X86770594Y35341569D01*
X87689832Y34422331D01*
X86841304Y33573803D01*
X85922066Y34493041D01*
X85922066Y34493041D01*
G37*
D13*
X87548411Y32371721D03*
D12*
G36*
X86664528Y32407076D02*
X87513056Y33255604D01*
X88432294Y32336366D01*
X87583766Y31487838D01*
X86664528Y32407076D01*
X86664528Y32407076D01*
G37*
G04 #@! TD*
D25*
G04 #@! TO.C,Y2*
X25231089Y21220647D03*
D12*
G36*
X26185683Y21680266D02*
X24771470Y20266053D01*
X24276495Y20761028D01*
X25690708Y22175241D01*
X26185683Y21680266D01*
X26185683Y21680266D01*
G37*
D25*
X24559338Y21892398D03*
D12*
G36*
X25513932Y22352017D02*
X24099719Y20937804D01*
X23604744Y21432779D01*
X25018957Y22846992D01*
X25513932Y22352017D01*
X25513932Y22352017D01*
G37*
D25*
X23887587Y22564149D03*
D12*
G36*
X24842181Y23023768D02*
X23427968Y21609555D01*
X22932993Y22104530D01*
X24347206Y23518743D01*
X24842181Y23023768D01*
X24842181Y23023768D01*
G37*
G04 #@! TD*
G04 #@! TO.C,D26*
G36*
X88606743Y24346286D02*
X88639453Y24341434D01*
X88671529Y24333400D01*
X88702663Y24322260D01*
X88732556Y24308122D01*
X88760919Y24291122D01*
X88787479Y24271424D01*
X88811980Y24249217D01*
X89608244Y23452953D01*
X89630451Y23428452D01*
X89650149Y23401892D01*
X89667149Y23373529D01*
X89681287Y23343636D01*
X89692427Y23312502D01*
X89700461Y23280426D01*
X89705313Y23247716D01*
X89706936Y23214689D01*
X89705313Y23181662D01*
X89700461Y23148952D01*
X89692427Y23116876D01*
X89681287Y23085742D01*
X89667149Y23055849D01*
X89650149Y23027486D01*
X89630451Y23000926D01*
X89608244Y22976425D01*
X88988756Y22356937D01*
X88964255Y22334730D01*
X88937695Y22315032D01*
X88909332Y22298032D01*
X88879439Y22283894D01*
X88848305Y22272754D01*
X88816229Y22264720D01*
X88783519Y22259868D01*
X88750492Y22258245D01*
X88717465Y22259868D01*
X88684755Y22264720D01*
X88652679Y22272754D01*
X88621545Y22283894D01*
X88591652Y22298032D01*
X88563289Y22315032D01*
X88536729Y22334730D01*
X88512228Y22356937D01*
X87715964Y23153201D01*
X87693757Y23177702D01*
X87674059Y23204262D01*
X87657059Y23232625D01*
X87642921Y23262518D01*
X87631781Y23293652D01*
X87623747Y23325728D01*
X87618895Y23358438D01*
X87617272Y23391465D01*
X87618895Y23424492D01*
X87623747Y23457202D01*
X87631781Y23489278D01*
X87642921Y23520412D01*
X87657059Y23550305D01*
X87674059Y23578668D01*
X87693757Y23605228D01*
X87715964Y23629729D01*
X88335452Y24249217D01*
X88359953Y24271424D01*
X88386513Y24291122D01*
X88414876Y24308122D01*
X88444769Y24322260D01*
X88475903Y24333400D01*
X88507979Y24341434D01*
X88540689Y24346286D01*
X88573716Y24347909D01*
X88606743Y24346286D01*
X88606743Y24346286D01*
G37*
D26*
X88662104Y23303077D03*
D12*
G36*
X90056311Y25795854D02*
X90089021Y25791002D01*
X90121097Y25782968D01*
X90152231Y25771828D01*
X90182124Y25757690D01*
X90210487Y25740690D01*
X90237047Y25720992D01*
X90261548Y25698785D01*
X91057812Y24902521D01*
X91080019Y24878020D01*
X91099717Y24851460D01*
X91116717Y24823097D01*
X91130855Y24793204D01*
X91141995Y24762070D01*
X91150029Y24729994D01*
X91154881Y24697284D01*
X91156504Y24664257D01*
X91154881Y24631230D01*
X91150029Y24598520D01*
X91141995Y24566444D01*
X91130855Y24535310D01*
X91116717Y24505417D01*
X91099717Y24477054D01*
X91080019Y24450494D01*
X91057812Y24425993D01*
X90438324Y23806505D01*
X90413823Y23784298D01*
X90387263Y23764600D01*
X90358900Y23747600D01*
X90329007Y23733462D01*
X90297873Y23722322D01*
X90265797Y23714288D01*
X90233087Y23709436D01*
X90200060Y23707813D01*
X90167033Y23709436D01*
X90134323Y23714288D01*
X90102247Y23722322D01*
X90071113Y23733462D01*
X90041220Y23747600D01*
X90012857Y23764600D01*
X89986297Y23784298D01*
X89961796Y23806505D01*
X89165532Y24602769D01*
X89143325Y24627270D01*
X89123627Y24653830D01*
X89106627Y24682193D01*
X89092489Y24712086D01*
X89081349Y24743220D01*
X89073315Y24775296D01*
X89068463Y24808006D01*
X89066840Y24841033D01*
X89068463Y24874060D01*
X89073315Y24906770D01*
X89081349Y24938846D01*
X89092489Y24969980D01*
X89106627Y24999873D01*
X89123627Y25028236D01*
X89143325Y25054796D01*
X89165532Y25079297D01*
X89785020Y25698785D01*
X89809521Y25720992D01*
X89836081Y25740690D01*
X89864444Y25757690D01*
X89894337Y25771828D01*
X89925471Y25782968D01*
X89957547Y25791002D01*
X89990257Y25795854D01*
X90023284Y25797477D01*
X90056311Y25795854D01*
X90056311Y25795854D01*
G37*
D26*
X90111672Y24752645D03*
G04 #@! TD*
D25*
G04 #@! TO.C,Y1*
X60515718Y19848860D03*
D12*
G36*
X59561124Y19389241D02*
X60975337Y20803454D01*
X61470312Y20308479D01*
X60056099Y18894266D01*
X59561124Y19389241D01*
X59561124Y19389241D01*
G37*
D25*
X59843967Y20520611D03*
D12*
G36*
X58889373Y20060992D02*
X60303586Y21475205D01*
X60798561Y20980230D01*
X59384348Y19566017D01*
X58889373Y20060992D01*
X58889373Y20060992D01*
G37*
D25*
X59172216Y21192362D03*
D12*
G36*
X58217622Y20732743D02*
X59631835Y22146956D01*
X60126810Y21651981D01*
X58712597Y20237768D01*
X58217622Y20732743D01*
X58217622Y20732743D01*
G37*
G04 #@! TD*
D27*
G04 #@! TO.C,R13*
X27762532Y72570741D03*
D12*
G36*
X27833243Y73843533D02*
X29035324Y72641452D01*
X27691821Y71297949D01*
X26489740Y72500030D01*
X27833243Y73843533D01*
X27833243Y73843533D01*
G37*
D27*
X29671720Y74479929D03*
D12*
G36*
X29742431Y75752721D02*
X30944512Y74550640D01*
X29601009Y73207137D01*
X28398928Y74409218D01*
X29742431Y75752721D01*
X29742431Y75752721D01*
G37*
G04 #@! TD*
D27*
G04 #@! TO.C,R14*
X31439487Y72712162D03*
D12*
G36*
X31510198Y73984954D02*
X32712279Y72782873D01*
X31368776Y71439370D01*
X30166695Y72641451D01*
X31510198Y73984954D01*
X31510198Y73984954D01*
G37*
D27*
X29530299Y70802974D03*
D12*
G36*
X29601010Y72075766D02*
X30803091Y70873685D01*
X29459588Y69530182D01*
X28257507Y70732263D01*
X29601010Y72075766D01*
X29601010Y72075766D01*
G37*
G04 #@! TD*
D11*
G04 #@! TO.C,JP7*
X31686974Y68717009D03*
D12*
G36*
X31863751Y67550283D02*
X30520248Y68893786D01*
X31510197Y69883735D01*
X32853700Y68540232D01*
X31863751Y67550283D01*
X31863751Y67550283D01*
G37*
D11*
X32606213Y69636248D03*
D12*
G36*
X32782990Y68469522D02*
X31439487Y69813025D01*
X32429436Y70802974D01*
X33772939Y69459471D01*
X32782990Y68469522D01*
X32782990Y68469522D01*
G37*
D11*
X33525452Y70555487D03*
D12*
G36*
X33702229Y69388761D02*
X32358726Y70732264D01*
X33348675Y71722213D01*
X34692178Y70378710D01*
X33702229Y69388761D01*
X33702229Y69388761D01*
G37*
G04 #@! TD*
D11*
G04 #@! TO.C,JP5*
X36000326Y68080613D03*
D12*
G36*
X36177103Y66913887D02*
X34833600Y68257390D01*
X35823549Y69247339D01*
X37167052Y67903836D01*
X36177103Y66913887D01*
X36177103Y66913887D01*
G37*
D11*
X35081087Y67161374D03*
D12*
G36*
X35257864Y65994648D02*
X33914361Y67338151D01*
X34904310Y68328100D01*
X36247813Y66984597D01*
X35257864Y65994648D01*
X35257864Y65994648D01*
G37*
D11*
X34161848Y66242135D03*
D12*
G36*
X34338625Y65075409D02*
X32995122Y66418912D01*
X33985071Y67408861D01*
X35328574Y66065358D01*
X34338625Y65075409D01*
X34338625Y65075409D01*
G37*
G04 #@! TD*
D17*
G04 #@! TO.C,J2*
X17756971Y33573802D03*
D12*
G36*
X17756971Y32336365D02*
X16519534Y33573802D01*
X17756971Y34811239D01*
X18994408Y33573802D01*
X17756971Y32336365D01*
X17756971Y32336365D01*
G37*
G04 #@! TD*
D27*
G04 #@! TO.C,R1*
X68421172Y72005056D03*
D12*
G36*
X69693964Y71934345D02*
X68491883Y70732264D01*
X67148380Y72075767D01*
X68350461Y73277848D01*
X69693964Y71934345D01*
X69693964Y71934345D01*
G37*
D27*
X70330360Y70095868D03*
D12*
G36*
X71603152Y70025157D02*
X70401071Y68823076D01*
X69057568Y70166579D01*
X70259649Y71368660D01*
X71603152Y70025157D01*
X71603152Y70025157D01*
G37*
G04 #@! TD*
D28*
G04 #@! TO.C,M1*
X69538400Y42575272D03*
D12*
G36*
X71518299Y42575272D02*
X69538400Y40595373D01*
X67558501Y42575272D01*
X69538400Y44555171D01*
X71518299Y42575272D01*
X71518299Y42575272D01*
G37*
D28*
X67275659Y40312530D03*
D12*
G36*
X69255558Y40312530D02*
X67275659Y38332631D01*
X65295760Y40312530D01*
X67275659Y42292429D01*
X69255558Y40312530D01*
X69255558Y40312530D01*
G37*
D28*
X61972358Y35009229D03*
D12*
G36*
X63952257Y35009229D02*
X61972358Y33029330D01*
X59992459Y35009229D01*
X61972358Y36989128D01*
X63952257Y35009229D01*
X63952257Y35009229D01*
G37*
D28*
X59709616Y32746487D03*
D12*
G36*
X61689515Y32746487D02*
X59709616Y30766588D01*
X57729717Y32746487D01*
X59709616Y34726386D01*
X61689515Y32746487D01*
X61689515Y32746487D01*
G37*
D28*
X75782153Y16574955D03*
D12*
G36*
X77762052Y16574955D02*
X75782153Y14595056D01*
X73802254Y16574955D01*
X75782153Y18554854D01*
X77762052Y16574955D01*
X77762052Y16574955D01*
G37*
D28*
X85660435Y26453237D03*
D12*
G36*
X87640334Y26453237D02*
X85660435Y24473338D01*
X83680536Y26453237D01*
X85660435Y28433136D01*
X87640334Y26453237D01*
X87640334Y26453237D01*
G37*
G04 #@! TD*
D11*
G04 #@! TO.C,JP2*
X80371276Y47539161D03*
D12*
G36*
X80548053Y46372435D02*
X79204550Y47715938D01*
X80194499Y48705887D01*
X81538002Y47362384D01*
X80548053Y46372435D01*
X80548053Y46372435D01*
G37*
D29*
X79452038Y46619923D03*
D12*
G36*
X79164147Y47670100D02*
X79198725Y47688583D01*
X79236243Y47699964D01*
X79275261Y47703806D01*
X79314279Y47699964D01*
X79351798Y47688583D01*
X79386375Y47670100D01*
X79416683Y47645228D01*
X79593459Y47468451D01*
X79734881Y47609872D01*
X79765188Y47634745D01*
X79799766Y47653227D01*
X79837284Y47664608D01*
X79876302Y47668451D01*
X79915320Y47664608D01*
X79952839Y47653227D01*
X79987416Y47634745D01*
X80017723Y47609872D01*
X80441987Y47185608D01*
X80466860Y47155301D01*
X80485342Y47120724D01*
X80496723Y47083205D01*
X80500566Y47044187D01*
X80496723Y47005169D01*
X80485342Y46967651D01*
X80466860Y46933073D01*
X80441987Y46902766D01*
X80300566Y46761344D01*
X80477343Y46584568D01*
X80502215Y46554260D01*
X80520698Y46519683D01*
X80532079Y46482164D01*
X80535921Y46443146D01*
X80532079Y46404128D01*
X80520698Y46366610D01*
X80502215Y46332032D01*
X80477343Y46301725D01*
X79770236Y45594618D01*
X79739929Y45569746D01*
X79705351Y45551263D01*
X79667833Y45539882D01*
X79628815Y45536040D01*
X79589797Y45539882D01*
X79552278Y45551263D01*
X79517701Y45569746D01*
X79487393Y45594618D01*
X78426733Y46655278D01*
X78401861Y46685586D01*
X78383378Y46720163D01*
X78371997Y46757682D01*
X78368155Y46796700D01*
X78371997Y46835718D01*
X78383378Y46873236D01*
X78401861Y46907814D01*
X78426733Y46938121D01*
X79133840Y47645228D01*
X79164147Y47670100D01*
X79164147Y47670100D01*
G37*
G04 #@! TD*
D11*
G04 #@! TO.C,JP3*
X45772542Y22967201D03*
D12*
G36*
X45595765Y24133927D02*
X46939268Y22790424D01*
X45949319Y21800475D01*
X44605816Y23143978D01*
X45595765Y24133927D01*
X45595765Y24133927D01*
G37*
D29*
X46691780Y23886439D03*
D12*
G36*
X46979671Y22836262D02*
X46945093Y22817779D01*
X46907575Y22806398D01*
X46868557Y22802556D01*
X46829539Y22806398D01*
X46792020Y22817779D01*
X46757443Y22836262D01*
X46727135Y22861134D01*
X46550359Y23037911D01*
X46408937Y22896490D01*
X46378630Y22871617D01*
X46344052Y22853135D01*
X46306534Y22841754D01*
X46267516Y22837911D01*
X46228498Y22841754D01*
X46190979Y22853135D01*
X46156402Y22871617D01*
X46126095Y22896490D01*
X45701831Y23320754D01*
X45676958Y23351061D01*
X45658476Y23385638D01*
X45647095Y23423157D01*
X45643252Y23462175D01*
X45647095Y23501193D01*
X45658476Y23538711D01*
X45676958Y23573289D01*
X45701831Y23603596D01*
X45843252Y23745018D01*
X45666475Y23921794D01*
X45641603Y23952102D01*
X45623120Y23986679D01*
X45611739Y24024198D01*
X45607897Y24063216D01*
X45611739Y24102234D01*
X45623120Y24139752D01*
X45641603Y24174330D01*
X45666475Y24204637D01*
X46373582Y24911744D01*
X46403889Y24936616D01*
X46438467Y24955099D01*
X46475985Y24966480D01*
X46515003Y24970322D01*
X46554021Y24966480D01*
X46591540Y24955099D01*
X46626117Y24936616D01*
X46656425Y24911744D01*
X47717085Y23851084D01*
X47741957Y23820776D01*
X47760440Y23786199D01*
X47771821Y23748680D01*
X47775663Y23709662D01*
X47771821Y23670644D01*
X47760440Y23633126D01*
X47741957Y23598548D01*
X47717085Y23568241D01*
X47009978Y22861134D01*
X46979671Y22836262D01*
X46979671Y22836262D01*
G37*
G04 #@! TD*
D29*
G04 #@! TO.C,JP1*
X77330718Y48882665D03*
D12*
G36*
X77042827Y49932842D02*
X77077405Y49951325D01*
X77114923Y49962706D01*
X77153941Y49966548D01*
X77192959Y49962706D01*
X77230478Y49951325D01*
X77265055Y49932842D01*
X77295363Y49907970D01*
X77472139Y49731193D01*
X77613561Y49872614D01*
X77643868Y49897487D01*
X77678446Y49915969D01*
X77715964Y49927350D01*
X77754982Y49931193D01*
X77794000Y49927350D01*
X77831519Y49915969D01*
X77866096Y49897487D01*
X77896403Y49872614D01*
X78320667Y49448350D01*
X78345540Y49418043D01*
X78364022Y49383466D01*
X78375403Y49345947D01*
X78379246Y49306929D01*
X78375403Y49267911D01*
X78364022Y49230393D01*
X78345540Y49195815D01*
X78320667Y49165508D01*
X78179246Y49024086D01*
X78356023Y48847310D01*
X78380895Y48817002D01*
X78399378Y48782425D01*
X78410759Y48744906D01*
X78414601Y48705888D01*
X78410759Y48666870D01*
X78399378Y48629352D01*
X78380895Y48594774D01*
X78356023Y48564467D01*
X77648916Y47857360D01*
X77618609Y47832488D01*
X77584031Y47814005D01*
X77546513Y47802624D01*
X77507495Y47798782D01*
X77468477Y47802624D01*
X77430958Y47814005D01*
X77396381Y47832488D01*
X77366073Y47857360D01*
X76305413Y48918020D01*
X76280541Y48948328D01*
X76262058Y48982905D01*
X76250677Y49020424D01*
X76246835Y49059442D01*
X76250677Y49098460D01*
X76262058Y49135978D01*
X76280541Y49170556D01*
X76305413Y49200863D01*
X77012520Y49907970D01*
X77042827Y49932842D01*
X77042827Y49932842D01*
G37*
D11*
X78249956Y49801903D03*
D12*
G36*
X78426733Y48635177D02*
X77083230Y49978680D01*
X78073179Y50968629D01*
X79416682Y49625126D01*
X78426733Y48635177D01*
X78426733Y48635177D01*
G37*
G04 #@! TD*
D27*
G04 #@! TO.C,R10*
X29883852Y36875991D03*
D12*
G36*
X29813141Y35603199D02*
X28611060Y36805280D01*
X29954563Y38148783D01*
X31156644Y36946702D01*
X29813141Y35603199D01*
X29813141Y35603199D01*
G37*
D27*
X31793040Y38785179D03*
D12*
G36*
X31722329Y37512387D02*
X30520248Y38714468D01*
X31863751Y40057971D01*
X33065832Y38855890D01*
X31722329Y37512387D01*
X31722329Y37512387D01*
G37*
G04 #@! TD*
D27*
G04 #@! TO.C,R9*
X88672710Y79076124D03*
D12*
G36*
X88601999Y77803332D02*
X87399918Y79005413D01*
X88743421Y80348916D01*
X89945502Y79146835D01*
X88601999Y77803332D01*
X88601999Y77803332D01*
G37*
D27*
X86763522Y77166936D03*
D12*
G36*
X86692811Y75894144D02*
X85490730Y77096225D01*
X86834233Y78439728D01*
X88036314Y77237647D01*
X86692811Y75894144D01*
X86692811Y75894144D01*
G37*
G04 #@! TD*
D30*
G04 #@! TO.C,J7*
X25344227Y75102184D03*
D12*
G36*
X26829151Y75102184D02*
X25344227Y73617260D01*
X23859303Y75102184D01*
X25344227Y76587108D01*
X26829151Y75102184D01*
X26829151Y75102184D01*
G37*
D30*
X23548176Y76898235D03*
D31*
X23548176Y76898235D02*
X23548176Y76898235D01*
D30*
X27140278Y76898235D03*
D31*
X27140278Y76898235D02*
X27140278Y76898235D01*
D30*
X25344227Y78694286D03*
D31*
X25344227Y78694286D02*
X25344227Y78694286D01*
G04 #@! TD*
D27*
G04 #@! TO.C,R4*
X66420060Y62706602D03*
D12*
G36*
X65147268Y62777313D02*
X66349349Y63979394D01*
X67692852Y62635891D01*
X66490771Y61433810D01*
X65147268Y62777313D01*
X65147268Y62777313D01*
G37*
D27*
X68329248Y60797414D03*
D12*
G36*
X67056456Y60868125D02*
X68258537Y62070206D01*
X69602040Y60726703D01*
X68399959Y59524622D01*
X67056456Y60868125D01*
X67056456Y60868125D01*
G37*
G04 #@! TD*
D27*
G04 #@! TO.C,R5*
X85992776Y58435677D03*
D12*
G36*
X85922065Y57162885D02*
X84719984Y58364966D01*
X86063487Y59708469D01*
X87265568Y58506388D01*
X85922065Y57162885D01*
X85922065Y57162885D01*
G37*
D27*
X87901964Y60344865D03*
D12*
G36*
X87831253Y59072073D02*
X86629172Y60274154D01*
X87972675Y61617657D01*
X89174756Y60415576D01*
X87831253Y59072073D01*
X87831253Y59072073D01*
G37*
G04 #@! TD*
D27*
G04 #@! TO.C,R3*
X69693964Y62246982D03*
D12*
G36*
X68421172Y62317693D02*
X69623253Y63519774D01*
X70966756Y62176271D01*
X69764675Y60974190D01*
X68421172Y62317693D01*
X68421172Y62317693D01*
G37*
D27*
X67784776Y64156170D03*
D12*
G36*
X66511984Y64226881D02*
X67714065Y65428962D01*
X69057568Y64085459D01*
X67855487Y62883378D01*
X66511984Y64226881D01*
X66511984Y64226881D01*
G37*
G04 #@! TD*
D27*
G04 #@! TO.C,R2*
X69156563Y65556242D03*
D12*
G36*
X67883771Y65626953D02*
X69085852Y66829034D01*
X70429355Y65485531D01*
X69227274Y64283450D01*
X67883771Y65626953D01*
X67883771Y65626953D01*
G37*
D27*
X71065751Y63647054D03*
D12*
G36*
X69792959Y63717765D02*
X70995040Y64919846D01*
X72338543Y63576343D01*
X71136462Y62374262D01*
X69792959Y63717765D01*
X69792959Y63717765D01*
G37*
G04 #@! TD*
D29*
G04 #@! TO.C,JP4*
X80088433Y37568956D03*
D12*
G36*
X79038256Y37281065D02*
X79019773Y37315643D01*
X79008392Y37353161D01*
X79004550Y37392179D01*
X79008392Y37431197D01*
X79019773Y37468716D01*
X79038256Y37503293D01*
X79063128Y37533601D01*
X79239905Y37710377D01*
X79098484Y37851799D01*
X79073611Y37882106D01*
X79055129Y37916684D01*
X79043748Y37954202D01*
X79039905Y37993220D01*
X79043748Y38032238D01*
X79055129Y38069757D01*
X79073611Y38104334D01*
X79098484Y38134641D01*
X79522748Y38558905D01*
X79553055Y38583778D01*
X79587632Y38602260D01*
X79625151Y38613641D01*
X79664169Y38617484D01*
X79703187Y38613641D01*
X79740705Y38602260D01*
X79775283Y38583778D01*
X79805590Y38558905D01*
X79947012Y38417484D01*
X80123788Y38594261D01*
X80154096Y38619133D01*
X80188673Y38637616D01*
X80226192Y38648997D01*
X80265210Y38652839D01*
X80304228Y38648997D01*
X80341746Y38637616D01*
X80376324Y38619133D01*
X80406631Y38594261D01*
X81113738Y37887154D01*
X81138610Y37856847D01*
X81157093Y37822269D01*
X81168474Y37784751D01*
X81172316Y37745733D01*
X81168474Y37706715D01*
X81157093Y37669196D01*
X81138610Y37634619D01*
X81113738Y37604311D01*
X80053078Y36543651D01*
X80022770Y36518779D01*
X79988193Y36500296D01*
X79950674Y36488915D01*
X79911656Y36485073D01*
X79872638Y36488915D01*
X79835120Y36500296D01*
X79800542Y36518779D01*
X79770235Y36543651D01*
X79063128Y37250758D01*
X79038256Y37281065D01*
X79038256Y37281065D01*
G37*
D11*
X79169195Y38488194D03*
D12*
G36*
X80335921Y38664971D02*
X78992418Y37321468D01*
X78002469Y38311417D01*
X79345972Y39654920D01*
X80335921Y38664971D01*
X80335921Y38664971D01*
G37*
G04 #@! TD*
D30*
G04 #@! TO.C,J8*
X58988368Y48642248D03*
D31*
X58988368Y48642248D02*
X58988368Y48642248D01*
D30*
X57192316Y46846196D03*
D31*
X57192316Y46846196D02*
X57192316Y46846196D01*
D30*
X55396265Y45050145D03*
D31*
X55396265Y45050145D02*
X55396265Y45050145D01*
D30*
X53600214Y43254094D03*
D12*
G36*
X55085138Y43254094D02*
X53600214Y41769170D01*
X52115290Y43254094D01*
X53600214Y44739018D01*
X55085138Y43254094D01*
X55085138Y43254094D01*
G37*
G04 #@! TD*
D27*
G04 #@! TO.C,R6*
X84359359Y60097378D03*
D12*
G36*
X84430070Y61370170D02*
X85632151Y60168089D01*
X84288648Y58824586D01*
X83086567Y60026667D01*
X84430070Y61370170D01*
X84430070Y61370170D01*
G37*
D27*
X86268547Y62006566D03*
D12*
G36*
X86339258Y63279358D02*
X87541339Y62077277D01*
X86197836Y60733774D01*
X84995755Y61935855D01*
X86339258Y63279358D01*
X86339258Y63279358D01*
G37*
G04 #@! TD*
D32*
G04 #@! TO.C,C7*
X29954563Y27033065D03*
D12*
G36*
X31209678Y26944677D02*
X30042951Y25777950D01*
X28699448Y27121453D01*
X29866175Y28288180D01*
X31209678Y26944677D01*
X31209678Y26944677D01*
G37*
D32*
X28186797Y28800831D03*
D12*
G36*
X29441912Y28712443D02*
X28275185Y27545716D01*
X26931682Y28889219D01*
X28098409Y30055946D01*
X29441912Y28712443D01*
X29441912Y28712443D01*
G37*
G04 #@! TD*
D32*
G04 #@! TO.C,C10*
X41586470Y18964977D03*
D12*
G36*
X41498082Y17709862D02*
X40331355Y18876589D01*
X41674858Y20220092D01*
X42841585Y19053365D01*
X41498082Y17709862D01*
X41498082Y17709862D01*
G37*
D32*
X43354236Y20732743D03*
D12*
G36*
X43265848Y19477628D02*
X42099121Y20644355D01*
X43442624Y21987858D01*
X44609351Y20821131D01*
X43265848Y19477628D01*
X43265848Y19477628D01*
G37*
G04 #@! TD*
D32*
G04 #@! TO.C,C4*
X85250313Y36154742D03*
D12*
G36*
X85338701Y37409857D02*
X86505428Y36243130D01*
X85161925Y34899627D01*
X83995198Y36066354D01*
X85338701Y37409857D01*
X85338701Y37409857D01*
G37*
D32*
X83482547Y34386976D03*
D12*
G36*
X83570935Y35642091D02*
X84737662Y34475364D01*
X83394159Y33131861D01*
X82227432Y34298588D01*
X83570935Y35642091D01*
X83570935Y35642091D01*
G37*
G04 #@! TD*
D33*
G04 #@! TO.C,C37*
X55657894Y19573088D03*
D12*
G36*
X54685622Y19732187D02*
X55498795Y20545360D01*
X56630166Y19413989D01*
X55816993Y18600816D01*
X54685622Y19732187D01*
X54685622Y19732187D01*
G37*
D33*
X54314392Y20916590D03*
D12*
G36*
X53342120Y21075689D02*
X54155293Y21888862D01*
X55286664Y20757491D01*
X54473491Y19944318D01*
X53342120Y21075689D01*
X53342120Y21075689D01*
G37*
G04 #@! TD*
D32*
G04 #@! TO.C,C8*
X54745727Y30879725D03*
D12*
G36*
X56000842Y30791337D02*
X54834115Y29624610D01*
X53490612Y30968113D01*
X54657339Y32134840D01*
X56000842Y30791337D01*
X56000842Y30791337D01*
G37*
D32*
X56513493Y29111959D03*
D12*
G36*
X57768608Y29023571D02*
X56601881Y27856844D01*
X55258378Y29200347D01*
X56425105Y30367074D01*
X57768608Y29023571D01*
X57768608Y29023571D01*
G37*
G04 #@! TD*
D30*
G04 #@! TO.C,J6*
X36827641Y42688409D03*
D12*
G36*
X36827641Y41203485D02*
X35342717Y42688409D01*
X36827641Y44173333D01*
X38312565Y42688409D01*
X36827641Y41203485D01*
X36827641Y41203485D01*
G37*
D30*
X38623692Y44484460D03*
D31*
X38623692Y44484460D02*
X38623692Y44484460D01*
D30*
X38623692Y40892358D03*
D31*
X38623692Y40892358D02*
X38623692Y40892358D01*
D30*
X40419743Y42688409D03*
D31*
X40419743Y42688409D02*
X40419743Y42688409D01*
D30*
X40419743Y39096307D03*
D31*
X40419743Y39096307D02*
X40419743Y39096307D01*
D30*
X42215795Y40892358D03*
D31*
X42215795Y40892358D02*
X42215795Y40892358D01*
G04 #@! TD*
D32*
G04 #@! TO.C,C5*
X89620234Y74267798D03*
D12*
G36*
X89708622Y75522913D02*
X90875349Y74356186D01*
X89531846Y73012683D01*
X88365119Y74179410D01*
X89708622Y75522913D01*
X89708622Y75522913D01*
G37*
D32*
X91388000Y76035564D03*
D12*
G36*
X91476388Y77290679D02*
X92643115Y76123952D01*
X91299612Y74780449D01*
X90132885Y75947176D01*
X91476388Y77290679D01*
X91476388Y77290679D01*
G37*
G04 #@! TD*
D33*
G04 #@! TO.C,C40*
X24615906Y16037555D03*
D12*
G36*
X23643634Y16196654D02*
X24456807Y17009827D01*
X25588178Y15878456D01*
X24775005Y15065283D01*
X23643634Y16196654D01*
X23643634Y16196654D01*
G37*
D33*
X23272404Y17381057D03*
D12*
G36*
X22300132Y17540156D02*
X23113305Y18353329D01*
X24244676Y17221958D01*
X23431503Y16408785D01*
X22300132Y17540156D01*
X22300132Y17540156D01*
G37*
G04 #@! TD*
D33*
G04 #@! TO.C,C39*
X19941931Y20725673D03*
D12*
G36*
X20914203Y20566574D02*
X20101030Y19753401D01*
X18969659Y20884772D01*
X19782832Y21697945D01*
X20914203Y20566574D01*
X20914203Y20566574D01*
G37*
D33*
X18598429Y22069175D03*
D12*
G36*
X19570701Y21910076D02*
X18757528Y21096903D01*
X17626157Y22228274D01*
X18439330Y23041447D01*
X19570701Y21910076D01*
X19570701Y21910076D01*
G37*
G04 #@! TD*
D32*
G04 #@! TO.C,C3*
X87018081Y29790781D03*
D12*
G36*
X88273196Y29702393D02*
X87106469Y28535666D01*
X85762966Y29879169D01*
X86929693Y31045896D01*
X88273196Y29702393D01*
X88273196Y29702393D01*
G37*
D32*
X88785847Y28023015D03*
D12*
G36*
X90040962Y27934627D02*
X88874235Y26767900D01*
X87530732Y28111403D01*
X88697459Y29278130D01*
X90040962Y27934627D01*
X90040962Y27934627D01*
G37*
G04 #@! TD*
D32*
G04 #@! TO.C,C9*
X32782991Y34669817D03*
D12*
G36*
X34038106Y34581429D02*
X32871379Y33414702D01*
X31527876Y34758205D01*
X32694603Y35924932D01*
X34038106Y34581429D01*
X34038106Y34581429D01*
G37*
D32*
X34550757Y32902051D03*
D12*
G36*
X35805872Y32813663D02*
X34639145Y31646936D01*
X33295642Y32990439D01*
X34462369Y34157166D01*
X35805872Y32813663D01*
X35805872Y32813663D01*
G37*
G04 #@! TD*
D33*
G04 #@! TO.C,C38*
X60324799Y14906184D03*
D12*
G36*
X61297071Y14747085D02*
X60483898Y13933912D01*
X59352527Y15065283D01*
X60165700Y15878456D01*
X61297071Y14747085D01*
X61297071Y14747085D01*
G37*
D33*
X58981297Y16249686D03*
D12*
G36*
X59953569Y16090587D02*
X59140396Y15277414D01*
X58009025Y16408785D01*
X58822198Y17221958D01*
X59953569Y16090587D01*
X59953569Y16090587D01*
G37*
G04 #@! TD*
D32*
G04 #@! TO.C,C2*
X57616580Y60832769D03*
D12*
G36*
X56361465Y60921157D02*
X57528192Y62087884D01*
X58871695Y60744381D01*
X57704968Y59577654D01*
X56361465Y60921157D01*
X56361465Y60921157D01*
G37*
D32*
X55848814Y62600535D03*
D12*
G36*
X54593699Y62688923D02*
X55760426Y63855650D01*
X57103929Y62512147D01*
X55937202Y61345420D01*
X54593699Y62688923D01*
X54593699Y62688923D01*
G37*
G04 #@! TD*
D32*
G04 #@! TO.C,C11*
X83553257Y37851798D03*
D12*
G36*
X83641645Y39106913D02*
X84808372Y37940186D01*
X83464869Y36596683D01*
X82298142Y37763410D01*
X83641645Y39106913D01*
X83641645Y39106913D01*
G37*
D32*
X81785491Y36084032D03*
D12*
G36*
X81873879Y37339147D02*
X83040606Y36172420D01*
X81697103Y34828917D01*
X80530376Y35995644D01*
X81873879Y37339147D01*
X81873879Y37339147D01*
G37*
G04 #@! TD*
D32*
G04 #@! TO.C,C6*
X54328533Y27040136D03*
D12*
G36*
X55583648Y26951748D02*
X54416921Y25785021D01*
X53073418Y27128524D01*
X54240145Y28295251D01*
X55583648Y26951748D01*
X55583648Y26951748D01*
G37*
D32*
X52560767Y28807902D03*
D12*
G36*
X53815882Y28719514D02*
X52649155Y27552787D01*
X51305652Y28896290D01*
X52472379Y30063017D01*
X53815882Y28719514D01*
X53815882Y28719514D01*
G37*
G04 #@! TD*
D32*
G04 #@! TO.C,C1*
X59200499Y62416688D03*
D12*
G36*
X57945384Y62505076D02*
X59112111Y63671803D01*
X60455614Y62328300D01*
X59288887Y61161573D01*
X57945384Y62505076D01*
X57945384Y62505076D01*
G37*
D32*
X57432733Y64184454D03*
D12*
G36*
X56177618Y64272842D02*
X57344345Y65439569D01*
X58687848Y64096066D01*
X57521121Y62929339D01*
X56177618Y64272842D01*
X56177618Y64272842D01*
G37*
G04 #@! TD*
M02*
