G04 #@! TF.GenerationSoftware,KiCad,Pcbnew,(5.0.0)*
G04 #@! TF.CreationDate,2018-09-13T19:48:45+02:00*
G04 #@! TF.ProjectId,noname.kicad_pcb_45_grader,6E6F6E616D652E6B696361645F706362,rev?*
G04 #@! TF.SameCoordinates,PX5f5e100PY8f0d180*
G04 #@! TF.FileFunction,Paste,Top*
G04 #@! TF.FilePolarity,Positive*
%FSLAX46Y46*%
G04 Gerber Fmt 4.6, Leading zero omitted, Abs format (unit mm)*
G04 Created by KiCad (PCBNEW (5.0.0)) date 09/13/18 19:48:45*
%MOMM*%
%LPD*%
G01*
G04 APERTURE LIST*
%ADD10C,1.250000*%
%ADD11C,0.100000*%
%ADD12R,1.000000X1.500000*%
%ADD13R,1.500000X1.000000*%
%ADD14C,1.000000*%
%ADD15C,0.950000*%
%ADD16C,0.600000*%
%ADD17C,1.100000*%
%ADD18C,1.300000*%
%ADD19C,0.550000*%
G04 APERTURE END LIST*
D10*
G04 #@! TO.C,C16*
X79853312Y87236957D03*
D11*
G36*
X79892587Y86261466D02*
X78900895Y87022418D01*
X79814037Y88212448D01*
X80805729Y87451496D01*
X79892587Y86261466D01*
X79892587Y86261466D01*
G37*
D10*
X78331408Y85253573D03*
D11*
G36*
X78370683Y84278082D02*
X77378991Y85039034D01*
X78292133Y86229064D01*
X79283825Y85468112D01*
X78370683Y84278082D01*
X78370683Y84278082D01*
G37*
G04 #@! TD*
D10*
G04 #@! TO.C,C14*
X57734932Y96398689D03*
D11*
G36*
X58256690Y95573526D02*
X57017384Y95736684D01*
X57213174Y97223852D01*
X58452480Y97060694D01*
X58256690Y95573526D01*
X58256690Y95573526D01*
G37*
D10*
X57408616Y93920077D03*
D11*
G36*
X57930374Y93094914D02*
X56691068Y93258072D01*
X56886858Y94745240D01*
X58126164Y94582082D01*
X57930374Y93094914D01*
X57930374Y93094914D01*
G37*
G04 #@! TD*
D10*
G04 #@! TO.C,C32*
X5843773Y56581201D03*
D11*
G36*
X6668936Y57102959D02*
X6505778Y55863653D01*
X5018610Y56059443D01*
X5181768Y57298749D01*
X6668936Y57102959D01*
X6668936Y57102959D01*
G37*
D10*
X8322385Y56254885D03*
D11*
G36*
X9147548Y56776643D02*
X8984390Y55537337D01*
X7497222Y55733127D01*
X7660380Y56972433D01*
X9147548Y56776643D01*
X9147548Y56776643D01*
G37*
G04 #@! TD*
D10*
G04 #@! TO.C,C13*
X45661259Y96398689D03*
D11*
G36*
X46378807Y95736684D02*
X45139501Y95573526D01*
X44943711Y97060694D01*
X46183017Y97223852D01*
X46378807Y95736684D01*
X46378807Y95736684D01*
G37*
D10*
X45987575Y93920077D03*
D11*
G36*
X46705123Y93258072D02*
X45465817Y93094914D01*
X45270027Y94582082D01*
X46509333Y94745240D01*
X46705123Y93258072D01*
X46705123Y93258072D01*
G37*
G04 #@! TD*
D10*
G04 #@! TO.C,C35*
X23542880Y87236956D03*
D11*
G36*
X24495297Y87022417D02*
X23503605Y86261465D01*
X22590463Y87451495D01*
X23582155Y88212447D01*
X24495297Y87022417D01*
X24495297Y87022417D01*
G37*
D10*
X25064784Y85253572D03*
D11*
G36*
X26017201Y85039033D02*
X25025509Y84278081D01*
X24112367Y85468111D01*
X25104059Y86229063D01*
X26017201Y85039033D01*
X26017201Y85039033D01*
G37*
G04 #@! TD*
D10*
G04 #@! TO.C,C26*
X45661261Y4690041D03*
D11*
G36*
X45139503Y5515204D02*
X46378809Y5352046D01*
X46183019Y3864878D01*
X44943713Y4028036D01*
X45139503Y5515204D01*
X45139503Y5515204D01*
G37*
D10*
X45987577Y7168653D03*
D11*
G36*
X45465819Y7993816D02*
X46705125Y7830658D01*
X46509335Y6343490D01*
X45270029Y6506648D01*
X45465819Y7993816D01*
X45465819Y7993816D01*
G37*
G04 #@! TD*
D10*
G04 #@! TO.C,C23*
X79853313Y13851774D03*
D11*
G36*
X78900896Y14066313D02*
X79892588Y14827265D01*
X80805730Y13637235D01*
X79814038Y12876283D01*
X78900896Y14066313D01*
X78900896Y14066313D01*
G37*
D10*
X78331409Y15835158D03*
D11*
G36*
X77378992Y16049697D02*
X78370684Y16810649D01*
X79283826Y15620619D01*
X78292134Y14859667D01*
X77378992Y16049697D01*
X77378992Y16049697D01*
G37*
G04 #@! TD*
D10*
G04 #@! TO.C,C12*
X33998988Y93273792D03*
D11*
G36*
X34863425Y92820059D02*
X33708576Y92341705D01*
X33134551Y93727525D01*
X34289400Y94205879D01*
X34863425Y92820059D01*
X34863425Y92820059D01*
G37*
D10*
X34955696Y90964094D03*
D11*
G36*
X35820133Y90510361D02*
X34665284Y90032007D01*
X34091259Y91417827D01*
X35246108Y91896181D01*
X35820133Y90510361D01*
X35820133Y90510361D01*
G37*
G04 #@! TD*
D10*
G04 #@! TO.C,C34*
X15005505Y78699581D03*
D11*
G36*
X15980996Y78738856D02*
X15220044Y77747164D01*
X14030014Y78660306D01*
X14790966Y79651998D01*
X15980996Y78738856D01*
X15980996Y78738856D01*
G37*
D10*
X16988889Y77177677D03*
D11*
G36*
X17964380Y77216952D02*
X17203428Y76225260D01*
X16013398Y77138402D01*
X16774350Y78130094D01*
X17964380Y77216952D01*
X17964380Y77216952D01*
G37*
G04 #@! TD*
D10*
G04 #@! TO.C,C33*
X8968669Y68243472D03*
D11*
G36*
X9900756Y68533884D02*
X9422402Y67379035D01*
X8036582Y67953060D01*
X8514936Y69107909D01*
X9900756Y68533884D01*
X9900756Y68533884D01*
G37*
D10*
X11278367Y67286764D03*
D11*
G36*
X12210454Y67577176D02*
X11732100Y66422327D01*
X10346280Y66996352D01*
X10824634Y68151201D01*
X12210454Y67577176D01*
X12210454Y67577176D01*
G37*
G04 #@! TD*
D10*
G04 #@! TO.C,C27*
X33998989Y7814937D03*
D11*
G36*
X33708577Y8747024D02*
X34863426Y8268670D01*
X34289401Y6882850D01*
X33134552Y7361204D01*
X33708577Y8747024D01*
X33708577Y8747024D01*
G37*
D10*
X34955697Y10124635D03*
D11*
G36*
X34665285Y11056722D02*
X35820134Y10578368D01*
X35246109Y9192548D01*
X34091260Y9670902D01*
X34665285Y11056722D01*
X34665285Y11056722D01*
G37*
G04 #@! TD*
D10*
G04 #@! TO.C,C29*
X15005505Y22389149D03*
D11*
G36*
X15220044Y23341566D02*
X15980996Y22349874D01*
X14790966Y21436732D01*
X14030014Y22428424D01*
X15220044Y23341566D01*
X15220044Y23341566D01*
G37*
D10*
X16988889Y23911053D03*
D11*
G36*
X17203428Y24863470D02*
X17964380Y23871778D01*
X16774350Y22958636D01*
X16013398Y23950328D01*
X17203428Y24863470D01*
X17203428Y24863470D01*
G37*
G04 #@! TD*
D10*
G04 #@! TO.C,C24*
X69397205Y7814938D03*
D11*
G36*
X68532768Y8268671D02*
X69687617Y8747025D01*
X70261642Y7361205D01*
X69106793Y6882851D01*
X68532768Y8268671D01*
X68532768Y8268671D01*
G37*
D10*
X68440497Y10124636D03*
D11*
G36*
X67576060Y10578369D02*
X68730909Y11056723D01*
X69304934Y9670903D01*
X68150085Y9192549D01*
X67576060Y10578369D01*
X67576060Y10578369D01*
G37*
G04 #@! TD*
D10*
G04 #@! TO.C,C28*
X23542881Y13851773D03*
D11*
G36*
X23503606Y14827264D02*
X24495298Y14066312D01*
X23582156Y12876282D01*
X22590464Y13637234D01*
X23503606Y14827264D01*
X23503606Y14827264D01*
G37*
D10*
X25064785Y15835157D03*
D11*
G36*
X25025510Y16810648D02*
X26017202Y16049696D01*
X25104060Y14859666D01*
X24112368Y15620618D01*
X25025510Y16810648D01*
X25025510Y16810648D01*
G37*
G04 #@! TD*
D10*
G04 #@! TO.C,C15*
X69397204Y93273793D03*
D11*
G36*
X69687616Y92341706D02*
X68532767Y92820060D01*
X69106792Y94205880D01*
X70261641Y93727526D01*
X69687616Y92341706D01*
X69687616Y92341706D01*
G37*
D10*
X68440496Y90964095D03*
D11*
G36*
X68730908Y90032008D02*
X67576059Y90510362D01*
X68150084Y91896182D01*
X69304933Y91417828D01*
X68730908Y90032008D01*
X68730908Y90032008D01*
G37*
G04 #@! TD*
D10*
G04 #@! TO.C,C30*
X8968670Y32845257D03*
D11*
G36*
X9422403Y33709694D02*
X9900757Y32554845D01*
X8514937Y31980820D01*
X8036583Y33135669D01*
X9422403Y33709694D01*
X9422403Y33709694D01*
G37*
D10*
X11278368Y33801965D03*
D11*
G36*
X11732101Y34666402D02*
X12210455Y33511553D01*
X10824635Y32937528D01*
X10346281Y34092377D01*
X11732101Y34666402D01*
X11732101Y34666402D01*
G37*
G04 #@! TD*
D10*
G04 #@! TO.C,C25*
X57734934Y4690041D03*
D11*
G36*
X57017386Y5352046D02*
X58256692Y5515204D01*
X58452482Y4028036D01*
X57213176Y3864878D01*
X57017386Y5352046D01*
X57017386Y5352046D01*
G37*
D10*
X57408618Y7168653D03*
D11*
G36*
X56691070Y7830658D02*
X57930376Y7993816D01*
X58126166Y6506648D01*
X56886860Y6343490D01*
X56691070Y7830658D01*
X56691070Y7830658D01*
G37*
G04 #@! TD*
D10*
G04 #@! TO.C,C31*
X5843773Y44507528D03*
D11*
G36*
X6505778Y45225076D02*
X6668936Y43985770D01*
X5181768Y43789980D01*
X5018610Y45029286D01*
X6505778Y45225076D01*
X6505778Y45225076D01*
G37*
D10*
X8322385Y44833844D03*
D11*
G36*
X8984390Y45551392D02*
X9147548Y44312086D01*
X7660380Y44116296D01*
X7497222Y45355602D01*
X8984390Y45551392D01*
X8984390Y45551392D01*
G37*
G04 #@! TD*
D12*
G04 #@! TO.C,D21*
X8298097Y52994365D03*
X5098097Y52994365D03*
X8298097Y48094365D03*
X5098097Y48094365D03*
G04 #@! TD*
D13*
G04 #@! TO.C,D3*
X54148097Y93944365D03*
X54148097Y97144365D03*
X49248097Y93944365D03*
X49248097Y97144365D03*
G04 #@! TD*
D14*
G04 #@! TO.C,D25*
X48834315Y49943324D03*
D11*
G36*
X48657538Y49059441D02*
X47950432Y49766547D01*
X49011092Y50827207D01*
X49718198Y50120101D01*
X48657538Y49059441D01*
X48657538Y49059441D01*
G37*
D14*
X51097056Y47680583D03*
D11*
G36*
X50920279Y46796700D02*
X50213173Y47503806D01*
X51273833Y48564466D01*
X51980939Y47857360D01*
X50920279Y46796700D01*
X50920279Y46796700D01*
G37*
D14*
X52299138Y53408147D03*
D11*
G36*
X52122361Y52524264D02*
X51415255Y53231370D01*
X52475915Y54292030D01*
X53183021Y53584924D01*
X52122361Y52524264D01*
X52122361Y52524264D01*
G37*
D14*
X54561879Y51145406D03*
D11*
G36*
X54385102Y50261523D02*
X53677996Y50968629D01*
X54738656Y52029289D01*
X55445762Y51322183D01*
X54385102Y50261523D01*
X54385102Y50261523D01*
G37*
G04 #@! TD*
D14*
G04 #@! TO.C,D24*
X22742073Y82965211D03*
D11*
G36*
X22918850Y83849094D02*
X23625956Y83141988D01*
X22565296Y82081328D01*
X21858190Y82788434D01*
X22918850Y83849094D01*
X22918850Y83849094D01*
G37*
D14*
X20479332Y85227952D03*
D11*
G36*
X20656109Y86111835D02*
X21363215Y85404729D01*
X20302555Y84344069D01*
X19595449Y85051175D01*
X20656109Y86111835D01*
X20656109Y86111835D01*
G37*
D14*
X19277250Y79500388D03*
D11*
G36*
X19454027Y80384271D02*
X20161133Y79677165D01*
X19100473Y78616505D01*
X18393367Y79323611D01*
X19454027Y80384271D01*
X19454027Y80384271D01*
G37*
D14*
X17014509Y81763129D03*
D11*
G36*
X17191286Y82647012D02*
X17898392Y81939906D01*
X16837732Y80879246D01*
X16130626Y81586352D01*
X17191286Y82647012D01*
X17191286Y82647012D01*
G37*
G04 #@! TD*
D10*
G04 #@! TO.C,C21*
X94427524Y32845258D03*
D11*
G36*
X93495437Y32554846D02*
X93973791Y33709695D01*
X95359611Y33135670D01*
X94881257Y31980821D01*
X93495437Y32554846D01*
X93495437Y32554846D01*
G37*
D10*
X92117826Y33801966D03*
D11*
G36*
X91185739Y33511554D02*
X91664093Y34666403D01*
X93049913Y34092378D01*
X92571559Y32937529D01*
X91185739Y33511554D01*
X91185739Y33511554D01*
G37*
G04 #@! TD*
D14*
G04 #@! TO.C,D2*
X42831869Y93099652D03*
D11*
G36*
X43426904Y93776729D02*
X43685723Y92810803D01*
X42236834Y92422575D01*
X41978015Y93388501D01*
X43426904Y93776729D01*
X43426904Y93776729D01*
G37*
D14*
X42003648Y96190615D03*
D11*
G36*
X42598683Y96867692D02*
X42857502Y95901766D01*
X41408613Y95513538D01*
X41149794Y96479464D01*
X42598683Y96867692D01*
X42598683Y96867692D01*
G37*
D14*
X38098832Y91831439D03*
D11*
G36*
X38693867Y92508516D02*
X38952686Y91542590D01*
X37503797Y91154362D01*
X37244978Y92120288D01*
X38693867Y92508516D01*
X38693867Y92508516D01*
G37*
D14*
X37270611Y94922402D03*
D11*
G36*
X37865646Y95599479D02*
X38124465Y94633553D01*
X36675576Y94245325D01*
X36416757Y95211251D01*
X37865646Y95599479D01*
X37865646Y95599479D01*
G37*
G04 #@! TD*
D14*
G04 #@! TO.C,D1*
X32119859Y89354867D03*
D11*
G36*
X32519378Y90162880D02*
X33019378Y89296854D01*
X31720340Y88546854D01*
X31220340Y89412880D01*
X32519378Y90162880D01*
X32519378Y90162880D01*
G37*
D14*
X30519859Y92126149D03*
D11*
G36*
X30919378Y92934162D02*
X31419378Y92068136D01*
X30120340Y91318136D01*
X29620340Y92184162D01*
X30919378Y92934162D01*
X30919378Y92934162D01*
G37*
D14*
X27876335Y86904867D03*
D11*
G36*
X28275854Y87712880D02*
X28775854Y86846854D01*
X27476816Y86096854D01*
X26976816Y86962880D01*
X28275854Y87712880D01*
X28275854Y87712880D01*
G37*
D14*
X26276335Y89676149D03*
D11*
G36*
X26675854Y90484162D02*
X27175854Y89618136D01*
X25876816Y88868136D01*
X25376816Y89734162D01*
X26675854Y90484162D01*
X26675854Y90484162D01*
G37*
G04 #@! TD*
D14*
G04 #@! TO.C,D4*
X65297361Y91831439D03*
D11*
G36*
X66151215Y92120288D02*
X65892396Y91154362D01*
X64443507Y91542590D01*
X64702326Y92508516D01*
X66151215Y92120288D01*
X66151215Y92120288D01*
G37*
D14*
X66125582Y94922402D03*
D11*
G36*
X66979436Y95211251D02*
X66720617Y94245325D01*
X65271728Y94633553D01*
X65530547Y95599479D01*
X66979436Y95211251D01*
X66979436Y95211251D01*
G37*
D14*
X60564324Y93099652D03*
D11*
G36*
X61418178Y93388501D02*
X61159359Y92422575D01*
X59710470Y92810803D01*
X59969289Y93776729D01*
X61418178Y93388501D01*
X61418178Y93388501D01*
G37*
D14*
X61392545Y96190615D03*
D11*
G36*
X62246399Y96479464D02*
X61987580Y95513538D01*
X60538691Y95901766D01*
X60797510Y96867692D01*
X62246399Y96479464D01*
X62246399Y96479464D01*
G37*
G04 #@! TD*
D10*
G04 #@! TO.C,C20*
X97552420Y44507529D03*
D11*
G36*
X96727257Y43985771D02*
X96890415Y45225077D01*
X98377583Y45029287D01*
X98214425Y43789981D01*
X96727257Y43985771D01*
X96727257Y43985771D01*
G37*
D10*
X95073808Y44833845D03*
D11*
G36*
X94248645Y44312087D02*
X94411803Y45551393D01*
X95898971Y45355603D01*
X95735813Y44116297D01*
X94248645Y44312087D01*
X94248645Y44312087D01*
G37*
G04 #@! TD*
D14*
G04 #@! TO.C,D19*
X12887595Y30966127D03*
D11*
G36*
X12079582Y31365646D02*
X12945608Y31865646D01*
X13695608Y30566608D01*
X12829582Y30066608D01*
X12079582Y31365646D01*
X12079582Y31365646D01*
G37*
D14*
X10116313Y29366127D03*
D11*
G36*
X9308300Y29765646D02*
X10174326Y30265646D01*
X10924326Y28966608D01*
X10058300Y28466608D01*
X9308300Y29765646D01*
X9308300Y29765646D01*
G37*
D14*
X15337595Y26722603D03*
D11*
G36*
X14529582Y27122122D02*
X15395608Y27622122D01*
X16145608Y26323084D01*
X15279582Y25823084D01*
X14529582Y27122122D01*
X14529582Y27122122D01*
G37*
D14*
X12566313Y25122603D03*
D11*
G36*
X11758300Y25522122D02*
X12624326Y26022122D01*
X13374326Y24723084D01*
X12508300Y24223084D01*
X11758300Y25522122D01*
X11758300Y25522122D01*
G37*
G04 #@! TD*
D14*
G04 #@! TO.C,D22*
X10411022Y64143630D03*
D11*
G36*
X10122173Y64997484D02*
X11088099Y64738665D01*
X10699871Y63289776D01*
X9733945Y63548595D01*
X10122173Y64997484D01*
X10122173Y64997484D01*
G37*
D14*
X7320059Y64971851D03*
D11*
G36*
X7031210Y65825705D02*
X7997136Y65566886D01*
X7608908Y64117997D01*
X6642982Y64376816D01*
X7031210Y65825705D01*
X7031210Y65825705D01*
G37*
D14*
X9142809Y59410593D03*
D11*
G36*
X8853960Y60264447D02*
X9819886Y60005628D01*
X9431658Y58556739D01*
X8465732Y58815558D01*
X8853960Y60264447D01*
X8853960Y60264447D01*
G37*
D14*
X6051846Y60238814D03*
D11*
G36*
X5762997Y61092668D02*
X6728923Y60833849D01*
X6340695Y59384960D01*
X5374769Y59643779D01*
X5762997Y61092668D01*
X5762997Y61092668D01*
G37*
G04 #@! TD*
D10*
G04 #@! TO.C,C19*
X97552420Y56581202D03*
D11*
G36*
X96890415Y55863654D02*
X96727257Y57102960D01*
X98214425Y57298750D01*
X98377583Y56059444D01*
X96890415Y55863654D01*
X96890415Y55863654D01*
G37*
D10*
X95073808Y56254886D03*
D11*
G36*
X94411803Y55537338D02*
X94248645Y56776644D01*
X95735813Y56972434D01*
X95898971Y55733128D01*
X94411803Y55537338D01*
X94411803Y55537338D01*
G37*
G04 #@! TD*
D10*
G04 #@! TO.C,C22*
X88390689Y22389150D03*
D11*
G36*
X87415198Y22349875D02*
X88176150Y23341567D01*
X89366180Y22428425D01*
X88605228Y21436733D01*
X87415198Y22349875D01*
X87415198Y22349875D01*
G37*
D10*
X86407305Y23911054D03*
D11*
G36*
X85431814Y23871779D02*
X86192766Y24863471D01*
X87382796Y23950329D01*
X86621844Y22958637D01*
X85431814Y23871779D01*
X85431814Y23871779D01*
G37*
G04 #@! TD*
D10*
G04 #@! TO.C,C18*
X94427523Y68243473D03*
D11*
G36*
X93973790Y67379036D02*
X93495436Y68533885D01*
X94881256Y69107910D01*
X95359610Y67953061D01*
X93973790Y67379036D01*
X93973790Y67379036D01*
G37*
D10*
X92117825Y67286765D03*
D11*
G36*
X91664092Y66422328D02*
X91185738Y67577177D01*
X92571558Y68151202D01*
X93049912Y66996353D01*
X91664092Y66422328D01*
X91664092Y66422328D01*
G37*
G04 #@! TD*
D14*
G04 #@! TO.C,D5*
X75519858Y86904867D03*
D11*
G36*
X76419377Y86962880D02*
X75919377Y86096854D01*
X74620339Y86846854D01*
X75120339Y87712880D01*
X76419377Y86962880D01*
X76419377Y86962880D01*
G37*
D14*
X77119858Y89676149D03*
D11*
G36*
X78019377Y89734162D02*
X77519377Y88868136D01*
X76220339Y89618136D01*
X76720339Y90484162D01*
X78019377Y89734162D01*
X78019377Y89734162D01*
G37*
D14*
X71276334Y89354867D03*
D11*
G36*
X72175853Y89412880D02*
X71675853Y88546854D01*
X70376815Y89296854D01*
X70876815Y90162880D01*
X72175853Y89412880D01*
X72175853Y89412880D01*
G37*
D14*
X72876334Y92126149D03*
D11*
G36*
X73775853Y92184162D02*
X73275853Y91318136D01*
X71976815Y92068136D01*
X72476815Y92934162D01*
X73775853Y92184162D01*
X73775853Y92184162D01*
G37*
G04 #@! TD*
D14*
G04 #@! TO.C,D20*
X9142809Y41678137D03*
D11*
G36*
X8465732Y42273172D02*
X9431658Y42531991D01*
X9819886Y41083102D01*
X8853960Y40824283D01*
X8465732Y42273172D01*
X8465732Y42273172D01*
G37*
D14*
X6051846Y40849916D03*
D11*
G36*
X5374769Y41444951D02*
X6340695Y41703770D01*
X6728923Y40254881D01*
X5762997Y39996062D01*
X5374769Y41444951D01*
X5374769Y41444951D01*
G37*
D14*
X10411022Y36945100D03*
D11*
G36*
X9733945Y37540135D02*
X10699871Y37798954D01*
X11088099Y36350065D01*
X10122173Y36091246D01*
X9733945Y37540135D01*
X9733945Y37540135D01*
G37*
D14*
X7320059Y36116879D03*
D11*
G36*
X6642982Y36711914D02*
X7608908Y36970733D01*
X7997136Y35521844D01*
X7031210Y35263025D01*
X6642982Y36711914D01*
X6642982Y36711914D01*
G37*
G04 #@! TD*
D14*
G04 #@! TO.C,D6*
X84118943Y79500388D03*
D11*
G36*
X85002826Y79323611D02*
X84295720Y78616505D01*
X83235060Y79677165D01*
X83942166Y80384271D01*
X85002826Y79323611D01*
X85002826Y79323611D01*
G37*
D14*
X86381684Y81763129D03*
D11*
G36*
X87265567Y81586352D02*
X86558461Y80879246D01*
X85497801Y81939906D01*
X86204907Y82647012D01*
X87265567Y81586352D01*
X87265567Y81586352D01*
G37*
D14*
X80654120Y82965211D03*
D11*
G36*
X81538003Y82788434D02*
X80830897Y82081328D01*
X79770237Y83141988D01*
X80477343Y83849094D01*
X81538003Y82788434D01*
X81538003Y82788434D01*
G37*
D14*
X82916861Y85227952D03*
D11*
G36*
X83800744Y85051175D02*
X83093638Y84344069D01*
X82032978Y85404729D01*
X82740084Y86111835D01*
X83800744Y85051175D01*
X83800744Y85051175D01*
G37*
G04 #@! TD*
D14*
G04 #@! TO.C,D23*
X15337595Y74366127D03*
D11*
G36*
X15279582Y75265646D02*
X16145608Y74765646D01*
X15395608Y73466608D01*
X14529582Y73966608D01*
X15279582Y75265646D01*
X15279582Y75265646D01*
G37*
D14*
X12566313Y75966127D03*
D11*
G36*
X12508300Y76865646D02*
X13374326Y76365646D01*
X12624326Y75066608D01*
X11758300Y75566608D01*
X12508300Y76865646D01*
X12508300Y76865646D01*
G37*
D14*
X12887595Y70122603D03*
D11*
G36*
X12829582Y71022122D02*
X13695608Y70522122D01*
X12945608Y69223084D01*
X12079582Y69723084D01*
X12829582Y71022122D01*
X12829582Y71022122D01*
G37*
D14*
X10116313Y71722603D03*
D11*
G36*
X10058300Y72622122D02*
X10924326Y72122122D01*
X10174326Y70823084D01*
X9308300Y71323084D01*
X10058300Y72622122D01*
X10058300Y72622122D01*
G37*
G04 #@! TD*
G04 #@! TO.C,D27*
G36*
X38586866Y33032340D02*
X38609921Y33028921D01*
X38632530Y33023257D01*
X38654474Y33015405D01*
X38675544Y33005440D01*
X38695535Y32993458D01*
X38714255Y32979574D01*
X38731525Y32963922D01*
X39067401Y32628046D01*
X39083053Y32610776D01*
X39096937Y32592056D01*
X39108919Y32572065D01*
X39118884Y32550995D01*
X39126736Y32529051D01*
X39132400Y32506442D01*
X39135819Y32483387D01*
X39136963Y32460108D01*
X39135819Y32436829D01*
X39132400Y32413774D01*
X39126736Y32391165D01*
X39118884Y32369221D01*
X39108919Y32348151D01*
X39096937Y32328160D01*
X39083053Y32309440D01*
X39067401Y32292170D01*
X38660815Y31885584D01*
X38643545Y31869932D01*
X38624825Y31856048D01*
X38604834Y31844066D01*
X38583764Y31834101D01*
X38561820Y31826249D01*
X38539211Y31820585D01*
X38516156Y31817166D01*
X38492877Y31816022D01*
X38469598Y31817166D01*
X38446543Y31820585D01*
X38423934Y31826249D01*
X38401990Y31834101D01*
X38380920Y31844066D01*
X38360929Y31856048D01*
X38342209Y31869932D01*
X38324939Y31885584D01*
X37989063Y32221460D01*
X37973411Y32238730D01*
X37959527Y32257450D01*
X37947545Y32277441D01*
X37937580Y32298511D01*
X37929728Y32320455D01*
X37924064Y32343064D01*
X37920645Y32366119D01*
X37919501Y32389398D01*
X37920645Y32412677D01*
X37924064Y32435732D01*
X37929728Y32458341D01*
X37937580Y32480285D01*
X37947545Y32501355D01*
X37959527Y32521346D01*
X37973411Y32540066D01*
X37989063Y32557336D01*
X38395649Y32963922D01*
X38412919Y32979574D01*
X38431639Y32993458D01*
X38451630Y33005440D01*
X38472700Y33015405D01*
X38494644Y33023257D01*
X38517253Y33028921D01*
X38540308Y33032340D01*
X38563587Y33033484D01*
X38586866Y33032340D01*
X38586866Y33032340D01*
G37*
D15*
X38528232Y32424753D03*
D11*
G36*
X37349430Y31794904D02*
X37372485Y31791485D01*
X37395094Y31785821D01*
X37417038Y31777969D01*
X37438108Y31768004D01*
X37458099Y31756022D01*
X37476819Y31742138D01*
X37494089Y31726486D01*
X37829965Y31390610D01*
X37845617Y31373340D01*
X37859501Y31354620D01*
X37871483Y31334629D01*
X37881448Y31313559D01*
X37889300Y31291615D01*
X37894964Y31269006D01*
X37898383Y31245951D01*
X37899527Y31222672D01*
X37898383Y31199393D01*
X37894964Y31176338D01*
X37889300Y31153729D01*
X37881448Y31131785D01*
X37871483Y31110715D01*
X37859501Y31090724D01*
X37845617Y31072004D01*
X37829965Y31054734D01*
X37423379Y30648148D01*
X37406109Y30632496D01*
X37387389Y30618612D01*
X37367398Y30606630D01*
X37346328Y30596665D01*
X37324384Y30588813D01*
X37301775Y30583149D01*
X37278720Y30579730D01*
X37255441Y30578586D01*
X37232162Y30579730D01*
X37209107Y30583149D01*
X37186498Y30588813D01*
X37164554Y30596665D01*
X37143484Y30606630D01*
X37123493Y30618612D01*
X37104773Y30632496D01*
X37087503Y30648148D01*
X36751627Y30984024D01*
X36735975Y31001294D01*
X36722091Y31020014D01*
X36710109Y31040005D01*
X36700144Y31061075D01*
X36692292Y31083019D01*
X36686628Y31105628D01*
X36683209Y31128683D01*
X36682065Y31151962D01*
X36683209Y31175241D01*
X36686628Y31198296D01*
X36692292Y31220905D01*
X36700144Y31242849D01*
X36710109Y31263919D01*
X36722091Y31283910D01*
X36735975Y31302630D01*
X36751627Y31319900D01*
X37158213Y31726486D01*
X37175483Y31742138D01*
X37194203Y31756022D01*
X37214194Y31768004D01*
X37235264Y31777969D01*
X37257208Y31785821D01*
X37279817Y31791485D01*
X37302872Y31794904D01*
X37326151Y31796048D01*
X37349430Y31794904D01*
X37349430Y31794904D01*
G37*
D15*
X37290796Y31187317D03*
G04 #@! TD*
D16*
G04 #@! TO.C,U3*
X60080847Y27029529D03*
D11*
G36*
X59762649Y26287067D02*
X59338385Y26711331D01*
X60399045Y27771991D01*
X60823309Y27347727D01*
X59762649Y26287067D01*
X59762649Y26287067D01*
G37*
D16*
X60978873Y26131504D03*
D11*
G36*
X60660675Y25389042D02*
X60236411Y25813306D01*
X61297071Y26873966D01*
X61721335Y26449702D01*
X60660675Y25389042D01*
X60660675Y25389042D01*
G37*
D16*
X61876898Y25233478D03*
D11*
G36*
X61558700Y24491016D02*
X61134436Y24915280D01*
X62195096Y25975940D01*
X62619360Y25551676D01*
X61558700Y24491016D01*
X61558700Y24491016D01*
G37*
D16*
X62774924Y24335452D03*
D11*
G36*
X62456726Y23592990D02*
X62032462Y24017254D01*
X63093122Y25077914D01*
X63517386Y24653650D01*
X62456726Y23592990D01*
X62456726Y23592990D01*
G37*
D16*
X63672949Y23437427D03*
D11*
G36*
X63354751Y22694965D02*
X62930487Y23119229D01*
X63991147Y24179889D01*
X64415411Y23755625D01*
X63354751Y22694965D01*
X63354751Y22694965D01*
G37*
D16*
X64570975Y22539401D03*
D11*
G36*
X64252777Y21796939D02*
X63828513Y22221203D01*
X64889173Y23281863D01*
X65313437Y22857599D01*
X64252777Y21796939D01*
X64252777Y21796939D01*
G37*
D16*
X65469001Y21641376D03*
D11*
G36*
X65150803Y20898914D02*
X64726539Y21323178D01*
X65787199Y22383838D01*
X66211463Y21959574D01*
X65150803Y20898914D01*
X65150803Y20898914D01*
G37*
D16*
X66367026Y20743350D03*
D11*
G36*
X66048828Y20000888D02*
X65624564Y20425152D01*
X66685224Y21485812D01*
X67109488Y21061548D01*
X66048828Y20000888D01*
X66048828Y20000888D01*
G37*
D16*
X70185403Y24561727D03*
D11*
G36*
X69867205Y23819265D02*
X69442941Y24243529D01*
X70503601Y25304189D01*
X70927865Y24879925D01*
X69867205Y23819265D01*
X69867205Y23819265D01*
G37*
D16*
X69287377Y25459752D03*
D11*
G36*
X68969179Y24717290D02*
X68544915Y25141554D01*
X69605575Y26202214D01*
X70029839Y25777950D01*
X68969179Y24717290D01*
X68969179Y24717290D01*
G37*
D16*
X68389352Y26357778D03*
D11*
G36*
X68071154Y25615316D02*
X67646890Y26039580D01*
X68707550Y27100240D01*
X69131814Y26675976D01*
X68071154Y25615316D01*
X68071154Y25615316D01*
G37*
D16*
X67491326Y27255804D03*
D11*
G36*
X67173128Y26513342D02*
X66748864Y26937606D01*
X67809524Y27998266D01*
X68233788Y27574002D01*
X67173128Y26513342D01*
X67173128Y26513342D01*
G37*
D16*
X66593301Y28153829D03*
D11*
G36*
X66275103Y27411367D02*
X65850839Y27835631D01*
X66911499Y28896291D01*
X67335763Y28472027D01*
X66275103Y27411367D01*
X66275103Y27411367D01*
G37*
D16*
X65695275Y29051855D03*
D11*
G36*
X65377077Y28309393D02*
X64952813Y28733657D01*
X66013473Y29794317D01*
X66437737Y29370053D01*
X65377077Y28309393D01*
X65377077Y28309393D01*
G37*
D16*
X64797249Y29949880D03*
D11*
G36*
X64479051Y29207418D02*
X64054787Y29631682D01*
X65115447Y30692342D01*
X65539711Y30268078D01*
X64479051Y29207418D01*
X64479051Y29207418D01*
G37*
D16*
X63899224Y30847906D03*
D11*
G36*
X63581026Y30105444D02*
X63156762Y30529708D01*
X64217422Y31590368D01*
X64641686Y31166104D01*
X63581026Y30105444D01*
X63581026Y30105444D01*
G37*
G04 #@! TD*
G04 #@! TO.C,D28*
G36*
X79952613Y24193506D02*
X79975668Y24190087D01*
X79998277Y24184423D01*
X80020221Y24176571D01*
X80041291Y24166606D01*
X80061282Y24154624D01*
X80080002Y24140740D01*
X80097272Y24125088D01*
X80433148Y23789212D01*
X80448800Y23771942D01*
X80462684Y23753222D01*
X80474666Y23733231D01*
X80484631Y23712161D01*
X80492483Y23690217D01*
X80498147Y23667608D01*
X80501566Y23644553D01*
X80502710Y23621274D01*
X80501566Y23597995D01*
X80498147Y23574940D01*
X80492483Y23552331D01*
X80484631Y23530387D01*
X80474666Y23509317D01*
X80462684Y23489326D01*
X80448800Y23470606D01*
X80433148Y23453336D01*
X80026562Y23046750D01*
X80009292Y23031098D01*
X79990572Y23017214D01*
X79970581Y23005232D01*
X79949511Y22995267D01*
X79927567Y22987415D01*
X79904958Y22981751D01*
X79881903Y22978332D01*
X79858624Y22977188D01*
X79835345Y22978332D01*
X79812290Y22981751D01*
X79789681Y22987415D01*
X79767737Y22995267D01*
X79746667Y23005232D01*
X79726676Y23017214D01*
X79707956Y23031098D01*
X79690686Y23046750D01*
X79354810Y23382626D01*
X79339158Y23399896D01*
X79325274Y23418616D01*
X79313292Y23438607D01*
X79303327Y23459677D01*
X79295475Y23481621D01*
X79289811Y23504230D01*
X79286392Y23527285D01*
X79285248Y23550564D01*
X79286392Y23573843D01*
X79289811Y23596898D01*
X79295475Y23619507D01*
X79303327Y23641451D01*
X79313292Y23662521D01*
X79325274Y23682512D01*
X79339158Y23701232D01*
X79354810Y23718502D01*
X79761396Y24125088D01*
X79778666Y24140740D01*
X79797386Y24154624D01*
X79817377Y24166606D01*
X79838447Y24176571D01*
X79860391Y24184423D01*
X79883000Y24190087D01*
X79906055Y24193506D01*
X79929334Y24194650D01*
X79952613Y24193506D01*
X79952613Y24193506D01*
G37*
D15*
X79893979Y23585919D03*
D11*
G36*
X78715177Y22956070D02*
X78738232Y22952651D01*
X78760841Y22946987D01*
X78782785Y22939135D01*
X78803855Y22929170D01*
X78823846Y22917188D01*
X78842566Y22903304D01*
X78859836Y22887652D01*
X79195712Y22551776D01*
X79211364Y22534506D01*
X79225248Y22515786D01*
X79237230Y22495795D01*
X79247195Y22474725D01*
X79255047Y22452781D01*
X79260711Y22430172D01*
X79264130Y22407117D01*
X79265274Y22383838D01*
X79264130Y22360559D01*
X79260711Y22337504D01*
X79255047Y22314895D01*
X79247195Y22292951D01*
X79237230Y22271881D01*
X79225248Y22251890D01*
X79211364Y22233170D01*
X79195712Y22215900D01*
X78789126Y21809314D01*
X78771856Y21793662D01*
X78753136Y21779778D01*
X78733145Y21767796D01*
X78712075Y21757831D01*
X78690131Y21749979D01*
X78667522Y21744315D01*
X78644467Y21740896D01*
X78621188Y21739752D01*
X78597909Y21740896D01*
X78574854Y21744315D01*
X78552245Y21749979D01*
X78530301Y21757831D01*
X78509231Y21767796D01*
X78489240Y21779778D01*
X78470520Y21793662D01*
X78453250Y21809314D01*
X78117374Y22145190D01*
X78101722Y22162460D01*
X78087838Y22181180D01*
X78075856Y22201171D01*
X78065891Y22222241D01*
X78058039Y22244185D01*
X78052375Y22266794D01*
X78048956Y22289849D01*
X78047812Y22313128D01*
X78048956Y22336407D01*
X78052375Y22359462D01*
X78058039Y22382071D01*
X78065891Y22404015D01*
X78075856Y22425085D01*
X78087838Y22445076D01*
X78101722Y22463796D01*
X78117374Y22481066D01*
X78523960Y22887652D01*
X78541230Y22903304D01*
X78559950Y22917188D01*
X78579941Y22929170D01*
X78601011Y22939135D01*
X78622955Y22946987D01*
X78645564Y22952651D01*
X78668619Y22956070D01*
X78691898Y22957214D01*
X78715177Y22956070D01*
X78715177Y22956070D01*
G37*
D15*
X78656543Y22348483D03*
G04 #@! TD*
D17*
G04 #@! TO.C,U1*
X68279750Y77803332D03*
D11*
G36*
X67006958Y78298307D02*
X67784775Y79076124D01*
X69552542Y77308357D01*
X68774725Y76530540D01*
X67006958Y78298307D01*
X67006958Y78298307D01*
G37*
D17*
X66865536Y76389118D03*
D11*
G36*
X65592744Y76884093D02*
X66370561Y77661910D01*
X68138328Y75894143D01*
X67360511Y75116326D01*
X65592744Y76884093D01*
X65592744Y76884093D01*
G37*
D17*
X65451323Y74974905D03*
D11*
G36*
X64178531Y75469880D02*
X64956348Y76247697D01*
X66724115Y74479930D01*
X65946298Y73702113D01*
X64178531Y75469880D01*
X64178531Y75469880D01*
G37*
D17*
X64037109Y73560691D03*
D11*
G36*
X62764317Y74055666D02*
X63542134Y74833483D01*
X65309901Y73065716D01*
X64532084Y72287899D01*
X62764317Y74055666D01*
X62764317Y74055666D01*
G37*
D17*
X62622896Y72146478D03*
D11*
G36*
X61350104Y72641453D02*
X62127921Y73419270D01*
X63895688Y71651503D01*
X63117871Y70873686D01*
X61350104Y72641453D01*
X61350104Y72641453D01*
G37*
D17*
X61208682Y70732264D03*
D11*
G36*
X59935890Y71227239D02*
X60713707Y72005056D01*
X62481474Y70237289D01*
X61703657Y69459472D01*
X59935890Y71227239D01*
X59935890Y71227239D01*
G37*
D17*
X59794469Y69318051D03*
D11*
G36*
X58521677Y69813026D02*
X59299494Y70590843D01*
X61067261Y68823076D01*
X60289444Y68045259D01*
X58521677Y69813026D01*
X58521677Y69813026D01*
G37*
D17*
X58380255Y67903837D03*
D11*
G36*
X57107463Y68398812D02*
X57885280Y69176629D01*
X59653047Y67408862D01*
X58875230Y66631045D01*
X57107463Y68398812D01*
X57107463Y68398812D01*
G37*
D17*
X69269700Y57014392D03*
D11*
G36*
X67996908Y57509367D02*
X68774725Y58287184D01*
X70542492Y56519417D01*
X69764675Y55741600D01*
X67996908Y57509367D01*
X67996908Y57509367D01*
G37*
D17*
X70683914Y58428606D03*
D11*
G36*
X69411122Y58923581D02*
X70188939Y59701398D01*
X71956706Y57933631D01*
X71178889Y57155814D01*
X69411122Y58923581D01*
X69411122Y58923581D01*
G37*
D17*
X72098127Y59842819D03*
D11*
G36*
X70825335Y60337794D02*
X71603152Y61115611D01*
X73370919Y59347844D01*
X72593102Y58570027D01*
X70825335Y60337794D01*
X70825335Y60337794D01*
G37*
D17*
X73512341Y61257033D03*
D11*
G36*
X72239549Y61752008D02*
X73017366Y62529825D01*
X74785133Y60762058D01*
X74007316Y59984241D01*
X72239549Y61752008D01*
X72239549Y61752008D01*
G37*
D17*
X74926554Y62671246D03*
D11*
G36*
X73653762Y63166221D02*
X74431579Y63944038D01*
X76199346Y62176271D01*
X75421529Y61398454D01*
X73653762Y63166221D01*
X73653762Y63166221D01*
G37*
D17*
X76340768Y64085460D03*
D11*
G36*
X75067976Y64580435D02*
X75845793Y65358252D01*
X77613560Y63590485D01*
X76835743Y62812668D01*
X75067976Y64580435D01*
X75067976Y64580435D01*
G37*
D17*
X77754981Y65499674D03*
D11*
G36*
X76482189Y65994649D02*
X77260006Y66772466D01*
X79027773Y65004699D01*
X78249956Y64226882D01*
X76482189Y65994649D01*
X76482189Y65994649D01*
G37*
D17*
X79169195Y66913887D03*
D11*
G36*
X77896403Y67408862D02*
X78674220Y68186679D01*
X80441987Y66418912D01*
X79664170Y65641095D01*
X77896403Y67408862D01*
X77896403Y67408862D01*
G37*
G04 #@! TD*
D18*
G04 #@! TO.C,R12*
X74360869Y25972405D03*
D11*
G36*
X74290158Y24982456D02*
X73370920Y25901694D01*
X74431580Y26962354D01*
X75350818Y26043116D01*
X74290158Y24982456D01*
X74290158Y24982456D01*
G37*
D18*
X76270057Y27881593D03*
D11*
G36*
X76199346Y26891644D02*
X75280108Y27810882D01*
X76340768Y28871542D01*
X77260006Y27952304D01*
X76199346Y26891644D01*
X76199346Y26891644D01*
G37*
G04 #@! TD*
D19*
G04 #@! TO.C,U4*
X24085577Y28942253D03*
D11*
G36*
X24845717Y28571022D02*
X24456808Y28182113D01*
X23325437Y29313484D01*
X23714346Y29702393D01*
X24845717Y28571022D01*
X24845717Y28571022D01*
G37*
D19*
X24651263Y29507938D03*
D11*
G36*
X25411403Y29136707D02*
X25022494Y28747798D01*
X23891123Y29879169D01*
X24280032Y30268078D01*
X25411403Y29136707D01*
X25411403Y29136707D01*
G37*
D19*
X25216948Y30073624D03*
D11*
G36*
X25977088Y29702393D02*
X25588179Y29313484D01*
X24456808Y30444855D01*
X24845717Y30833764D01*
X25977088Y29702393D01*
X25977088Y29702393D01*
G37*
D19*
X25782633Y30639309D03*
D11*
G36*
X26542773Y30268078D02*
X26153864Y29879169D01*
X25022493Y31010540D01*
X25411402Y31399449D01*
X26542773Y30268078D01*
X26542773Y30268078D01*
G37*
D19*
X26348319Y31204995D03*
D11*
G36*
X27108459Y30833764D02*
X26719550Y30444855D01*
X25588179Y31576226D01*
X25977088Y31965135D01*
X27108459Y30833764D01*
X27108459Y30833764D01*
G37*
D19*
X26914004Y31770680D03*
D11*
G36*
X27674144Y31399449D02*
X27285235Y31010540D01*
X26153864Y32141911D01*
X26542773Y32530820D01*
X27674144Y31399449D01*
X27674144Y31399449D01*
G37*
D19*
X27479690Y32336365D03*
D11*
G36*
X28239830Y31965134D02*
X27850921Y31576225D01*
X26719550Y32707596D01*
X27108459Y33096505D01*
X28239830Y31965134D01*
X28239830Y31965134D01*
G37*
D19*
X28045375Y32902051D03*
D11*
G36*
X28805515Y32530820D02*
X28416606Y32141911D01*
X27285235Y33273282D01*
X27674144Y33662191D01*
X28805515Y32530820D01*
X28805515Y32530820D01*
G37*
D19*
X30095985Y32902051D03*
D11*
G36*
X29724754Y32141911D02*
X29335845Y32530820D01*
X30467216Y33662191D01*
X30856125Y33273282D01*
X29724754Y32141911D01*
X29724754Y32141911D01*
G37*
D19*
X30661670Y32336365D03*
D11*
G36*
X30290439Y31576225D02*
X29901530Y31965134D01*
X31032901Y33096505D01*
X31421810Y32707596D01*
X30290439Y31576225D01*
X30290439Y31576225D01*
G37*
D19*
X31227356Y31770680D03*
D11*
G36*
X30856125Y31010540D02*
X30467216Y31399449D01*
X31598587Y32530820D01*
X31987496Y32141911D01*
X30856125Y31010540D01*
X30856125Y31010540D01*
G37*
D19*
X31793041Y31204995D03*
D11*
G36*
X31421810Y30444855D02*
X31032901Y30833764D01*
X32164272Y31965135D01*
X32553181Y31576226D01*
X31421810Y30444855D01*
X31421810Y30444855D01*
G37*
D19*
X32358727Y30639309D03*
D11*
G36*
X31987496Y29879169D02*
X31598587Y30268078D01*
X32729958Y31399449D01*
X33118867Y31010540D01*
X31987496Y29879169D01*
X31987496Y29879169D01*
G37*
D19*
X32924412Y30073624D03*
D11*
G36*
X32553181Y29313484D02*
X32164272Y29702393D01*
X33295643Y30833764D01*
X33684552Y30444855D01*
X32553181Y29313484D01*
X32553181Y29313484D01*
G37*
D19*
X33490097Y29507938D03*
D11*
G36*
X33118866Y28747798D02*
X32729957Y29136707D01*
X33861328Y30268078D01*
X34250237Y29879169D01*
X33118866Y28747798D01*
X33118866Y28747798D01*
G37*
D19*
X34055783Y28942253D03*
D11*
G36*
X33684552Y28182113D02*
X33295643Y28571022D01*
X34427014Y29702393D01*
X34815923Y29313484D01*
X33684552Y28182113D01*
X33684552Y28182113D01*
G37*
D19*
X34055783Y26891643D03*
D11*
G36*
X34815923Y26520412D02*
X34427014Y26131503D01*
X33295643Y27262874D01*
X33684552Y27651783D01*
X34815923Y26520412D01*
X34815923Y26520412D01*
G37*
D19*
X33490097Y26325958D03*
D11*
G36*
X34250237Y25954727D02*
X33861328Y25565818D01*
X32729957Y26697189D01*
X33118866Y27086098D01*
X34250237Y25954727D01*
X34250237Y25954727D01*
G37*
D19*
X32924412Y25760272D03*
D11*
G36*
X33684552Y25389041D02*
X33295643Y25000132D01*
X32164272Y26131503D01*
X32553181Y26520412D01*
X33684552Y25389041D01*
X33684552Y25389041D01*
G37*
D19*
X32358727Y25194587D03*
D11*
G36*
X33118867Y24823356D02*
X32729958Y24434447D01*
X31598587Y25565818D01*
X31987496Y25954727D01*
X33118867Y24823356D01*
X33118867Y24823356D01*
G37*
D19*
X31793041Y24628901D03*
D11*
G36*
X32553181Y24257670D02*
X32164272Y23868761D01*
X31032901Y25000132D01*
X31421810Y25389041D01*
X32553181Y24257670D01*
X32553181Y24257670D01*
G37*
D19*
X31227356Y24063216D03*
D11*
G36*
X31987496Y23691985D02*
X31598587Y23303076D01*
X30467216Y24434447D01*
X30856125Y24823356D01*
X31987496Y23691985D01*
X31987496Y23691985D01*
G37*
D19*
X30661670Y23497531D03*
D11*
G36*
X31421810Y23126300D02*
X31032901Y22737391D01*
X29901530Y23868762D01*
X30290439Y24257671D01*
X31421810Y23126300D01*
X31421810Y23126300D01*
G37*
D19*
X30095985Y22931845D03*
D11*
G36*
X30856125Y22560614D02*
X30467216Y22171705D01*
X29335845Y23303076D01*
X29724754Y23691985D01*
X30856125Y22560614D01*
X30856125Y22560614D01*
G37*
D19*
X28045375Y22931845D03*
D11*
G36*
X27674144Y22171705D02*
X27285235Y22560614D01*
X28416606Y23691985D01*
X28805515Y23303076D01*
X27674144Y22171705D01*
X27674144Y22171705D01*
G37*
D19*
X27479690Y23497531D03*
D11*
G36*
X27108459Y22737391D02*
X26719550Y23126300D01*
X27850921Y24257671D01*
X28239830Y23868762D01*
X27108459Y22737391D01*
X27108459Y22737391D01*
G37*
D19*
X26914004Y24063216D03*
D11*
G36*
X26542773Y23303076D02*
X26153864Y23691985D01*
X27285235Y24823356D01*
X27674144Y24434447D01*
X26542773Y23303076D01*
X26542773Y23303076D01*
G37*
D19*
X26348319Y24628901D03*
D11*
G36*
X25977088Y23868761D02*
X25588179Y24257670D01*
X26719550Y25389041D01*
X27108459Y25000132D01*
X25977088Y23868761D01*
X25977088Y23868761D01*
G37*
D19*
X25782633Y25194587D03*
D11*
G36*
X25411402Y24434447D02*
X25022493Y24823356D01*
X26153864Y25954727D01*
X26542773Y25565818D01*
X25411402Y24434447D01*
X25411402Y24434447D01*
G37*
D19*
X25216948Y25760272D03*
D11*
G36*
X24845717Y25000132D02*
X24456808Y25389041D01*
X25588179Y26520412D01*
X25977088Y26131503D01*
X24845717Y25000132D01*
X24845717Y25000132D01*
G37*
D19*
X24651263Y26325958D03*
D11*
G36*
X24280032Y25565818D02*
X23891123Y25954727D01*
X25022494Y27086098D01*
X25411403Y26697189D01*
X24280032Y25565818D01*
X24280032Y25565818D01*
G37*
D19*
X24085577Y26891643D03*
D11*
G36*
X23714346Y26131503D02*
X23325437Y26520412D01*
X24456808Y27651783D01*
X24845717Y27262874D01*
X23714346Y26131503D01*
X23714346Y26131503D01*
G37*
G04 #@! TD*
D18*
G04 #@! TO.C,R8*
X69828314Y34068777D03*
D11*
G36*
X69899025Y35058726D02*
X70818263Y34139488D01*
X69757603Y33078828D01*
X68838365Y33998066D01*
X69899025Y35058726D01*
X69899025Y35058726D01*
G37*
D18*
X67919126Y32159589D03*
D11*
G36*
X67989837Y33149538D02*
X68909075Y32230300D01*
X67848415Y31169640D01*
X66929177Y32088878D01*
X67989837Y33149538D01*
X67989837Y33149538D01*
G37*
G04 #@! TD*
D18*
G04 #@! TO.C,R7*
X70874833Y29302878D03*
D11*
G36*
X70945544Y30292827D02*
X71864782Y29373589D01*
X70804122Y28312929D01*
X69884884Y29232167D01*
X70945544Y30292827D01*
X70945544Y30292827D01*
G37*
D18*
X72784021Y31212066D03*
D11*
G36*
X72854732Y32202015D02*
X73773970Y31282777D01*
X72713310Y30222117D01*
X71794072Y31141355D01*
X72854732Y32202015D01*
X72854732Y32202015D01*
G37*
G04 #@! TD*
D18*
G04 #@! TO.C,R11*
X38298423Y29507938D03*
D11*
G36*
X38369134Y30497887D02*
X39288372Y29578649D01*
X38227712Y28517989D01*
X37308474Y29437227D01*
X38369134Y30497887D01*
X38369134Y30497887D01*
G37*
D18*
X40207611Y31417126D03*
D11*
G36*
X40278322Y32407075D02*
X41197560Y31487837D01*
X40136900Y30427177D01*
X39217662Y31346415D01*
X40278322Y32407075D01*
X40278322Y32407075D01*
G37*
G04 #@! TD*
D10*
G04 #@! TO.C,C36*
X55198276Y55798168D03*
D11*
G36*
X54226004Y55886556D02*
X55109888Y56770440D01*
X56170548Y55709780D01*
X55286664Y54825896D01*
X54226004Y55886556D01*
X54226004Y55886556D01*
G37*
D10*
X56966042Y54030402D03*
D11*
G36*
X55993770Y54118790D02*
X56877654Y55002674D01*
X57938314Y53942014D01*
X57054430Y53058130D01*
X55993770Y54118790D01*
X55993770Y54118790D01*
G37*
G04 #@! TD*
D10*
G04 #@! TO.C,C17*
X86407304Y77177677D03*
D11*
G36*
X86192765Y76225260D02*
X85431813Y77216952D01*
X86621843Y78130094D01*
X87382795Y77138402D01*
X86192765Y76225260D01*
X86192765Y76225260D01*
G37*
D10*
X88390688Y78699581D03*
D11*
G36*
X88176149Y77747164D02*
X87415197Y78738856D01*
X88605227Y79651998D01*
X89366179Y78660306D01*
X88176149Y77747164D01*
X88176149Y77747164D01*
G37*
G04 #@! TD*
D14*
G04 #@! TO.C,D10*
X92985171Y36945100D03*
D11*
G36*
X93274020Y36091246D02*
X92308094Y36350065D01*
X92696322Y37798954D01*
X93662248Y37540135D01*
X93274020Y36091246D01*
X93274020Y36091246D01*
G37*
D14*
X96076134Y36116879D03*
D11*
G36*
X96364983Y35263025D02*
X95399057Y35521844D01*
X95787285Y36970733D01*
X96753211Y36711914D01*
X96364983Y35263025D01*
X96364983Y35263025D01*
G37*
D14*
X94253384Y41678137D03*
D11*
G36*
X94542233Y40824283D02*
X93576307Y41083102D01*
X93964535Y42531991D01*
X94930461Y42273172D01*
X94542233Y40824283D01*
X94542233Y40824283D01*
G37*
D14*
X97344347Y40849916D03*
D11*
G36*
X97633196Y39996062D02*
X96667270Y40254881D01*
X97055498Y41703770D01*
X98021424Y41444951D01*
X97633196Y39996062D01*
X97633196Y39996062D01*
G37*
G04 #@! TD*
D14*
G04 #@! TO.C,D18*
X19277250Y21588342D03*
D11*
G36*
X18393367Y21765119D02*
X19100473Y22472225D01*
X20161133Y21411565D01*
X19454027Y20704459D01*
X18393367Y21765119D01*
X18393367Y21765119D01*
G37*
D14*
X17014509Y19325601D03*
D11*
G36*
X16130626Y19502378D02*
X16837732Y20209484D01*
X17898392Y19148824D01*
X17191286Y18441718D01*
X16130626Y19502378D01*
X16130626Y19502378D01*
G37*
D14*
X22742073Y18123519D03*
D11*
G36*
X21858190Y18300296D02*
X22565296Y19007402D01*
X23625956Y17946742D01*
X22918850Y17239636D01*
X21858190Y18300296D01*
X21858190Y18300296D01*
G37*
D14*
X20479332Y15860778D03*
D11*
G36*
X19595449Y16037555D02*
X20302555Y16744661D01*
X21363215Y15684001D01*
X20656109Y14976895D01*
X19595449Y16037555D01*
X19595449Y16037555D01*
G37*
G04 #@! TD*
D14*
G04 #@! TO.C,D11*
X88058599Y26722603D03*
D11*
G36*
X88116612Y25823084D02*
X87250586Y26323084D01*
X88000586Y27622122D01*
X88866612Y27122122D01*
X88116612Y25823084D01*
X88116612Y25823084D01*
G37*
D14*
X90829881Y25122603D03*
D11*
G36*
X90887894Y24223084D02*
X90021868Y24723084D01*
X90771868Y26022122D01*
X91637894Y25522122D01*
X90887894Y24223084D01*
X90887894Y24223084D01*
G37*
D14*
X90508599Y30966127D03*
D11*
G36*
X90566612Y30066608D02*
X89700586Y30566608D01*
X90450586Y31865646D01*
X91316612Y31365646D01*
X90566612Y30066608D01*
X90566612Y30066608D01*
G37*
D14*
X93279881Y29366127D03*
D11*
G36*
X93337894Y28466608D02*
X92471868Y28966608D01*
X93221868Y30265646D01*
X94087894Y29765646D01*
X93337894Y28466608D01*
X93337894Y28466608D01*
G37*
G04 #@! TD*
D14*
G04 #@! TO.C,D17*
X27876335Y14183863D03*
D11*
G36*
X26976816Y14125850D02*
X27476816Y14991876D01*
X28775854Y14241876D01*
X28275854Y13375850D01*
X26976816Y14125850D01*
X26976816Y14125850D01*
G37*
D14*
X26276335Y11412581D03*
D11*
G36*
X25376816Y11354568D02*
X25876816Y12220594D01*
X27175854Y11470594D01*
X26675854Y10604568D01*
X25376816Y11354568D01*
X25376816Y11354568D01*
G37*
D14*
X32119859Y11733863D03*
D11*
G36*
X31220340Y11675850D02*
X31720340Y12541876D01*
X33019378Y11791876D01*
X32519378Y10925850D01*
X31220340Y11675850D01*
X31220340Y11675850D01*
G37*
D14*
X30519859Y8962581D03*
D11*
G36*
X29620340Y8904568D02*
X30120340Y9770594D01*
X31419378Y9020594D01*
X30919378Y8154568D01*
X29620340Y8904568D01*
X29620340Y8904568D01*
G37*
G04 #@! TD*
D14*
G04 #@! TO.C,D16*
X38098832Y9257291D03*
D11*
G36*
X37244978Y8968442D02*
X37503797Y9934368D01*
X38952686Y9546140D01*
X38693867Y8580214D01*
X37244978Y8968442D01*
X37244978Y8968442D01*
G37*
D14*
X37270611Y6166328D03*
D11*
G36*
X36416757Y5877479D02*
X36675576Y6843405D01*
X38124465Y6455177D01*
X37865646Y5489251D01*
X36416757Y5877479D01*
X36416757Y5877479D01*
G37*
D14*
X42831869Y7989078D03*
D11*
G36*
X41978015Y7700229D02*
X42236834Y8666155D01*
X43685723Y8277927D01*
X43426904Y7312001D01*
X41978015Y7700229D01*
X41978015Y7700229D01*
G37*
D14*
X42003648Y4898115D03*
D11*
G36*
X41149794Y4609266D02*
X41408613Y5575192D01*
X42857502Y5186964D01*
X42598683Y4221038D01*
X41149794Y4609266D01*
X41149794Y4609266D01*
G37*
G04 #@! TD*
D14*
G04 #@! TO.C,D8*
X94253384Y59410593D03*
D11*
G36*
X94930461Y58815558D02*
X93964535Y58556739D01*
X93576307Y60005628D01*
X94542233Y60264447D01*
X94930461Y58815558D01*
X94930461Y58815558D01*
G37*
D14*
X97344347Y60238814D03*
D11*
G36*
X98021424Y59643779D02*
X97055498Y59384960D01*
X96667270Y60833849D01*
X97633196Y61092668D01*
X98021424Y59643779D01*
X98021424Y59643779D01*
G37*
D14*
X92985171Y64143630D03*
D11*
G36*
X93662248Y63548595D02*
X92696322Y63289776D01*
X92308094Y64738665D01*
X93274020Y64997484D01*
X93662248Y63548595D01*
X93662248Y63548595D01*
G37*
D14*
X96076134Y64971851D03*
D11*
G36*
X96753211Y64376816D02*
X95787285Y64117997D01*
X95399057Y65566886D01*
X96364983Y65825705D01*
X96753211Y64376816D01*
X96753211Y64376816D01*
G37*
G04 #@! TD*
D13*
G04 #@! TO.C,D15*
X49248097Y7144365D03*
X49248097Y3944365D03*
X54148097Y7144365D03*
X54148097Y3944365D03*
G04 #@! TD*
D14*
G04 #@! TO.C,D12*
X80654120Y18123519D03*
D11*
G36*
X80477343Y17239636D02*
X79770237Y17946742D01*
X80830897Y19007402D01*
X81538003Y18300296D01*
X80477343Y17239636D01*
X80477343Y17239636D01*
G37*
D14*
X82916861Y15860778D03*
D11*
G36*
X82740084Y14976895D02*
X82032978Y15684001D01*
X83093638Y16744661D01*
X83800744Y16037555D01*
X82740084Y14976895D01*
X82740084Y14976895D01*
G37*
D14*
X84118943Y21588342D03*
D11*
G36*
X83942166Y20704459D02*
X83235060Y21411565D01*
X84295720Y22472225D01*
X85002826Y21765119D01*
X83942166Y20704459D01*
X83942166Y20704459D01*
G37*
D14*
X86381684Y19325601D03*
D11*
G36*
X86204907Y18441718D02*
X85497801Y19148824D01*
X86558461Y20209484D01*
X87265567Y19502378D01*
X86204907Y18441718D01*
X86204907Y18441718D01*
G37*
G04 #@! TD*
D14*
G04 #@! TO.C,D13*
X71276334Y11733863D03*
D11*
G36*
X70876815Y10925850D02*
X70376815Y11791876D01*
X71675853Y12541876D01*
X72175853Y11675850D01*
X70876815Y10925850D01*
X70876815Y10925850D01*
G37*
D14*
X72876334Y8962581D03*
D11*
G36*
X72476815Y8154568D02*
X71976815Y9020594D01*
X73275853Y9770594D01*
X73775853Y8904568D01*
X72476815Y8154568D01*
X72476815Y8154568D01*
G37*
D14*
X75519858Y14183863D03*
D11*
G36*
X75120339Y13375850D02*
X74620339Y14241876D01*
X75919377Y14991876D01*
X76419377Y14125850D01*
X75120339Y13375850D01*
X75120339Y13375850D01*
G37*
D14*
X77119858Y11412581D03*
D11*
G36*
X76720339Y10604568D02*
X76220339Y11470594D01*
X77519377Y12220594D01*
X78019377Y11354568D01*
X76720339Y10604568D01*
X76720339Y10604568D01*
G37*
G04 #@! TD*
D12*
G04 #@! TO.C,D9*
X95098096Y48094365D03*
X98298096Y48094365D03*
X95098096Y52994365D03*
X98298096Y52994365D03*
G04 #@! TD*
D14*
G04 #@! TO.C,D7*
X90508599Y70122603D03*
D11*
G36*
X91316612Y69723084D02*
X90450586Y69223084D01*
X89700586Y70522122D01*
X90566612Y71022122D01*
X91316612Y69723084D01*
X91316612Y69723084D01*
G37*
D14*
X93279881Y71722603D03*
D11*
G36*
X94087894Y71323084D02*
X93221868Y70823084D01*
X92471868Y72122122D01*
X93337894Y72622122D01*
X94087894Y71323084D01*
X94087894Y71323084D01*
G37*
D14*
X88058599Y74366127D03*
D11*
G36*
X88866612Y73966608D02*
X88000586Y73466608D01*
X87250586Y74765646D01*
X88116612Y75265646D01*
X88866612Y73966608D01*
X88866612Y73966608D01*
G37*
D14*
X90829881Y75966127D03*
D11*
G36*
X91637894Y75566608D02*
X90771868Y75066608D01*
X90021868Y76365646D01*
X90887894Y76865646D01*
X91637894Y75566608D01*
X91637894Y75566608D01*
G37*
G04 #@! TD*
D16*
G04 #@! TO.C,U5*
X75212933Y42161614D03*
D11*
G36*
X74894735Y41419152D02*
X74470471Y41843416D01*
X75531131Y42904076D01*
X75955395Y42479812D01*
X74894735Y41419152D01*
X74894735Y41419152D01*
G37*
D16*
X76110958Y41263588D03*
D11*
G36*
X75792760Y40521126D02*
X75368496Y40945390D01*
X76429156Y42006050D01*
X76853420Y41581786D01*
X75792760Y40521126D01*
X75792760Y40521126D01*
G37*
D16*
X77008984Y40365563D03*
D11*
G36*
X76690786Y39623101D02*
X76266522Y40047365D01*
X77327182Y41108025D01*
X77751446Y40683761D01*
X76690786Y39623101D01*
X76690786Y39623101D01*
G37*
D16*
X77907010Y39467537D03*
D11*
G36*
X77588812Y38725075D02*
X77164548Y39149339D01*
X78225208Y40209999D01*
X78649472Y39785735D01*
X77588812Y38725075D01*
X77588812Y38725075D01*
G37*
D16*
X78805035Y38569512D03*
D11*
G36*
X78486837Y37827050D02*
X78062573Y38251314D01*
X79123233Y39311974D01*
X79547497Y38887710D01*
X78486837Y37827050D01*
X78486837Y37827050D01*
G37*
D16*
X79703061Y37671486D03*
D11*
G36*
X79384863Y36929024D02*
X78960599Y37353288D01*
X80021259Y38413948D01*
X80445523Y37989684D01*
X79384863Y36929024D01*
X79384863Y36929024D01*
G37*
D16*
X80601086Y36773460D03*
D11*
G36*
X80282888Y36030998D02*
X79858624Y36455262D01*
X80919284Y37515922D01*
X81343548Y37091658D01*
X80282888Y36030998D01*
X80282888Y36030998D01*
G37*
D16*
X81499112Y35875435D03*
D11*
G36*
X81180914Y35132973D02*
X80756650Y35557237D01*
X81817310Y36617897D01*
X82241574Y36193633D01*
X81180914Y35132973D01*
X81180914Y35132973D01*
G37*
D16*
X77680735Y32057058D03*
D11*
G36*
X77362537Y31314596D02*
X76938273Y31738860D01*
X77998933Y32799520D01*
X78423197Y32375256D01*
X77362537Y31314596D01*
X77362537Y31314596D01*
G37*
D16*
X76782710Y32955084D03*
D11*
G36*
X76464512Y32212622D02*
X76040248Y32636886D01*
X77100908Y33697546D01*
X77525172Y33273282D01*
X76464512Y32212622D01*
X76464512Y32212622D01*
G37*
D16*
X75884684Y33853109D03*
D11*
G36*
X75566486Y33110647D02*
X75142222Y33534911D01*
X76202882Y34595571D01*
X76627146Y34171307D01*
X75566486Y33110647D01*
X75566486Y33110647D01*
G37*
D16*
X74986658Y34751135D03*
D11*
G36*
X74668460Y34008673D02*
X74244196Y34432937D01*
X75304856Y35493597D01*
X75729120Y35069333D01*
X74668460Y34008673D01*
X74668460Y34008673D01*
G37*
D16*
X74088633Y35649160D03*
D11*
G36*
X73770435Y34906698D02*
X73346171Y35330962D01*
X74406831Y36391622D01*
X74831095Y35967358D01*
X73770435Y34906698D01*
X73770435Y34906698D01*
G37*
D16*
X73190607Y36547186D03*
D11*
G36*
X72872409Y35804724D02*
X72448145Y36228988D01*
X73508805Y37289648D01*
X73933069Y36865384D01*
X72872409Y35804724D01*
X72872409Y35804724D01*
G37*
D16*
X72292582Y37445212D03*
D11*
G36*
X71974384Y36702750D02*
X71550120Y37127014D01*
X72610780Y38187674D01*
X73035044Y37763410D01*
X71974384Y36702750D01*
X71974384Y36702750D01*
G37*
D16*
X71394556Y38343237D03*
D11*
G36*
X71076358Y37600775D02*
X70652094Y38025039D01*
X71712754Y39085699D01*
X72137018Y38661435D01*
X71076358Y37600775D01*
X71076358Y37600775D01*
G37*
G04 #@! TD*
D14*
G04 #@! TO.C,D14*
X60564324Y7989078D03*
D11*
G36*
X59969289Y7312001D02*
X59710470Y8277927D01*
X61159359Y8666155D01*
X61418178Y7700229D01*
X59969289Y7312001D01*
X59969289Y7312001D01*
G37*
D14*
X61392545Y4898115D03*
D11*
G36*
X60797510Y4221038D02*
X60538691Y5186964D01*
X61987580Y5575192D01*
X62246399Y4609266D01*
X60797510Y4221038D01*
X60797510Y4221038D01*
G37*
D14*
X65297361Y9257291D03*
D11*
G36*
X64702326Y8580214D02*
X64443507Y9546140D01*
X65892396Y9934368D01*
X66151215Y8968442D01*
X64702326Y8580214D01*
X64702326Y8580214D01*
G37*
D14*
X66125582Y6166328D03*
D11*
G36*
X65530547Y5489251D02*
X65271728Y6455177D01*
X66720617Y6843405D01*
X66979436Y5877479D01*
X65530547Y5489251D01*
X65530547Y5489251D01*
G37*
G04 #@! TD*
M02*
