M48
;DRILL file {KiCad (5.0.0)} date 09/13/18 19:48:59
;FORMAT={-:-/ absolute / metric / decimal}
FMAT,2
METRIC,TZ
T1C0.400
T2C0.800
T3C1.000
T4C0.900
%
G90
G05
M71
T1
X5.492Y46.199
X5.947Y58.392
X8.115Y34.539
X9.53Y69.944
X13.83Y23.707
X15.978Y80.183
X21.692Y31.254
X21.974Y14.881
X22.325Y85.263
X24.861Y88.413
X25.054Y32.358
X25.875Y33.079
X26.44Y27.097
X26.454Y22.472
X27.177Y21.781
X27.515Y25.753
X28.222Y36.826
X29.049Y15.352
X29.099Y26.248
X29.453Y64.545
X29.622Y84.98
X30.45Y63.562
X31.51Y28.334
X32.298Y8.376
X32.5Y32.662
X33.525Y31.806
X34.713Y71.715
X35.598Y94.08
X35.958Y30.562
X37.273Y24.381
X37.768Y68.689
X41.021Y45.665
X41.876Y52.786
X42.06Y51.457
X43.708Y32.372
X43.851Y4.793
X44.061Y33.715
X44.136Y31.386
X45.116Y47.368
X47.353Y96.75
X47.738Y44.18
X48.007Y58.407
X49.266Y48.14
X49.944Y82.944
X51.274Y50.12
X51.436Y81.947
X53.678Y17.028
X55.926Y4.314
X56.061Y53.125
X56.308Y65.323
X57.638Y51.959
X58.133Y27.422
X58.698Y56.131
X58.911Y54.646
X59.548Y96.296
X61.032Y28.483
X62.093Y67.02
X63.436Y19.715
X63.648Y48.084
X63.931Y68.01
X64.355Y18.795
X64.567Y62.141
X64.638Y4.512
X64.85Y24.523
X65.402Y52.496
X65.77Y14.411
X66.194Y24.169
X66.264Y65.959
X67.113Y73.313
X67.325Y30.109
X67.679Y44.435
X67.82Y58.464
X68.527Y13.068
X68.739Y74.515
X69.234Y30.745
X69.376Y59.737
X69.538Y76.488
X69.8Y67.374
X70.578Y68.01
X70.79Y61.151
X70.861Y32.372
X71.098Y92.713
X72.204Y62.565
X72.628Y47.857
X72.954Y71.065
X73.336Y40.362
X73.703Y69.325
X73.703Y66.454
X74.113Y37.887
X74.75Y47.857
X74.955Y65.896
X76.447Y43.332
X76.871Y34.847
X78.536Y12.676
X78.71Y33.998
X79.487Y58.535
X79.7Y42.908
X80.407Y44.746
X80.796Y79.953
X80.831Y24.523
X81.326Y60.232
X81.337Y86.264
X85.349Y74.678
X87.845Y80.625
X88.609Y31.311
X88.821Y36.049
X88.821Y20.492
X89.567Y77.382
X92.852Y27.634
X95.234Y66.644
X97.449Y42.694
X97.904Y54.89
T2
X69.376Y51.251
X70.79Y52.666
X72.204Y54.08
X73.618Y55.494
X75.033Y56.908
X76.447Y58.323
X77.861Y59.737
X79.275Y61.151
X80.689Y62.565
X82.104Y63.979
X83.518Y65.394
X84.932Y66.808
X17.757Y33.574
X13.514Y39.231
X34.02Y18.725
X35.435Y20.139
X36.849Y21.553
X38.263Y22.967
X39.677Y24.381
X41.091Y25.796
X42.506Y27.21
X43.92Y28.624
X45.334Y30.038
X46.748Y31.452
X48.163Y32.867
X49.577Y34.281
X50.991Y35.695
X52.405Y37.109
X53.819Y38.524
X55.234Y39.938
X56.648Y41.352
X58.062Y42.766
X59.476Y44.18
X60.89Y45.595
X91.296Y46.302
X63.012Y88.728
X55.941Y10.946
X68.669Y84.485
T3
X53.6Y43.254
X55.396Y45.05
X57.192Y46.846
X58.988Y48.642
X36.828Y42.688
X38.624Y44.484
X38.624Y40.892
X40.42Y42.688
X40.42Y39.096
X42.216Y40.892
X23.548Y76.898
X25.344Y78.694
X25.344Y75.102
X27.14Y76.898
T4
X68.596Y5.635
X71.387Y6.734
X95.508Y30.855
X96.608Y33.646
T0
M30
