G04 #@! TF.GenerationSoftware,KiCad,Pcbnew,(5.0.0)*
G04 #@! TF.CreationDate,2018-09-13T19:48:46+02:00*
G04 #@! TF.ProjectId,noname.kicad_pcb_45_grader,6E6F6E616D652E6B696361645F706362,rev?*
G04 #@! TF.SameCoordinates,PX5f5e100PY8f0d180*
G04 #@! TF.FileFunction,Soldermask,Top*
G04 #@! TF.FilePolarity,Negative*
%FSLAX46Y46*%
G04 Gerber Fmt 4.6, Leading zero omitted, Abs format (unit mm)*
G04 Created by KiCad (PCBNEW (5.0.0)) date 09/13/18 19:48:46*
%MOMM*%
%LPD*%
G01*
G04 APERTURE LIST*
%ADD10C,0.010000*%
%ADD11C,0.100000*%
%ADD12C,1.650000*%
%ADD13R,1.400000X1.900000*%
%ADD14R,1.900000X1.400000*%
%ADD15C,1.400000*%
%ADD16C,1.300000*%
%ADD17C,1.750000*%
%ADD18C,1.750000*%
%ADD19C,1.350000*%
%ADD20C,1.000000*%
%ADD21C,1.500000*%
%ADD22C,1.700000*%
%ADD23C,0.950000*%
%ADD24C,2.100000*%
%ADD25C,2.100000*%
G04 APERTURE END LIST*
D10*
G04 #@! TO.C,*
G36*
X21312481Y42539386D02*
X22300309Y43527214D01*
X19269473Y46558051D01*
X22345210Y49633789D01*
X29506965Y42472034D01*
X26431227Y39396297D01*
X23355489Y42472034D01*
X22367661Y41484206D01*
X25443399Y38408468D01*
X22345210Y35310280D01*
X15183456Y42472034D01*
X18281644Y45570223D01*
X21312481Y42539386D01*
X21312481Y42539386D01*
G37*
X21312481Y42539386D02*
X22300309Y43527214D01*
X19269473Y46558051D01*
X22345210Y49633789D01*
X29506965Y42472034D01*
X26431227Y39396297D01*
X23355489Y42472034D01*
X22367661Y41484206D01*
X25443399Y38408468D01*
X22345210Y35310280D01*
X15183456Y42472034D01*
X18281644Y45570223D01*
X21312481Y42539386D01*
G36*
X32650054Y59938632D02*
X39811809Y52776878D01*
X36736071Y49701140D01*
X30607046Y55830165D01*
X29596767Y54819886D01*
X33163678Y51252975D01*
X33821338Y49349304D01*
X34478999Y47445633D01*
X32543022Y45508874D01*
X32252392Y45218380D01*
X31974729Y44941346D01*
X31713292Y44680989D01*
X31471334Y44440528D01*
X31252109Y44223181D01*
X31058872Y44032166D01*
X30894878Y43870703D01*
X30763381Y43742007D01*
X30667636Y43649300D01*
X30610897Y43595798D01*
X30595792Y43583369D01*
X30584730Y43614186D01*
X30554622Y43702217D01*
X30506480Y43844428D01*
X30441321Y44037785D01*
X30360161Y44279256D01*
X30264014Y44565807D01*
X30153896Y44894405D01*
X30030823Y45262015D01*
X29895809Y45665605D01*
X29749871Y46102141D01*
X29594024Y46568590D01*
X29429281Y47061917D01*
X29256660Y47579092D01*
X29077176Y48117078D01*
X28891844Y48672843D01*
X28799755Y48949086D01*
X27014970Y54303550D01*
X29832512Y57121091D01*
X32650054Y59938632D01*
X32650054Y59938632D01*
G37*
X32650054Y59938632D02*
X39811809Y52776878D01*
X36736071Y49701140D01*
X30607046Y55830165D01*
X29596767Y54819886D01*
X33163678Y51252975D01*
X33821338Y49349304D01*
X34478999Y47445633D01*
X32543022Y45508874D01*
X32252392Y45218380D01*
X31974729Y44941346D01*
X31713292Y44680989D01*
X31471334Y44440528D01*
X31252109Y44223181D01*
X31058872Y44032166D01*
X30894878Y43870703D01*
X30763381Y43742007D01*
X30667636Y43649300D01*
X30610897Y43595798D01*
X30595792Y43583369D01*
X30584730Y43614186D01*
X30554622Y43702217D01*
X30506480Y43844428D01*
X30441321Y44037785D01*
X30360161Y44279256D01*
X30264014Y44565807D01*
X30153896Y44894405D01*
X30030823Y45262015D01*
X29895809Y45665605D01*
X29749871Y46102141D01*
X29594024Y46568590D01*
X29429281Y47061917D01*
X29256660Y47579092D01*
X29077176Y48117078D01*
X28891844Y48672843D01*
X28799755Y48949086D01*
X27014970Y54303550D01*
X29832512Y57121091D01*
X32650054Y59938632D01*
G36*
X43426362Y58456890D02*
X44414190Y59444718D01*
X42371181Y61487727D01*
X45402018Y64518563D01*
X48477756Y61442825D01*
X41383353Y54348423D01*
X34221599Y61510177D01*
X37297337Y64585915D01*
X43426362Y58456890D01*
X43426362Y58456890D01*
G37*
X43426362Y58456890D02*
X44414190Y59444718D01*
X42371181Y61487727D01*
X45402018Y64518563D01*
X48477756Y61442825D01*
X41383353Y54348423D01*
X34221599Y61510177D01*
X37297337Y64585915D01*
X43426362Y58456890D01*
D11*
G36*
X46690369Y73956406D02*
X47005175Y74270867D01*
X47281113Y74546104D01*
X47521168Y74784993D01*
X47728319Y74990411D01*
X47905546Y75165234D01*
X48055832Y75312337D01*
X48182157Y75434597D01*
X48287502Y75534889D01*
X48374848Y75616088D01*
X48447176Y75681072D01*
X48507465Y75732717D01*
X48558699Y75773896D01*
X48603858Y75807488D01*
X48645921Y75836368D01*
X48664370Y75848422D01*
X49046740Y76062298D01*
X49432396Y76212812D01*
X49820416Y76299964D01*
X50209875Y76323752D01*
X50599852Y76284174D01*
X50989422Y76181231D01*
X51377666Y76014919D01*
X51661720Y75852228D01*
X51702709Y75824889D01*
X51748088Y75791428D01*
X51801003Y75748812D01*
X51864602Y75694011D01*
X51942029Y75623991D01*
X52036434Y75535723D01*
X52150963Y75426172D01*
X52288761Y75292309D01*
X52452978Y75131100D01*
X52646758Y74939514D01*
X52873250Y74714520D01*
X53135601Y74453085D01*
X53436956Y74152178D01*
X53719980Y73869255D01*
X54063236Y73525948D01*
X54364669Y73224152D01*
X54627349Y72960473D01*
X54854351Y72731514D01*
X55048746Y72533882D01*
X55213607Y72364184D01*
X55352007Y72219022D01*
X55467020Y72095004D01*
X55561718Y71988734D01*
X55639173Y71896818D01*
X55702459Y71815862D01*
X55754647Y71742471D01*
X55798810Y71673248D01*
X55838023Y71604803D01*
X55875357Y71533738D01*
X55913885Y71456660D01*
X55925938Y71432257D01*
X56076822Y71057794D01*
X56166352Y70673634D01*
X56195048Y70284362D01*
X56163431Y69894560D01*
X56072019Y69508814D01*
X55921333Y69131705D01*
X55711894Y68767819D01*
X55607049Y68620714D01*
X55560506Y68566573D01*
X55472861Y68472061D01*
X55348162Y68341223D01*
X55190458Y68178109D01*
X55003797Y67986763D01*
X54792227Y67771234D01*
X54559795Y67535568D01*
X54310552Y67283814D01*
X54048542Y67020017D01*
X53777817Y66748225D01*
X53502423Y66472484D01*
X53226408Y66196844D01*
X52953821Y65925350D01*
X52688712Y65662049D01*
X52435125Y65410988D01*
X52197111Y65176215D01*
X51978719Y64961778D01*
X51783993Y64771721D01*
X51616987Y64610094D01*
X51481743Y64480944D01*
X51382313Y64388316D01*
X51322745Y64336258D01*
X51317270Y64332029D01*
X50956550Y64099421D01*
X50582945Y63927986D01*
X50199758Y63817491D01*
X49810284Y63767707D01*
X49417822Y63778400D01*
X49025671Y63849340D01*
X48637128Y63980294D01*
X48255492Y64171031D01*
X47884061Y64421321D01*
X47682015Y64587173D01*
X47460704Y64781198D01*
X50745270Y68065764D01*
X51890253Y66920782D01*
X52900532Y67931060D01*
X50745270Y70086322D01*
X46454295Y65795346D01*
X45300552Y66965245D01*
X44146810Y68135144D01*
X43988027Y68415612D01*
X43800774Y68803987D01*
X43747838Y68970957D01*
X46793958Y72017077D01*
X48702262Y70108772D01*
X49712541Y71119051D01*
X47804236Y73027356D01*
X46793958Y72017077D01*
X43747838Y68970957D01*
X43676869Y69194805D01*
X43616267Y69586786D01*
X43618926Y69978650D01*
X43684801Y70369117D01*
X43813850Y70756910D01*
X44006027Y71140746D01*
X44085144Y71269196D01*
X44112854Y71310842D01*
X44144000Y71354259D01*
X44181459Y71402429D01*
X44228106Y71458334D01*
X44286816Y71524953D01*
X44360467Y71605267D01*
X44451934Y71702259D01*
X44564092Y71818909D01*
X44699818Y71958196D01*
X44861988Y72123103D01*
X45053477Y72316611D01*
X45277163Y72541699D01*
X45535919Y72801350D01*
X45832623Y73098544D01*
X46170149Y73436261D01*
X46333720Y73599847D01*
X46690369Y73956406D01*
X46690369Y73956406D01*
G37*
D10*
G36*
X61858337Y74823407D02*
X58782600Y71747669D01*
X51620845Y78909423D01*
X54696583Y81985161D01*
X61858337Y74823407D01*
X61858337Y74823407D01*
G37*
X61858337Y74823407D02*
X58782600Y71747669D01*
X51620845Y78909423D01*
X54696583Y81985161D01*
X61858337Y74823407D01*
G36*
X59659327Y86947905D02*
X59692566Y86843475D01*
X59705955Y86797299D01*
X59734838Y86694635D01*
X59777902Y86540233D01*
X59833835Y86338840D01*
X59901321Y86095203D01*
X59979048Y85814072D01*
X60065705Y85500194D01*
X60159974Y85158317D01*
X60260547Y84793189D01*
X60366107Y84409559D01*
X60424629Y84196715D01*
X60531842Y83807382D01*
X60634572Y83435703D01*
X60731539Y83086231D01*
X60821461Y82763519D01*
X60903059Y82472119D01*
X60975051Y82216585D01*
X61036155Y82001468D01*
X61085093Y81831322D01*
X61120582Y81710702D01*
X61141341Y81644158D01*
X61146113Y81632147D01*
X61179180Y81620143D01*
X61268922Y81591489D01*
X61411099Y81547460D01*
X61601468Y81489332D01*
X61835787Y81418383D01*
X62109816Y81335887D01*
X62419312Y81243121D01*
X62760034Y81141361D01*
X63127740Y81031883D01*
X63518190Y80915963D01*
X63927141Y80794877D01*
X64043607Y80760451D01*
X64456493Y80638401D01*
X64851773Y80521457D01*
X65225241Y80410871D01*
X65572684Y80307893D01*
X65889895Y80213773D01*
X66172663Y80129764D01*
X66416780Y80057115D01*
X66618035Y79997077D01*
X66772220Y79950903D01*
X66875126Y79919840D01*
X66922543Y79905142D01*
X66925310Y79904123D01*
X66904482Y79881165D01*
X66842044Y79816699D01*
X66741330Y79714084D01*
X66605669Y79576673D01*
X66438392Y79407823D01*
X66242831Y79210891D01*
X66022317Y78989233D01*
X65780179Y78746205D01*
X65519749Y78485162D01*
X65244359Y78209463D01*
X65117882Y78082952D01*
X63303584Y76268653D01*
X62474276Y76550653D01*
X61644969Y76832652D01*
X59125057Y79352651D01*
X56605146Y81872649D01*
X56352215Y82630255D01*
X56099283Y83387863D01*
X57879305Y85167884D01*
X59659327Y86947905D01*
X59659327Y86947905D01*
G37*
X59659327Y86947905D02*
X59692566Y86843475D01*
X59705955Y86797299D01*
X59734838Y86694635D01*
X59777902Y86540233D01*
X59833835Y86338840D01*
X59901321Y86095203D01*
X59979048Y85814072D01*
X60065705Y85500194D01*
X60159974Y85158317D01*
X60260547Y84793189D01*
X60366107Y84409559D01*
X60424629Y84196715D01*
X60531842Y83807382D01*
X60634572Y83435703D01*
X60731539Y83086231D01*
X60821461Y82763519D01*
X60903059Y82472119D01*
X60975051Y82216585D01*
X61036155Y82001468D01*
X61085093Y81831322D01*
X61120582Y81710702D01*
X61141341Y81644158D01*
X61146113Y81632147D01*
X61179180Y81620143D01*
X61268922Y81591489D01*
X61411099Y81547460D01*
X61601468Y81489332D01*
X61835787Y81418383D01*
X62109816Y81335887D01*
X62419312Y81243121D01*
X62760034Y81141361D01*
X63127740Y81031883D01*
X63518190Y80915963D01*
X63927141Y80794877D01*
X64043607Y80760451D01*
X64456493Y80638401D01*
X64851773Y80521457D01*
X65225241Y80410871D01*
X65572684Y80307893D01*
X65889895Y80213773D01*
X66172663Y80129764D01*
X66416780Y80057115D01*
X66618035Y79997077D01*
X66772220Y79950903D01*
X66875126Y79919840D01*
X66922543Y79905142D01*
X66925310Y79904123D01*
X66904482Y79881165D01*
X66842044Y79816699D01*
X66741330Y79714084D01*
X66605669Y79576673D01*
X66438392Y79407823D01*
X66242831Y79210891D01*
X66022317Y78989233D01*
X65780179Y78746205D01*
X65519749Y78485162D01*
X65244359Y78209463D01*
X65117882Y78082952D01*
X63303584Y76268653D01*
X62474276Y76550653D01*
X61644969Y76832652D01*
X59125057Y79352651D01*
X56605146Y81872649D01*
X56352215Y82630255D01*
X56099283Y83387863D01*
X57879305Y85167884D01*
X59659327Y86947905D01*
G04 #@! TD*
D12*
G04 #@! TO.C,C16*
X79853312Y87236957D03*
D11*
G36*
X79929505Y85981043D02*
X78620472Y86985500D01*
X79777119Y88492871D01*
X81086152Y87488414D01*
X79929505Y85981043D01*
X79929505Y85981043D01*
G37*
D12*
X78331408Y85253573D03*
D11*
G36*
X78407601Y83997659D02*
X77098568Y85002116D01*
X78255215Y86509487D01*
X79564248Y85505030D01*
X78407601Y83997659D01*
X78407601Y83997659D01*
G37*
G04 #@! TD*
D12*
G04 #@! TO.C,C14*
X57734932Y96398689D03*
D11*
G36*
X58428874Y95349132D02*
X56792990Y95564500D01*
X57040990Y97448246D01*
X58676874Y97232878D01*
X58428874Y95349132D01*
X58428874Y95349132D01*
G37*
D12*
X57408616Y93920077D03*
D11*
G36*
X58102558Y92870520D02*
X56466674Y93085888D01*
X56714674Y94969634D01*
X58350558Y94754266D01*
X58102558Y92870520D01*
X58102558Y92870520D01*
G37*
G04 #@! TD*
D12*
G04 #@! TO.C,C32*
X5843773Y56581201D03*
D11*
G36*
X6893330Y57275143D02*
X6677962Y55639259D01*
X4794216Y55887259D01*
X5009584Y57523143D01*
X6893330Y57275143D01*
X6893330Y57275143D01*
G37*
D12*
X8322385Y56254885D03*
D11*
G36*
X9371942Y56948827D02*
X9156574Y55312943D01*
X7272828Y55560943D01*
X7488196Y57196827D01*
X9371942Y56948827D01*
X9371942Y56948827D01*
G37*
G04 #@! TD*
D12*
G04 #@! TO.C,C13*
X45661259Y96398689D03*
D11*
G36*
X46603201Y95564500D02*
X44967317Y95349132D01*
X44719317Y97232878D01*
X46355201Y97448246D01*
X46603201Y95564500D01*
X46603201Y95564500D01*
G37*
D12*
X45987575Y93920077D03*
D11*
G36*
X46929517Y93085888D02*
X45293633Y92870520D01*
X45045633Y94754266D01*
X46681517Y94969634D01*
X46929517Y93085888D01*
X46929517Y93085888D01*
G37*
G04 #@! TD*
D12*
G04 #@! TO.C,C35*
X23542880Y87236956D03*
D11*
G36*
X24775720Y86985499D02*
X23466687Y85981042D01*
X22310040Y87488413D01*
X23619073Y88492870D01*
X24775720Y86985499D01*
X24775720Y86985499D01*
G37*
D12*
X25064784Y85253572D03*
D11*
G36*
X26297624Y85002115D02*
X24988591Y83997658D01*
X23831944Y85505029D01*
X25140977Y86509486D01*
X26297624Y85002115D01*
X26297624Y85002115D01*
G37*
G04 #@! TD*
D12*
G04 #@! TO.C,C26*
X45661261Y4690041D03*
D11*
G36*
X44967319Y5739598D02*
X46603203Y5524230D01*
X46355203Y3640484D01*
X44719319Y3855852D01*
X44967319Y5739598D01*
X44967319Y5739598D01*
G37*
D12*
X45987577Y7168653D03*
D11*
G36*
X45293635Y8218210D02*
X46929519Y8002842D01*
X46681519Y6119096D01*
X45045635Y6334464D01*
X45293635Y8218210D01*
X45293635Y8218210D01*
G37*
G04 #@! TD*
D12*
G04 #@! TO.C,C23*
X79853313Y13851774D03*
D11*
G36*
X78620473Y14103231D02*
X79929506Y15107688D01*
X81086153Y13600317D01*
X79777120Y12595860D01*
X78620473Y14103231D01*
X78620473Y14103231D01*
G37*
D12*
X78331409Y15835158D03*
D11*
G36*
X77098569Y16086615D02*
X78407602Y17091072D01*
X79564249Y15583701D01*
X78255216Y14579244D01*
X77098569Y16086615D01*
X77098569Y16086615D01*
G37*
G04 #@! TD*
D12*
G04 #@! TO.C,C12*
X33998988Y93273792D03*
D11*
G36*
X35124738Y92711820D02*
X33600337Y92080393D01*
X32873238Y93835764D01*
X34397639Y94467191D01*
X35124738Y92711820D01*
X35124738Y92711820D01*
G37*
D12*
X34955696Y90964094D03*
D11*
G36*
X36081446Y90402122D02*
X34557045Y89770695D01*
X33829946Y91526066D01*
X35354347Y92157493D01*
X36081446Y90402122D01*
X36081446Y90402122D01*
G37*
G04 #@! TD*
D12*
G04 #@! TO.C,C34*
X15005505Y78699581D03*
D11*
G36*
X16261419Y78775774D02*
X15256962Y77466741D01*
X13749591Y78623388D01*
X14754048Y79932421D01*
X16261419Y78775774D01*
X16261419Y78775774D01*
G37*
D12*
X16988889Y77177677D03*
D11*
G36*
X18244803Y77253870D02*
X17240346Y75944837D01*
X15732975Y77101484D01*
X16737432Y78410517D01*
X18244803Y77253870D01*
X18244803Y77253870D01*
G37*
G04 #@! TD*
D12*
G04 #@! TO.C,C33*
X8968669Y68243472D03*
D11*
G36*
X10162068Y68642123D02*
X9530641Y67117722D01*
X7775270Y67844821D01*
X8406697Y69369222D01*
X10162068Y68642123D01*
X10162068Y68642123D01*
G37*
D12*
X11278367Y67286764D03*
D11*
G36*
X12471766Y67685415D02*
X11840339Y66161014D01*
X10084968Y66888113D01*
X10716395Y68412514D01*
X12471766Y67685415D01*
X12471766Y67685415D01*
G37*
G04 #@! TD*
D12*
G04 #@! TO.C,C27*
X33998989Y7814937D03*
D11*
G36*
X33600338Y9008336D02*
X35124739Y8376909D01*
X34397640Y6621538D01*
X32873239Y7252965D01*
X33600338Y9008336D01*
X33600338Y9008336D01*
G37*
D12*
X34955697Y10124635D03*
D11*
G36*
X34557046Y11318034D02*
X36081447Y10686607D01*
X35354348Y8931236D01*
X33829947Y9562663D01*
X34557046Y11318034D01*
X34557046Y11318034D01*
G37*
G04 #@! TD*
D12*
G04 #@! TO.C,C29*
X15005505Y22389149D03*
D11*
G36*
X15256962Y23621989D02*
X16261419Y22312956D01*
X14754048Y21156309D01*
X13749591Y22465342D01*
X15256962Y23621989D01*
X15256962Y23621989D01*
G37*
D12*
X16988889Y23911053D03*
D11*
G36*
X17240346Y25143893D02*
X18244803Y23834860D01*
X16737432Y22678213D01*
X15732975Y23987246D01*
X17240346Y25143893D01*
X17240346Y25143893D01*
G37*
G04 #@! TD*
D12*
G04 #@! TO.C,C24*
X69397205Y7814938D03*
D11*
G36*
X68271455Y8376910D02*
X69795856Y9008337D01*
X70522955Y7252966D01*
X68998554Y6621539D01*
X68271455Y8376910D01*
X68271455Y8376910D01*
G37*
D12*
X68440497Y10124636D03*
D11*
G36*
X67314747Y10686608D02*
X68839148Y11318035D01*
X69566247Y9562664D01*
X68041846Y8931237D01*
X67314747Y10686608D01*
X67314747Y10686608D01*
G37*
G04 #@! TD*
D12*
G04 #@! TO.C,C28*
X23542881Y13851773D03*
D11*
G36*
X23466688Y15107687D02*
X24775721Y14103230D01*
X23619074Y12595859D01*
X22310041Y13600316D01*
X23466688Y15107687D01*
X23466688Y15107687D01*
G37*
D12*
X25064785Y15835157D03*
D11*
G36*
X24988592Y17091071D02*
X26297625Y16086614D01*
X25140978Y14579243D01*
X23831945Y15583700D01*
X24988592Y17091071D01*
X24988592Y17091071D01*
G37*
G04 #@! TD*
D12*
G04 #@! TO.C,C15*
X69397204Y93273793D03*
D11*
G36*
X69795855Y92080394D02*
X68271454Y92711821D01*
X68998553Y94467192D01*
X70522954Y93835765D01*
X69795855Y92080394D01*
X69795855Y92080394D01*
G37*
D12*
X68440496Y90964095D03*
D11*
G36*
X68839147Y89770696D02*
X67314746Y90402123D01*
X68041845Y92157494D01*
X69566246Y91526067D01*
X68839147Y89770696D01*
X68839147Y89770696D01*
G37*
G04 #@! TD*
D12*
G04 #@! TO.C,C30*
X8968670Y32845257D03*
D11*
G36*
X9530642Y33971007D02*
X10162069Y32446606D01*
X8406698Y31719507D01*
X7775271Y33243908D01*
X9530642Y33971007D01*
X9530642Y33971007D01*
G37*
D12*
X11278368Y33801965D03*
D11*
G36*
X11840340Y34927715D02*
X12471767Y33403314D01*
X10716396Y32676215D01*
X10084969Y34200616D01*
X11840340Y34927715D01*
X11840340Y34927715D01*
G37*
G04 #@! TD*
D12*
G04 #@! TO.C,C25*
X57734934Y4690041D03*
D11*
G36*
X56792992Y5524230D02*
X58428876Y5739598D01*
X58676876Y3855852D01*
X57040992Y3640484D01*
X56792992Y5524230D01*
X56792992Y5524230D01*
G37*
D12*
X57408618Y7168653D03*
D11*
G36*
X56466676Y8002842D02*
X58102560Y8218210D01*
X58350560Y6334464D01*
X56714676Y6119096D01*
X56466676Y8002842D01*
X56466676Y8002842D01*
G37*
G04 #@! TD*
D12*
G04 #@! TO.C,C31*
X5843773Y44507528D03*
D11*
G36*
X6677962Y45449470D02*
X6893330Y43813586D01*
X5009584Y43565586D01*
X4794216Y45201470D01*
X6677962Y45449470D01*
X6677962Y45449470D01*
G37*
D12*
X8322385Y44833844D03*
D11*
G36*
X9156574Y45775786D02*
X9371942Y44139902D01*
X7488196Y43891902D01*
X7272828Y45527786D01*
X9156574Y45775786D01*
X9156574Y45775786D01*
G37*
G04 #@! TD*
D13*
G04 #@! TO.C,D21*
X8298097Y52994365D03*
X5098097Y52994365D03*
X8298097Y48094365D03*
X5098097Y48094365D03*
G04 #@! TD*
D14*
G04 #@! TO.C,D3*
X54148097Y93944365D03*
X54148097Y97144365D03*
X49248097Y93944365D03*
X49248097Y97144365D03*
G04 #@! TD*
D15*
G04 #@! TO.C,D25*
X48834315Y49943324D03*
D11*
G36*
X48657538Y48776598D02*
X47667589Y49766547D01*
X49011092Y51110050D01*
X50001041Y50120101D01*
X48657538Y48776598D01*
X48657538Y48776598D01*
G37*
D15*
X51097056Y47680583D03*
D11*
G36*
X50920279Y46513857D02*
X49930330Y47503806D01*
X51273833Y48847309D01*
X52263782Y47857360D01*
X50920279Y46513857D01*
X50920279Y46513857D01*
G37*
D15*
X52299138Y53408147D03*
D11*
G36*
X52122361Y52241421D02*
X51132412Y53231370D01*
X52475915Y54574873D01*
X53465864Y53584924D01*
X52122361Y52241421D01*
X52122361Y52241421D01*
G37*
D15*
X54561879Y51145406D03*
D11*
G36*
X54385102Y49978680D02*
X53395153Y50968629D01*
X54738656Y52312132D01*
X55728605Y51322183D01*
X54385102Y49978680D01*
X54385102Y49978680D01*
G37*
G04 #@! TD*
D15*
G04 #@! TO.C,D24*
X22742073Y82965211D03*
D11*
G36*
X22918850Y84131937D02*
X23908799Y83141988D01*
X22565296Y81798485D01*
X21575347Y82788434D01*
X22918850Y84131937D01*
X22918850Y84131937D01*
G37*
D15*
X20479332Y85227952D03*
D11*
G36*
X20656109Y86394678D02*
X21646058Y85404729D01*
X20302555Y84061226D01*
X19312606Y85051175D01*
X20656109Y86394678D01*
X20656109Y86394678D01*
G37*
D15*
X19277250Y79500388D03*
D11*
G36*
X19454027Y80667114D02*
X20443976Y79677165D01*
X19100473Y78333662D01*
X18110524Y79323611D01*
X19454027Y80667114D01*
X19454027Y80667114D01*
G37*
D15*
X17014509Y81763129D03*
D11*
G36*
X17191286Y82929855D02*
X18181235Y81939906D01*
X16837732Y80596403D01*
X15847783Y81586352D01*
X17191286Y82929855D01*
X17191286Y82929855D01*
G37*
G04 #@! TD*
D12*
G04 #@! TO.C,C21*
X94427524Y32845258D03*
D11*
G36*
X93234125Y32446607D02*
X93865552Y33971008D01*
X95620923Y33243909D01*
X94989496Y31719508D01*
X93234125Y32446607D01*
X93234125Y32446607D01*
G37*
D12*
X92117826Y33801966D03*
D11*
G36*
X90924427Y33403315D02*
X91555854Y34927716D01*
X93311225Y34200617D01*
X92679798Y32676216D01*
X90924427Y33403315D01*
X90924427Y33403315D01*
G37*
G04 #@! TD*
D15*
G04 #@! TO.C,D2*
X42831869Y93099652D03*
D11*
G36*
X43568325Y94021678D02*
X43930672Y92669382D01*
X42095413Y92177626D01*
X41733066Y93529922D01*
X43568325Y94021678D01*
X43568325Y94021678D01*
G37*
D15*
X42003648Y96190615D03*
D11*
G36*
X42740104Y97112641D02*
X43102451Y95760345D01*
X41267192Y95268589D01*
X40904845Y96620885D01*
X42740104Y97112641D01*
X42740104Y97112641D01*
G37*
D15*
X38098832Y91831439D03*
D11*
G36*
X38835288Y92753465D02*
X39197635Y91401169D01*
X37362376Y90909413D01*
X37000029Y92261709D01*
X38835288Y92753465D01*
X38835288Y92753465D01*
G37*
D15*
X37270611Y94922402D03*
D11*
G36*
X38007067Y95844428D02*
X38369414Y94492132D01*
X36534155Y94000376D01*
X36171808Y95352672D01*
X38007067Y95844428D01*
X38007067Y95844428D01*
G37*
G04 #@! TD*
D15*
G04 #@! TO.C,D1*
X32119859Y89354867D03*
D11*
G36*
X32592583Y90436085D02*
X33292583Y89223649D01*
X31647135Y88273649D01*
X30947135Y89486085D01*
X32592583Y90436085D01*
X32592583Y90436085D01*
G37*
D15*
X30519859Y92126149D03*
D11*
G36*
X30992583Y93207367D02*
X31692583Y91994931D01*
X30047135Y91044931D01*
X29347135Y92257367D01*
X30992583Y93207367D01*
X30992583Y93207367D01*
G37*
D15*
X27876335Y86904867D03*
D11*
G36*
X28349059Y87986085D02*
X29049059Y86773649D01*
X27403611Y85823649D01*
X26703611Y87036085D01*
X28349059Y87986085D01*
X28349059Y87986085D01*
G37*
D15*
X26276335Y89676149D03*
D11*
G36*
X26749059Y90757367D02*
X27449059Y89544931D01*
X25803611Y88594931D01*
X25103611Y89807367D01*
X26749059Y90757367D01*
X26749059Y90757367D01*
G37*
G04 #@! TD*
D15*
G04 #@! TO.C,D4*
X65297361Y91831439D03*
D11*
G36*
X66396164Y92261709D02*
X66033817Y90909413D01*
X64198558Y91401169D01*
X64560905Y92753465D01*
X66396164Y92261709D01*
X66396164Y92261709D01*
G37*
D15*
X66125582Y94922402D03*
D11*
G36*
X67224385Y95352672D02*
X66862038Y94000376D01*
X65026779Y94492132D01*
X65389126Y95844428D01*
X67224385Y95352672D01*
X67224385Y95352672D01*
G37*
D15*
X60564324Y93099652D03*
D11*
G36*
X61663127Y93529922D02*
X61300780Y92177626D01*
X59465521Y92669382D01*
X59827868Y94021678D01*
X61663127Y93529922D01*
X61663127Y93529922D01*
G37*
D15*
X61392545Y96190615D03*
D11*
G36*
X62491348Y96620885D02*
X62129001Y95268589D01*
X60293742Y95760345D01*
X60656089Y97112641D01*
X62491348Y96620885D01*
X62491348Y96620885D01*
G37*
G04 #@! TD*
D12*
G04 #@! TO.C,C20*
X97552420Y44507529D03*
D11*
G36*
X96502863Y43813587D02*
X96718231Y45449471D01*
X98601977Y45201471D01*
X98386609Y43565587D01*
X96502863Y43813587D01*
X96502863Y43813587D01*
G37*
D12*
X95073808Y44833845D03*
D11*
G36*
X94024251Y44139903D02*
X94239619Y45775787D01*
X96123365Y45527787D01*
X95907997Y43891903D01*
X94024251Y44139903D01*
X94024251Y44139903D01*
G37*
G04 #@! TD*
D15*
G04 #@! TO.C,D19*
X12887595Y30966127D03*
D11*
G36*
X11806377Y31438851D02*
X13018813Y32138851D01*
X13968813Y30493403D01*
X12756377Y29793403D01*
X11806377Y31438851D01*
X11806377Y31438851D01*
G37*
D15*
X10116313Y29366127D03*
D11*
G36*
X9035095Y29838851D02*
X10247531Y30538851D01*
X11197531Y28893403D01*
X9985095Y28193403D01*
X9035095Y29838851D01*
X9035095Y29838851D01*
G37*
D15*
X15337595Y26722603D03*
D11*
G36*
X14256377Y27195327D02*
X15468813Y27895327D01*
X16418813Y26249879D01*
X15206377Y25549879D01*
X14256377Y27195327D01*
X14256377Y27195327D01*
G37*
D15*
X12566313Y25122603D03*
D11*
G36*
X11485095Y25595327D02*
X12697531Y26295327D01*
X13647531Y24649879D01*
X12435095Y23949879D01*
X11485095Y25595327D01*
X11485095Y25595327D01*
G37*
G04 #@! TD*
D15*
G04 #@! TO.C,D22*
X10411022Y64143630D03*
D11*
G36*
X9980752Y65242433D02*
X11333048Y64880086D01*
X10841292Y63044827D01*
X9488996Y63407174D01*
X9980752Y65242433D01*
X9980752Y65242433D01*
G37*
D15*
X7320059Y64971851D03*
D11*
G36*
X6889789Y66070654D02*
X8242085Y65708307D01*
X7750329Y63873048D01*
X6398033Y64235395D01*
X6889789Y66070654D01*
X6889789Y66070654D01*
G37*
D15*
X9142809Y59410593D03*
D11*
G36*
X8712539Y60509396D02*
X10064835Y60147049D01*
X9573079Y58311790D01*
X8220783Y58674137D01*
X8712539Y60509396D01*
X8712539Y60509396D01*
G37*
D15*
X6051846Y60238814D03*
D11*
G36*
X5621576Y61337617D02*
X6973872Y60975270D01*
X6482116Y59140011D01*
X5129820Y59502358D01*
X5621576Y61337617D01*
X5621576Y61337617D01*
G37*
G04 #@! TD*
D12*
G04 #@! TO.C,C19*
X97552420Y56581202D03*
D11*
G36*
X96718231Y55639260D02*
X96502863Y57275144D01*
X98386609Y57523144D01*
X98601977Y55887260D01*
X96718231Y55639260D01*
X96718231Y55639260D01*
G37*
D12*
X95073808Y56254886D03*
D11*
G36*
X94239619Y55312944D02*
X94024251Y56948828D01*
X95907997Y57196828D01*
X96123365Y55560944D01*
X94239619Y55312944D01*
X94239619Y55312944D01*
G37*
G04 #@! TD*
D12*
G04 #@! TO.C,C22*
X88390689Y22389150D03*
D11*
G36*
X87134775Y22312957D02*
X88139232Y23621990D01*
X89646603Y22465343D01*
X88642146Y21156310D01*
X87134775Y22312957D01*
X87134775Y22312957D01*
G37*
D12*
X86407305Y23911054D03*
D11*
G36*
X85151391Y23834861D02*
X86155848Y25143894D01*
X87663219Y23987247D01*
X86658762Y22678214D01*
X85151391Y23834861D01*
X85151391Y23834861D01*
G37*
G04 #@! TD*
D12*
G04 #@! TO.C,C18*
X94427523Y68243473D03*
D11*
G36*
X93865551Y67117723D02*
X93234124Y68642124D01*
X94989495Y69369223D01*
X95620922Y67844822D01*
X93865551Y67117723D01*
X93865551Y67117723D01*
G37*
D12*
X92117825Y67286765D03*
D11*
G36*
X91555853Y66161015D02*
X90924426Y67685416D01*
X92679797Y68412515D01*
X93311224Y66888114D01*
X91555853Y66161015D01*
X91555853Y66161015D01*
G37*
G04 #@! TD*
D15*
G04 #@! TO.C,D5*
X75519858Y86904867D03*
D11*
G36*
X76692582Y87036085D02*
X75992582Y85823649D01*
X74347134Y86773649D01*
X75047134Y87986085D01*
X76692582Y87036085D01*
X76692582Y87036085D01*
G37*
D15*
X77119858Y89676149D03*
D11*
G36*
X78292582Y89807367D02*
X77592582Y88594931D01*
X75947134Y89544931D01*
X76647134Y90757367D01*
X78292582Y89807367D01*
X78292582Y89807367D01*
G37*
D15*
X71276334Y89354867D03*
D11*
G36*
X72449058Y89486085D02*
X71749058Y88273649D01*
X70103610Y89223649D01*
X70803610Y90436085D01*
X72449058Y89486085D01*
X72449058Y89486085D01*
G37*
D15*
X72876334Y92126149D03*
D11*
G36*
X74049058Y92257367D02*
X73349058Y91044931D01*
X71703610Y91994931D01*
X72403610Y93207367D01*
X74049058Y92257367D01*
X74049058Y92257367D01*
G37*
G04 #@! TD*
D15*
G04 #@! TO.C,D20*
X9142809Y41678137D03*
D11*
G36*
X8220783Y42414593D02*
X9573079Y42776940D01*
X10064835Y40941681D01*
X8712539Y40579334D01*
X8220783Y42414593D01*
X8220783Y42414593D01*
G37*
D15*
X6051846Y40849916D03*
D11*
G36*
X5129820Y41586372D02*
X6482116Y41948719D01*
X6973872Y40113460D01*
X5621576Y39751113D01*
X5129820Y41586372D01*
X5129820Y41586372D01*
G37*
D15*
X10411022Y36945100D03*
D11*
G36*
X9488996Y37681556D02*
X10841292Y38043903D01*
X11333048Y36208644D01*
X9980752Y35846297D01*
X9488996Y37681556D01*
X9488996Y37681556D01*
G37*
D15*
X7320059Y36116879D03*
D11*
G36*
X6398033Y36853335D02*
X7750329Y37215682D01*
X8242085Y35380423D01*
X6889789Y35018076D01*
X6398033Y36853335D01*
X6398033Y36853335D01*
G37*
G04 #@! TD*
D15*
G04 #@! TO.C,D6*
X84118943Y79500388D03*
D11*
G36*
X85285669Y79323611D02*
X84295720Y78333662D01*
X82952217Y79677165D01*
X83942166Y80667114D01*
X85285669Y79323611D01*
X85285669Y79323611D01*
G37*
D15*
X86381684Y81763129D03*
D11*
G36*
X87548410Y81586352D02*
X86558461Y80596403D01*
X85214958Y81939906D01*
X86204907Y82929855D01*
X87548410Y81586352D01*
X87548410Y81586352D01*
G37*
D15*
X80654120Y82965211D03*
D11*
G36*
X81820846Y82788434D02*
X80830897Y81798485D01*
X79487394Y83141988D01*
X80477343Y84131937D01*
X81820846Y82788434D01*
X81820846Y82788434D01*
G37*
D15*
X82916861Y85227952D03*
D11*
G36*
X84083587Y85051175D02*
X83093638Y84061226D01*
X81750135Y85404729D01*
X82740084Y86394678D01*
X84083587Y85051175D01*
X84083587Y85051175D01*
G37*
G04 #@! TD*
D15*
G04 #@! TO.C,D23*
X15337595Y74366127D03*
D11*
G36*
X15206377Y75538851D02*
X16418813Y74838851D01*
X15468813Y73193403D01*
X14256377Y73893403D01*
X15206377Y75538851D01*
X15206377Y75538851D01*
G37*
D15*
X12566313Y75966127D03*
D11*
G36*
X12435095Y77138851D02*
X13647531Y76438851D01*
X12697531Y74793403D01*
X11485095Y75493403D01*
X12435095Y77138851D01*
X12435095Y77138851D01*
G37*
D15*
X12887595Y70122603D03*
D11*
G36*
X12756377Y71295327D02*
X13968813Y70595327D01*
X13018813Y68949879D01*
X11806377Y69649879D01*
X12756377Y71295327D01*
X12756377Y71295327D01*
G37*
D15*
X10116313Y71722603D03*
D11*
G36*
X9985095Y72895327D02*
X11197531Y72195327D01*
X10247531Y70549879D01*
X9035095Y71249879D01*
X9985095Y72895327D01*
X9985095Y72895327D01*
G37*
G04 #@! TD*
D16*
G04 #@! TO.C,S4*
X68596060Y5634823D03*
X71387313Y6734327D03*
G04 #@! TD*
D17*
G04 #@! TO.C,J14*
X91296076Y46301724D03*
D11*
G36*
X91296076Y45064287D02*
X90058639Y46301724D01*
X91296076Y47539161D01*
X92533513Y46301724D01*
X91296076Y45064287D01*
X91296076Y45064287D01*
G37*
G04 #@! TD*
D16*
G04 #@! TO.C,S2*
X96607639Y33646402D03*
X95508135Y30855149D03*
G04 #@! TD*
D17*
G04 #@! TO.C,J13*
X55940737Y10946385D03*
D11*
G36*
X55940737Y9708948D02*
X54703300Y10946385D01*
X55940737Y12183822D01*
X57178174Y10946385D01*
X55940737Y9708948D01*
X55940737Y9708948D01*
G37*
G04 #@! TD*
D17*
G04 #@! TO.C,J4*
X68668659Y84485491D03*
D11*
G36*
X68668659Y83248054D02*
X67431222Y84485491D01*
X68668659Y85722928D01*
X69906096Y84485491D01*
X68668659Y83248054D01*
X68668659Y83248054D01*
G37*
G04 #@! TD*
D17*
G04 #@! TO.C,J16*
X84932115Y66807821D03*
D18*
X84932115Y66807821D02*
X84932115Y66807821D01*
D17*
X83517902Y65393608D03*
D18*
X83517902Y65393608D02*
X83517902Y65393608D01*
D17*
X82103688Y63979394D03*
D18*
X82103688Y63979394D02*
X82103688Y63979394D01*
D17*
X80689474Y62565180D03*
D18*
X80689474Y62565180D02*
X80689474Y62565180D01*
D17*
X79275261Y61150967D03*
D18*
X79275261Y61150967D02*
X79275261Y61150967D01*
D17*
X77861047Y59736753D03*
D18*
X77861047Y59736753D02*
X77861047Y59736753D01*
D17*
X76446834Y58322540D03*
D18*
X76446834Y58322540D02*
X76446834Y58322540D01*
D17*
X75032620Y56908326D03*
D18*
X75032620Y56908326D02*
X75032620Y56908326D01*
D17*
X73618407Y55494113D03*
D18*
X73618407Y55494113D02*
X73618407Y55494113D01*
D17*
X72204193Y54079899D03*
D18*
X72204193Y54079899D02*
X72204193Y54079899D01*
D17*
X70789980Y52665686D03*
D18*
X70789980Y52665686D02*
X70789980Y52665686D01*
D17*
X69375766Y51251472D03*
D11*
G36*
X70613203Y51251472D02*
X69375766Y50014035D01*
X68138329Y51251472D01*
X69375766Y52488909D01*
X70613203Y51251472D01*
X70613203Y51251472D01*
G37*
G04 #@! TD*
D17*
G04 #@! TO.C,J3*
X63011805Y88728131D03*
D11*
G36*
X63011805Y87490694D02*
X61774368Y88728131D01*
X63011805Y89965568D01*
X64249242Y88728131D01*
X63011805Y87490694D01*
X63011805Y87490694D01*
G37*
G04 #@! TD*
D17*
G04 #@! TO.C,J15*
X60890485Y45594618D03*
D18*
X60890485Y45594618D02*
X60890485Y45594618D01*
D17*
X59476271Y44180404D03*
D18*
X59476271Y44180404D02*
X59476271Y44180404D01*
D17*
X58062058Y42766191D03*
D18*
X58062058Y42766191D02*
X58062058Y42766191D01*
D17*
X56647844Y41351977D03*
D18*
X56647844Y41351977D02*
X56647844Y41351977D01*
D17*
X55233630Y39937763D03*
D18*
X55233630Y39937763D02*
X55233630Y39937763D01*
D17*
X53819417Y38523550D03*
D18*
X53819417Y38523550D02*
X53819417Y38523550D01*
D17*
X52405203Y37109336D03*
D18*
X52405203Y37109336D02*
X52405203Y37109336D01*
D17*
X50990990Y35695123D03*
D18*
X50990990Y35695123D02*
X50990990Y35695123D01*
D17*
X49576776Y34280909D03*
D18*
X49576776Y34280909D02*
X49576776Y34280909D01*
D17*
X48162563Y32866696D03*
D18*
X48162563Y32866696D02*
X48162563Y32866696D01*
D17*
X46748349Y31452482D03*
D18*
X46748349Y31452482D02*
X46748349Y31452482D01*
D17*
X45334135Y30038268D03*
D18*
X45334135Y30038268D02*
X45334135Y30038268D01*
D17*
X43919922Y28624055D03*
D18*
X43919922Y28624055D02*
X43919922Y28624055D01*
D17*
X42505708Y27209841D03*
D18*
X42505708Y27209841D02*
X42505708Y27209841D01*
D17*
X41091495Y25795628D03*
D18*
X41091495Y25795628D02*
X41091495Y25795628D01*
D17*
X39677281Y24381414D03*
D18*
X39677281Y24381414D02*
X39677281Y24381414D01*
D17*
X38263068Y22967201D03*
D18*
X38263068Y22967201D02*
X38263068Y22967201D01*
D17*
X36848854Y21552987D03*
D18*
X36848854Y21552987D02*
X36848854Y21552987D01*
D17*
X35434641Y20138774D03*
D18*
X35434641Y20138774D02*
X35434641Y20138774D01*
D17*
X34020427Y18724560D03*
D11*
G36*
X35257864Y18724560D02*
X34020427Y17487123D01*
X32782990Y18724560D01*
X34020427Y19961997D01*
X35257864Y18724560D01*
X35257864Y18724560D01*
G37*
G04 #@! TD*
G04 #@! TO.C,D27*
G36*
X38596668Y33273280D02*
X38629430Y33268420D01*
X38661558Y33260372D01*
X38692743Y33249214D01*
X38722683Y33235053D01*
X38751092Y33218026D01*
X38777695Y33198296D01*
X38802236Y33176054D01*
X39279533Y32698757D01*
X39301775Y32674216D01*
X39321505Y32647613D01*
X39338532Y32619204D01*
X39352693Y32589264D01*
X39363851Y32558079D01*
X39371899Y32525951D01*
X39376759Y32493189D01*
X39378384Y32460108D01*
X39376759Y32427027D01*
X39371899Y32394265D01*
X39363851Y32362137D01*
X39352693Y32330952D01*
X39338532Y32301012D01*
X39321505Y32272603D01*
X39301775Y32246000D01*
X39279533Y32221459D01*
X38731526Y31673452D01*
X38706985Y31651210D01*
X38680382Y31631480D01*
X38651973Y31614453D01*
X38622033Y31600292D01*
X38590848Y31589134D01*
X38558720Y31581086D01*
X38525958Y31576226D01*
X38492877Y31574601D01*
X38459796Y31576226D01*
X38427034Y31581086D01*
X38394906Y31589134D01*
X38363721Y31600292D01*
X38333781Y31614453D01*
X38305372Y31631480D01*
X38278769Y31651210D01*
X38254228Y31673452D01*
X37776931Y32150749D01*
X37754689Y32175290D01*
X37734959Y32201893D01*
X37717932Y32230302D01*
X37703771Y32260242D01*
X37692613Y32291427D01*
X37684565Y32323555D01*
X37679705Y32356317D01*
X37678080Y32389398D01*
X37679705Y32422479D01*
X37684565Y32455241D01*
X37692613Y32487369D01*
X37703771Y32518554D01*
X37717932Y32548494D01*
X37734959Y32576903D01*
X37754689Y32603506D01*
X37776931Y32628047D01*
X38324938Y33176054D01*
X38349479Y33198296D01*
X38376082Y33218026D01*
X38404491Y33235053D01*
X38434431Y33249214D01*
X38465616Y33260372D01*
X38497744Y33268420D01*
X38530506Y33273280D01*
X38563587Y33274905D01*
X38596668Y33273280D01*
X38596668Y33273280D01*
G37*
D19*
X38528232Y32424753D03*
D11*
G36*
X37359232Y32035844D02*
X37391994Y32030984D01*
X37424122Y32022936D01*
X37455307Y32011778D01*
X37485247Y31997617D01*
X37513656Y31980590D01*
X37540259Y31960860D01*
X37564800Y31938618D01*
X38042097Y31461321D01*
X38064339Y31436780D01*
X38084069Y31410177D01*
X38101096Y31381768D01*
X38115257Y31351828D01*
X38126415Y31320643D01*
X38134463Y31288515D01*
X38139323Y31255753D01*
X38140948Y31222672D01*
X38139323Y31189591D01*
X38134463Y31156829D01*
X38126415Y31124701D01*
X38115257Y31093516D01*
X38101096Y31063576D01*
X38084069Y31035167D01*
X38064339Y31008564D01*
X38042097Y30984023D01*
X37494090Y30436016D01*
X37469549Y30413774D01*
X37442946Y30394044D01*
X37414537Y30377017D01*
X37384597Y30362856D01*
X37353412Y30351698D01*
X37321284Y30343650D01*
X37288522Y30338790D01*
X37255441Y30337165D01*
X37222360Y30338790D01*
X37189598Y30343650D01*
X37157470Y30351698D01*
X37126285Y30362856D01*
X37096345Y30377017D01*
X37067936Y30394044D01*
X37041333Y30413774D01*
X37016792Y30436016D01*
X36539495Y30913313D01*
X36517253Y30937854D01*
X36497523Y30964457D01*
X36480496Y30992866D01*
X36466335Y31022806D01*
X36455177Y31053991D01*
X36447129Y31086119D01*
X36442269Y31118881D01*
X36440644Y31151962D01*
X36442269Y31185043D01*
X36447129Y31217805D01*
X36455177Y31249933D01*
X36466335Y31281118D01*
X36480496Y31311058D01*
X36497523Y31339467D01*
X36517253Y31366070D01*
X36539495Y31390611D01*
X37087502Y31938618D01*
X37112043Y31960860D01*
X37138646Y31980590D01*
X37167055Y31997617D01*
X37196995Y32011778D01*
X37228180Y32022936D01*
X37260308Y32030984D01*
X37293070Y32035844D01*
X37326151Y32037469D01*
X37359232Y32035844D01*
X37359232Y32035844D01*
G37*
D19*
X37290796Y31187317D03*
G04 #@! TD*
D17*
G04 #@! TO.C,J1*
X13514330Y39230657D03*
D11*
G36*
X13514330Y37993220D02*
X12276893Y39230657D01*
X13514330Y40468094D01*
X14751767Y39230657D01*
X13514330Y37993220D01*
X13514330Y37993220D01*
G37*
G04 #@! TD*
D20*
G04 #@! TO.C,U3*
X60080847Y27029529D03*
D11*
G36*
X59762649Y26004224D02*
X59055542Y26711331D01*
X60399045Y28054834D01*
X61106152Y27347727D01*
X59762649Y26004224D01*
X59762649Y26004224D01*
G37*
D20*
X60978873Y26131504D03*
D11*
G36*
X60660675Y25106199D02*
X59953568Y25813306D01*
X61297071Y27156809D01*
X62004178Y26449702D01*
X60660675Y25106199D01*
X60660675Y25106199D01*
G37*
D20*
X61876898Y25233478D03*
D11*
G36*
X61558700Y24208173D02*
X60851593Y24915280D01*
X62195096Y26258783D01*
X62902203Y25551676D01*
X61558700Y24208173D01*
X61558700Y24208173D01*
G37*
D20*
X62774924Y24335452D03*
D11*
G36*
X62456726Y23310147D02*
X61749619Y24017254D01*
X63093122Y25360757D01*
X63800229Y24653650D01*
X62456726Y23310147D01*
X62456726Y23310147D01*
G37*
D20*
X63672949Y23437427D03*
D11*
G36*
X63354751Y22412122D02*
X62647644Y23119229D01*
X63991147Y24462732D01*
X64698254Y23755625D01*
X63354751Y22412122D01*
X63354751Y22412122D01*
G37*
D20*
X64570975Y22539401D03*
D11*
G36*
X64252777Y21514096D02*
X63545670Y22221203D01*
X64889173Y23564706D01*
X65596280Y22857599D01*
X64252777Y21514096D01*
X64252777Y21514096D01*
G37*
D20*
X65469001Y21641376D03*
D11*
G36*
X65150803Y20616071D02*
X64443696Y21323178D01*
X65787199Y22666681D01*
X66494306Y21959574D01*
X65150803Y20616071D01*
X65150803Y20616071D01*
G37*
D20*
X66367026Y20743350D03*
D11*
G36*
X66048828Y19718045D02*
X65341721Y20425152D01*
X66685224Y21768655D01*
X67392331Y21061548D01*
X66048828Y19718045D01*
X66048828Y19718045D01*
G37*
D20*
X70185403Y24561727D03*
D11*
G36*
X69867205Y23536422D02*
X69160098Y24243529D01*
X70503601Y25587032D01*
X71210708Y24879925D01*
X69867205Y23536422D01*
X69867205Y23536422D01*
G37*
D20*
X69287377Y25459752D03*
D11*
G36*
X68969179Y24434447D02*
X68262072Y25141554D01*
X69605575Y26485057D01*
X70312682Y25777950D01*
X68969179Y24434447D01*
X68969179Y24434447D01*
G37*
D20*
X68389352Y26357778D03*
D11*
G36*
X68071154Y25332473D02*
X67364047Y26039580D01*
X68707550Y27383083D01*
X69414657Y26675976D01*
X68071154Y25332473D01*
X68071154Y25332473D01*
G37*
D20*
X67491326Y27255804D03*
D11*
G36*
X67173128Y26230499D02*
X66466021Y26937606D01*
X67809524Y28281109D01*
X68516631Y27574002D01*
X67173128Y26230499D01*
X67173128Y26230499D01*
G37*
D20*
X66593301Y28153829D03*
D11*
G36*
X66275103Y27128524D02*
X65567996Y27835631D01*
X66911499Y29179134D01*
X67618606Y28472027D01*
X66275103Y27128524D01*
X66275103Y27128524D01*
G37*
D20*
X65695275Y29051855D03*
D11*
G36*
X65377077Y28026550D02*
X64669970Y28733657D01*
X66013473Y30077160D01*
X66720580Y29370053D01*
X65377077Y28026550D01*
X65377077Y28026550D01*
G37*
D20*
X64797249Y29949880D03*
D11*
G36*
X64479051Y28924575D02*
X63771944Y29631682D01*
X65115447Y30975185D01*
X65822554Y30268078D01*
X64479051Y28924575D01*
X64479051Y28924575D01*
G37*
D20*
X63899224Y30847906D03*
D11*
G36*
X63581026Y29822601D02*
X62873919Y30529708D01*
X64217422Y31873211D01*
X64924529Y31166104D01*
X63581026Y29822601D01*
X63581026Y29822601D01*
G37*
G04 #@! TD*
G04 #@! TO.C,D28*
G36*
X79962415Y24434446D02*
X79995177Y24429586D01*
X80027305Y24421538D01*
X80058490Y24410380D01*
X80088430Y24396219D01*
X80116839Y24379192D01*
X80143442Y24359462D01*
X80167983Y24337220D01*
X80645280Y23859923D01*
X80667522Y23835382D01*
X80687252Y23808779D01*
X80704279Y23780370D01*
X80718440Y23750430D01*
X80729598Y23719245D01*
X80737646Y23687117D01*
X80742506Y23654355D01*
X80744131Y23621274D01*
X80742506Y23588193D01*
X80737646Y23555431D01*
X80729598Y23523303D01*
X80718440Y23492118D01*
X80704279Y23462178D01*
X80687252Y23433769D01*
X80667522Y23407166D01*
X80645280Y23382625D01*
X80097273Y22834618D01*
X80072732Y22812376D01*
X80046129Y22792646D01*
X80017720Y22775619D01*
X79987780Y22761458D01*
X79956595Y22750300D01*
X79924467Y22742252D01*
X79891705Y22737392D01*
X79858624Y22735767D01*
X79825543Y22737392D01*
X79792781Y22742252D01*
X79760653Y22750300D01*
X79729468Y22761458D01*
X79699528Y22775619D01*
X79671119Y22792646D01*
X79644516Y22812376D01*
X79619975Y22834618D01*
X79142678Y23311915D01*
X79120436Y23336456D01*
X79100706Y23363059D01*
X79083679Y23391468D01*
X79069518Y23421408D01*
X79058360Y23452593D01*
X79050312Y23484721D01*
X79045452Y23517483D01*
X79043827Y23550564D01*
X79045452Y23583645D01*
X79050312Y23616407D01*
X79058360Y23648535D01*
X79069518Y23679720D01*
X79083679Y23709660D01*
X79100706Y23738069D01*
X79120436Y23764672D01*
X79142678Y23789213D01*
X79690685Y24337220D01*
X79715226Y24359462D01*
X79741829Y24379192D01*
X79770238Y24396219D01*
X79800178Y24410380D01*
X79831363Y24421538D01*
X79863491Y24429586D01*
X79896253Y24434446D01*
X79929334Y24436071D01*
X79962415Y24434446D01*
X79962415Y24434446D01*
G37*
D19*
X79893979Y23585919D03*
D11*
G36*
X78724979Y23197010D02*
X78757741Y23192150D01*
X78789869Y23184102D01*
X78821054Y23172944D01*
X78850994Y23158783D01*
X78879403Y23141756D01*
X78906006Y23122026D01*
X78930547Y23099784D01*
X79407844Y22622487D01*
X79430086Y22597946D01*
X79449816Y22571343D01*
X79466843Y22542934D01*
X79481004Y22512994D01*
X79492162Y22481809D01*
X79500210Y22449681D01*
X79505070Y22416919D01*
X79506695Y22383838D01*
X79505070Y22350757D01*
X79500210Y22317995D01*
X79492162Y22285867D01*
X79481004Y22254682D01*
X79466843Y22224742D01*
X79449816Y22196333D01*
X79430086Y22169730D01*
X79407844Y22145189D01*
X78859837Y21597182D01*
X78835296Y21574940D01*
X78808693Y21555210D01*
X78780284Y21538183D01*
X78750344Y21524022D01*
X78719159Y21512864D01*
X78687031Y21504816D01*
X78654269Y21499956D01*
X78621188Y21498331D01*
X78588107Y21499956D01*
X78555345Y21504816D01*
X78523217Y21512864D01*
X78492032Y21524022D01*
X78462092Y21538183D01*
X78433683Y21555210D01*
X78407080Y21574940D01*
X78382539Y21597182D01*
X77905242Y22074479D01*
X77883000Y22099020D01*
X77863270Y22125623D01*
X77846243Y22154032D01*
X77832082Y22183972D01*
X77820924Y22215157D01*
X77812876Y22247285D01*
X77808016Y22280047D01*
X77806391Y22313128D01*
X77808016Y22346209D01*
X77812876Y22378971D01*
X77820924Y22411099D01*
X77832082Y22442284D01*
X77846243Y22472224D01*
X77863270Y22500633D01*
X77883000Y22527236D01*
X77905242Y22551777D01*
X78453249Y23099784D01*
X78477790Y23122026D01*
X78504393Y23141756D01*
X78532802Y23158783D01*
X78562742Y23172944D01*
X78593927Y23184102D01*
X78626055Y23192150D01*
X78658817Y23197010D01*
X78691898Y23198635D01*
X78724979Y23197010D01*
X78724979Y23197010D01*
G37*
D19*
X78656543Y22348483D03*
G04 #@! TD*
D21*
G04 #@! TO.C,U1*
X68279750Y77803332D03*
D11*
G36*
X66724115Y78298307D02*
X67784775Y79358967D01*
X69835385Y77308357D01*
X68774725Y76247697D01*
X66724115Y78298307D01*
X66724115Y78298307D01*
G37*
D21*
X66865536Y76389118D03*
D11*
G36*
X65309901Y76884093D02*
X66370561Y77944753D01*
X68421171Y75894143D01*
X67360511Y74833483D01*
X65309901Y76884093D01*
X65309901Y76884093D01*
G37*
D21*
X65451323Y74974905D03*
D11*
G36*
X63895688Y75469880D02*
X64956348Y76530540D01*
X67006958Y74479930D01*
X65946298Y73419270D01*
X63895688Y75469880D01*
X63895688Y75469880D01*
G37*
D21*
X64037109Y73560691D03*
D11*
G36*
X62481474Y74055666D02*
X63542134Y75116326D01*
X65592744Y73065716D01*
X64532084Y72005056D01*
X62481474Y74055666D01*
X62481474Y74055666D01*
G37*
D21*
X62622896Y72146478D03*
D11*
G36*
X61067261Y72641453D02*
X62127921Y73702113D01*
X64178531Y71651503D01*
X63117871Y70590843D01*
X61067261Y72641453D01*
X61067261Y72641453D01*
G37*
D21*
X61208682Y70732264D03*
D11*
G36*
X59653047Y71227239D02*
X60713707Y72287899D01*
X62764317Y70237289D01*
X61703657Y69176629D01*
X59653047Y71227239D01*
X59653047Y71227239D01*
G37*
D21*
X59794469Y69318051D03*
D11*
G36*
X58238834Y69813026D02*
X59299494Y70873686D01*
X61350104Y68823076D01*
X60289444Y67762416D01*
X58238834Y69813026D01*
X58238834Y69813026D01*
G37*
D21*
X58380255Y67903837D03*
D11*
G36*
X56824620Y68398812D02*
X57885280Y69459472D01*
X59935890Y67408862D01*
X58875230Y66348202D01*
X56824620Y68398812D01*
X56824620Y68398812D01*
G37*
D21*
X69269700Y57014392D03*
D11*
G36*
X67714065Y57509367D02*
X68774725Y58570027D01*
X70825335Y56519417D01*
X69764675Y55458757D01*
X67714065Y57509367D01*
X67714065Y57509367D01*
G37*
D21*
X70683914Y58428606D03*
D11*
G36*
X69128279Y58923581D02*
X70188939Y59984241D01*
X72239549Y57933631D01*
X71178889Y56872971D01*
X69128279Y58923581D01*
X69128279Y58923581D01*
G37*
D21*
X72098127Y59842819D03*
D11*
G36*
X70542492Y60337794D02*
X71603152Y61398454D01*
X73653762Y59347844D01*
X72593102Y58287184D01*
X70542492Y60337794D01*
X70542492Y60337794D01*
G37*
D21*
X73512341Y61257033D03*
D11*
G36*
X71956706Y61752008D02*
X73017366Y62812668D01*
X75067976Y60762058D01*
X74007316Y59701398D01*
X71956706Y61752008D01*
X71956706Y61752008D01*
G37*
D21*
X74926554Y62671246D03*
D11*
G36*
X73370919Y63166221D02*
X74431579Y64226881D01*
X76482189Y62176271D01*
X75421529Y61115611D01*
X73370919Y63166221D01*
X73370919Y63166221D01*
G37*
D21*
X76340768Y64085460D03*
D11*
G36*
X74785133Y64580435D02*
X75845793Y65641095D01*
X77896403Y63590485D01*
X76835743Y62529825D01*
X74785133Y64580435D01*
X74785133Y64580435D01*
G37*
D21*
X77754981Y65499674D03*
D11*
G36*
X76199346Y65994649D02*
X77260006Y67055309D01*
X79310616Y65004699D01*
X78249956Y63944039D01*
X76199346Y65994649D01*
X76199346Y65994649D01*
G37*
D21*
X79169195Y66913887D03*
D11*
G36*
X77613560Y67408862D02*
X78674220Y68469522D01*
X80724830Y66418912D01*
X79664170Y65358252D01*
X77613560Y67408862D01*
X77613560Y67408862D01*
G37*
G04 #@! TD*
D17*
G04 #@! TO.C,J2*
X17756971Y33573802D03*
D11*
G36*
X17756971Y32336365D02*
X16519534Y33573802D01*
X17756971Y34811239D01*
X18994408Y33573802D01*
X17756971Y32336365D01*
X17756971Y32336365D01*
G37*
G04 #@! TD*
D22*
G04 #@! TO.C,R12*
X74360869Y25972405D03*
D11*
G36*
X74290158Y24699613D02*
X73088077Y25901694D01*
X74431580Y27245197D01*
X75633661Y26043116D01*
X74290158Y24699613D01*
X74290158Y24699613D01*
G37*
D22*
X76270057Y27881593D03*
D11*
G36*
X76199346Y26608801D02*
X74997265Y27810882D01*
X76340768Y29154385D01*
X77542849Y27952304D01*
X76199346Y26608801D01*
X76199346Y26608801D01*
G37*
G04 #@! TD*
D23*
G04 #@! TO.C,U4*
X24085577Y28942253D03*
D11*
G36*
X25128560Y28571022D02*
X24456808Y27899270D01*
X23042594Y29313484D01*
X23714346Y29985236D01*
X25128560Y28571022D01*
X25128560Y28571022D01*
G37*
D23*
X24651263Y29507938D03*
D11*
G36*
X25694246Y29136707D02*
X25022494Y28464955D01*
X23608280Y29879169D01*
X24280032Y30550921D01*
X25694246Y29136707D01*
X25694246Y29136707D01*
G37*
D23*
X25216948Y30073624D03*
D11*
G36*
X26259931Y29702393D02*
X25588179Y29030641D01*
X24173965Y30444855D01*
X24845717Y31116607D01*
X26259931Y29702393D01*
X26259931Y29702393D01*
G37*
D23*
X25782633Y30639309D03*
D11*
G36*
X26825616Y30268078D02*
X26153864Y29596326D01*
X24739650Y31010540D01*
X25411402Y31682292D01*
X26825616Y30268078D01*
X26825616Y30268078D01*
G37*
D23*
X26348319Y31204995D03*
D11*
G36*
X27391302Y30833764D02*
X26719550Y30162012D01*
X25305336Y31576226D01*
X25977088Y32247978D01*
X27391302Y30833764D01*
X27391302Y30833764D01*
G37*
D23*
X26914004Y31770680D03*
D11*
G36*
X27956987Y31399449D02*
X27285235Y30727697D01*
X25871021Y32141911D01*
X26542773Y32813663D01*
X27956987Y31399449D01*
X27956987Y31399449D01*
G37*
D23*
X27479690Y32336365D03*
D11*
G36*
X28522673Y31965134D02*
X27850921Y31293382D01*
X26436707Y32707596D01*
X27108459Y33379348D01*
X28522673Y31965134D01*
X28522673Y31965134D01*
G37*
D23*
X28045375Y32902051D03*
D11*
G36*
X29088358Y32530820D02*
X28416606Y31859068D01*
X27002392Y33273282D01*
X27674144Y33945034D01*
X29088358Y32530820D01*
X29088358Y32530820D01*
G37*
D23*
X30095985Y32902051D03*
D11*
G36*
X29724754Y31859068D02*
X29053002Y32530820D01*
X30467216Y33945034D01*
X31138968Y33273282D01*
X29724754Y31859068D01*
X29724754Y31859068D01*
G37*
D23*
X30661670Y32336365D03*
D11*
G36*
X30290439Y31293382D02*
X29618687Y31965134D01*
X31032901Y33379348D01*
X31704653Y32707596D01*
X30290439Y31293382D01*
X30290439Y31293382D01*
G37*
D23*
X31227356Y31770680D03*
D11*
G36*
X30856125Y30727697D02*
X30184373Y31399449D01*
X31598587Y32813663D01*
X32270339Y32141911D01*
X30856125Y30727697D01*
X30856125Y30727697D01*
G37*
D23*
X31793041Y31204995D03*
D11*
G36*
X31421810Y30162012D02*
X30750058Y30833764D01*
X32164272Y32247978D01*
X32836024Y31576226D01*
X31421810Y30162012D01*
X31421810Y30162012D01*
G37*
D23*
X32358727Y30639309D03*
D11*
G36*
X31987496Y29596326D02*
X31315744Y30268078D01*
X32729958Y31682292D01*
X33401710Y31010540D01*
X31987496Y29596326D01*
X31987496Y29596326D01*
G37*
D23*
X32924412Y30073624D03*
D11*
G36*
X32553181Y29030641D02*
X31881429Y29702393D01*
X33295643Y31116607D01*
X33967395Y30444855D01*
X32553181Y29030641D01*
X32553181Y29030641D01*
G37*
D23*
X33490097Y29507938D03*
D11*
G36*
X33118866Y28464955D02*
X32447114Y29136707D01*
X33861328Y30550921D01*
X34533080Y29879169D01*
X33118866Y28464955D01*
X33118866Y28464955D01*
G37*
D23*
X34055783Y28942253D03*
D11*
G36*
X33684552Y27899270D02*
X33012800Y28571022D01*
X34427014Y29985236D01*
X35098766Y29313484D01*
X33684552Y27899270D01*
X33684552Y27899270D01*
G37*
D23*
X34055783Y26891643D03*
D11*
G36*
X35098766Y26520412D02*
X34427014Y25848660D01*
X33012800Y27262874D01*
X33684552Y27934626D01*
X35098766Y26520412D01*
X35098766Y26520412D01*
G37*
D23*
X33490097Y26325958D03*
D11*
G36*
X34533080Y25954727D02*
X33861328Y25282975D01*
X32447114Y26697189D01*
X33118866Y27368941D01*
X34533080Y25954727D01*
X34533080Y25954727D01*
G37*
D23*
X32924412Y25760272D03*
D11*
G36*
X33967395Y25389041D02*
X33295643Y24717289D01*
X31881429Y26131503D01*
X32553181Y26803255D01*
X33967395Y25389041D01*
X33967395Y25389041D01*
G37*
D23*
X32358727Y25194587D03*
D11*
G36*
X33401710Y24823356D02*
X32729958Y24151604D01*
X31315744Y25565818D01*
X31987496Y26237570D01*
X33401710Y24823356D01*
X33401710Y24823356D01*
G37*
D23*
X31793041Y24628901D03*
D11*
G36*
X32836024Y24257670D02*
X32164272Y23585918D01*
X30750058Y25000132D01*
X31421810Y25671884D01*
X32836024Y24257670D01*
X32836024Y24257670D01*
G37*
D23*
X31227356Y24063216D03*
D11*
G36*
X32270339Y23691985D02*
X31598587Y23020233D01*
X30184373Y24434447D01*
X30856125Y25106199D01*
X32270339Y23691985D01*
X32270339Y23691985D01*
G37*
D23*
X30661670Y23497531D03*
D11*
G36*
X31704653Y23126300D02*
X31032901Y22454548D01*
X29618687Y23868762D01*
X30290439Y24540514D01*
X31704653Y23126300D01*
X31704653Y23126300D01*
G37*
D23*
X30095985Y22931845D03*
D11*
G36*
X31138968Y22560614D02*
X30467216Y21888862D01*
X29053002Y23303076D01*
X29724754Y23974828D01*
X31138968Y22560614D01*
X31138968Y22560614D01*
G37*
D23*
X28045375Y22931845D03*
D11*
G36*
X27674144Y21888862D02*
X27002392Y22560614D01*
X28416606Y23974828D01*
X29088358Y23303076D01*
X27674144Y21888862D01*
X27674144Y21888862D01*
G37*
D23*
X27479690Y23497531D03*
D11*
G36*
X27108459Y22454548D02*
X26436707Y23126300D01*
X27850921Y24540514D01*
X28522673Y23868762D01*
X27108459Y22454548D01*
X27108459Y22454548D01*
G37*
D23*
X26914004Y24063216D03*
D11*
G36*
X26542773Y23020233D02*
X25871021Y23691985D01*
X27285235Y25106199D01*
X27956987Y24434447D01*
X26542773Y23020233D01*
X26542773Y23020233D01*
G37*
D23*
X26348319Y24628901D03*
D11*
G36*
X25977088Y23585918D02*
X25305336Y24257670D01*
X26719550Y25671884D01*
X27391302Y25000132D01*
X25977088Y23585918D01*
X25977088Y23585918D01*
G37*
D23*
X25782633Y25194587D03*
D11*
G36*
X25411402Y24151604D02*
X24739650Y24823356D01*
X26153864Y26237570D01*
X26825616Y25565818D01*
X25411402Y24151604D01*
X25411402Y24151604D01*
G37*
D23*
X25216948Y25760272D03*
D11*
G36*
X24845717Y24717289D02*
X24173965Y25389041D01*
X25588179Y26803255D01*
X26259931Y26131503D01*
X24845717Y24717289D01*
X24845717Y24717289D01*
G37*
D23*
X24651263Y26325958D03*
D11*
G36*
X24280032Y25282975D02*
X23608280Y25954727D01*
X25022494Y27368941D01*
X25694246Y26697189D01*
X24280032Y25282975D01*
X24280032Y25282975D01*
G37*
D23*
X24085577Y26891643D03*
D11*
G36*
X23714346Y25848660D02*
X23042594Y26520412D01*
X24456808Y27934626D01*
X25128560Y27262874D01*
X23714346Y25848660D01*
X23714346Y25848660D01*
G37*
G04 #@! TD*
D22*
G04 #@! TO.C,R8*
X69828314Y34068777D03*
D11*
G36*
X69899025Y35341569D02*
X71101106Y34139488D01*
X69757603Y32795985D01*
X68555522Y33998066D01*
X69899025Y35341569D01*
X69899025Y35341569D01*
G37*
D22*
X67919126Y32159589D03*
D11*
G36*
X67989837Y33432381D02*
X69191918Y32230300D01*
X67848415Y30886797D01*
X66646334Y32088878D01*
X67989837Y33432381D01*
X67989837Y33432381D01*
G37*
G04 #@! TD*
D22*
G04 #@! TO.C,R7*
X70874833Y29302878D03*
D11*
G36*
X70945544Y30575670D02*
X72147625Y29373589D01*
X70804122Y28030086D01*
X69602041Y29232167D01*
X70945544Y30575670D01*
X70945544Y30575670D01*
G37*
D22*
X72784021Y31212066D03*
D11*
G36*
X72854732Y32484858D02*
X74056813Y31282777D01*
X72713310Y29939274D01*
X71511229Y31141355D01*
X72854732Y32484858D01*
X72854732Y32484858D01*
G37*
G04 #@! TD*
D24*
G04 #@! TO.C,J7*
X25344227Y75102184D03*
D11*
G36*
X26829151Y75102184D02*
X25344227Y73617260D01*
X23859303Y75102184D01*
X25344227Y76587108D01*
X26829151Y75102184D01*
X26829151Y75102184D01*
G37*
D24*
X23548176Y76898235D03*
D25*
X23548176Y76898235D02*
X23548176Y76898235D01*
D24*
X27140278Y76898235D03*
D25*
X27140278Y76898235D02*
X27140278Y76898235D01*
D24*
X25344227Y78694286D03*
D25*
X25344227Y78694286D02*
X25344227Y78694286D01*
G04 #@! TD*
D24*
G04 #@! TO.C,J8*
X58988368Y48642248D03*
D25*
X58988368Y48642248D02*
X58988368Y48642248D01*
D24*
X57192316Y46846196D03*
D25*
X57192316Y46846196D02*
X57192316Y46846196D01*
D24*
X55396265Y45050145D03*
D25*
X55396265Y45050145D02*
X55396265Y45050145D01*
D24*
X53600214Y43254094D03*
D11*
G36*
X55085138Y43254094D02*
X53600214Y41769170D01*
X52115290Y43254094D01*
X53600214Y44739018D01*
X55085138Y43254094D01*
X55085138Y43254094D01*
G37*
G04 #@! TD*
D22*
G04 #@! TO.C,R11*
X38298423Y29507938D03*
D11*
G36*
X38369134Y30780730D02*
X39571215Y29578649D01*
X38227712Y28235146D01*
X37025631Y29437227D01*
X38369134Y30780730D01*
X38369134Y30780730D01*
G37*
D22*
X40207611Y31417126D03*
D11*
G36*
X40278322Y32689918D02*
X41480403Y31487837D01*
X40136900Y30144334D01*
X38934819Y31346415D01*
X40278322Y32689918D01*
X40278322Y32689918D01*
G37*
G04 #@! TD*
D12*
G04 #@! TO.C,C36*
X55198276Y55798168D03*
D11*
G36*
X53943161Y55886556D02*
X55109888Y57053283D01*
X56453391Y55709780D01*
X55286664Y54543053D01*
X53943161Y55886556D01*
X53943161Y55886556D01*
G37*
D12*
X56966042Y54030402D03*
D11*
G36*
X55710927Y54118790D02*
X56877654Y55285517D01*
X58221157Y53942014D01*
X57054430Y52775287D01*
X55710927Y54118790D01*
X55710927Y54118790D01*
G37*
G04 #@! TD*
D24*
G04 #@! TO.C,J6*
X36827641Y42688409D03*
D11*
G36*
X36827641Y41203485D02*
X35342717Y42688409D01*
X36827641Y44173333D01*
X38312565Y42688409D01*
X36827641Y41203485D01*
X36827641Y41203485D01*
G37*
D24*
X38623692Y44484460D03*
D25*
X38623692Y44484460D02*
X38623692Y44484460D01*
D24*
X38623692Y40892358D03*
D25*
X38623692Y40892358D02*
X38623692Y40892358D01*
D24*
X40419743Y42688409D03*
D25*
X40419743Y42688409D02*
X40419743Y42688409D01*
D24*
X40419743Y39096307D03*
D25*
X40419743Y39096307D02*
X40419743Y39096307D01*
D24*
X42215795Y40892358D03*
D25*
X42215795Y40892358D02*
X42215795Y40892358D01*
G04 #@! TD*
D12*
G04 #@! TO.C,C17*
X86407304Y77177677D03*
D11*
G36*
X86155847Y75944837D02*
X85151390Y77253870D01*
X86658761Y78410517D01*
X87663218Y77101484D01*
X86155847Y75944837D01*
X86155847Y75944837D01*
G37*
D12*
X88390688Y78699581D03*
D11*
G36*
X88139231Y77466741D02*
X87134774Y78775774D01*
X88642145Y79932421D01*
X89646602Y78623388D01*
X88139231Y77466741D01*
X88139231Y77466741D01*
G37*
G04 #@! TD*
D15*
G04 #@! TO.C,D10*
X92985171Y36945100D03*
D11*
G36*
X93415441Y35846297D02*
X92063145Y36208644D01*
X92554901Y38043903D01*
X93907197Y37681556D01*
X93415441Y35846297D01*
X93415441Y35846297D01*
G37*
D15*
X96076134Y36116879D03*
D11*
G36*
X96506404Y35018076D02*
X95154108Y35380423D01*
X95645864Y37215682D01*
X96998160Y36853335D01*
X96506404Y35018076D01*
X96506404Y35018076D01*
G37*
D15*
X94253384Y41678137D03*
D11*
G36*
X94683654Y40579334D02*
X93331358Y40941681D01*
X93823114Y42776940D01*
X95175410Y42414593D01*
X94683654Y40579334D01*
X94683654Y40579334D01*
G37*
D15*
X97344347Y40849916D03*
D11*
G36*
X97774617Y39751113D02*
X96422321Y40113460D01*
X96914077Y41948719D01*
X98266373Y41586372D01*
X97774617Y39751113D01*
X97774617Y39751113D01*
G37*
G04 #@! TD*
D15*
G04 #@! TO.C,D18*
X19277250Y21588342D03*
D11*
G36*
X18110524Y21765119D02*
X19100473Y22755068D01*
X20443976Y21411565D01*
X19454027Y20421616D01*
X18110524Y21765119D01*
X18110524Y21765119D01*
G37*
D15*
X17014509Y19325601D03*
D11*
G36*
X15847783Y19502378D02*
X16837732Y20492327D01*
X18181235Y19148824D01*
X17191286Y18158875D01*
X15847783Y19502378D01*
X15847783Y19502378D01*
G37*
D15*
X22742073Y18123519D03*
D11*
G36*
X21575347Y18300296D02*
X22565296Y19290245D01*
X23908799Y17946742D01*
X22918850Y16956793D01*
X21575347Y18300296D01*
X21575347Y18300296D01*
G37*
D15*
X20479332Y15860778D03*
D11*
G36*
X19312606Y16037555D02*
X20302555Y17027504D01*
X21646058Y15684001D01*
X20656109Y14694052D01*
X19312606Y16037555D01*
X19312606Y16037555D01*
G37*
G04 #@! TD*
D15*
G04 #@! TO.C,D11*
X88058599Y26722603D03*
D11*
G36*
X88189817Y25549879D02*
X86977381Y26249879D01*
X87927381Y27895327D01*
X89139817Y27195327D01*
X88189817Y25549879D01*
X88189817Y25549879D01*
G37*
D15*
X90829881Y25122603D03*
D11*
G36*
X90961099Y23949879D02*
X89748663Y24649879D01*
X90698663Y26295327D01*
X91911099Y25595327D01*
X90961099Y23949879D01*
X90961099Y23949879D01*
G37*
D15*
X90508599Y30966127D03*
D11*
G36*
X90639817Y29793403D02*
X89427381Y30493403D01*
X90377381Y32138851D01*
X91589817Y31438851D01*
X90639817Y29793403D01*
X90639817Y29793403D01*
G37*
D15*
X93279881Y29366127D03*
D11*
G36*
X93411099Y28193403D02*
X92198663Y28893403D01*
X93148663Y30538851D01*
X94361099Y29838851D01*
X93411099Y28193403D01*
X93411099Y28193403D01*
G37*
G04 #@! TD*
D15*
G04 #@! TO.C,D17*
X27876335Y14183863D03*
D11*
G36*
X26703611Y14052645D02*
X27403611Y15265081D01*
X29049059Y14315081D01*
X28349059Y13102645D01*
X26703611Y14052645D01*
X26703611Y14052645D01*
G37*
D15*
X26276335Y11412581D03*
D11*
G36*
X25103611Y11281363D02*
X25803611Y12493799D01*
X27449059Y11543799D01*
X26749059Y10331363D01*
X25103611Y11281363D01*
X25103611Y11281363D01*
G37*
D15*
X32119859Y11733863D03*
D11*
G36*
X30947135Y11602645D02*
X31647135Y12815081D01*
X33292583Y11865081D01*
X32592583Y10652645D01*
X30947135Y11602645D01*
X30947135Y11602645D01*
G37*
D15*
X30519859Y8962581D03*
D11*
G36*
X29347135Y8831363D02*
X30047135Y10043799D01*
X31692583Y9093799D01*
X30992583Y7881363D01*
X29347135Y8831363D01*
X29347135Y8831363D01*
G37*
G04 #@! TD*
D15*
G04 #@! TO.C,D16*
X38098832Y9257291D03*
D11*
G36*
X37000029Y8827021D02*
X37362376Y10179317D01*
X39197635Y9687561D01*
X38835288Y8335265D01*
X37000029Y8827021D01*
X37000029Y8827021D01*
G37*
D15*
X37270611Y6166328D03*
D11*
G36*
X36171808Y5736058D02*
X36534155Y7088354D01*
X38369414Y6596598D01*
X38007067Y5244302D01*
X36171808Y5736058D01*
X36171808Y5736058D01*
G37*
D15*
X42831869Y7989078D03*
D11*
G36*
X41733066Y7558808D02*
X42095413Y8911104D01*
X43930672Y8419348D01*
X43568325Y7067052D01*
X41733066Y7558808D01*
X41733066Y7558808D01*
G37*
D15*
X42003648Y4898115D03*
D11*
G36*
X40904845Y4467845D02*
X41267192Y5820141D01*
X43102451Y5328385D01*
X42740104Y3976089D01*
X40904845Y4467845D01*
X40904845Y4467845D01*
G37*
G04 #@! TD*
D15*
G04 #@! TO.C,D8*
X94253384Y59410593D03*
D11*
G36*
X95175410Y58674137D02*
X93823114Y58311790D01*
X93331358Y60147049D01*
X94683654Y60509396D01*
X95175410Y58674137D01*
X95175410Y58674137D01*
G37*
D15*
X97344347Y60238814D03*
D11*
G36*
X98266373Y59502358D02*
X96914077Y59140011D01*
X96422321Y60975270D01*
X97774617Y61337617D01*
X98266373Y59502358D01*
X98266373Y59502358D01*
G37*
D15*
X92985171Y64143630D03*
D11*
G36*
X93907197Y63407174D02*
X92554901Y63044827D01*
X92063145Y64880086D01*
X93415441Y65242433D01*
X93907197Y63407174D01*
X93907197Y63407174D01*
G37*
D15*
X96076134Y64971851D03*
D11*
G36*
X96998160Y64235395D02*
X95645864Y63873048D01*
X95154108Y65708307D01*
X96506404Y66070654D01*
X96998160Y64235395D01*
X96998160Y64235395D01*
G37*
G04 #@! TD*
D14*
G04 #@! TO.C,D15*
X49248097Y7144365D03*
X49248097Y3944365D03*
X54148097Y7144365D03*
X54148097Y3944365D03*
G04 #@! TD*
D15*
G04 #@! TO.C,D12*
X80654120Y18123519D03*
D11*
G36*
X80477343Y16956793D02*
X79487394Y17946742D01*
X80830897Y19290245D01*
X81820846Y18300296D01*
X80477343Y16956793D01*
X80477343Y16956793D01*
G37*
D15*
X82916861Y15860778D03*
D11*
G36*
X82740084Y14694052D02*
X81750135Y15684001D01*
X83093638Y17027504D01*
X84083587Y16037555D01*
X82740084Y14694052D01*
X82740084Y14694052D01*
G37*
D15*
X84118943Y21588342D03*
D11*
G36*
X83942166Y20421616D02*
X82952217Y21411565D01*
X84295720Y22755068D01*
X85285669Y21765119D01*
X83942166Y20421616D01*
X83942166Y20421616D01*
G37*
D15*
X86381684Y19325601D03*
D11*
G36*
X86204907Y18158875D02*
X85214958Y19148824D01*
X86558461Y20492327D01*
X87548410Y19502378D01*
X86204907Y18158875D01*
X86204907Y18158875D01*
G37*
G04 #@! TD*
D15*
G04 #@! TO.C,D13*
X71276334Y11733863D03*
D11*
G36*
X70803610Y10652645D02*
X70103610Y11865081D01*
X71749058Y12815081D01*
X72449058Y11602645D01*
X70803610Y10652645D01*
X70803610Y10652645D01*
G37*
D15*
X72876334Y8962581D03*
D11*
G36*
X72403610Y7881363D02*
X71703610Y9093799D01*
X73349058Y10043799D01*
X74049058Y8831363D01*
X72403610Y7881363D01*
X72403610Y7881363D01*
G37*
D15*
X75519858Y14183863D03*
D11*
G36*
X75047134Y13102645D02*
X74347134Y14315081D01*
X75992582Y15265081D01*
X76692582Y14052645D01*
X75047134Y13102645D01*
X75047134Y13102645D01*
G37*
D15*
X77119858Y11412581D03*
D11*
G36*
X76647134Y10331363D02*
X75947134Y11543799D01*
X77592582Y12493799D01*
X78292582Y11281363D01*
X76647134Y10331363D01*
X76647134Y10331363D01*
G37*
G04 #@! TD*
D13*
G04 #@! TO.C,D9*
X95098096Y48094365D03*
X98298096Y48094365D03*
X95098096Y52994365D03*
X98298096Y52994365D03*
G04 #@! TD*
D15*
G04 #@! TO.C,D7*
X90508599Y70122603D03*
D11*
G36*
X91589817Y69649879D02*
X90377381Y68949879D01*
X89427381Y70595327D01*
X90639817Y71295327D01*
X91589817Y69649879D01*
X91589817Y69649879D01*
G37*
D15*
X93279881Y71722603D03*
D11*
G36*
X94361099Y71249879D02*
X93148663Y70549879D01*
X92198663Y72195327D01*
X93411099Y72895327D01*
X94361099Y71249879D01*
X94361099Y71249879D01*
G37*
D15*
X88058599Y74366127D03*
D11*
G36*
X89139817Y73893403D02*
X87927381Y73193403D01*
X86977381Y74838851D01*
X88189817Y75538851D01*
X89139817Y73893403D01*
X89139817Y73893403D01*
G37*
D15*
X90829881Y75966127D03*
D11*
G36*
X91911099Y75493403D02*
X90698663Y74793403D01*
X89748663Y76438851D01*
X90961099Y77138851D01*
X91911099Y75493403D01*
X91911099Y75493403D01*
G37*
G04 #@! TD*
D20*
G04 #@! TO.C,U5*
X75212933Y42161614D03*
D11*
G36*
X74894735Y41136309D02*
X74187628Y41843416D01*
X75531131Y43186919D01*
X76238238Y42479812D01*
X74894735Y41136309D01*
X74894735Y41136309D01*
G37*
D20*
X76110958Y41263588D03*
D11*
G36*
X75792760Y40238283D02*
X75085653Y40945390D01*
X76429156Y42288893D01*
X77136263Y41581786D01*
X75792760Y40238283D01*
X75792760Y40238283D01*
G37*
D20*
X77008984Y40365563D03*
D11*
G36*
X76690786Y39340258D02*
X75983679Y40047365D01*
X77327182Y41390868D01*
X78034289Y40683761D01*
X76690786Y39340258D01*
X76690786Y39340258D01*
G37*
D20*
X77907010Y39467537D03*
D11*
G36*
X77588812Y38442232D02*
X76881705Y39149339D01*
X78225208Y40492842D01*
X78932315Y39785735D01*
X77588812Y38442232D01*
X77588812Y38442232D01*
G37*
D20*
X78805035Y38569512D03*
D11*
G36*
X78486837Y37544207D02*
X77779730Y38251314D01*
X79123233Y39594817D01*
X79830340Y38887710D01*
X78486837Y37544207D01*
X78486837Y37544207D01*
G37*
D20*
X79703061Y37671486D03*
D11*
G36*
X79384863Y36646181D02*
X78677756Y37353288D01*
X80021259Y38696791D01*
X80728366Y37989684D01*
X79384863Y36646181D01*
X79384863Y36646181D01*
G37*
D20*
X80601086Y36773460D03*
D11*
G36*
X80282888Y35748155D02*
X79575781Y36455262D01*
X80919284Y37798765D01*
X81626391Y37091658D01*
X80282888Y35748155D01*
X80282888Y35748155D01*
G37*
D20*
X81499112Y35875435D03*
D11*
G36*
X81180914Y34850130D02*
X80473807Y35557237D01*
X81817310Y36900740D01*
X82524417Y36193633D01*
X81180914Y34850130D01*
X81180914Y34850130D01*
G37*
D20*
X77680735Y32057058D03*
D11*
G36*
X77362537Y31031753D02*
X76655430Y31738860D01*
X77998933Y33082363D01*
X78706040Y32375256D01*
X77362537Y31031753D01*
X77362537Y31031753D01*
G37*
D20*
X76782710Y32955084D03*
D11*
G36*
X76464512Y31929779D02*
X75757405Y32636886D01*
X77100908Y33980389D01*
X77808015Y33273282D01*
X76464512Y31929779D01*
X76464512Y31929779D01*
G37*
D20*
X75884684Y33853109D03*
D11*
G36*
X75566486Y32827804D02*
X74859379Y33534911D01*
X76202882Y34878414D01*
X76909989Y34171307D01*
X75566486Y32827804D01*
X75566486Y32827804D01*
G37*
D20*
X74986658Y34751135D03*
D11*
G36*
X74668460Y33725830D02*
X73961353Y34432937D01*
X75304856Y35776440D01*
X76011963Y35069333D01*
X74668460Y33725830D01*
X74668460Y33725830D01*
G37*
D20*
X74088633Y35649160D03*
D11*
G36*
X73770435Y34623855D02*
X73063328Y35330962D01*
X74406831Y36674465D01*
X75113938Y35967358D01*
X73770435Y34623855D01*
X73770435Y34623855D01*
G37*
D20*
X73190607Y36547186D03*
D11*
G36*
X72872409Y35521881D02*
X72165302Y36228988D01*
X73508805Y37572491D01*
X74215912Y36865384D01*
X72872409Y35521881D01*
X72872409Y35521881D01*
G37*
D20*
X72292582Y37445212D03*
D11*
G36*
X71974384Y36419907D02*
X71267277Y37127014D01*
X72610780Y38470517D01*
X73317887Y37763410D01*
X71974384Y36419907D01*
X71974384Y36419907D01*
G37*
D20*
X71394556Y38343237D03*
D11*
G36*
X71076358Y37317932D02*
X70369251Y38025039D01*
X71712754Y39368542D01*
X72419861Y38661435D01*
X71076358Y37317932D01*
X71076358Y37317932D01*
G37*
G04 #@! TD*
D15*
G04 #@! TO.C,D14*
X60564324Y7989078D03*
D11*
G36*
X59827868Y7067052D02*
X59465521Y8419348D01*
X61300780Y8911104D01*
X61663127Y7558808D01*
X59827868Y7067052D01*
X59827868Y7067052D01*
G37*
D15*
X61392545Y4898115D03*
D11*
G36*
X60656089Y3976089D02*
X60293742Y5328385D01*
X62129001Y5820141D01*
X62491348Y4467845D01*
X60656089Y3976089D01*
X60656089Y3976089D01*
G37*
D15*
X65297361Y9257291D03*
D11*
G36*
X64560905Y8335265D02*
X64198558Y9687561D01*
X66033817Y10179317D01*
X66396164Y8827021D01*
X64560905Y8335265D01*
X64560905Y8335265D01*
G37*
D15*
X66125582Y6166328D03*
D11*
G36*
X65389126Y5244302D02*
X65026779Y6596598D01*
X66862038Y7088354D01*
X67224385Y5736058D01*
X65389126Y5244302D01*
X65389126Y5244302D01*
G37*
G04 #@! TD*
M02*
