G04 #@! TF.GenerationSoftware,KiCad,Pcbnew,(5.0.0)*
G04 #@! TF.CreationDate,2018-09-13T19:48:45+02:00*
G04 #@! TF.ProjectId,noname.kicad_pcb_45_grader,6E6F6E616D652E6B696361645F706362,rev?*
G04 #@! TF.SameCoordinates,PX5f5e100PY8f0d180*
G04 #@! TF.FileFunction,Legend,Top*
G04 #@! TF.FilePolarity,Positive*
%FSLAX46Y46*%
G04 Gerber Fmt 4.6, Leading zero omitted, Abs format (unit mm)*
G04 Created by KiCad (PCBNEW (5.0.0)) date 09/13/18 19:48:45*
%MOMM*%
%LPD*%
G01*
G04 APERTURE LIST*
%ADD10C,0.300000*%
%ADD11C,0.120000*%
%ADD12C,0.010000*%
%ADD13C,0.150000*%
%ADD14C,0.152400*%
G04 APERTURE END LIST*
D10*
X72368599Y6956791D02*
X72623173Y7086502D01*
X72782887Y7087715D01*
X72975030Y7025284D01*
X73168384Y6803139D01*
X73395380Y6357635D01*
X73461448Y6070634D01*
X73399017Y5878492D01*
X73304158Y5749993D01*
X73049585Y5620281D01*
X72889870Y5619069D01*
X72697728Y5681499D01*
X72504373Y5903645D01*
X72277378Y6349148D01*
X72211310Y6636149D01*
X72273741Y6828292D01*
X72368599Y6956791D01*
X74283961Y7131055D02*
X73838458Y6904060D01*
X74195165Y6203983D02*
X73514179Y7540493D01*
X74150612Y7864772D01*
X75429541Y7714757D02*
X74984038Y7487762D01*
X75340745Y6787685D02*
X74659759Y8124195D01*
X75296192Y8448474D01*
X65723235Y4608570D02*
X65996465Y4692104D01*
X66153963Y4665564D01*
X66332346Y4570717D01*
X66484188Y4318370D01*
X66630374Y3840218D01*
X66645601Y3546104D01*
X66550754Y3367722D01*
X66435022Y3257647D01*
X66161792Y3174112D01*
X66004294Y3200653D01*
X65825911Y3295500D01*
X65674069Y3547846D01*
X65527883Y4025999D01*
X65512656Y4320112D01*
X65607503Y4498495D01*
X65723235Y4608570D01*
X67391327Y3550019D02*
X66952769Y4984476D01*
X68211017Y3800623D01*
X67772459Y5235080D01*
X92781909Y23128205D02*
X93117245Y23758881D01*
X93093247Y22800867D02*
X92003562Y23946548D01*
X93562719Y23683815D01*
X92372432Y24640293D02*
X92774836Y25397105D01*
X93898056Y24314492D02*
X92573634Y25018699D01*
X94333994Y25134371D02*
X93009572Y25838579D01*
X94190323Y25777047D01*
X93479044Y26721526D01*
X94803465Y26017319D01*
X94445057Y27016866D02*
X94679793Y27458340D01*
X95474139Y27278673D02*
X95138802Y26647996D01*
X93814381Y27352203D01*
X94149717Y27982880D01*
X94883459Y29210700D02*
X94753324Y29118098D01*
X94652723Y28928895D01*
X94615189Y28706159D01*
X94674257Y28512956D01*
X94766859Y28382821D01*
X94985596Y28185618D01*
X95174799Y28085017D01*
X95460603Y28013950D01*
X95620273Y28009951D01*
X95813475Y28069019D01*
X95977144Y28224688D01*
X96044211Y28350823D01*
X96081745Y28573560D01*
X96052211Y28670162D01*
X95610737Y28904897D01*
X95476602Y28652627D01*
X96068209Y29308838D02*
X96403546Y29939515D01*
X96379548Y28981500D02*
X95289863Y30127181D01*
X96849020Y29864448D01*
X97606215Y33919395D02*
X97777225Y34389241D01*
X98588845Y34321874D02*
X98344545Y33650665D01*
X96935006Y34163695D01*
X97179306Y34834904D01*
X98717164Y34883271D02*
X98857575Y35060204D01*
X98979725Y35395808D01*
X98961464Y35554480D01*
X98918773Y35646031D01*
X98808962Y35762012D01*
X98674720Y35810872D01*
X98516048Y35792611D01*
X98424497Y35749920D01*
X98308516Y35640108D01*
X98143675Y35396055D01*
X98027694Y35286243D01*
X97936143Y35243552D01*
X97777471Y35225291D01*
X97643230Y35274151D01*
X97533418Y35390132D01*
X97490727Y35481683D01*
X97472466Y35640355D01*
X97594616Y35975959D01*
X97735027Y36152892D01*
X99297315Y36268380D02*
X97887776Y36781410D01*
X98083216Y37318377D01*
X98199197Y37428189D01*
X98290748Y37470880D01*
X98449420Y37489141D01*
X98650783Y37415851D01*
X98760595Y37299870D01*
X98803285Y37208319D01*
X98821546Y37049647D01*
X98626106Y36512680D01*
D11*
G04 #@! TO.C,C16*
X79462330Y85331141D02*
X80071091Y86124494D01*
X78722390Y87159389D02*
X78113629Y86366036D01*
G04 #@! TO.C,C14*
X58349239Y94552713D02*
X58479765Y95544158D01*
X56794309Y95766053D02*
X56663783Y94774608D01*
G04 #@! TO.C,C32*
X7689749Y57195508D02*
X6698304Y57326034D01*
X6476409Y55640578D02*
X7467854Y55510052D01*
G04 #@! TO.C,C13*
X46732408Y94774608D02*
X46601882Y95766053D01*
X44916426Y95544158D02*
X45046952Y94552713D01*
G04 #@! TO.C,C35*
X25282563Y86366035D02*
X24673802Y87159388D01*
X23325101Y86124493D02*
X23933862Y85331140D01*
G04 #@! TO.C,C26*
X45046954Y6536017D02*
X44916428Y5544572D01*
X46601884Y5322677D02*
X46732410Y6314122D01*
G04 #@! TO.C,C23*
X78113630Y14722695D02*
X78722391Y13929342D01*
X80071092Y14964237D02*
X79462331Y15757590D01*
G04 #@! TO.C,C12*
X35453981Y91982284D02*
X35071298Y92906164D01*
X33500703Y92255602D02*
X33883386Y91331722D01*
G04 #@! TO.C,C34*
X16911321Y78308599D02*
X16117968Y78917360D01*
X15083073Y77568659D02*
X15876426Y76959898D01*
G04 #@! TO.C,C33*
X10910739Y68359074D02*
X9986859Y68741757D01*
X9336297Y67171162D02*
X10260177Y66788479D01*
G04 #@! TO.C,C27*
X33883387Y9757007D02*
X33500704Y8833127D01*
X35071299Y8182565D02*
X35453982Y9106445D01*
G04 #@! TO.C,C29*
X15876426Y24128832D02*
X15083073Y23520071D01*
X16117968Y22171370D02*
X16911321Y22780131D01*
G04 #@! TO.C,C24*
X67942212Y9106446D02*
X68324895Y8182566D01*
X69895490Y8833128D02*
X69512807Y9757008D01*
G04 #@! TO.C,C28*
X23933863Y15757589D02*
X23325102Y14964236D01*
X24673803Y13929341D02*
X25282564Y14722694D01*
G04 #@! TO.C,C15*
X69512806Y91331723D02*
X69895489Y92255603D01*
X68324894Y92906165D02*
X67942211Y91982285D01*
G04 #@! TO.C,C30*
X10260178Y34300250D02*
X9336298Y33917567D01*
X9986860Y32346972D02*
X10910740Y32729655D01*
G04 #@! TO.C,C25*
X56663785Y6314122D02*
X56794311Y5322677D01*
X58479767Y5544572D02*
X58349241Y6536017D01*
G04 #@! TO.C,C31*
X7467854Y45578677D02*
X6476409Y45448151D01*
X6698304Y43762695D02*
X7689749Y43893221D01*
G04 #@! TO.C,D21*
X3948097Y46894365D02*
X5098097Y46894365D01*
X3948096Y54194365D02*
X3948097Y46894365D01*
X9448097Y54194365D02*
X9448098Y46894365D01*
G04 #@! TO.C,D3*
X48048097Y98294365D02*
X48048097Y97144365D01*
X55348097Y98294366D02*
X48048097Y98294365D01*
X55348097Y92794365D02*
X48048097Y92794364D01*
G04 #@! TO.C,D25*
X56223580Y51180761D02*
X55410408Y51993934D01*
X51061702Y46018881D02*
X56223580Y51180761D01*
X47172614Y49907969D02*
X52334492Y55069849D01*
G04 #@! TO.C,D24*
X15352808Y81727774D02*
X16165980Y80914601D01*
X20514686Y86889654D02*
X15352808Y81727774D01*
X24403774Y83000566D02*
X19241896Y77838686D01*
G04 #@! TO.C,C21*
X92485454Y32729656D02*
X93409334Y32346973D01*
X94059896Y33917568D02*
X93136016Y34300251D01*
G04 #@! TO.C,D2*
X35813858Y95722634D02*
X36111500Y94611819D01*
X42865117Y97612014D02*
X35813858Y95722634D01*
X44288622Y92299420D02*
X37237363Y90410040D01*
G04 #@! TO.C,D1*
X24662104Y90072078D02*
X25237104Y89076149D01*
X30984089Y93722079D02*
X24662104Y90072078D01*
X33734090Y88958938D02*
X27412105Y85308937D01*
G04 #@! TO.C,D4*
X60531076Y97612013D02*
X60233434Y96501198D01*
X67582335Y95722634D02*
X60531076Y97612013D01*
X66158830Y90410041D02*
X59107571Y92299420D01*
G04 #@! TO.C,C20*
X95706444Y43893222D02*
X96697889Y43762696D01*
X96919784Y45448152D02*
X95928339Y45578678D01*
G04 #@! TO.C,D19*
X12170384Y23508372D02*
X13166313Y24083372D01*
X8520383Y29830357D02*
X12170384Y23508372D01*
X13283524Y32580358D02*
X16933525Y26258373D01*
G04 #@! TO.C,D22*
X4630448Y59377345D02*
X5741263Y59079703D01*
X6519827Y66428604D02*
X4630448Y59377345D01*
X11832420Y65005099D02*
X9943041Y57953840D01*
G04 #@! TO.C,C19*
X95928339Y55510053D02*
X96919784Y55640579D01*
X96697889Y57326035D02*
X95706444Y57195509D01*
G04 #@! TO.C,C22*
X86484873Y22780132D02*
X87278226Y22171371D01*
X88313121Y23520072D02*
X87519768Y24128833D01*
G04 #@! TO.C,C18*
X93136015Y66788480D02*
X94059895Y67171163D01*
X93409333Y68741758D02*
X92485453Y68359075D01*
G04 #@! TO.C,D5*
X72412104Y93722079D02*
X71837103Y92726149D01*
X78734089Y90072079D02*
X72412104Y93722079D01*
X75984088Y85308937D02*
X69662103Y88958937D01*
G04 #@! TO.C,D20*
X6519827Y34660126D02*
X7630642Y34957768D01*
X4630447Y41711385D02*
X6519827Y34660126D01*
X9943041Y43134890D02*
X11832421Y36083631D01*
G04 #@! TO.C,D6*
X82881506Y86889653D02*
X82068333Y86076481D01*
X88043386Y81727775D02*
X82881506Y86889653D01*
X84154298Y77838687D02*
X78992418Y83000565D01*
G04 #@! TO.C,D23*
X8520383Y71258373D02*
X9516313Y70683372D01*
X12170383Y77580358D02*
X8520383Y71258373D01*
X16933525Y74830357D02*
X13283525Y68508372D01*
D12*
G04 #@! TO.C,*
G36*
X46015316Y11922192D02*
X43919922Y9826799D01*
X42123871Y11622850D01*
X42423213Y11922192D01*
X43919922Y10425483D01*
X45416631Y11922192D01*
X43919922Y13418901D01*
X42423213Y11922192D01*
X42123871Y11622850D01*
X41824528Y11922192D01*
X43919922Y14017586D01*
X46015316Y11922192D01*
X46015316Y11922192D01*
G37*
X46015316Y11922192D02*
X43919922Y9826799D01*
X42123871Y11622850D01*
X42423213Y11922192D01*
X43919922Y10425483D01*
X45416631Y11922192D01*
X43919922Y13418901D01*
X42423213Y11922192D01*
X42123871Y11622850D01*
X41824528Y11922192D01*
X43919922Y14017586D01*
X46015316Y11922192D01*
G36*
X41225845Y14915612D02*
X40926504Y15214953D01*
X41225845Y15514295D01*
X41525187Y15214953D01*
X41225845Y14915612D01*
X41225845Y14915612D01*
G37*
X41225845Y14915612D02*
X40926504Y15214953D01*
X41225845Y15514295D01*
X41525187Y15214953D01*
X41225845Y14915612D01*
G36*
X40327820Y15214952D02*
X40627162Y15514295D01*
X40926504Y15214953D01*
X40627161Y14915611D01*
X40327820Y15214952D01*
X40327820Y15214952D01*
G37*
X40327820Y15214952D02*
X40627162Y15514295D01*
X40926504Y15214953D01*
X40627161Y14915611D01*
X40327820Y15214952D01*
G36*
X41225845Y22099816D02*
X41525187Y22399158D01*
X41824529Y22099816D01*
X41525188Y21800474D01*
X41225845Y22099816D01*
X41225845Y22099816D01*
G37*
X41225845Y22099816D02*
X41525187Y22399158D01*
X41824529Y22099816D01*
X41525188Y21800474D01*
X41225845Y22099816D01*
G36*
X42123871Y15813637D02*
X41824529Y16112979D01*
X42423212Y16711662D01*
X42722554Y16412320D01*
X43021896Y16711663D01*
X43321239Y16412320D01*
X43919922Y17011004D01*
X44219264Y16711662D01*
X45416632Y17909030D01*
X45715973Y18208372D01*
X46314657Y17609688D01*
X47512024Y18807055D01*
X47811366Y18507713D01*
X48410050Y19106397D01*
X47811366Y19705081D01*
X48110708Y20004423D01*
X47811366Y20303764D01*
X47512024Y20004423D01*
X46913340Y20603107D01*
X46613999Y20303765D01*
X47512024Y19405740D01*
X46613999Y18507714D01*
X46314657Y18807056D01*
X45715973Y18208372D01*
X45416632Y17909030D01*
X45117290Y18208372D01*
X43919922Y17011004D01*
X43620580Y17310346D01*
X43321238Y17011004D01*
X43021896Y17310346D01*
X43321238Y17609688D01*
X43620580Y17310346D01*
X44518605Y18208372D01*
X44817948Y18507714D01*
X45117290Y18208372D01*
X45715973Y18807055D01*
X46314657Y19405739D01*
X46613999Y19106397D01*
X46913340Y19405739D01*
X46613999Y19705080D01*
X46314657Y19405739D01*
X45715973Y18807055D01*
X45416631Y19106397D01*
X44817948Y18507714D01*
X44518605Y18208372D01*
X44219264Y18507713D01*
X44817948Y19106397D01*
X45416632Y19705081D01*
X45117290Y20004423D01*
X44518606Y19405739D01*
X44817948Y19106397D01*
X44219264Y18507713D01*
X43321238Y17609688D01*
X43021896Y17310346D01*
X42722555Y17609688D01*
X43021896Y17909029D01*
X42722554Y18208372D01*
X43021896Y18507714D01*
X43321239Y18208372D01*
X43620580Y18507713D01*
X43321238Y18807056D01*
X43919922Y19405740D01*
X44219264Y19106397D01*
X44518606Y19405739D01*
X43919922Y20004423D01*
X42722555Y18807056D01*
X42423213Y19106397D01*
X42722555Y19405739D01*
X42423212Y19705081D01*
X42722554Y20004423D01*
X43021896Y19705080D01*
X43321239Y20004423D01*
X43021896Y20303765D01*
X42722554Y20004423D01*
X42423212Y19705081D01*
X41525187Y20603107D01*
X41225845Y20303765D01*
X41525188Y20004423D01*
X41225845Y19705080D01*
X41525187Y19405739D01*
X40926504Y18807056D01*
X41225845Y18507714D01*
X40926503Y18208372D01*
X41225845Y17909029D01*
X41525188Y18208372D01*
X41824529Y17909030D01*
X41525187Y17609688D01*
X41824528Y17310346D01*
X42123871Y17609688D01*
X42423213Y17310346D01*
X41525188Y16412320D01*
X41824529Y16112979D01*
X41525187Y15813636D01*
X41225845Y16112978D01*
X40926504Y15813636D01*
X40627161Y16112979D01*
X40926503Y16412320D01*
X41225845Y16112978D01*
X41525188Y16412320D01*
X41225845Y16711663D01*
X40926503Y16412320D01*
X40627161Y16711662D01*
X40926504Y17011004D01*
X41225845Y16711663D01*
X41525187Y17011004D01*
X41225845Y17310346D01*
X41525187Y17609688D01*
X41225845Y17909029D01*
X40926504Y17609688D01*
X40627161Y17909030D01*
X40926503Y18208372D01*
X40627161Y18507713D01*
X40327820Y18208372D01*
X39429794Y19106397D01*
X39729136Y19405739D01*
X40028477Y19106397D01*
X40327820Y19405740D01*
X40627162Y19106397D01*
X40926504Y19405739D01*
X40327820Y20004423D01*
X40926504Y20603107D01*
X40627162Y20902448D01*
X40926504Y21201790D01*
X41525187Y20603107D01*
X41824528Y20902448D01*
X41225845Y21501132D01*
X41525188Y21800474D01*
X41824529Y21501132D01*
X42123871Y21800474D01*
X42722555Y21201790D01*
X42423213Y20902448D01*
X42722555Y20603107D01*
X43021896Y20902448D01*
X43919922Y20004423D01*
X44219264Y20303764D01*
X44518605Y20004423D01*
X44817948Y20303765D01*
X45117290Y20004423D01*
X45416632Y20303764D01*
X45715973Y20004423D01*
X45416632Y19705081D01*
X45715973Y19405740D01*
X46314656Y20004423D01*
X46015315Y20303764D01*
X46613999Y20902448D01*
X46913340Y20603107D01*
X47212682Y20902448D01*
X46913340Y21201790D01*
X46613999Y20902448D01*
X46015315Y20303764D01*
X45715973Y20603106D01*
X46613999Y21501132D01*
X46015315Y22099816D01*
X46314657Y22399158D01*
X48709392Y20004423D01*
X48410050Y19705080D01*
X48709392Y19405739D01*
X48410050Y19106397D01*
X48709392Y18807056D01*
X49308076Y19405740D01*
X50505444Y18208372D01*
X50206101Y17909029D01*
X50505443Y17609688D01*
X50804785Y17909030D01*
X51403469Y17310346D01*
X50206101Y16112978D01*
X49906759Y16412320D01*
X50505443Y17011004D01*
X50206101Y17310346D01*
X49607417Y16711662D01*
X49906759Y16412320D01*
X49308076Y15813637D01*
X49008734Y16112979D01*
X48709392Y15813636D01*
X49008733Y15514295D01*
X48709392Y15214953D01*
X49008734Y14915611D01*
X48410050Y14316927D01*
X48110708Y14616269D01*
X47811366Y14316928D01*
X48110708Y14017585D01*
X47512024Y13418901D01*
X47212682Y13718244D01*
X46913340Y13418902D01*
X47212683Y13119560D01*
X46913341Y12820218D01*
X46613999Y13119560D01*
X46913340Y13418902D01*
X46613999Y13718244D01*
X46913340Y14017585D01*
X47212682Y13718244D01*
X47512024Y14017586D01*
X47212683Y14316928D01*
X46913340Y14017585D01*
X46613999Y13718244D01*
X46314657Y13418902D01*
X46613999Y13119560D01*
X46314656Y12820218D01*
X46613999Y12520876D01*
X46314657Y12221534D01*
X45117289Y13418902D01*
X45416631Y13718244D01*
X46015315Y13119560D01*
X46314657Y13418902D01*
X46015316Y13718244D01*
X46314657Y14017585D01*
X46015315Y14316928D01*
X45416631Y13718244D01*
X45117289Y14017585D01*
X45416632Y14316928D01*
X45117290Y14616269D01*
X44817948Y14316927D01*
X44518605Y14616269D01*
X44219264Y14316928D01*
X43919922Y14616269D01*
X44219264Y14915611D01*
X44518605Y14616269D01*
X45117289Y15214953D01*
X46015315Y14316928D01*
X46613999Y14915612D01*
X47212683Y14316928D01*
X47811366Y14915611D01*
X48110708Y14616269D01*
X48410050Y14915612D01*
X48110708Y15214953D01*
X47811366Y14915611D01*
X47512024Y15214952D01*
X47811367Y15514295D01*
X48110708Y15214953D01*
X48410050Y15514295D01*
X48110708Y15813636D01*
X47811367Y15514295D01*
X47512024Y15214952D01*
X47212683Y14915611D01*
X46913340Y15214953D01*
X47512024Y15813637D01*
X48110708Y16412320D01*
X48410050Y16112978D01*
X48709392Y16412320D01*
X49008734Y16711662D01*
X49308076Y16412320D01*
X49607417Y16711662D01*
X49308076Y17011004D01*
X49008734Y16711662D01*
X48709392Y16412320D01*
X48410050Y16711663D01*
X48110708Y16412320D01*
X47512024Y15813637D01*
X46913341Y16412320D01*
X46314657Y15813636D01*
X46015315Y16112979D01*
X46314656Y16412320D01*
X46015315Y16711662D01*
X46314657Y17011004D01*
X46613999Y17310346D01*
X47512024Y16412320D01*
X48410050Y17310346D01*
X47811366Y17909030D01*
X48110708Y18208372D01*
X49008733Y17310346D01*
X49308076Y17609688D01*
X49607418Y17310346D01*
X49906760Y17609688D01*
X49607417Y17909030D01*
X49906759Y18208372D01*
X49607417Y18507713D01*
X49308076Y18208372D01*
X49008734Y18507713D01*
X48709392Y18208372D01*
X48410050Y18507714D01*
X48110708Y18208372D01*
X47811366Y17909030D01*
X47512024Y18208372D01*
X46613999Y17310346D01*
X46314657Y17011004D01*
X45715973Y17609688D01*
X45117289Y17011004D01*
X45416632Y16711662D01*
X44817948Y16112978D01*
X45117289Y15813636D01*
X44817948Y15514295D01*
X44518606Y15813636D01*
X44219264Y15514295D01*
X44518606Y15214953D01*
X44219264Y14915611D01*
X43919922Y14616269D01*
X43321238Y14017585D01*
X43021896Y14316927D01*
X43620580Y14915611D01*
X43321238Y15214953D01*
X43620580Y15514295D01*
X43919922Y15214952D01*
X44219264Y15514295D01*
X43919922Y15813637D01*
X43620580Y15514295D01*
X43321238Y15214953D01*
X42722554Y14616269D01*
X42423212Y14915611D01*
X42722555Y15214953D01*
X42423213Y15514295D01*
X42722555Y15813636D01*
X43021896Y15514295D01*
X43321238Y15813636D01*
X43620580Y16112979D01*
X43919922Y15813637D01*
X44518605Y16412320D01*
X44219264Y16711662D01*
X43620580Y16112979D01*
X43321238Y15813636D01*
X43021896Y16112978D01*
X42722555Y15813636D01*
X42423213Y15514295D01*
X41824529Y14915611D01*
X41525187Y15214953D01*
X42123871Y15813637D01*
X42123871Y15813637D01*
G37*
X42123871Y15813637D02*
X41824529Y16112979D01*
X42423212Y16711662D01*
X42722554Y16412320D01*
X43021896Y16711663D01*
X43321239Y16412320D01*
X43919922Y17011004D01*
X44219264Y16711662D01*
X45416632Y17909030D01*
X45715973Y18208372D01*
X46314657Y17609688D01*
X47512024Y18807055D01*
X47811366Y18507713D01*
X48410050Y19106397D01*
X47811366Y19705081D01*
X48110708Y20004423D01*
X47811366Y20303764D01*
X47512024Y20004423D01*
X46913340Y20603107D01*
X46613999Y20303765D01*
X47512024Y19405740D01*
X46613999Y18507714D01*
X46314657Y18807056D01*
X45715973Y18208372D01*
X45416632Y17909030D01*
X45117290Y18208372D01*
X43919922Y17011004D01*
X43620580Y17310346D01*
X43321238Y17011004D01*
X43021896Y17310346D01*
X43321238Y17609688D01*
X43620580Y17310346D01*
X44518605Y18208372D01*
X44817948Y18507714D01*
X45117290Y18208372D01*
X45715973Y18807055D01*
X46314657Y19405739D01*
X46613999Y19106397D01*
X46913340Y19405739D01*
X46613999Y19705080D01*
X46314657Y19405739D01*
X45715973Y18807055D01*
X45416631Y19106397D01*
X44817948Y18507714D01*
X44518605Y18208372D01*
X44219264Y18507713D01*
X44817948Y19106397D01*
X45416632Y19705081D01*
X45117290Y20004423D01*
X44518606Y19405739D01*
X44817948Y19106397D01*
X44219264Y18507713D01*
X43321238Y17609688D01*
X43021896Y17310346D01*
X42722555Y17609688D01*
X43021896Y17909029D01*
X42722554Y18208372D01*
X43021896Y18507714D01*
X43321239Y18208372D01*
X43620580Y18507713D01*
X43321238Y18807056D01*
X43919922Y19405740D01*
X44219264Y19106397D01*
X44518606Y19405739D01*
X43919922Y20004423D01*
X42722555Y18807056D01*
X42423213Y19106397D01*
X42722555Y19405739D01*
X42423212Y19705081D01*
X42722554Y20004423D01*
X43021896Y19705080D01*
X43321239Y20004423D01*
X43021896Y20303765D01*
X42722554Y20004423D01*
X42423212Y19705081D01*
X41525187Y20603107D01*
X41225845Y20303765D01*
X41525188Y20004423D01*
X41225845Y19705080D01*
X41525187Y19405739D01*
X40926504Y18807056D01*
X41225845Y18507714D01*
X40926503Y18208372D01*
X41225845Y17909029D01*
X41525188Y18208372D01*
X41824529Y17909030D01*
X41525187Y17609688D01*
X41824528Y17310346D01*
X42123871Y17609688D01*
X42423213Y17310346D01*
X41525188Y16412320D01*
X41824529Y16112979D01*
X41525187Y15813636D01*
X41225845Y16112978D01*
X40926504Y15813636D01*
X40627161Y16112979D01*
X40926503Y16412320D01*
X41225845Y16112978D01*
X41525188Y16412320D01*
X41225845Y16711663D01*
X40926503Y16412320D01*
X40627161Y16711662D01*
X40926504Y17011004D01*
X41225845Y16711663D01*
X41525187Y17011004D01*
X41225845Y17310346D01*
X41525187Y17609688D01*
X41225845Y17909029D01*
X40926504Y17609688D01*
X40627161Y17909030D01*
X40926503Y18208372D01*
X40627161Y18507713D01*
X40327820Y18208372D01*
X39429794Y19106397D01*
X39729136Y19405739D01*
X40028477Y19106397D01*
X40327820Y19405740D01*
X40627162Y19106397D01*
X40926504Y19405739D01*
X40327820Y20004423D01*
X40926504Y20603107D01*
X40627162Y20902448D01*
X40926504Y21201790D01*
X41525187Y20603107D01*
X41824528Y20902448D01*
X41225845Y21501132D01*
X41525188Y21800474D01*
X41824529Y21501132D01*
X42123871Y21800474D01*
X42722555Y21201790D01*
X42423213Y20902448D01*
X42722555Y20603107D01*
X43021896Y20902448D01*
X43919922Y20004423D01*
X44219264Y20303764D01*
X44518605Y20004423D01*
X44817948Y20303765D01*
X45117290Y20004423D01*
X45416632Y20303764D01*
X45715973Y20004423D01*
X45416632Y19705081D01*
X45715973Y19405740D01*
X46314656Y20004423D01*
X46015315Y20303764D01*
X46613999Y20902448D01*
X46913340Y20603107D01*
X47212682Y20902448D01*
X46913340Y21201790D01*
X46613999Y20902448D01*
X46015315Y20303764D01*
X45715973Y20603106D01*
X46613999Y21501132D01*
X46015315Y22099816D01*
X46314657Y22399158D01*
X48709392Y20004423D01*
X48410050Y19705080D01*
X48709392Y19405739D01*
X48410050Y19106397D01*
X48709392Y18807056D01*
X49308076Y19405740D01*
X50505444Y18208372D01*
X50206101Y17909029D01*
X50505443Y17609688D01*
X50804785Y17909030D01*
X51403469Y17310346D01*
X50206101Y16112978D01*
X49906759Y16412320D01*
X50505443Y17011004D01*
X50206101Y17310346D01*
X49607417Y16711662D01*
X49906759Y16412320D01*
X49308076Y15813637D01*
X49008734Y16112979D01*
X48709392Y15813636D01*
X49008733Y15514295D01*
X48709392Y15214953D01*
X49008734Y14915611D01*
X48410050Y14316927D01*
X48110708Y14616269D01*
X47811366Y14316928D01*
X48110708Y14017585D01*
X47512024Y13418901D01*
X47212682Y13718244D01*
X46913340Y13418902D01*
X47212683Y13119560D01*
X46913341Y12820218D01*
X46613999Y13119560D01*
X46913340Y13418902D01*
X46613999Y13718244D01*
X46913340Y14017585D01*
X47212682Y13718244D01*
X47512024Y14017586D01*
X47212683Y14316928D01*
X46913340Y14017585D01*
X46613999Y13718244D01*
X46314657Y13418902D01*
X46613999Y13119560D01*
X46314656Y12820218D01*
X46613999Y12520876D01*
X46314657Y12221534D01*
X45117289Y13418902D01*
X45416631Y13718244D01*
X46015315Y13119560D01*
X46314657Y13418902D01*
X46015316Y13718244D01*
X46314657Y14017585D01*
X46015315Y14316928D01*
X45416631Y13718244D01*
X45117289Y14017585D01*
X45416632Y14316928D01*
X45117290Y14616269D01*
X44817948Y14316927D01*
X44518605Y14616269D01*
X44219264Y14316928D01*
X43919922Y14616269D01*
X44219264Y14915611D01*
X44518605Y14616269D01*
X45117289Y15214953D01*
X46015315Y14316928D01*
X46613999Y14915612D01*
X47212683Y14316928D01*
X47811366Y14915611D01*
X48110708Y14616269D01*
X48410050Y14915612D01*
X48110708Y15214953D01*
X47811366Y14915611D01*
X47512024Y15214952D01*
X47811367Y15514295D01*
X48110708Y15214953D01*
X48410050Y15514295D01*
X48110708Y15813636D01*
X47811367Y15514295D01*
X47512024Y15214952D01*
X47212683Y14915611D01*
X46913340Y15214953D01*
X47512024Y15813637D01*
X48110708Y16412320D01*
X48410050Y16112978D01*
X48709392Y16412320D01*
X49008734Y16711662D01*
X49308076Y16412320D01*
X49607417Y16711662D01*
X49308076Y17011004D01*
X49008734Y16711662D01*
X48709392Y16412320D01*
X48410050Y16711663D01*
X48110708Y16412320D01*
X47512024Y15813637D01*
X46913341Y16412320D01*
X46314657Y15813636D01*
X46015315Y16112979D01*
X46314656Y16412320D01*
X46015315Y16711662D01*
X46314657Y17011004D01*
X46613999Y17310346D01*
X47512024Y16412320D01*
X48410050Y17310346D01*
X47811366Y17909030D01*
X48110708Y18208372D01*
X49008733Y17310346D01*
X49308076Y17609688D01*
X49607418Y17310346D01*
X49906760Y17609688D01*
X49607417Y17909030D01*
X49906759Y18208372D01*
X49607417Y18507713D01*
X49308076Y18208372D01*
X49008734Y18507713D01*
X48709392Y18208372D01*
X48410050Y18507714D01*
X48110708Y18208372D01*
X47811366Y17909030D01*
X47512024Y18208372D01*
X46613999Y17310346D01*
X46314657Y17011004D01*
X45715973Y17609688D01*
X45117289Y17011004D01*
X45416632Y16711662D01*
X44817948Y16112978D01*
X45117289Y15813636D01*
X44817948Y15514295D01*
X44518606Y15813636D01*
X44219264Y15514295D01*
X44518606Y15214953D01*
X44219264Y14915611D01*
X43919922Y14616269D01*
X43321238Y14017585D01*
X43021896Y14316927D01*
X43620580Y14915611D01*
X43321238Y15214953D01*
X43620580Y15514295D01*
X43919922Y15214952D01*
X44219264Y15514295D01*
X43919922Y15813637D01*
X43620580Y15514295D01*
X43321238Y15214953D01*
X42722554Y14616269D01*
X42423212Y14915611D01*
X42722555Y15214953D01*
X42423213Y15514295D01*
X42722555Y15813636D01*
X43021896Y15514295D01*
X43321238Y15813636D01*
X43620580Y16112979D01*
X43919922Y15813637D01*
X44518605Y16412320D01*
X44219264Y16711662D01*
X43620580Y16112979D01*
X43321238Y15813636D01*
X43021896Y16112978D01*
X42722555Y15813636D01*
X42423213Y15514295D01*
X41824529Y14915611D01*
X41525187Y15214953D01*
X42123871Y15813637D01*
G36*
X39429794Y14915612D02*
X39130452Y14616269D01*
X38831110Y14915611D01*
X40028478Y16112979D01*
X40327820Y15813637D01*
X39729136Y15214953D01*
X40028478Y14915611D01*
X39729136Y14616269D01*
X39429794Y14915612D01*
X39429794Y14915612D01*
G37*
X39429794Y14915612D02*
X39130452Y14616269D01*
X38831110Y14915611D01*
X40028478Y16112979D01*
X40327820Y15813637D01*
X39729136Y15214953D01*
X40028478Y14915611D01*
X39729136Y14616269D01*
X39429794Y14915612D01*
G36*
X39729136Y14017585D02*
X39429794Y14316927D01*
X39729136Y14616269D01*
X40028478Y14316928D01*
X39729136Y14017585D01*
X39729136Y14017585D01*
G37*
X39729136Y14017585D02*
X39429794Y14316927D01*
X39729136Y14616269D01*
X40028478Y14316928D01*
X39729136Y14017585D01*
G36*
X40926503Y14616269D02*
X40327820Y14017586D01*
X40028478Y14316928D01*
X40627161Y14915611D01*
X40926503Y14616269D01*
X40926503Y14616269D01*
G37*
X40926503Y14616269D02*
X40327820Y14017586D01*
X40028478Y14316928D01*
X40627161Y14915611D01*
X40926503Y14616269D01*
G36*
X41525188Y12820218D02*
X41225845Y12520876D01*
X40926503Y12820218D01*
X41225845Y13119560D01*
X41525188Y12820218D01*
X41525188Y12820218D01*
G37*
X41525188Y12820218D02*
X41225845Y12520876D01*
X40926503Y12820218D01*
X41225845Y13119560D01*
X41525188Y12820218D01*
G36*
X42423212Y13119560D02*
X42123871Y12820218D01*
X41824529Y13119560D01*
X42123871Y13418901D01*
X42423212Y13119560D01*
X42423212Y13119560D01*
G37*
X42423212Y13119560D02*
X42123871Y12820218D01*
X41824529Y13119560D01*
X42123871Y13418901D01*
X42423212Y13119560D01*
G36*
X41824528Y13718244D02*
X41225845Y13119560D01*
X40926504Y13418902D01*
X41225845Y13718244D01*
X40926504Y14017585D01*
X41225845Y14316927D01*
X41525187Y14017585D01*
X42123871Y14616269D01*
X42423212Y14316928D01*
X42123871Y14017586D01*
X42423213Y13718244D01*
X42123871Y13418901D01*
X41824528Y13718244D01*
X41824528Y13718244D01*
G37*
X41824528Y13718244D02*
X41225845Y13119560D01*
X40926504Y13418902D01*
X41225845Y13718244D01*
X40926504Y14017585D01*
X41225845Y14316927D01*
X41525187Y14017585D01*
X42123871Y14616269D01*
X42423212Y14316928D01*
X42123871Y14017586D01*
X42423213Y13718244D01*
X42123871Y13418901D01*
X41824528Y13718244D01*
G36*
X46015315Y21501132D02*
X45117289Y20603107D01*
X44817948Y20902448D01*
X45715973Y21800474D01*
X46015315Y21501132D01*
X46015315Y21501132D01*
G37*
X46015315Y21501132D02*
X45117289Y20603107D01*
X44817948Y20902448D01*
X45715973Y21800474D01*
X46015315Y21501132D01*
G36*
X40627162Y17310346D02*
X38531768Y15214952D01*
X36735717Y17011004D01*
X37035059Y17310346D01*
X38531768Y15813637D01*
X40028477Y17310346D01*
X38531768Y18807055D01*
X37035059Y17310346D01*
X36735717Y17011004D01*
X36436375Y17310346D01*
X38531768Y19405740D01*
X40627162Y17310346D01*
X40627162Y17310346D01*
G37*
X40627162Y17310346D02*
X38531768Y15214952D01*
X36735717Y17011004D01*
X37035059Y17310346D01*
X38531768Y15813637D01*
X40028477Y17310346D01*
X38531768Y18807055D01*
X37035059Y17310346D01*
X36735717Y17011004D01*
X36436375Y17310346D01*
X38531768Y19405740D01*
X40627162Y17310346D01*
G36*
X46015316Y22698500D02*
X43919922Y20603106D01*
X42123871Y22399157D01*
X42423213Y22698500D01*
X43919922Y21201791D01*
X45416631Y22698500D01*
X43919922Y24195209D01*
X42423213Y22698500D01*
X42123871Y22399157D01*
X41824528Y22698500D01*
X43919922Y24793893D01*
X46015316Y22698500D01*
X46015316Y22698500D01*
G37*
X46015316Y22698500D02*
X43919922Y20603106D01*
X42123871Y22399157D01*
X42423213Y22698500D01*
X43919922Y21201791D01*
X45416631Y22698500D01*
X43919922Y24195209D01*
X42423213Y22698500D01*
X42123871Y22399157D01*
X41824528Y22698500D01*
X43919922Y24793893D01*
X46015316Y22698500D01*
G36*
X39729136Y20004423D02*
X39130452Y19405739D01*
X38831110Y19705081D01*
X39429794Y20303765D01*
X39729136Y20004423D01*
X39729136Y20004423D01*
G37*
X39729136Y20004423D02*
X39130452Y19405739D01*
X38831110Y19705081D01*
X39429794Y20303765D01*
X39729136Y20004423D01*
G36*
X44817948Y11922192D02*
X43919922Y11024167D01*
X43021896Y11922192D01*
X43919922Y12820218D01*
X44817948Y11922192D01*
X44817948Y11922192D01*
G37*
X44817948Y11922192D02*
X43919922Y11024167D01*
X43021896Y11922192D01*
X43919922Y12820218D01*
X44817948Y11922192D01*
G36*
X46913340Y15214953D02*
X46613999Y14915612D01*
X46314657Y15214953D01*
X46613999Y15514295D01*
X46913340Y15214953D01*
X46913340Y15214953D01*
G37*
X46913340Y15214953D02*
X46613999Y14915612D01*
X46314657Y15214953D01*
X46613999Y15514295D01*
X46913340Y15214953D01*
G36*
X46015315Y16112979D02*
X45715973Y15813637D01*
X45416632Y16112979D01*
X45715973Y16412320D01*
X46015315Y16112979D01*
X46015315Y16112979D01*
G37*
X46015315Y16112979D02*
X45715973Y15813637D01*
X45416632Y16112979D01*
X45715973Y16412320D01*
X46015315Y16112979D01*
G36*
X45416632Y16711662D02*
X45715973Y17011004D01*
X46015315Y16711662D01*
X45715973Y16412320D01*
X45416632Y16711662D01*
X45416632Y16711662D01*
G37*
X45416632Y16711662D02*
X45715973Y17011004D01*
X46015315Y16711662D01*
X45715973Y16412320D01*
X45416632Y16711662D01*
G36*
X41824528Y19106397D02*
X42123871Y19405740D01*
X42423213Y19106397D01*
X42123871Y18807055D01*
X41824528Y19106397D01*
X41824528Y19106397D01*
G37*
X41824528Y19106397D02*
X42123871Y19405740D01*
X42423213Y19106397D01*
X42123871Y18807055D01*
X41824528Y19106397D01*
G36*
X41525188Y18208372D02*
X41225845Y18507714D01*
X41525187Y18807056D01*
X41824529Y18507713D01*
X41525188Y18208372D01*
X41525188Y18208372D01*
G37*
X41525188Y18208372D02*
X41225845Y18507714D01*
X41525187Y18807056D01*
X41824529Y18507713D01*
X41525188Y18208372D01*
G36*
X42423212Y18507713D02*
X42123871Y18208372D01*
X41824529Y18507713D01*
X42123871Y18807055D01*
X42423212Y18507713D01*
X42423212Y18507713D01*
G37*
X42423212Y18507713D02*
X42123871Y18208372D01*
X41824529Y18507713D01*
X42123871Y18807055D01*
X42423212Y18507713D01*
G36*
X49607417Y17909030D02*
X49308076Y17609688D01*
X49008734Y17909030D01*
X49308076Y18208372D01*
X49607417Y17909030D01*
X49607417Y17909030D01*
G37*
X49607417Y17909030D02*
X49308076Y17609688D01*
X49008734Y17909030D01*
X49308076Y18208372D01*
X49607417Y17909030D01*
G36*
X47811367Y17310346D02*
X47512024Y17011004D01*
X47212682Y17310346D01*
X47512024Y17609688D01*
X47811367Y17310346D01*
X47811367Y17310346D01*
G37*
X47811367Y17310346D02*
X47512024Y17011004D01*
X47212682Y17310346D01*
X47512024Y17609688D01*
X47811367Y17310346D01*
G36*
X39429794Y17310346D02*
X38531768Y16412320D01*
X37633743Y17310346D01*
X38531768Y18208372D01*
X39429794Y17310346D01*
X39429794Y17310346D01*
G37*
X39429794Y17310346D02*
X38531768Y16412320D01*
X37633743Y17310346D01*
X38531768Y18208372D01*
X39429794Y17310346D01*
G36*
X44817948Y22698500D02*
X43919922Y21800474D01*
X43021896Y22698500D01*
X43919922Y23596525D01*
X44817948Y22698500D01*
X44817948Y22698500D01*
G37*
X44817948Y22698500D02*
X43919922Y21800474D01*
X43021896Y22698500D01*
X43919922Y23596525D01*
X44817948Y22698500D01*
D11*
G04 #@! TO.C,J14*
X91296076Y44802658D02*
X92795142Y46301724D01*
X91253650Y44845084D02*
X91296076Y44802658D01*
X92752716Y46344150D02*
X92795142Y46301724D01*
X91253650Y44845084D02*
X92752716Y46344150D01*
X90546543Y45552191D02*
X89797010Y46301724D01*
X89797010Y46301724D02*
X90546543Y47051257D01*
G04 #@! TO.C,J13*
X54441671Y10946385D02*
X55191204Y11695918D01*
X55191204Y10196852D02*
X54441671Y10946385D01*
X55898311Y9489745D02*
X57397377Y10988811D01*
X57397377Y10988811D02*
X57439803Y10946385D01*
X55898311Y9489745D02*
X55940737Y9447319D01*
X55940737Y9447319D02*
X57439803Y10946385D01*
G04 #@! TO.C,J16*
X69375766Y49752406D02*
X68626233Y50501939D01*
X70125299Y50501939D02*
X69375766Y49752406D01*
X70832406Y51209046D02*
X69333340Y52708112D01*
X69333340Y52708112D02*
X84932115Y68306888D01*
X70832406Y51209046D02*
X86431182Y66807821D01*
X86431182Y66807821D02*
X84932115Y68306888D01*
G04 #@! TO.C,J15*
X34020427Y17225494D02*
X33270894Y17975027D01*
X34769960Y17975027D02*
X34020427Y17225494D01*
X35477067Y18682134D02*
X33978001Y20181200D01*
X33978001Y20181200D02*
X60890485Y47093684D01*
X35477067Y18682134D02*
X62389551Y45594618D01*
X62389551Y45594618D02*
X60890485Y47093684D01*
G04 #@! TO.C,D27*
X37255440Y30112514D02*
X38994923Y31851997D01*
X36215993Y31151961D02*
X37255440Y30112514D01*
X37955476Y32891444D02*
X36215993Y31151961D01*
D13*
G04 #@! TO.C,U3*
X60077312Y27916948D02*
X60094989Y27899271D01*
X63011805Y30851441D02*
X63086051Y30777195D01*
X70188938Y23674308D02*
X70114692Y23748554D01*
X67254445Y20739815D02*
X67180199Y20814061D01*
X60077312Y27916948D02*
X63011805Y30851441D01*
X67254445Y20739815D02*
X70188938Y23674308D01*
X60094989Y27899271D02*
X59122717Y26926999D01*
D11*
G04 #@! TO.C,D28*
X79229299Y21881792D02*
X80968782Y23621275D01*
X80968782Y23621275D02*
X79929335Y24660722D01*
X79929335Y24660722D02*
X78189852Y22921239D01*
D14*
G04 #@! TO.C,U1*
X57549405Y67519878D02*
X57010589Y66981062D01*
X57010589Y66981062D02*
X68325712Y55665940D01*
X68325712Y55665940D02*
X68864528Y56204755D01*
D11*
G04 #@! TO.C,R12*
X76361981Y26729009D02*
X75513453Y25880481D01*
X74268945Y27124989D02*
X75117473Y27973517D01*
D13*
G04 #@! TO.C,U4*
X24103255Y27757849D02*
X23095628Y26750222D01*
X29070680Y33043472D02*
X28840870Y32813662D01*
X34197204Y27916948D02*
X33967394Y27687138D01*
X29070680Y22790424D02*
X29300490Y23020234D01*
X23944156Y27916948D02*
X24173966Y28146758D01*
X29070680Y22790424D02*
X28840870Y23020234D01*
X34197204Y27916948D02*
X33967394Y28146758D01*
X29070680Y33043472D02*
X29300490Y32813662D01*
X23944156Y27916948D02*
X24103255Y27757849D01*
D11*
G04 #@! TO.C,R8*
X67827202Y33312173D02*
X68675730Y34160701D01*
X69920238Y32916193D02*
X69071710Y32067665D01*
G04 #@! TO.C,R7*
X72875945Y30059482D02*
X72027417Y29210954D01*
X70782909Y30455462D02*
X71631437Y31303990D01*
G04 #@! TO.C,J7*
X29021182Y76898235D02*
X25344227Y80575190D01*
X27182705Y75059758D02*
X29021182Y76898235D01*
X21667272Y76898235D02*
X25344227Y80575190D01*
X27182705Y75059758D02*
X25344227Y76898235D01*
X25344227Y76898235D02*
X23505749Y75059758D01*
X23505749Y75059758D02*
X21667272Y76898235D01*
X26284679Y74161732D02*
X25344227Y73221280D01*
X25344227Y73221280D02*
X24403775Y74161732D01*
G04 #@! TO.C,J8*
X53600214Y41373190D02*
X52659762Y42313642D01*
X54540666Y42313642D02*
X53600214Y41373190D01*
X55438692Y43211668D02*
X53557788Y45092572D01*
X53557788Y45092572D02*
X58988368Y50523152D01*
X55438692Y43211668D02*
X60869272Y48642248D01*
X60869272Y48642248D02*
X58988368Y50523152D01*
G04 #@! TO.C,R11*
X40299535Y30264542D02*
X39451007Y29416014D01*
X38206499Y30660522D02*
X39055027Y31509050D01*
G04 #@! TO.C,C36*
X57036753Y55161772D02*
X56329646Y55868879D01*
X55127565Y54666798D02*
X55834672Y53959691D01*
G04 #@! TO.C,J6*
X40419743Y37215403D02*
X44096699Y40892358D01*
X36785215Y40849931D02*
X40419743Y37215403D01*
X38623692Y46365364D02*
X44096699Y40892358D01*
X36785215Y40849931D02*
X38623692Y42688409D01*
X38623692Y42688409D02*
X36785215Y44526887D01*
X36785215Y44526887D02*
X38623692Y46365364D01*
X35887189Y41747957D02*
X34946737Y42688409D01*
X34946737Y42688409D02*
X35887189Y43628861D01*
G04 #@! TO.C,C17*
X87278225Y78917360D02*
X86484872Y78308599D01*
X87519767Y76959898D02*
X88313120Y77568659D01*
G04 #@! TO.C,D10*
X98765745Y41711385D02*
X97654930Y42009027D01*
X96876366Y34660126D02*
X98765745Y41711385D01*
X91563773Y36083631D02*
X93453152Y43134890D01*
G04 #@! TO.C,D18*
X20514687Y14199077D02*
X21327860Y15012249D01*
X15352807Y19360955D02*
X20514687Y14199077D01*
X19241895Y23250043D02*
X24403775Y18088165D01*
G04 #@! TO.C,D11*
X94875811Y29830357D02*
X93879881Y30405358D01*
X91225811Y23508372D02*
X94875811Y29830357D01*
X86462669Y26258373D02*
X90112669Y32580358D01*
G04 #@! TO.C,D17*
X30984089Y7366651D02*
X31559090Y8362581D01*
X24662104Y11016651D02*
X30984089Y7366651D01*
X27412105Y15779793D02*
X33734090Y12129793D01*
G04 #@! TO.C,D16*
X42865117Y3476717D02*
X43162759Y4587532D01*
X35813858Y5366096D02*
X42865117Y3476717D01*
X37237363Y10678689D02*
X44288622Y8789310D01*
G04 #@! TO.C,D8*
X96876366Y66428604D02*
X95765551Y66130962D01*
X98765746Y59377345D02*
X96876366Y66428604D01*
X93453152Y57953840D02*
X91563772Y65005099D01*
G04 #@! TO.C,D15*
X55348097Y2794365D02*
X55348097Y3944365D01*
X48048097Y2794364D02*
X55348097Y2794365D01*
X48048097Y8294365D02*
X55348097Y8294366D01*
G04 #@! TO.C,D12*
X88043385Y19360956D02*
X87230213Y20174129D01*
X82881507Y14199076D02*
X88043385Y19360956D01*
X78992419Y18088164D02*
X84154297Y23250044D01*
G04 #@! TO.C,D13*
X78734089Y11016652D02*
X78159089Y12012581D01*
X72412104Y7366651D02*
X78734089Y11016652D01*
X69662103Y12129792D02*
X75984088Y15779793D01*
G04 #@! TO.C,D9*
X99448096Y54194365D02*
X98298096Y54194365D01*
X99448097Y46894365D02*
X99448096Y54194365D01*
X93948096Y46894365D02*
X93948095Y54194365D01*
G04 #@! TO.C,D7*
X91225810Y77580358D02*
X90229881Y77005358D01*
X94875811Y71258373D02*
X91225810Y77580358D01*
X90112670Y68508372D02*
X86462669Y74830357D01*
D13*
G04 #@! TO.C,U5*
X71408698Y39212979D02*
X70436426Y38240707D01*
X78568154Y32053523D02*
X81502647Y34988016D01*
X71391021Y39230656D02*
X74325514Y42165149D01*
X78568154Y32053523D02*
X78493908Y32127769D01*
X81502647Y34988016D02*
X81428401Y35062262D01*
X74325514Y42165149D02*
X74399760Y42090903D01*
X71391021Y39230656D02*
X71408698Y39212979D01*
D11*
G04 #@! TO.C,D14*
X67582335Y5366096D02*
X67284693Y6476911D01*
X60531076Y3476716D02*
X67582335Y5366096D01*
X59107571Y8789310D02*
X66158830Y10678690D01*
G04 #@! TO.C,C16*
D13*
X80365098Y89027057D02*
X80298330Y89018267D01*
X80156006Y89067454D01*
X80080448Y89125431D01*
X79996101Y89250176D01*
X79978520Y89383710D01*
X79998719Y89488257D01*
X80076895Y89668360D01*
X80163861Y89781696D01*
X80317594Y89903823D01*
X80413350Y89950391D01*
X80546885Y89967972D01*
X80689210Y89918784D01*
X80764767Y89860807D01*
X80849115Y89736062D01*
X80857905Y89669295D01*
X81062695Y88371726D02*
X80609350Y88719590D01*
X80836023Y88545658D02*
X81444784Y89339012D01*
X81282261Y89283653D01*
X81148726Y89266072D01*
X81044180Y89286271D01*
X82351474Y88643284D02*
X82200359Y88759239D01*
X82095813Y88779437D01*
X82029045Y88770647D01*
X81866522Y88715288D01*
X81712789Y88593162D01*
X81480880Y88290932D01*
X81460681Y88186386D01*
X81469471Y88119619D01*
X81516040Y88023863D01*
X81667155Y87907908D01*
X81771701Y87887710D01*
X81838468Y87896500D01*
X81934224Y87943069D01*
X82079168Y88131962D01*
X82099366Y88236508D01*
X82090576Y88303276D01*
X82044007Y88399032D01*
X81892892Y88514986D01*
X81788346Y88535185D01*
X81721579Y88526395D01*
X81625823Y88479826D01*
G04 #@! TO.C,C14*
X57024530Y97933186D02*
X56971102Y97892190D01*
X56823252Y97863625D01*
X56728829Y97876056D01*
X56593409Y97941914D01*
X56511417Y98048768D01*
X56476636Y98149407D01*
X56454287Y98344469D01*
X56472933Y98486104D01*
X56545007Y98668735D01*
X56604650Y98756943D01*
X56711504Y98838935D01*
X56859355Y98867500D01*
X56953778Y98855069D01*
X57089198Y98789211D01*
X57130194Y98735784D01*
X57956332Y97714452D02*
X57389792Y97789038D01*
X57673062Y97751745D02*
X57803588Y98743190D01*
X57690518Y98613986D01*
X57583664Y98531994D01*
X57483025Y98497213D01*
X58893159Y98263535D02*
X58806142Y97602572D01*
X58706825Y98672306D02*
X58377534Y97995209D01*
X58991285Y97914407D01*
G04 #@! TO.C,C32*
X3743591Y56196069D02*
X3784587Y56142641D01*
X3813152Y55994791D01*
X3800721Y55900368D01*
X3734863Y55764948D01*
X3628009Y55682956D01*
X3527370Y55648175D01*
X3332308Y55625826D01*
X3190673Y55644472D01*
X3008042Y55716546D01*
X2919834Y55776189D01*
X2837842Y55883043D01*
X2809277Y56030894D01*
X2821708Y56125317D01*
X2887566Y56260737D01*
X2940993Y56301733D01*
X2890078Y56644645D02*
X2970880Y57258397D01*
X3305065Y56878191D01*
X3323712Y57019826D01*
X3383354Y57108034D01*
X3436781Y57149030D01*
X3537420Y57183811D01*
X3773479Y57152733D01*
X3861686Y57093090D01*
X3902683Y57039663D01*
X3937463Y56939024D01*
X3900170Y56655754D01*
X3840527Y56567546D01*
X3787100Y56526550D01*
X3115028Y57623659D02*
X3074032Y57677086D01*
X3039251Y57777725D01*
X3070329Y58013783D01*
X3129972Y58101991D01*
X3183399Y58142987D01*
X3284038Y58177768D01*
X3378461Y58165337D01*
X3513880Y58099479D01*
X4005834Y57458352D01*
X4086636Y58072104D01*
G04 #@! TO.C,C13*
X44693897Y97744152D02*
X44652900Y97690725D01*
X44517481Y97624867D01*
X44423058Y97612436D01*
X44275207Y97641001D01*
X44168353Y97722993D01*
X44108710Y97811201D01*
X44036636Y97993832D01*
X44017990Y98135467D01*
X44040339Y98330529D01*
X44075120Y98431168D01*
X44157112Y98538022D01*
X44292531Y98603881D01*
X44386955Y98616312D01*
X44534805Y98587747D01*
X44588233Y98546751D01*
X45650561Y97774040D02*
X45084021Y97699453D01*
X45367291Y97736746D02*
X45236765Y98728191D01*
X45160988Y98574125D01*
X45078996Y98467271D01*
X44990788Y98407628D01*
X45850516Y98808993D02*
X46464268Y98889795D01*
X46183511Y98468593D01*
X46325145Y98487240D01*
X46425784Y98452459D01*
X46479212Y98411463D01*
X46538854Y98323255D01*
X46569932Y98087197D01*
X46535151Y97986558D01*
X46494155Y97933131D01*
X46405947Y97873488D01*
X46122677Y97836195D01*
X46022039Y97870976D01*
X45968611Y97911972D01*
G04 #@! TO.C,C35*
X22102992Y88124155D02*
X22094202Y88057388D01*
X22009855Y87932643D01*
X21934297Y87874666D01*
X21791972Y87825479D01*
X21658438Y87843059D01*
X21562682Y87889628D01*
X21408948Y88011754D01*
X21321983Y88125090D01*
X21243807Y88305194D01*
X21223608Y88409740D01*
X21241188Y88543275D01*
X21325536Y88668019D01*
X21401093Y88725997D01*
X21543418Y88775184D01*
X21610186Y88766394D01*
X21816659Y89044872D02*
X22307783Y89421724D01*
X22275241Y88916574D01*
X22388577Y89003540D01*
X22493123Y89023738D01*
X22559891Y89014948D01*
X22655647Y88968379D01*
X22800590Y88779486D01*
X22820788Y88674940D01*
X22811998Y88608172D01*
X22765429Y88512416D01*
X22538757Y88338484D01*
X22434211Y88318286D01*
X22367444Y88327076D01*
X23025579Y89972508D02*
X22647791Y89682622D01*
X22899899Y89275846D01*
X22908689Y89342613D01*
X22955258Y89438369D01*
X23144152Y89583312D01*
X23248698Y89603511D01*
X23315465Y89594721D01*
X23411221Y89548152D01*
X23556164Y89359258D01*
X23576363Y89254712D01*
X23567573Y89187945D01*
X23521004Y89092189D01*
X23332110Y88947246D01*
X23227564Y88927047D01*
X23160797Y88935837D01*
G04 #@! TO.C,C26*
X44586523Y2014150D02*
X44533095Y1973154D01*
X44385245Y1944589D01*
X44290822Y1957020D01*
X44155402Y2022878D01*
X44073410Y2129732D01*
X44038629Y2230371D01*
X44016280Y2425433D01*
X44034926Y2567068D01*
X44107000Y2749699D01*
X44166643Y2837907D01*
X44273497Y2919899D01*
X44421348Y2948464D01*
X44515771Y2936033D01*
X44651191Y2870175D01*
X44692187Y2816748D01*
X45069880Y2767024D02*
X45123307Y2808020D01*
X45223946Y2842800D01*
X45460004Y2811723D01*
X45548212Y2752080D01*
X45589208Y2698653D01*
X45623989Y2598014D01*
X45611558Y2503591D01*
X45545699Y2368171D01*
X44904573Y1876218D01*
X45518325Y1795416D01*
X46498661Y2674981D02*
X46309814Y2699843D01*
X46209175Y2665063D01*
X46155748Y2624066D01*
X46042678Y2494863D01*
X45970604Y2312231D01*
X45920880Y1934538D01*
X45955661Y1833899D01*
X45996657Y1780472D01*
X46084865Y1720829D01*
X46273711Y1695967D01*
X46374350Y1730748D01*
X46427777Y1771744D01*
X46487420Y1859952D01*
X46518498Y2096010D01*
X46483717Y2196649D01*
X46442721Y2250076D01*
X46354513Y2309719D01*
X46165667Y2334581D01*
X46065028Y2299800D01*
X46011601Y2258804D01*
X45951958Y2170596D01*
G04 #@! TO.C,C23*
X80913064Y11155582D02*
X80904274Y11088815D01*
X80819927Y10964070D01*
X80744369Y10906093D01*
X80602044Y10856906D01*
X80468510Y10874486D01*
X80372754Y10921055D01*
X80219020Y11043181D01*
X80132055Y11156517D01*
X80053879Y11336621D01*
X80033680Y11441167D01*
X80051260Y11574702D01*
X80135608Y11699446D01*
X80211165Y11757424D01*
X80353490Y11806611D01*
X80420258Y11797821D01*
X80722487Y12029730D02*
X80731277Y12096497D01*
X80777846Y12192253D01*
X80966740Y12337196D01*
X81071286Y12357395D01*
X81138053Y12348605D01*
X81233809Y12302036D01*
X81291787Y12226479D01*
X81340974Y12084154D01*
X81235493Y11282945D01*
X81726616Y11659798D01*
X81382306Y12656072D02*
X81873430Y13032924D01*
X81840888Y12527774D01*
X81954224Y12614739D01*
X82058770Y12634938D01*
X82125537Y12626148D01*
X82221293Y12579579D01*
X82366236Y12390685D01*
X82386435Y12286139D01*
X82377645Y12219372D01*
X82331076Y12123616D01*
X82104404Y11949684D01*
X81999858Y11929486D01*
X81933090Y11938276D01*
G04 #@! TO.C,C12*
X32544943Y94615120D02*
X32519171Y94552902D01*
X32405412Y94454239D01*
X32317423Y94417793D01*
X32167217Y94407118D01*
X32042783Y94458661D01*
X31962342Y94528426D01*
X31845456Y94686180D01*
X31790787Y94818163D01*
X31761889Y95012363D01*
X31769437Y95118575D01*
X31820980Y95243009D01*
X31934740Y95341673D01*
X32022728Y95378119D01*
X32172934Y95388793D01*
X32235151Y95363022D01*
X33461274Y94891592D02*
X32933343Y94672915D01*
X33197308Y94782254D02*
X32814625Y95706133D01*
X32781305Y95537704D01*
X32729763Y95413270D01*
X32659997Y95332829D01*
X33466991Y95873267D02*
X33492762Y95935484D01*
X33562527Y96015924D01*
X33782499Y96107039D01*
X33888710Y96099491D01*
X33950928Y96073720D01*
X34031368Y96003955D01*
X34067814Y95915966D01*
X34078489Y95765760D01*
X33769234Y95019153D01*
X34341159Y95256052D01*
G04 #@! TO.C,C34*
X12946705Y79282078D02*
X12955495Y79215310D01*
X12906308Y79072986D01*
X12848331Y78997428D01*
X12723586Y78913081D01*
X12590052Y78895500D01*
X12485505Y78915699D01*
X12305402Y78993875D01*
X12192066Y79080841D01*
X12069939Y79234574D01*
X12023371Y79330330D01*
X12005790Y79463865D01*
X12054978Y79606190D01*
X12112955Y79681747D01*
X12237700Y79766095D01*
X12304467Y79774885D01*
X12431830Y80097313D02*
X12808682Y80588437D01*
X12907992Y80092076D01*
X12994958Y80205413D01*
X13090714Y80251981D01*
X13157481Y80260771D01*
X13262027Y80240573D01*
X13450921Y80095630D01*
X13497489Y79999874D01*
X13506280Y79933106D01*
X13486081Y79828560D01*
X13312149Y79601888D01*
X13216393Y79555319D01*
X13149626Y79546529D01*
X13594929Y81065533D02*
X14123831Y80659692D01*
X13147756Y81108549D02*
X13569494Y80484825D01*
X13946346Y80975949D01*
G04 #@! TO.C,C33*
X6774696Y68361180D02*
X6800467Y68298963D01*
X6789792Y68148757D01*
X6753346Y68060769D01*
X6654683Y67947009D01*
X6530248Y67895466D01*
X6424037Y67887918D01*
X6229837Y67916816D01*
X6097854Y67971485D01*
X5940100Y68088371D01*
X5870334Y68168812D01*
X5818792Y68293246D01*
X5829467Y68443452D01*
X5865913Y68531441D01*
X5964576Y68645200D01*
X6026793Y68670972D01*
X6066366Y69015378D02*
X6303265Y69587303D01*
X6527658Y69133559D01*
X6582327Y69265542D01*
X6662767Y69335307D01*
X6724985Y69361078D01*
X6831196Y69368627D01*
X7051168Y69277512D01*
X7120933Y69197071D01*
X7146704Y69134854D01*
X7154253Y69028642D01*
X7044914Y68764677D01*
X6964474Y68694911D01*
X6902257Y68669140D01*
X6430826Y69895263D02*
X6667726Y70467188D01*
X6892118Y70013444D01*
X6946788Y70145427D01*
X7027228Y70215193D01*
X7089445Y70240964D01*
X7195657Y70248512D01*
X7415628Y70157397D01*
X7485394Y70076957D01*
X7511165Y70014739D01*
X7518713Y69908528D01*
X7409375Y69644562D01*
X7328935Y69574797D01*
X7266717Y69549025D01*
G04 #@! TO.C,C27*
X32321094Y5438930D02*
X32258877Y5413159D01*
X32108671Y5423834D01*
X32020683Y5460280D01*
X31906923Y5558943D01*
X31855380Y5683378D01*
X31847832Y5789589D01*
X31876730Y5983789D01*
X31931399Y6115772D01*
X32048285Y6273526D01*
X32128726Y6343292D01*
X32253160Y6394834D01*
X32403366Y6384159D01*
X32491355Y6347713D01*
X32605114Y6249050D01*
X32630886Y6186833D01*
X32982840Y6041049D02*
X33045057Y6066820D01*
X33151269Y6074368D01*
X33371240Y5983253D01*
X33441005Y5902813D01*
X33466777Y5840595D01*
X33474325Y5734384D01*
X33437879Y5646395D01*
X33339216Y5532636D01*
X32592608Y5223381D01*
X33164534Y4986481D01*
X33855177Y5782800D02*
X34471096Y5527677D01*
X33692465Y4767805D01*
G04 #@! TO.C,C29*
X12302241Y21237475D02*
X12235474Y21246265D01*
X12110729Y21330612D01*
X12052752Y21406170D01*
X12003565Y21548495D01*
X12021145Y21682029D01*
X12067714Y21777785D01*
X12189840Y21931519D01*
X12303176Y22018484D01*
X12483280Y22096660D01*
X12587826Y22116859D01*
X12721361Y22099279D01*
X12846105Y22014931D01*
X12904083Y21939374D01*
X12953270Y21797049D01*
X12944480Y21730281D01*
X13176389Y21428052D02*
X13243156Y21419262D01*
X13338912Y21372693D01*
X13483855Y21183799D01*
X13504054Y21079253D01*
X13495264Y21012486D01*
X13448695Y20916730D01*
X13373138Y20858752D01*
X13230813Y20809565D01*
X12429604Y20915046D01*
X12806457Y20423923D01*
X13096343Y20046135D02*
X13212298Y19895020D01*
X13308054Y19848452D01*
X13374821Y19839662D01*
X13546135Y19851070D01*
X13726238Y19929246D01*
X14028468Y20161155D01*
X14075037Y20256911D01*
X14083827Y20323678D01*
X14063628Y20428224D01*
X13947674Y20579339D01*
X13851918Y20625908D01*
X13785150Y20634698D01*
X13680604Y20614500D01*
X13491711Y20469557D01*
X13445142Y20373800D01*
X13436352Y20307033D01*
X13456550Y20202487D01*
X13572505Y20051372D01*
X13668261Y20004803D01*
X13735028Y19996013D01*
X13839574Y20016212D01*
G04 #@! TO.C,C24*
X67306313Y11416937D02*
X67280541Y11354719D01*
X67166782Y11256056D01*
X67078793Y11219610D01*
X66928587Y11208935D01*
X66804153Y11260478D01*
X66723712Y11330243D01*
X66606826Y11487997D01*
X66552157Y11619980D01*
X66523259Y11814180D01*
X66530807Y11920392D01*
X66582350Y12044826D01*
X66696110Y12143490D01*
X66784098Y12179936D01*
X66934304Y12190610D01*
X66996521Y12164839D01*
X67348475Y12310623D02*
X67374247Y12372841D01*
X67444012Y12453281D01*
X67663983Y12544396D01*
X67770195Y12536848D01*
X67832412Y12511077D01*
X67912853Y12441311D01*
X67949299Y12353323D01*
X67959973Y12203117D01*
X67650718Y11456509D01*
X68222644Y11693409D01*
X68759418Y12637343D02*
X69014541Y12021423D01*
X68393663Y12898182D02*
X68447037Y12147153D01*
X69018962Y12384052D01*
G04 #@! TO.C,C28*
X21258041Y11846352D02*
X21191273Y11837562D01*
X21048949Y11886749D01*
X20973391Y11944726D01*
X20889044Y12069471D01*
X20871463Y12203005D01*
X20891662Y12307552D01*
X20969838Y12487655D01*
X21056804Y12600991D01*
X21210537Y12723118D01*
X21306293Y12769686D01*
X21439828Y12787267D01*
X21582153Y12738079D01*
X21657710Y12680102D01*
X21742058Y12555357D01*
X21750848Y12488590D01*
X22053078Y12256681D02*
X22119845Y12265471D01*
X22224391Y12245272D01*
X22413285Y12100329D01*
X22459854Y12004573D01*
X22468644Y11937806D01*
X22448445Y11833260D01*
X22390468Y11757702D01*
X22265723Y11673355D01*
X21464515Y11567874D01*
X21955638Y11191021D01*
X22756847Y11296502D02*
X22710278Y11392259D01*
X22701488Y11459026D01*
X22721686Y11563572D01*
X22750675Y11601351D01*
X22846431Y11647920D01*
X22913198Y11656710D01*
X23017744Y11636511D01*
X23168859Y11520557D01*
X23215428Y11424801D01*
X23224218Y11358033D01*
X23204020Y11253487D01*
X23175031Y11215708D01*
X23079275Y11169139D01*
X23012508Y11160349D01*
X22907962Y11180548D01*
X22756847Y11296502D01*
X22652301Y11316701D01*
X22585533Y11307911D01*
X22489777Y11261342D01*
X22373823Y11110227D01*
X22353624Y11005681D01*
X22362414Y10938914D01*
X22408983Y10843158D01*
X22560098Y10727203D01*
X22664644Y10707005D01*
X22731411Y10715795D01*
X22827167Y10762364D01*
X22943122Y10913478D01*
X22963320Y11018025D01*
X22954530Y11084792D01*
X22907962Y11180548D01*
G04 #@! TO.C,C15*
X69239140Y95290989D02*
X69176923Y95265218D01*
X69026717Y95275893D01*
X68938729Y95312339D01*
X68824969Y95411002D01*
X68773426Y95535437D01*
X68765878Y95641648D01*
X68794776Y95835848D01*
X68849445Y95967831D01*
X68966331Y96125585D01*
X69046772Y96195351D01*
X69171206Y96246893D01*
X69321412Y96236218D01*
X69409401Y96199772D01*
X69523160Y96101109D01*
X69548932Y96038892D01*
X70082580Y94838540D02*
X69554648Y95057217D01*
X69818614Y94947878D02*
X70201297Y95871758D01*
X70058640Y95776221D01*
X69934205Y95724679D01*
X69827994Y95717131D01*
X71301154Y95416183D02*
X70861211Y95598413D01*
X70634987Y95176693D01*
X70697204Y95202464D01*
X70803416Y95210013D01*
X71023387Y95118897D01*
X71093153Y95038457D01*
X71118924Y94976240D01*
X71126472Y94870028D01*
X71035357Y94650057D01*
X70954917Y94580291D01*
X70892699Y94554520D01*
X70786488Y94546972D01*
X70566516Y94638087D01*
X70496751Y94718527D01*
X70470980Y94780745D01*
G04 #@! TO.C,C30*
X6192564Y32291569D02*
X6130346Y32317341D01*
X6031683Y32431100D01*
X5995237Y32519089D01*
X5984562Y32669295D01*
X6036105Y32793729D01*
X6105870Y32874170D01*
X6263624Y32991056D01*
X6395607Y33045725D01*
X6589807Y33074623D01*
X6696019Y33067075D01*
X6820453Y33015532D01*
X6919117Y32901772D01*
X6955563Y32813784D01*
X6966237Y32663578D01*
X6940466Y32601361D01*
X7156016Y32329847D02*
X7392915Y31757922D01*
X6913400Y31920097D01*
X6968069Y31788114D01*
X6960521Y31681903D01*
X6934750Y31619686D01*
X6864984Y31539245D01*
X6645013Y31448130D01*
X6538801Y31455678D01*
X6476584Y31481450D01*
X6396144Y31551215D01*
X6286805Y31815181D01*
X6294354Y31921392D01*
X6320125Y31983610D01*
X7629814Y31185996D02*
X7666260Y31098008D01*
X7658712Y30991796D01*
X7632941Y30929579D01*
X7563176Y30849138D01*
X7405421Y30732252D01*
X7185450Y30641137D01*
X6991250Y30612239D01*
X6885039Y30619787D01*
X6822821Y30645559D01*
X6742381Y30715324D01*
X6705935Y30803313D01*
X6713483Y30909524D01*
X6739254Y30971741D01*
X6809020Y31052182D01*
X6966774Y31169068D01*
X7186745Y31260183D01*
X7380945Y31289081D01*
X7487157Y31281533D01*
X7549374Y31255762D01*
X7629814Y31185996D01*
G04 #@! TO.C,C25*
X57365250Y1973609D02*
X57324253Y1920182D01*
X57188834Y1854324D01*
X57094411Y1841893D01*
X56946560Y1870458D01*
X56839706Y1952450D01*
X56780063Y2040658D01*
X56707989Y2223289D01*
X56689343Y2364924D01*
X56711692Y2559986D01*
X56746473Y2660625D01*
X56828465Y2767479D01*
X56963884Y2833338D01*
X57058308Y2845769D01*
X57206158Y2817204D01*
X57259586Y2776208D01*
X57637279Y2825932D02*
X57678275Y2879359D01*
X57766483Y2939002D01*
X58002541Y2970079D01*
X58103180Y2935299D01*
X58156607Y2894303D01*
X58216250Y2806095D01*
X58228681Y2711672D01*
X58200116Y2563821D01*
X57708162Y1922695D01*
X58321914Y2003497D01*
X59088409Y3113037D02*
X58616293Y3050881D01*
X58631236Y2572549D01*
X58672232Y2625976D01*
X58760440Y2685619D01*
X58996498Y2716697D01*
X59097137Y2681916D01*
X59150565Y2640920D01*
X59210207Y2552712D01*
X59241285Y2316654D01*
X59206504Y2216015D01*
X59165508Y2162588D01*
X59077300Y2102945D01*
X58841242Y2071868D01*
X58740603Y2106648D01*
X58687176Y2147644D01*
G04 #@! TO.C,C31*
X2929350Y44622653D02*
X2875923Y44663650D01*
X2810065Y44799069D01*
X2797634Y44893492D01*
X2826199Y45041343D01*
X2908191Y45148197D01*
X2996399Y45207840D01*
X3179030Y45279914D01*
X3320665Y45298560D01*
X3515727Y45276211D01*
X3616366Y45241430D01*
X3723220Y45159438D01*
X3789079Y45024019D01*
X3801510Y44929595D01*
X3772945Y44781745D01*
X3731949Y44728317D01*
X3869881Y44410267D02*
X3950683Y43796515D01*
X3529481Y44077273D01*
X3548127Y43935638D01*
X3513347Y43834999D01*
X3472350Y43781572D01*
X3384143Y43721929D01*
X3148084Y43690851D01*
X3047445Y43725632D01*
X2994018Y43766628D01*
X2934376Y43854836D01*
X2897082Y44138106D01*
X2931863Y44238745D01*
X2972859Y44292172D01*
X3083548Y42721756D02*
X3008962Y43288296D01*
X3046255Y43005026D02*
X4037700Y43135552D01*
X3883634Y43211329D01*
X3776780Y43293321D01*
X3717137Y43381529D01*
G04 #@! TO.C,D21*
X3331825Y49358364D02*
X2331825Y49358364D01*
X2331825Y49596459D01*
X2379445Y49739316D01*
X2474683Y49834554D01*
X2569921Y49882173D01*
X2760397Y49929792D01*
X2903254Y49929792D01*
X3093730Y49882173D01*
X3188968Y49834554D01*
X3284206Y49739316D01*
X3331825Y49596459D01*
X3331825Y49358364D01*
X2427064Y50310745D02*
X2379445Y50358364D01*
X2331825Y50453602D01*
X2331825Y50691697D01*
X2379445Y50786935D01*
X2427064Y50834554D01*
X2522302Y50882173D01*
X2617540Y50882173D01*
X2760397Y50834554D01*
X3331825Y50263126D01*
X3331825Y50882173D01*
X3331825Y51834554D02*
X3331825Y51263126D01*
X3331825Y51548840D02*
X2331825Y51548840D01*
X2474683Y51453602D01*
X2569921Y51358364D01*
X2617540Y51263126D01*
X8750477Y54980080D02*
X8750477Y54408651D01*
X8750477Y54694365D02*
X7750477Y54694365D01*
X7893335Y54599127D01*
X7988573Y54503889D01*
X8036192Y54408651D01*
G04 #@! TO.C,D3*
X51016570Y98712647D02*
X51016570Y99712647D01*
X51254666Y99712647D01*
X51397523Y99665027D01*
X51492761Y99569789D01*
X51540380Y99474551D01*
X51587999Y99284075D01*
X51587999Y99141218D01*
X51540380Y98950742D01*
X51492761Y98855504D01*
X51397523Y98760266D01*
X51254666Y98712647D01*
X51016570Y98712647D01*
X51921332Y99712647D02*
X52540380Y99712647D01*
X52207046Y99331694D01*
X52349904Y99331694D01*
X52445142Y99284075D01*
X52492761Y99236456D01*
X52540380Y99141218D01*
X52540380Y98903123D01*
X52492761Y98807885D01*
X52445142Y98760266D01*
X52349904Y98712647D01*
X52064189Y98712647D01*
X51968951Y98760266D01*
X51921332Y98807885D01*
X56133811Y93491985D02*
X55562382Y93491985D01*
X55848097Y93491985D02*
X55848097Y94491985D01*
X55752858Y94349127D01*
X55657620Y94253889D01*
X55562382Y94206270D01*
G04 #@! TO.C,D25*
X48684474Y51840728D02*
X47977368Y52547835D01*
X48145726Y52716194D01*
X48280413Y52783537D01*
X48415100Y52783537D01*
X48516116Y52749865D01*
X48684474Y52648850D01*
X48785490Y52547835D01*
X48886505Y52379476D01*
X48920177Y52278461D01*
X48920177Y52143774D01*
X48852833Y52009087D01*
X48684474Y51840728D01*
X48718146Y53153927D02*
X48718146Y53221270D01*
X48751818Y53322285D01*
X48920177Y53490644D01*
X49021192Y53524316D01*
X49088535Y53524316D01*
X49189551Y53490644D01*
X49256894Y53423301D01*
X49324238Y53288614D01*
X49324238Y52480491D01*
X49761971Y52918224D01*
X49694627Y54265094D02*
X49357910Y53928377D01*
X49660955Y53557988D01*
X49660955Y53625331D01*
X49694627Y53726346D01*
X49862986Y53894705D01*
X49964001Y53928377D01*
X50031345Y53928377D01*
X50132360Y53894705D01*
X50300719Y53726346D01*
X50334390Y53625331D01*
X50334390Y53557988D01*
X50300719Y53456972D01*
X50132360Y53288614D01*
X50031345Y53254942D01*
X49964001Y53254942D01*
X48154145Y48623392D02*
X47750084Y48219331D01*
X47952114Y48421362D02*
X47245007Y49128469D01*
X47278679Y48960110D01*
X47278679Y48825423D01*
X47245007Y48724408D01*
G04 #@! TO.C,D24*
X16687892Y83922162D02*
X15980786Y84629269D01*
X16149144Y84797628D01*
X16283831Y84864971D01*
X16418518Y84864971D01*
X16519534Y84831299D01*
X16687892Y84730284D01*
X16788908Y84629269D01*
X16889923Y84460910D01*
X16923595Y84359895D01*
X16923595Y84225208D01*
X16856251Y84090521D01*
X16687892Y83922162D01*
X16721564Y85235361D02*
X16721564Y85302704D01*
X16755236Y85403719D01*
X16923595Y85572078D01*
X17024610Y85605750D01*
X17091953Y85605750D01*
X17192969Y85572078D01*
X17260312Y85504735D01*
X17327656Y85370048D01*
X17327656Y84561925D01*
X17765389Y84999658D01*
X17900076Y86077154D02*
X18371480Y85605750D01*
X17462343Y86178170D02*
X17799060Y85504735D01*
X18236793Y85942467D01*
X24466067Y84049441D02*
X24062006Y83645380D01*
X24264036Y83847411D02*
X23556929Y84554518D01*
X23590601Y84386159D01*
X23590601Y84251472D01*
X23556929Y84150457D01*
G04 #@! TO.C,C21*
X90446641Y33762447D02*
X90472412Y33700230D01*
X90461737Y33550024D01*
X90425291Y33462036D01*
X90326628Y33348276D01*
X90202193Y33296733D01*
X90095982Y33289185D01*
X89901782Y33318083D01*
X89769799Y33372752D01*
X89612045Y33489638D01*
X89542279Y33570079D01*
X89490737Y33694513D01*
X89501412Y33844719D01*
X89537858Y33932708D01*
X89636521Y34046467D01*
X89698738Y34072239D01*
X89844522Y34424193D02*
X89818751Y34486410D01*
X89811203Y34592622D01*
X89902318Y34812593D01*
X89982758Y34882358D01*
X90044976Y34908130D01*
X90151187Y34915678D01*
X90239176Y34879232D01*
X90352935Y34780569D01*
X90662190Y34033961D01*
X90899090Y34605887D01*
X91263550Y35485772D02*
X91044874Y34957841D01*
X91154212Y35221806D02*
X90230332Y35604490D01*
X90325869Y35461832D01*
X90377412Y35337397D01*
X90384960Y35231186D01*
G04 #@! TO.C,D2*
X38749080Y96903611D02*
X38490261Y97869537D01*
X38720243Y97931160D01*
X38870557Y97922138D01*
X38987200Y97854795D01*
X39057846Y97775126D01*
X39153141Y97603465D01*
X39190115Y97465476D01*
X39193418Y97269165D01*
X39172071Y97164848D01*
X39104727Y97048205D01*
X38979062Y96965235D01*
X38749080Y96903611D01*
X39434840Y98024038D02*
X39468512Y98082359D01*
X39548180Y98153005D01*
X39778162Y98214629D01*
X39882480Y98193282D01*
X39940801Y98159610D01*
X40011447Y98079942D01*
X40036096Y97987949D01*
X40027074Y97837635D01*
X39623013Y97137781D01*
X40220967Y97298002D01*
X44867006Y93176626D02*
X44315048Y93028730D01*
X44591027Y93102678D02*
X44332208Y94068604D01*
X44277189Y93905965D01*
X44209846Y93789323D01*
X44130178Y93718677D01*
G04 #@! TO.C,D1*
X26988889Y91884682D02*
X26488889Y92750708D01*
X26695085Y92869756D01*
X26842613Y92899945D01*
X26972710Y92865085D01*
X27061569Y92806416D01*
X27198046Y92665268D01*
X27269475Y92541551D01*
X27323473Y92352784D01*
X27329853Y92246496D01*
X27294994Y92116398D01*
X27195085Y92003730D01*
X26988889Y91884682D01*
X28308547Y92646587D02*
X27813675Y92360873D01*
X28061111Y92503730D02*
X27561111Y93369756D01*
X27550061Y93198419D01*
X27515201Y93068321D01*
X27456532Y92979463D01*
X34065728Y89955951D02*
X33570856Y89670237D01*
X33818292Y89813094D02*
X33318292Y90679120D01*
X33307242Y90507783D01*
X33272382Y90377685D01*
X33213713Y90288827D01*
G04 #@! TO.C,D4*
X63419211Y97172541D02*
X63678030Y98138467D01*
X63908013Y98076843D01*
X64033678Y97993873D01*
X64101021Y97877230D01*
X64122368Y97772913D01*
X64119066Y97576602D01*
X64082092Y97438613D01*
X63986796Y97266952D01*
X63916150Y97187283D01*
X63799508Y97119940D01*
X63649194Y97110918D01*
X63419211Y97172541D01*
X64971652Y97446750D02*
X64799105Y96802800D01*
X64840267Y97876346D02*
X64425414Y97248022D01*
X65023368Y97087801D01*
X67098328Y90880533D02*
X66546370Y91028429D01*
X66822349Y90954481D02*
X67081168Y91920407D01*
X66952201Y91807067D01*
X66835558Y91739723D01*
X66731241Y91718376D01*
G04 #@! TO.C,C20*
X100143458Y43418649D02*
X100184454Y43365221D01*
X100213019Y43217371D01*
X100200588Y43122948D01*
X100134730Y42987528D01*
X100027876Y42905536D01*
X99927237Y42870755D01*
X99732175Y42848406D01*
X99590540Y42867052D01*
X99407909Y42939126D01*
X99319701Y42998769D01*
X99237709Y43105623D01*
X99209144Y43253474D01*
X99221575Y43347897D01*
X99287433Y43483317D01*
X99340860Y43524313D01*
X99390584Y43902006D02*
X99349588Y43955433D01*
X99314808Y44056072D01*
X99345885Y44292130D01*
X99405528Y44380338D01*
X99458955Y44421334D01*
X99559594Y44456115D01*
X99654017Y44443684D01*
X99789437Y44377825D01*
X100281390Y43736699D01*
X100362192Y44350451D01*
X99451549Y45094729D02*
X99463980Y45189152D01*
X99523623Y45277360D01*
X99577050Y45318356D01*
X99677689Y45353136D01*
X99872751Y45375486D01*
X100108810Y45344408D01*
X100291441Y45272334D01*
X100379649Y45212692D01*
X100420645Y45159264D01*
X100455425Y45058626D01*
X100442994Y44964202D01*
X100383351Y44875995D01*
X100329924Y44834998D01*
X100229285Y44800218D01*
X100034223Y44777868D01*
X99798165Y44808946D01*
X99615534Y44881020D01*
X99527326Y44940662D01*
X99486330Y44994090D01*
X99451549Y45094729D01*
G04 #@! TO.C,D19*
X8640469Y26903882D02*
X9506495Y27403882D01*
X9625542Y27197686D01*
X9655732Y27050158D01*
X9620872Y26920061D01*
X9562203Y26831202D01*
X9421055Y26694725D01*
X9297337Y26623296D01*
X9108571Y26569298D01*
X9002282Y26562918D01*
X8872185Y26597777D01*
X8759517Y26697686D01*
X8640469Y26903882D01*
X9402374Y25584225D02*
X9116660Y26079096D01*
X9259517Y25831660D02*
X10125542Y26331660D01*
X9954205Y26342710D01*
X9824108Y26377570D01*
X9735249Y26436239D01*
X9640469Y25171831D02*
X9735707Y25006874D01*
X9824566Y24948205D01*
X9889615Y24930775D01*
X10060951Y24919725D01*
X10249718Y24973724D01*
X10579633Y25164200D01*
X10638302Y25253059D01*
X10655732Y25318108D01*
X10649352Y25424396D01*
X10554114Y25589353D01*
X10465255Y25648022D01*
X10400207Y25665452D01*
X10293918Y25659072D01*
X10087722Y25540024D01*
X10029053Y25451166D01*
X10011623Y25386117D01*
X10018003Y25279829D01*
X10113241Y25114872D01*
X10202099Y25056203D01*
X10267148Y25038773D01*
X10373436Y25045153D01*
X11788678Y31964744D02*
X11502964Y32459616D01*
X11645821Y32212180D02*
X12511847Y32712180D01*
X12340510Y32723230D01*
X12210412Y32758090D01*
X12121554Y32816759D01*
G04 #@! TO.C,D22*
X4621404Y61678237D02*
X3655478Y61937056D01*
X3717101Y62167038D01*
X3800072Y62292703D01*
X3916714Y62360046D01*
X4021032Y62381393D01*
X4217343Y62378091D01*
X4355332Y62341117D01*
X4526993Y62245821D01*
X4606661Y62175176D01*
X4674005Y62058533D01*
X4683027Y61908219D01*
X4621404Y61678237D01*
X3993965Y62832336D02*
X3960293Y62890657D01*
X3938946Y62994975D01*
X4000570Y63224957D01*
X4071216Y63304625D01*
X4129537Y63338297D01*
X4233855Y63359644D01*
X4325848Y63334994D01*
X4451512Y63252024D01*
X4855573Y62552170D01*
X5015795Y63150124D01*
X4240459Y63752265D02*
X4206788Y63810586D01*
X4185441Y63914904D01*
X4247064Y64144886D01*
X4317710Y64224554D01*
X4376031Y64258226D01*
X4480349Y64279573D01*
X4572342Y64254924D01*
X4698007Y64171953D01*
X5102068Y63472099D01*
X5262289Y64070053D01*
X11361928Y65944598D02*
X11214032Y65392640D01*
X11287980Y65668619D02*
X10322054Y65927438D01*
X10435394Y65798471D01*
X10502738Y65681828D01*
X10524085Y65577511D01*
G04 #@! TO.C,C19*
X99597918Y57612204D02*
X99544491Y57653201D01*
X99478633Y57788620D01*
X99466202Y57883043D01*
X99494767Y58030894D01*
X99576759Y58137748D01*
X99664967Y58197391D01*
X99847598Y58269465D01*
X99989233Y58288111D01*
X100184295Y58265762D01*
X100284934Y58230981D01*
X100391788Y58148989D01*
X100457647Y58013570D01*
X100470078Y57919146D01*
X100441513Y57771296D01*
X100400517Y57717868D01*
X99627806Y56655540D02*
X99553219Y57222080D01*
X99590512Y56938810D02*
X100581957Y57069336D01*
X100427891Y57145113D01*
X100321037Y57227105D01*
X100261394Y57315313D01*
X99689961Y56183424D02*
X99714823Y55994577D01*
X99774466Y55906369D01*
X99827893Y55865373D01*
X99981959Y55789596D01*
X100177021Y55767247D01*
X100554715Y55816971D01*
X100642922Y55876614D01*
X100683918Y55930041D01*
X100718699Y56030680D01*
X100693837Y56219526D01*
X100634194Y56307734D01*
X100580767Y56348730D01*
X100480128Y56383511D01*
X100244070Y56352433D01*
X100155862Y56292791D01*
X100114866Y56239363D01*
X100080085Y56138724D01*
X100104948Y55949878D01*
X100164590Y55861670D01*
X100218017Y55820674D01*
X100318656Y55785893D01*
G04 #@! TO.C,C22*
X90247617Y20252804D02*
X90256407Y20186036D01*
X90207220Y20043712D01*
X90149243Y19968154D01*
X90024498Y19883807D01*
X89890964Y19866226D01*
X89786417Y19886425D01*
X89606314Y19964601D01*
X89492978Y20051567D01*
X89370851Y20205300D01*
X89324283Y20301056D01*
X89306702Y20434591D01*
X89355890Y20576916D01*
X89413867Y20652473D01*
X89538612Y20736821D01*
X89605379Y20745611D01*
X89837288Y21047841D02*
X89828498Y21114608D01*
X89848697Y21219154D01*
X89993640Y21408048D01*
X90089396Y21454617D01*
X90156163Y21463407D01*
X90260709Y21443208D01*
X90336267Y21385231D01*
X90420614Y21260486D01*
X90526095Y20459278D01*
X90902948Y20950401D01*
X90417061Y21803415D02*
X90408271Y21870183D01*
X90428469Y21974729D01*
X90573412Y22163622D01*
X90669168Y22210191D01*
X90735936Y22218981D01*
X90840482Y22198783D01*
X90916039Y22140805D01*
X91000387Y22016061D01*
X91105868Y21214852D01*
X91482720Y21705976D01*
G04 #@! TO.C,C18*
X96058764Y69577310D02*
X95996546Y69603082D01*
X95897883Y69716841D01*
X95861437Y69804830D01*
X95850762Y69955036D01*
X95902305Y70079470D01*
X95972070Y70159911D01*
X96129824Y70276797D01*
X96261807Y70331466D01*
X96456007Y70360364D01*
X96562219Y70352816D01*
X96686653Y70301273D01*
X96785317Y70187513D01*
X96821763Y70099525D01*
X96832437Y69949319D01*
X96806666Y69887102D01*
X96335236Y68660979D02*
X96116559Y69188910D01*
X96225898Y68924945D02*
X97149777Y69307628D01*
X96981348Y69340948D01*
X96856914Y69392490D01*
X96776473Y69462256D01*
X97081843Y68351724D02*
X97089391Y68457936D01*
X97115163Y68520153D01*
X97184928Y68600593D01*
X97228922Y68618816D01*
X97335134Y68611268D01*
X97397351Y68585497D01*
X97477791Y68515731D01*
X97550683Y68339754D01*
X97543135Y68233543D01*
X97517364Y68171325D01*
X97447599Y68090885D01*
X97403604Y68072662D01*
X97297393Y68080210D01*
X97235175Y68105982D01*
X97154735Y68175747D01*
X97081843Y68351724D01*
X97001403Y68421490D01*
X96939185Y68447261D01*
X96832974Y68454809D01*
X96656997Y68381917D01*
X96587231Y68301477D01*
X96561460Y68239259D01*
X96553912Y68133048D01*
X96626804Y67957071D01*
X96707244Y67887305D01*
X96769462Y67861534D01*
X96875673Y67853986D01*
X97051650Y67926878D01*
X97121416Y68007318D01*
X97147187Y68069536D01*
X97154735Y68175747D01*
G04 #@! TO.C,D5*
X75199595Y92594494D02*
X75699595Y93460519D01*
X75905791Y93341472D01*
X76005700Y93228804D01*
X76040559Y93098706D01*
X76034180Y92992418D01*
X75980181Y92803651D01*
X75908752Y92679933D01*
X75772275Y92538785D01*
X75683416Y92480116D01*
X75553319Y92445257D01*
X75405791Y92475446D01*
X75199595Y92594494D01*
X76978013Y92722424D02*
X76565620Y92960519D01*
X76286286Y92571936D01*
X76351334Y92589365D01*
X76457623Y92582986D01*
X76663819Y92463938D01*
X76722488Y92375080D01*
X76739918Y92310031D01*
X76733538Y92203743D01*
X76614491Y91997546D01*
X76525632Y91938877D01*
X76460583Y91921447D01*
X76354295Y91927827D01*
X76148099Y92046875D01*
X76089430Y92135733D01*
X76072000Y92200782D01*
X77013346Y85520236D02*
X76518474Y85805950D01*
X76765910Y85663093D02*
X77265910Y86529119D01*
X77112003Y86453020D01*
X76981905Y86418160D01*
X76875617Y86424540D01*
G04 #@! TO.C,D20*
X3754542Y38759132D02*
X4720468Y39017951D01*
X4782091Y38787968D01*
X4773069Y38637654D01*
X4705725Y38521012D01*
X4626057Y38450366D01*
X4454396Y38355071D01*
X4316407Y38318096D01*
X4120096Y38314794D01*
X4015778Y38336141D01*
X3899136Y38403485D01*
X3816165Y38529149D01*
X3754542Y38759132D01*
X4874969Y38073372D02*
X4933290Y38039700D01*
X5003936Y37960032D01*
X5065560Y37730050D01*
X5044213Y37625732D01*
X5010541Y37567411D01*
X4930873Y37496765D01*
X4838880Y37472115D01*
X4688566Y37481138D01*
X3988711Y37885199D01*
X4148933Y37287245D01*
X5275080Y36948110D02*
X5299729Y36856117D01*
X5278382Y36751799D01*
X5244710Y36693478D01*
X5165042Y36622832D01*
X4993381Y36527537D01*
X4763399Y36465913D01*
X4567088Y36462611D01*
X4462771Y36483958D01*
X4404449Y36517629D01*
X4333803Y36597298D01*
X4309154Y36689291D01*
X4330501Y36793608D01*
X4364173Y36851929D01*
X4443841Y36922575D01*
X4615502Y37017871D01*
X4845485Y37079494D01*
X5041795Y37082797D01*
X5146113Y37061450D01*
X5204434Y37027778D01*
X5275080Y36948110D01*
X8339798Y42927148D02*
X8191902Y43479106D01*
X8265850Y43203127D02*
X9231776Y43461946D01*
X9069137Y43516965D01*
X8952495Y43584308D01*
X8881849Y43663976D01*
G04 #@! TO.C,D6*
X85377256Y85154212D02*
X86084362Y85861319D01*
X86252721Y85692960D01*
X86320065Y85558273D01*
X86320065Y85423586D01*
X86286393Y85322571D01*
X86185378Y85154212D01*
X86084362Y85053197D01*
X85916004Y84952181D01*
X85814988Y84918510D01*
X85680301Y84918510D01*
X85545614Y84985853D01*
X85377256Y85154212D01*
X87094515Y84851166D02*
X86959828Y84985853D01*
X86858813Y85019525D01*
X86791469Y85019525D01*
X86623111Y84985853D01*
X86454752Y84884838D01*
X86185378Y84615464D01*
X86151706Y84514449D01*
X86151706Y84447105D01*
X86185378Y84346090D01*
X86320065Y84211403D01*
X86421080Y84177731D01*
X86488424Y84177731D01*
X86589439Y84211403D01*
X86757798Y84379762D01*
X86791469Y84480777D01*
X86791469Y84548120D01*
X86757798Y84649136D01*
X86623111Y84783823D01*
X86522095Y84817494D01*
X86454752Y84817494D01*
X86353737Y84783823D01*
X85203172Y77776394D02*
X84799111Y78180455D01*
X85001142Y77978425D02*
X85708249Y78685532D01*
X85539890Y78651860D01*
X85405203Y78651860D01*
X85304188Y78685532D01*
G04 #@! TO.C,D23*
X9211884Y73463767D02*
X8345859Y73963767D01*
X8464906Y74169963D01*
X8577574Y74269872D01*
X8707672Y74304731D01*
X8813960Y74298351D01*
X9002727Y74244353D01*
X9126445Y74172924D01*
X9267592Y74036447D01*
X9326261Y73947588D01*
X9361121Y73817491D01*
X9330932Y73669963D01*
X9211884Y73463767D01*
X8904528Y74740934D02*
X8887098Y74805983D01*
X8893478Y74912271D01*
X9012525Y75118467D01*
X9101384Y75177136D01*
X9166432Y75194566D01*
X9272721Y75188186D01*
X9355199Y75140567D01*
X9455108Y75027899D01*
X9664265Y74247314D01*
X9973789Y74783425D01*
X9274430Y75572100D02*
X9583954Y76108211D01*
X9747202Y75629059D01*
X9818630Y75752777D01*
X9907489Y75811446D01*
X9972537Y75828876D01*
X10078826Y75822496D01*
X10285022Y75703449D01*
X10343691Y75614590D01*
X10361121Y75549542D01*
X10354741Y75443253D01*
X10211884Y75195818D01*
X10123026Y75137148D01*
X10057977Y75119719D01*
X16722226Y75859616D02*
X16436512Y75364744D01*
X16579369Y75612180D02*
X15713343Y76112180D01*
X15789442Y75958273D01*
X15824302Y75828175D01*
X15817922Y75721887D01*
G04 #@! TO.C,D27*
X36359602Y31638687D02*
X35652496Y32345794D01*
X35820854Y32514153D01*
X35955541Y32581496D01*
X36090228Y32581496D01*
X36191244Y32547824D01*
X36359602Y32446809D01*
X36460618Y32345794D01*
X36561633Y32177435D01*
X36595305Y32076420D01*
X36595305Y31941733D01*
X36527961Y31807046D01*
X36359602Y31638687D01*
X36393274Y32951886D02*
X36393274Y33019229D01*
X36426946Y33120244D01*
X36595305Y33288603D01*
X36696320Y33322275D01*
X36763663Y33322275D01*
X36864679Y33288603D01*
X36932022Y33221260D01*
X36999366Y33086573D01*
X36999366Y32278450D01*
X37437099Y32716183D01*
X36965694Y33658992D02*
X37437099Y34130397D01*
X37841160Y33120244D01*
G04 #@! TO.C,U3*
X59964510Y29886747D02*
X60536930Y29314327D01*
X60637945Y29280655D01*
X60705289Y29280655D01*
X60806304Y29314327D01*
X60940991Y29449014D01*
X60974663Y29550029D01*
X60974663Y29617373D01*
X60940991Y29718388D01*
X60368571Y30290808D01*
X60637945Y30560182D02*
X61075678Y30997914D01*
X61109350Y30492838D01*
X61210365Y30593853D01*
X61311380Y30627525D01*
X61378724Y30627525D01*
X61479739Y30593853D01*
X61648098Y30425495D01*
X61681770Y30324479D01*
X61681770Y30257136D01*
X61648098Y30156121D01*
X61446067Y29954090D01*
X61345052Y29920418D01*
X61277709Y29920418D01*
G04 #@! TO.C,D28*
X77718278Y22849350D02*
X77011172Y23556457D01*
X77179530Y23724816D01*
X77314217Y23792159D01*
X77448904Y23792159D01*
X77549920Y23758487D01*
X77718278Y23657472D01*
X77819294Y23556457D01*
X77920309Y23388098D01*
X77953981Y23287083D01*
X77953981Y23152396D01*
X77886637Y23017709D01*
X77718278Y22849350D01*
X77751950Y24162549D02*
X77751950Y24229892D01*
X77785622Y24330907D01*
X77953981Y24499266D01*
X78054996Y24532938D01*
X78122339Y24532938D01*
X78223355Y24499266D01*
X78290698Y24431923D01*
X78358042Y24297236D01*
X78358042Y23489113D01*
X78795775Y23926846D01*
X78795775Y24734968D02*
X78694759Y24701297D01*
X78627416Y24701297D01*
X78526401Y24734968D01*
X78492729Y24768640D01*
X78459057Y24869655D01*
X78459057Y24936999D01*
X78492729Y25038014D01*
X78627416Y25172701D01*
X78728431Y25206373D01*
X78795775Y25206373D01*
X78896790Y25172701D01*
X78930462Y25139029D01*
X78964133Y25038014D01*
X78964133Y24970671D01*
X78930462Y24869655D01*
X78795775Y24734968D01*
X78762103Y24633953D01*
X78762103Y24566610D01*
X78795775Y24465594D01*
X78930462Y24330907D01*
X79031477Y24297236D01*
X79098820Y24297236D01*
X79199836Y24330907D01*
X79334523Y24465594D01*
X79368194Y24566610D01*
X79368194Y24633953D01*
X79334523Y24734968D01*
X79199836Y24869655D01*
X79098820Y24903327D01*
X79031477Y24903327D01*
X78930462Y24869655D01*
G04 #@! TO.C,U1*
X58462078Y64792231D02*
X57889658Y64219811D01*
X57855986Y64118796D01*
X57855986Y64051452D01*
X57889658Y63950437D01*
X58024345Y63815750D01*
X58125360Y63782078D01*
X58192704Y63782078D01*
X58293719Y63815750D01*
X58866139Y64388170D01*
X58866139Y62973956D02*
X58462078Y63378017D01*
X58664108Y63175987D02*
X59371215Y63883093D01*
X59202856Y63849422D01*
X59068169Y63849422D01*
X58967154Y63883093D01*
G04 #@! TO.C,R12*
X73978693Y27354631D02*
X73406274Y27455646D01*
X73574632Y26950570D02*
X72867526Y27657677D01*
X73136900Y27927051D01*
X73237915Y27960723D01*
X73305258Y27960723D01*
X73406274Y27927051D01*
X73507289Y27826036D01*
X73540961Y27725020D01*
X73540961Y27657677D01*
X73507289Y27556662D01*
X73237915Y27287288D01*
X74652129Y28028066D02*
X74248068Y27624005D01*
X74450098Y27826036D02*
X73742991Y28533143D01*
X73776663Y28364784D01*
X73776663Y28230097D01*
X73742991Y28129081D01*
X74281739Y28937204D02*
X74281739Y29004547D01*
X74315411Y29105562D01*
X74483770Y29273921D01*
X74584785Y29307593D01*
X74652129Y29307593D01*
X74753144Y29273921D01*
X74820487Y29206578D01*
X74887831Y29071891D01*
X74887831Y28263769D01*
X75325564Y28701501D01*
G04 #@! TO.C,U4*
X20423100Y28571528D02*
X20995520Y27999108D01*
X21096535Y27965436D01*
X21163879Y27965436D01*
X21264894Y27999108D01*
X21399581Y28133795D01*
X21433253Y28234810D01*
X21433253Y28302154D01*
X21399581Y28403169D01*
X20827161Y28975589D01*
X21702627Y29379650D02*
X22174031Y28908245D01*
X21264894Y29480665D02*
X21601612Y28807230D01*
X22039344Y29244963D01*
G04 #@! TO.C,R8*
X67746389Y33906817D02*
X67173969Y34007832D01*
X67342328Y33502756D02*
X66635221Y34209862D01*
X66904595Y34479237D01*
X67005610Y34512908D01*
X67072954Y34512908D01*
X67173969Y34479237D01*
X67274984Y34378221D01*
X67308656Y34277206D01*
X67308656Y34209862D01*
X67274984Y34108847D01*
X67005610Y33839473D01*
X67746389Y34714939D02*
X67645374Y34681267D01*
X67578030Y34681267D01*
X67477015Y34714939D01*
X67443343Y34748611D01*
X67409671Y34849626D01*
X67409671Y34916969D01*
X67443343Y35017985D01*
X67578030Y35152672D01*
X67679046Y35186343D01*
X67746389Y35186343D01*
X67847404Y35152672D01*
X67881076Y35119000D01*
X67914748Y35017985D01*
X67914748Y34950641D01*
X67881076Y34849626D01*
X67746389Y34714939D01*
X67712717Y34613924D01*
X67712717Y34546580D01*
X67746389Y34445565D01*
X67881076Y34310878D01*
X67982091Y34277206D01*
X68049435Y34277206D01*
X68150450Y34310878D01*
X68285137Y34445565D01*
X68318809Y34546580D01*
X68318809Y34613924D01*
X68285137Y34714939D01*
X68150450Y34849626D01*
X68049435Y34883298D01*
X67982091Y34883298D01*
X67881076Y34849626D01*
G04 #@! TO.C,R7*
X70829375Y31050106D02*
X70256955Y31151121D01*
X70425314Y30646045D02*
X69718207Y31353151D01*
X69987581Y31622526D01*
X70088596Y31656197D01*
X70155940Y31656197D01*
X70256955Y31622526D01*
X70357970Y31521510D01*
X70391642Y31420495D01*
X70391642Y31353151D01*
X70357970Y31252136D01*
X70088596Y30982762D01*
X70357970Y31992915D02*
X70829375Y32464319D01*
X71233436Y31454167D01*
G04 #@! TO.C,R11*
X40320411Y28486000D02*
X39747992Y28587015D01*
X39916350Y28081939D02*
X39209244Y28789046D01*
X39478618Y29058420D01*
X39579633Y29092092D01*
X39646976Y29092092D01*
X39747992Y29058420D01*
X39849007Y28957405D01*
X39882679Y28856389D01*
X39882679Y28789046D01*
X39849007Y28688031D01*
X39579633Y28418657D01*
X40993847Y29159435D02*
X40589786Y28755374D01*
X40791816Y28957405D02*
X40084709Y29664512D01*
X40118381Y29496153D01*
X40118381Y29361466D01*
X40084709Y29260450D01*
X41667282Y29832870D02*
X41263221Y29428809D01*
X41465251Y29630840D02*
X40758144Y30337947D01*
X40791816Y30169588D01*
X40791816Y30034901D01*
X40758144Y29933886D01*
G04 #@! TO.C,C36*
X53518391Y56356784D02*
X53518391Y56289440D01*
X53451047Y56154753D01*
X53383704Y56087410D01*
X53249017Y56020066D01*
X53114330Y56020066D01*
X53013315Y56053738D01*
X52844956Y56154753D01*
X52743941Y56255768D01*
X52642925Y56424127D01*
X52609254Y56525142D01*
X52609254Y56659829D01*
X52676597Y56794516D01*
X52743941Y56861860D01*
X52878628Y56929203D01*
X52945971Y56929203D01*
X53114330Y57232249D02*
X53552063Y57669982D01*
X53585734Y57164906D01*
X53686750Y57265921D01*
X53787765Y57299593D01*
X53855109Y57299593D01*
X53956124Y57265921D01*
X54124483Y57097562D01*
X54158154Y56996547D01*
X54158154Y56929203D01*
X54124483Y56828188D01*
X53922452Y56626158D01*
X53821437Y56592486D01*
X53754093Y56592486D01*
X54158154Y58276074D02*
X54023467Y58141387D01*
X53989796Y58040371D01*
X53989796Y57973028D01*
X54023467Y57804669D01*
X54124483Y57636310D01*
X54393857Y57366936D01*
X54494872Y57333265D01*
X54562215Y57333265D01*
X54663231Y57366936D01*
X54797918Y57501623D01*
X54831589Y57602639D01*
X54831589Y57669982D01*
X54797918Y57770997D01*
X54629559Y57939356D01*
X54528544Y57973028D01*
X54461200Y57973028D01*
X54360185Y57939356D01*
X54225498Y57804669D01*
X54191826Y57703654D01*
X54191826Y57636310D01*
X54225498Y57535295D01*
G04 #@! TO.C,C17*
X89751647Y80811220D02*
X89684880Y80820010D01*
X89560135Y80904357D01*
X89502158Y80979915D01*
X89452971Y81122240D01*
X89470551Y81255774D01*
X89517120Y81351530D01*
X89639246Y81505264D01*
X89752582Y81592229D01*
X89932686Y81670405D01*
X90037232Y81690604D01*
X90170767Y81673024D01*
X90295511Y81588676D01*
X90353489Y81513119D01*
X90402676Y81370794D01*
X90393886Y81304026D01*
X90255863Y79997668D02*
X89907999Y80451012D01*
X90081931Y80224340D02*
X90875284Y80833101D01*
X90703971Y80821693D01*
X90570436Y80839273D01*
X90474680Y80885842D01*
X91252137Y80341978D02*
X91657977Y79813076D01*
X90603726Y79544323D01*
G04 #@! TO.C,D10*
X95145216Y37551754D02*
X94179290Y37810573D01*
X94240913Y38040555D01*
X94323884Y38166220D01*
X94440526Y38233563D01*
X94544844Y38254910D01*
X94741155Y38251608D01*
X94879144Y38214634D01*
X95050805Y38119338D01*
X95130473Y38048693D01*
X95197817Y37932050D01*
X95206839Y37781736D01*
X95145216Y37551754D01*
X95539607Y39023641D02*
X95391710Y38471683D01*
X95465658Y38747662D02*
X94499732Y39006481D01*
X94613072Y38877514D01*
X94680416Y38760872D01*
X94701763Y38656554D01*
X94733902Y39880414D02*
X94758552Y39972407D01*
X94829197Y40052075D01*
X94887519Y40085747D01*
X94991836Y40107094D01*
X95188147Y40103791D01*
X95418129Y40042168D01*
X95589790Y39946872D01*
X95669459Y39876227D01*
X95703130Y39817905D01*
X95724477Y39713588D01*
X95699828Y39621595D01*
X95629182Y39541927D01*
X95570861Y39508255D01*
X95466543Y39486908D01*
X95270233Y39490210D01*
X95040250Y39551834D01*
X94868589Y39647129D01*
X94788921Y39717775D01*
X94755249Y39776096D01*
X94733902Y39880414D01*
X93056093Y35461922D02*
X92908197Y34909964D01*
X92982145Y35185943D02*
X92016219Y35444762D01*
X92129559Y35315795D01*
X92196903Y35199152D01*
X92218250Y35094835D01*
G04 #@! TO.C,D18*
X16012773Y16548019D02*
X16719880Y17255125D01*
X16888239Y17086767D01*
X16955582Y16952080D01*
X16955582Y16817393D01*
X16921910Y16716377D01*
X16820895Y16548019D01*
X16719880Y16447003D01*
X16551521Y16345988D01*
X16450506Y16312316D01*
X16315819Y16312316D01*
X16181132Y16379660D01*
X16012773Y16548019D01*
X17090269Y15470522D02*
X16686208Y15874583D01*
X16888239Y15672553D02*
X17595346Y16379660D01*
X17426987Y16345988D01*
X17292300Y16345988D01*
X17191285Y16379660D01*
X17898391Y15470522D02*
X17864720Y15571538D01*
X17864720Y15638881D01*
X17898391Y15739896D01*
X17932063Y15773568D01*
X18033078Y15807240D01*
X18100422Y15807240D01*
X18201437Y15773568D01*
X18336124Y15638881D01*
X18369796Y15537866D01*
X18369796Y15470522D01*
X18336124Y15369507D01*
X18302452Y15335835D01*
X18201437Y15302164D01*
X18134094Y15302164D01*
X18033078Y15335835D01*
X17898391Y15470522D01*
X17797376Y15504194D01*
X17730033Y15504194D01*
X17629017Y15470522D01*
X17494330Y15335835D01*
X17460659Y15234820D01*
X17460659Y15167477D01*
X17494330Y15066461D01*
X17629017Y14931774D01*
X17730033Y14898103D01*
X17797376Y14898103D01*
X17898391Y14931774D01*
X18033078Y15066461D01*
X18066750Y15167477D01*
X18066750Y15234820D01*
X18033078Y15335835D01*
X17957317Y22268512D02*
X17553256Y22672573D01*
X17755287Y22470543D02*
X18462394Y23177650D01*
X18294035Y23143978D01*
X18159348Y23143978D01*
X18058333Y23177650D01*
G04 #@! TO.C,D11*
X90324102Y26773507D02*
X89458077Y27273507D01*
X89577124Y27479703D01*
X89689792Y27579612D01*
X89819890Y27614471D01*
X89926178Y27608091D01*
X90114945Y27554093D01*
X90238663Y27482664D01*
X90379810Y27346187D01*
X90438479Y27257328D01*
X90473339Y27127231D01*
X90443150Y26979703D01*
X90324102Y26773507D01*
X91086007Y28093165D02*
X90800293Y27598293D01*
X90943150Y27845729D02*
X90077124Y28345729D01*
X90153223Y28191821D01*
X90188083Y28061724D01*
X90181703Y27955436D01*
X91562197Y28917951D02*
X91276483Y28423079D01*
X91419340Y28670515D02*
X90553315Y29170515D01*
X90629414Y29016608D01*
X90664273Y28886510D01*
X90657893Y28780222D01*
X87743228Y25271606D02*
X87457514Y24776734D01*
X87600371Y25024170D02*
X86734345Y25524170D01*
X86810444Y25370263D01*
X86845304Y25240165D01*
X86838924Y25133877D01*
G04 #@! TO.C,D17*
X26018049Y8396968D02*
X26518049Y9262993D01*
X26724245Y9143946D01*
X26824154Y9031278D01*
X26859013Y8901180D01*
X26852633Y8794892D01*
X26798635Y8606125D01*
X26727206Y8482407D01*
X26590729Y8341260D01*
X26501870Y8282591D01*
X26371773Y8247731D01*
X26224245Y8277920D01*
X26018049Y8396968D01*
X27337707Y7635063D02*
X26842835Y7920777D01*
X27090271Y7777920D02*
X27590271Y8643946D01*
X27436363Y8567847D01*
X27306266Y8532987D01*
X27199978Y8539367D01*
X28126382Y8334422D02*
X28703732Y8001089D01*
X27832578Y7349349D01*
X26425337Y14499234D02*
X25930465Y14784948D01*
X26177901Y14642091D02*
X26677901Y15508117D01*
X26523994Y15432018D01*
X26393896Y15397158D01*
X26287608Y15403538D01*
G04 #@! TO.C,D16*
X37687251Y3420291D02*
X37946070Y4386217D01*
X38176052Y4324594D01*
X38301717Y4241623D01*
X38369060Y4124981D01*
X38390407Y4020663D01*
X38387105Y3824352D01*
X38350131Y3686363D01*
X38254835Y3514702D01*
X38184190Y3435034D01*
X38067547Y3367690D01*
X37917233Y3358668D01*
X37687251Y3420291D01*
X39159138Y3025900D02*
X38607180Y3173797D01*
X38883159Y3099849D02*
X39141978Y4065775D01*
X39013011Y3952435D01*
X38896369Y3885091D01*
X38792051Y3863744D01*
X40245893Y3769981D02*
X40061907Y3819280D01*
X39957590Y3797933D01*
X39899268Y3764261D01*
X39770301Y3650921D01*
X39675006Y3479260D01*
X39576408Y3111289D01*
X39597755Y3006971D01*
X39631427Y2948650D01*
X39711095Y2878004D01*
X39895081Y2828705D01*
X39999399Y2850052D01*
X40057720Y2883724D01*
X40128366Y2963392D01*
X40189990Y3193374D01*
X40168643Y3297692D01*
X40134971Y3356013D01*
X40055303Y3426659D01*
X39871317Y3475958D01*
X39766999Y3454611D01*
X39708678Y3420939D01*
X39638032Y3341271D01*
X36615653Y9186369D02*
X36063695Y9334265D01*
X36339674Y9260317D02*
X36598493Y10226243D01*
X36469526Y10112903D01*
X36352883Y10045559D01*
X36248566Y10024212D01*
G04 #@! TO.C,D8*
X98163409Y63924717D02*
X99129335Y64183536D01*
X99190958Y63953554D01*
X99181936Y63803240D01*
X99114593Y63686597D01*
X99034924Y63615951D01*
X98863263Y63520656D01*
X98725274Y63483682D01*
X98528963Y63480379D01*
X98424646Y63501726D01*
X98308003Y63569070D01*
X98225033Y63694735D01*
X98163409Y63924717D01*
X99011160Y62968698D02*
X99032507Y63073016D01*
X99066179Y63131337D01*
X99145847Y63201983D01*
X99191843Y63214308D01*
X99296161Y63192961D01*
X99354482Y63159289D01*
X99425128Y63079621D01*
X99474427Y62895635D01*
X99453080Y62791317D01*
X99419408Y62732996D01*
X99339740Y62662350D01*
X99293743Y62650025D01*
X99189426Y62671372D01*
X99131105Y62705044D01*
X99060459Y62784712D01*
X99011160Y62968698D01*
X98940514Y63048367D01*
X98882193Y63082038D01*
X98777875Y63103385D01*
X98593889Y63054086D01*
X98514221Y62983441D01*
X98480549Y62925119D01*
X98459202Y62820802D01*
X98508501Y62636816D01*
X98579147Y62557148D01*
X98637468Y62523476D01*
X98741786Y62502129D01*
X98925772Y62551428D01*
X99005440Y62622074D01*
X99039112Y62680395D01*
X99060459Y62784712D01*
X94330357Y57375456D02*
X94182461Y57927414D01*
X94256409Y57651435D02*
X95222335Y57910254D01*
X95059696Y57965273D01*
X94943054Y58032616D01*
X94872408Y58112284D01*
G04 #@! TO.C,D15*
X50398958Y1315759D02*
X50398958Y2315759D01*
X50637053Y2315759D01*
X50779910Y2268139D01*
X50875148Y2172901D01*
X50922767Y2077663D01*
X50970386Y1887187D01*
X50970386Y1744330D01*
X50922767Y1553854D01*
X50875148Y1458616D01*
X50779910Y1363378D01*
X50637053Y1315759D01*
X50398958Y1315759D01*
X51922767Y1315759D02*
X51351339Y1315759D01*
X51637053Y1315759D02*
X51637053Y2315759D01*
X51541815Y2172901D01*
X51446577Y2077663D01*
X51351339Y2030044D01*
X52827529Y2315759D02*
X52351339Y2315759D01*
X52303720Y1839568D01*
X52351339Y1887187D01*
X52446577Y1934806D01*
X52684672Y1934806D01*
X52779910Y1887187D01*
X52827529Y1839568D01*
X52875148Y1744330D01*
X52875148Y1506235D01*
X52827529Y1410997D01*
X52779910Y1363378D01*
X52684672Y1315759D01*
X52446577Y1315759D01*
X52351339Y1363378D01*
X52303720Y1410997D01*
X47833811Y6691985D02*
X47262382Y6691985D01*
X47548097Y6691985D02*
X47548097Y7691985D01*
X47452858Y7549127D01*
X47357620Y7453889D01*
X47262382Y7406270D01*
G04 #@! TO.C,D12*
X85673230Y14823688D02*
X84966124Y15530795D01*
X85134482Y15699154D01*
X85269169Y15766497D01*
X85403856Y15766497D01*
X85504872Y15732825D01*
X85673230Y15631810D01*
X85774246Y15530795D01*
X85875261Y15362436D01*
X85908933Y15261421D01*
X85908933Y15126734D01*
X85841589Y14992047D01*
X85673230Y14823688D01*
X86750727Y15901184D02*
X86346666Y15497123D01*
X86548696Y15699154D02*
X85841589Y16406261D01*
X85875261Y16237902D01*
X85875261Y16103215D01*
X85841589Y16002199D01*
X86380337Y16810322D02*
X86380337Y16877665D01*
X86414009Y16978680D01*
X86582368Y17147039D01*
X86683383Y17180711D01*
X86750727Y17180711D01*
X86851742Y17147039D01*
X86919085Y17079696D01*
X86986429Y16945009D01*
X86986429Y16136887D01*
X87424162Y16574619D01*
X79973950Y16803587D02*
X79569889Y16399526D01*
X79771919Y16601557D02*
X79064812Y17308664D01*
X79098484Y17140305D01*
X79098484Y17005618D01*
X79064812Y16904603D01*
G04 #@! TO.C,D13*
X73379893Y10279809D02*
X72879893Y11145835D01*
X73086089Y11264882D01*
X73233617Y11295072D01*
X73363714Y11260212D01*
X73452573Y11201543D01*
X73589050Y11060395D01*
X73660479Y10936677D01*
X73714477Y10747911D01*
X73720857Y10641622D01*
X73685998Y10511525D01*
X73586089Y10398857D01*
X73379893Y10279809D01*
X74699550Y11041714D02*
X74204679Y10756000D01*
X74452115Y10898857D02*
X73952115Y11764882D01*
X73941065Y11593545D01*
X73906205Y11463448D01*
X73847536Y11374589D01*
X74488226Y12074406D02*
X75024337Y12383930D01*
X74926138Y11887349D01*
X75049856Y11958777D01*
X75156144Y11965157D01*
X75221192Y11947727D01*
X75310051Y11889058D01*
X75429098Y11682862D01*
X75435478Y11576574D01*
X75418048Y11511525D01*
X75359379Y11422666D01*
X75111944Y11279809D01*
X75005655Y11273430D01*
X74940607Y11290859D01*
X70277717Y10634947D02*
X69782845Y10349233D01*
X70030281Y10492090D02*
X69530281Y11358116D01*
X69519231Y11186779D01*
X69484371Y11056681D01*
X69425702Y10967823D01*
G04 #@! TO.C,D9*
X100940844Y49749701D02*
X99940844Y49749701D01*
X99940844Y49987796D01*
X99988464Y50130654D01*
X100083702Y50225892D01*
X100178940Y50273511D01*
X100369416Y50321130D01*
X100512273Y50321130D01*
X100702749Y50273511D01*
X100797987Y50225892D01*
X100893225Y50130654D01*
X100940844Y49987796D01*
X100940844Y49749701D01*
X100940844Y50797320D02*
X100940844Y50987796D01*
X100893225Y51083035D01*
X100845606Y51130654D01*
X100702749Y51225892D01*
X100512273Y51273511D01*
X100131321Y51273511D01*
X100036083Y51225892D01*
X99988464Y51178273D01*
X99940844Y51083035D01*
X99940844Y50892558D01*
X99988464Y50797320D01*
X100036083Y50749701D01*
X100131321Y50702082D01*
X100369416Y50702082D01*
X100464654Y50749701D01*
X100512273Y50797320D01*
X100559892Y50892558D01*
X100559892Y51083035D01*
X100512273Y51178273D01*
X100464654Y51225892D01*
X100369416Y51273511D01*
X95550476Y46680080D02*
X95550476Y46108651D01*
X95550476Y46394365D02*
X94550476Y46394365D01*
X94693334Y46299127D01*
X94788572Y46203889D01*
X94836191Y46108651D01*
G04 #@! TO.C,D7*
X93271758Y75387923D02*
X94137784Y75887923D01*
X94256832Y75681727D01*
X94287021Y75534199D01*
X94252161Y75404102D01*
X94193492Y75315243D01*
X94052344Y75178766D01*
X93928627Y75107337D01*
X93739860Y75053339D01*
X93633572Y75046959D01*
X93503474Y75081818D01*
X93390806Y75181727D01*
X93271758Y75387923D01*
X94590165Y75104376D02*
X94923498Y74527026D01*
X93843187Y74398180D01*
X91109682Y68176734D02*
X90823968Y68671606D01*
X90966825Y68424170D02*
X91832851Y68924170D01*
X91661514Y68935220D01*
X91531416Y68970080D01*
X91442558Y69028749D01*
G04 #@! TO.C,U5*
X71278219Y41200455D02*
X71850639Y40628035D01*
X71951654Y40594363D01*
X72018998Y40594363D01*
X72120013Y40628035D01*
X72254700Y40762722D01*
X72288372Y40863737D01*
X72288372Y40931081D01*
X72254700Y41032096D01*
X71682280Y41604516D01*
X72355715Y42277951D02*
X72018998Y41941233D01*
X72322044Y41570844D01*
X72322044Y41638187D01*
X72355715Y41739203D01*
X72524074Y41907561D01*
X72625089Y41941233D01*
X72692433Y41941233D01*
X72793448Y41907561D01*
X72961807Y41739203D01*
X72995479Y41638187D01*
X72995479Y41570844D01*
X72961807Y41469829D01*
X72793448Y41301470D01*
X72692433Y41267798D01*
X72625089Y41267798D01*
G04 #@! TO.C,D14*
X62238821Y6178773D02*
X61980002Y7144699D01*
X62209985Y7206322D01*
X62360299Y7197300D01*
X62476941Y7129956D01*
X62547587Y7050288D01*
X62642882Y6878627D01*
X62679857Y6740638D01*
X62683159Y6544327D01*
X62661812Y6440009D01*
X62594468Y6323367D01*
X62468804Y6240396D01*
X62238821Y6178773D01*
X63710708Y6573164D02*
X63158751Y6425267D01*
X63434730Y6499215D02*
X63175910Y7465141D01*
X63120892Y7302502D01*
X63053548Y7185860D01*
X62973880Y7115214D01*
X64366099Y7438959D02*
X64538645Y6795009D01*
X64037519Y7745307D02*
X63992407Y6993737D01*
X64590361Y7153958D01*
X59315313Y7186068D02*
X58763355Y7038172D01*
X59039334Y7112120D02*
X58780515Y8078046D01*
X58725496Y7915407D01*
X58658153Y7798765D01*
X58578485Y7728119D01*
G04 #@! TD*
M02*
