G04 #@! TF.GenerationSoftware,KiCad,Pcbnew,(5.0.0)*
G04 #@! TF.CreationDate,2018-09-30T19:05:32+02:00*
G04 #@! TF.ProjectId,hal9k-backlight,68616C396B2D6261636B6C696768742E,rev?*
G04 #@! TF.SameCoordinates,PX6acfc00PY55d4a80*
G04 #@! TF.FileFunction,Paste,Top*
G04 #@! TF.FilePolarity,Positive*
%FSLAX46Y46*%
G04 Gerber Fmt 4.6, Leading zero omitted, Abs format (unit mm)*
G04 Created by KiCad (PCBNEW (5.0.0)) date 09/30/18 19:05:32*
%MOMM*%
%LPD*%
G01*
G04 APERTURE LIST*
%ADD10C,0.100000*%
%ADD11C,1.150000*%
%ADD12R,1.500000X1.000000*%
G04 APERTURE END LIST*
D10*
G04 #@! TO.C,C1*
G36*
X18474505Y4548796D02*
X18498773Y4545196D01*
X18522572Y4539235D01*
X18545671Y4530970D01*
X18567850Y4520480D01*
X18588893Y4507868D01*
X18608599Y4493253D01*
X18626777Y4476777D01*
X18643253Y4458599D01*
X18657868Y4438893D01*
X18670480Y4417850D01*
X18680970Y4395671D01*
X18689235Y4372572D01*
X18695196Y4348773D01*
X18698796Y4324505D01*
X18700000Y4300001D01*
X18700000Y3649999D01*
X18698796Y3625495D01*
X18695196Y3601227D01*
X18689235Y3577428D01*
X18680970Y3554329D01*
X18670480Y3532150D01*
X18657868Y3511107D01*
X18643253Y3491401D01*
X18626777Y3473223D01*
X18608599Y3456747D01*
X18588893Y3442132D01*
X18567850Y3429520D01*
X18545671Y3419030D01*
X18522572Y3410765D01*
X18498773Y3404804D01*
X18474505Y3401204D01*
X18450001Y3400000D01*
X17549999Y3400000D01*
X17525495Y3401204D01*
X17501227Y3404804D01*
X17477428Y3410765D01*
X17454329Y3419030D01*
X17432150Y3429520D01*
X17411107Y3442132D01*
X17391401Y3456747D01*
X17373223Y3473223D01*
X17356747Y3491401D01*
X17342132Y3511107D01*
X17329520Y3532150D01*
X17319030Y3554329D01*
X17310765Y3577428D01*
X17304804Y3601227D01*
X17301204Y3625495D01*
X17300000Y3649999D01*
X17300000Y4300001D01*
X17301204Y4324505D01*
X17304804Y4348773D01*
X17310765Y4372572D01*
X17319030Y4395671D01*
X17329520Y4417850D01*
X17342132Y4438893D01*
X17356747Y4458599D01*
X17373223Y4476777D01*
X17391401Y4493253D01*
X17411107Y4507868D01*
X17432150Y4520480D01*
X17454329Y4530970D01*
X17477428Y4539235D01*
X17501227Y4545196D01*
X17525495Y4548796D01*
X17549999Y4550000D01*
X18450001Y4550000D01*
X18474505Y4548796D01*
X18474505Y4548796D01*
G37*
D11*
X18000000Y3975000D03*
D10*
G36*
X18474505Y6598796D02*
X18498773Y6595196D01*
X18522572Y6589235D01*
X18545671Y6580970D01*
X18567850Y6570480D01*
X18588893Y6557868D01*
X18608599Y6543253D01*
X18626777Y6526777D01*
X18643253Y6508599D01*
X18657868Y6488893D01*
X18670480Y6467850D01*
X18680970Y6445671D01*
X18689235Y6422572D01*
X18695196Y6398773D01*
X18698796Y6374505D01*
X18700000Y6350001D01*
X18700000Y5699999D01*
X18698796Y5675495D01*
X18695196Y5651227D01*
X18689235Y5627428D01*
X18680970Y5604329D01*
X18670480Y5582150D01*
X18657868Y5561107D01*
X18643253Y5541401D01*
X18626777Y5523223D01*
X18608599Y5506747D01*
X18588893Y5492132D01*
X18567850Y5479520D01*
X18545671Y5469030D01*
X18522572Y5460765D01*
X18498773Y5454804D01*
X18474505Y5451204D01*
X18450001Y5450000D01*
X17549999Y5450000D01*
X17525495Y5451204D01*
X17501227Y5454804D01*
X17477428Y5460765D01*
X17454329Y5469030D01*
X17432150Y5479520D01*
X17411107Y5492132D01*
X17391401Y5506747D01*
X17373223Y5523223D01*
X17356747Y5541401D01*
X17342132Y5561107D01*
X17329520Y5582150D01*
X17319030Y5604329D01*
X17310765Y5627428D01*
X17304804Y5651227D01*
X17301204Y5675495D01*
X17300000Y5699999D01*
X17300000Y6350001D01*
X17301204Y6374505D01*
X17304804Y6398773D01*
X17310765Y6422572D01*
X17319030Y6445671D01*
X17329520Y6467850D01*
X17342132Y6488893D01*
X17356747Y6508599D01*
X17373223Y6526777D01*
X17391401Y6543253D01*
X17411107Y6557868D01*
X17432150Y6570480D01*
X17454329Y6580970D01*
X17477428Y6589235D01*
X17501227Y6595196D01*
X17525495Y6598796D01*
X17549999Y6600000D01*
X18450001Y6600000D01*
X18474505Y6598796D01*
X18474505Y6598796D01*
G37*
D11*
X18000000Y6025000D03*
G04 #@! TD*
D10*
G04 #@! TO.C,C2*
G36*
X32674505Y6698796D02*
X32698773Y6695196D01*
X32722572Y6689235D01*
X32745671Y6680970D01*
X32767850Y6670480D01*
X32788893Y6657868D01*
X32808599Y6643253D01*
X32826777Y6626777D01*
X32843253Y6608599D01*
X32857868Y6588893D01*
X32870480Y6567850D01*
X32880970Y6545671D01*
X32889235Y6522572D01*
X32895196Y6498773D01*
X32898796Y6474505D01*
X32900000Y6450001D01*
X32900000Y5799999D01*
X32898796Y5775495D01*
X32895196Y5751227D01*
X32889235Y5727428D01*
X32880970Y5704329D01*
X32870480Y5682150D01*
X32857868Y5661107D01*
X32843253Y5641401D01*
X32826777Y5623223D01*
X32808599Y5606747D01*
X32788893Y5592132D01*
X32767850Y5579520D01*
X32745671Y5569030D01*
X32722572Y5560765D01*
X32698773Y5554804D01*
X32674505Y5551204D01*
X32650001Y5550000D01*
X31749999Y5550000D01*
X31725495Y5551204D01*
X31701227Y5554804D01*
X31677428Y5560765D01*
X31654329Y5569030D01*
X31632150Y5579520D01*
X31611107Y5592132D01*
X31591401Y5606747D01*
X31573223Y5623223D01*
X31556747Y5641401D01*
X31542132Y5661107D01*
X31529520Y5682150D01*
X31519030Y5704329D01*
X31510765Y5727428D01*
X31504804Y5751227D01*
X31501204Y5775495D01*
X31500000Y5799999D01*
X31500000Y6450001D01*
X31501204Y6474505D01*
X31504804Y6498773D01*
X31510765Y6522572D01*
X31519030Y6545671D01*
X31529520Y6567850D01*
X31542132Y6588893D01*
X31556747Y6608599D01*
X31573223Y6626777D01*
X31591401Y6643253D01*
X31611107Y6657868D01*
X31632150Y6670480D01*
X31654329Y6680970D01*
X31677428Y6689235D01*
X31701227Y6695196D01*
X31725495Y6698796D01*
X31749999Y6700000D01*
X32650001Y6700000D01*
X32674505Y6698796D01*
X32674505Y6698796D01*
G37*
D11*
X32200000Y6125000D03*
D10*
G36*
X32674505Y4648796D02*
X32698773Y4645196D01*
X32722572Y4639235D01*
X32745671Y4630970D01*
X32767850Y4620480D01*
X32788893Y4607868D01*
X32808599Y4593253D01*
X32826777Y4576777D01*
X32843253Y4558599D01*
X32857868Y4538893D01*
X32870480Y4517850D01*
X32880970Y4495671D01*
X32889235Y4472572D01*
X32895196Y4448773D01*
X32898796Y4424505D01*
X32900000Y4400001D01*
X32900000Y3749999D01*
X32898796Y3725495D01*
X32895196Y3701227D01*
X32889235Y3677428D01*
X32880970Y3654329D01*
X32870480Y3632150D01*
X32857868Y3611107D01*
X32843253Y3591401D01*
X32826777Y3573223D01*
X32808599Y3556747D01*
X32788893Y3542132D01*
X32767850Y3529520D01*
X32745671Y3519030D01*
X32722572Y3510765D01*
X32698773Y3504804D01*
X32674505Y3501204D01*
X32650001Y3500000D01*
X31749999Y3500000D01*
X31725495Y3501204D01*
X31701227Y3504804D01*
X31677428Y3510765D01*
X31654329Y3519030D01*
X31632150Y3529520D01*
X31611107Y3542132D01*
X31591401Y3556747D01*
X31573223Y3573223D01*
X31556747Y3591401D01*
X31542132Y3611107D01*
X31529520Y3632150D01*
X31519030Y3654329D01*
X31510765Y3677428D01*
X31504804Y3701227D01*
X31501204Y3725495D01*
X31500000Y3749999D01*
X31500000Y4400001D01*
X31501204Y4424505D01*
X31504804Y4448773D01*
X31510765Y4472572D01*
X31519030Y4495671D01*
X31529520Y4517850D01*
X31542132Y4538893D01*
X31556747Y4558599D01*
X31573223Y4576777D01*
X31591401Y4593253D01*
X31611107Y4607868D01*
X31632150Y4620480D01*
X31654329Y4630970D01*
X31677428Y4639235D01*
X31701227Y4645196D01*
X31725495Y4648796D01*
X31749999Y4650000D01*
X32650001Y4650000D01*
X32674505Y4648796D01*
X32674505Y4648796D01*
G37*
D11*
X32200000Y4075000D03*
G04 #@! TD*
D10*
G04 #@! TO.C,C3*
G36*
X44974505Y4548796D02*
X44998773Y4545196D01*
X45022572Y4539235D01*
X45045671Y4530970D01*
X45067850Y4520480D01*
X45088893Y4507868D01*
X45108599Y4493253D01*
X45126777Y4476777D01*
X45143253Y4458599D01*
X45157868Y4438893D01*
X45170480Y4417850D01*
X45180970Y4395671D01*
X45189235Y4372572D01*
X45195196Y4348773D01*
X45198796Y4324505D01*
X45200000Y4300001D01*
X45200000Y3649999D01*
X45198796Y3625495D01*
X45195196Y3601227D01*
X45189235Y3577428D01*
X45180970Y3554329D01*
X45170480Y3532150D01*
X45157868Y3511107D01*
X45143253Y3491401D01*
X45126777Y3473223D01*
X45108599Y3456747D01*
X45088893Y3442132D01*
X45067850Y3429520D01*
X45045671Y3419030D01*
X45022572Y3410765D01*
X44998773Y3404804D01*
X44974505Y3401204D01*
X44950001Y3400000D01*
X44049999Y3400000D01*
X44025495Y3401204D01*
X44001227Y3404804D01*
X43977428Y3410765D01*
X43954329Y3419030D01*
X43932150Y3429520D01*
X43911107Y3442132D01*
X43891401Y3456747D01*
X43873223Y3473223D01*
X43856747Y3491401D01*
X43842132Y3511107D01*
X43829520Y3532150D01*
X43819030Y3554329D01*
X43810765Y3577428D01*
X43804804Y3601227D01*
X43801204Y3625495D01*
X43800000Y3649999D01*
X43800000Y4300001D01*
X43801204Y4324505D01*
X43804804Y4348773D01*
X43810765Y4372572D01*
X43819030Y4395671D01*
X43829520Y4417850D01*
X43842132Y4438893D01*
X43856747Y4458599D01*
X43873223Y4476777D01*
X43891401Y4493253D01*
X43911107Y4507868D01*
X43932150Y4520480D01*
X43954329Y4530970D01*
X43977428Y4539235D01*
X44001227Y4545196D01*
X44025495Y4548796D01*
X44049999Y4550000D01*
X44950001Y4550000D01*
X44974505Y4548796D01*
X44974505Y4548796D01*
G37*
D11*
X44500000Y3975000D03*
D10*
G36*
X44974505Y6598796D02*
X44998773Y6595196D01*
X45022572Y6589235D01*
X45045671Y6580970D01*
X45067850Y6570480D01*
X45088893Y6557868D01*
X45108599Y6543253D01*
X45126777Y6526777D01*
X45143253Y6508599D01*
X45157868Y6488893D01*
X45170480Y6467850D01*
X45180970Y6445671D01*
X45189235Y6422572D01*
X45195196Y6398773D01*
X45198796Y6374505D01*
X45200000Y6350001D01*
X45200000Y5699999D01*
X45198796Y5675495D01*
X45195196Y5651227D01*
X45189235Y5627428D01*
X45180970Y5604329D01*
X45170480Y5582150D01*
X45157868Y5561107D01*
X45143253Y5541401D01*
X45126777Y5523223D01*
X45108599Y5506747D01*
X45088893Y5492132D01*
X45067850Y5479520D01*
X45045671Y5469030D01*
X45022572Y5460765D01*
X44998773Y5454804D01*
X44974505Y5451204D01*
X44950001Y5450000D01*
X44049999Y5450000D01*
X44025495Y5451204D01*
X44001227Y5454804D01*
X43977428Y5460765D01*
X43954329Y5469030D01*
X43932150Y5479520D01*
X43911107Y5492132D01*
X43891401Y5506747D01*
X43873223Y5523223D01*
X43856747Y5541401D01*
X43842132Y5561107D01*
X43829520Y5582150D01*
X43819030Y5604329D01*
X43810765Y5627428D01*
X43804804Y5651227D01*
X43801204Y5675495D01*
X43800000Y5699999D01*
X43800000Y6350001D01*
X43801204Y6374505D01*
X43804804Y6398773D01*
X43810765Y6422572D01*
X43819030Y6445671D01*
X43829520Y6467850D01*
X43842132Y6488893D01*
X43856747Y6508599D01*
X43873223Y6526777D01*
X43891401Y6543253D01*
X43911107Y6557868D01*
X43932150Y6570480D01*
X43954329Y6580970D01*
X43977428Y6589235D01*
X44001227Y6595196D01*
X44025495Y6598796D01*
X44049999Y6600000D01*
X44950001Y6600000D01*
X44974505Y6598796D01*
X44974505Y6598796D01*
G37*
D11*
X44500000Y6025000D03*
G04 #@! TD*
D10*
G04 #@! TO.C,C4*
G36*
X56874505Y6598796D02*
X56898773Y6595196D01*
X56922572Y6589235D01*
X56945671Y6580970D01*
X56967850Y6570480D01*
X56988893Y6557868D01*
X57008599Y6543253D01*
X57026777Y6526777D01*
X57043253Y6508599D01*
X57057868Y6488893D01*
X57070480Y6467850D01*
X57080970Y6445671D01*
X57089235Y6422572D01*
X57095196Y6398773D01*
X57098796Y6374505D01*
X57100000Y6350001D01*
X57100000Y5699999D01*
X57098796Y5675495D01*
X57095196Y5651227D01*
X57089235Y5627428D01*
X57080970Y5604329D01*
X57070480Y5582150D01*
X57057868Y5561107D01*
X57043253Y5541401D01*
X57026777Y5523223D01*
X57008599Y5506747D01*
X56988893Y5492132D01*
X56967850Y5479520D01*
X56945671Y5469030D01*
X56922572Y5460765D01*
X56898773Y5454804D01*
X56874505Y5451204D01*
X56850001Y5450000D01*
X55949999Y5450000D01*
X55925495Y5451204D01*
X55901227Y5454804D01*
X55877428Y5460765D01*
X55854329Y5469030D01*
X55832150Y5479520D01*
X55811107Y5492132D01*
X55791401Y5506747D01*
X55773223Y5523223D01*
X55756747Y5541401D01*
X55742132Y5561107D01*
X55729520Y5582150D01*
X55719030Y5604329D01*
X55710765Y5627428D01*
X55704804Y5651227D01*
X55701204Y5675495D01*
X55700000Y5699999D01*
X55700000Y6350001D01*
X55701204Y6374505D01*
X55704804Y6398773D01*
X55710765Y6422572D01*
X55719030Y6445671D01*
X55729520Y6467850D01*
X55742132Y6488893D01*
X55756747Y6508599D01*
X55773223Y6526777D01*
X55791401Y6543253D01*
X55811107Y6557868D01*
X55832150Y6570480D01*
X55854329Y6580970D01*
X55877428Y6589235D01*
X55901227Y6595196D01*
X55925495Y6598796D01*
X55949999Y6600000D01*
X56850001Y6600000D01*
X56874505Y6598796D01*
X56874505Y6598796D01*
G37*
D11*
X56400000Y6025000D03*
D10*
G36*
X56874505Y4548796D02*
X56898773Y4545196D01*
X56922572Y4539235D01*
X56945671Y4530970D01*
X56967850Y4520480D01*
X56988893Y4507868D01*
X57008599Y4493253D01*
X57026777Y4476777D01*
X57043253Y4458599D01*
X57057868Y4438893D01*
X57070480Y4417850D01*
X57080970Y4395671D01*
X57089235Y4372572D01*
X57095196Y4348773D01*
X57098796Y4324505D01*
X57100000Y4300001D01*
X57100000Y3649999D01*
X57098796Y3625495D01*
X57095196Y3601227D01*
X57089235Y3577428D01*
X57080970Y3554329D01*
X57070480Y3532150D01*
X57057868Y3511107D01*
X57043253Y3491401D01*
X57026777Y3473223D01*
X57008599Y3456747D01*
X56988893Y3442132D01*
X56967850Y3429520D01*
X56945671Y3419030D01*
X56922572Y3410765D01*
X56898773Y3404804D01*
X56874505Y3401204D01*
X56850001Y3400000D01*
X55949999Y3400000D01*
X55925495Y3401204D01*
X55901227Y3404804D01*
X55877428Y3410765D01*
X55854329Y3419030D01*
X55832150Y3429520D01*
X55811107Y3442132D01*
X55791401Y3456747D01*
X55773223Y3473223D01*
X55756747Y3491401D01*
X55742132Y3511107D01*
X55729520Y3532150D01*
X55719030Y3554329D01*
X55710765Y3577428D01*
X55704804Y3601227D01*
X55701204Y3625495D01*
X55700000Y3649999D01*
X55700000Y4300001D01*
X55701204Y4324505D01*
X55704804Y4348773D01*
X55710765Y4372572D01*
X55719030Y4395671D01*
X55729520Y4417850D01*
X55742132Y4438893D01*
X55756747Y4458599D01*
X55773223Y4476777D01*
X55791401Y4493253D01*
X55811107Y4507868D01*
X55832150Y4520480D01*
X55854329Y4530970D01*
X55877428Y4539235D01*
X55901227Y4545196D01*
X55925495Y4548796D01*
X55949999Y4550000D01*
X56850001Y4550000D01*
X56874505Y4548796D01*
X56874505Y4548796D01*
G37*
D11*
X56400000Y3975000D03*
G04 #@! TD*
D10*
G04 #@! TO.C,C5*
G36*
X69274505Y4548796D02*
X69298773Y4545196D01*
X69322572Y4539235D01*
X69345671Y4530970D01*
X69367850Y4520480D01*
X69388893Y4507868D01*
X69408599Y4493253D01*
X69426777Y4476777D01*
X69443253Y4458599D01*
X69457868Y4438893D01*
X69470480Y4417850D01*
X69480970Y4395671D01*
X69489235Y4372572D01*
X69495196Y4348773D01*
X69498796Y4324505D01*
X69500000Y4300001D01*
X69500000Y3649999D01*
X69498796Y3625495D01*
X69495196Y3601227D01*
X69489235Y3577428D01*
X69480970Y3554329D01*
X69470480Y3532150D01*
X69457868Y3511107D01*
X69443253Y3491401D01*
X69426777Y3473223D01*
X69408599Y3456747D01*
X69388893Y3442132D01*
X69367850Y3429520D01*
X69345671Y3419030D01*
X69322572Y3410765D01*
X69298773Y3404804D01*
X69274505Y3401204D01*
X69250001Y3400000D01*
X68349999Y3400000D01*
X68325495Y3401204D01*
X68301227Y3404804D01*
X68277428Y3410765D01*
X68254329Y3419030D01*
X68232150Y3429520D01*
X68211107Y3442132D01*
X68191401Y3456747D01*
X68173223Y3473223D01*
X68156747Y3491401D01*
X68142132Y3511107D01*
X68129520Y3532150D01*
X68119030Y3554329D01*
X68110765Y3577428D01*
X68104804Y3601227D01*
X68101204Y3625495D01*
X68100000Y3649999D01*
X68100000Y4300001D01*
X68101204Y4324505D01*
X68104804Y4348773D01*
X68110765Y4372572D01*
X68119030Y4395671D01*
X68129520Y4417850D01*
X68142132Y4438893D01*
X68156747Y4458599D01*
X68173223Y4476777D01*
X68191401Y4493253D01*
X68211107Y4507868D01*
X68232150Y4520480D01*
X68254329Y4530970D01*
X68277428Y4539235D01*
X68301227Y4545196D01*
X68325495Y4548796D01*
X68349999Y4550000D01*
X69250001Y4550000D01*
X69274505Y4548796D01*
X69274505Y4548796D01*
G37*
D11*
X68800000Y3975000D03*
D10*
G36*
X69274505Y6598796D02*
X69298773Y6595196D01*
X69322572Y6589235D01*
X69345671Y6580970D01*
X69367850Y6570480D01*
X69388893Y6557868D01*
X69408599Y6543253D01*
X69426777Y6526777D01*
X69443253Y6508599D01*
X69457868Y6488893D01*
X69470480Y6467850D01*
X69480970Y6445671D01*
X69489235Y6422572D01*
X69495196Y6398773D01*
X69498796Y6374505D01*
X69500000Y6350001D01*
X69500000Y5699999D01*
X69498796Y5675495D01*
X69495196Y5651227D01*
X69489235Y5627428D01*
X69480970Y5604329D01*
X69470480Y5582150D01*
X69457868Y5561107D01*
X69443253Y5541401D01*
X69426777Y5523223D01*
X69408599Y5506747D01*
X69388893Y5492132D01*
X69367850Y5479520D01*
X69345671Y5469030D01*
X69322572Y5460765D01*
X69298773Y5454804D01*
X69274505Y5451204D01*
X69250001Y5450000D01*
X68349999Y5450000D01*
X68325495Y5451204D01*
X68301227Y5454804D01*
X68277428Y5460765D01*
X68254329Y5469030D01*
X68232150Y5479520D01*
X68211107Y5492132D01*
X68191401Y5506747D01*
X68173223Y5523223D01*
X68156747Y5541401D01*
X68142132Y5561107D01*
X68129520Y5582150D01*
X68119030Y5604329D01*
X68110765Y5627428D01*
X68104804Y5651227D01*
X68101204Y5675495D01*
X68100000Y5699999D01*
X68100000Y6350001D01*
X68101204Y6374505D01*
X68104804Y6398773D01*
X68110765Y6422572D01*
X68119030Y6445671D01*
X68129520Y6467850D01*
X68142132Y6488893D01*
X68156747Y6508599D01*
X68173223Y6526777D01*
X68191401Y6543253D01*
X68211107Y6557868D01*
X68232150Y6570480D01*
X68254329Y6580970D01*
X68277428Y6589235D01*
X68301227Y6595196D01*
X68325495Y6598796D01*
X68349999Y6600000D01*
X69250001Y6600000D01*
X69274505Y6598796D01*
X69274505Y6598796D01*
G37*
D11*
X68800000Y6025000D03*
G04 #@! TD*
D12*
G04 #@! TO.C,D26*
X14050000Y3400000D03*
X14050000Y6600000D03*
X9150000Y3400000D03*
X9150000Y6600000D03*
G04 #@! TD*
G04 #@! TO.C,D27*
X23550000Y6600000D03*
X23550000Y3400000D03*
X28450000Y6600000D03*
X28450000Y3400000D03*
G04 #@! TD*
G04 #@! TO.C,D28*
X40850000Y3400000D03*
X40850000Y6600000D03*
X35950000Y3400000D03*
X35950000Y6600000D03*
G04 #@! TD*
G04 #@! TO.C,D29*
X47950000Y6600000D03*
X47950000Y3400000D03*
X52850000Y6600000D03*
X52850000Y3400000D03*
G04 #@! TD*
G04 #@! TO.C,D30*
X65450000Y3400000D03*
X65450000Y6600000D03*
X60550000Y3400000D03*
X60550000Y6600000D03*
G04 #@! TD*
M02*
