G04 #@! TF.GenerationSoftware,KiCad,Pcbnew,(5.0.0)*
G04 #@! TF.CreationDate,2018-09-11T10:20:56+02:00*
G04 #@! TF.ProjectId,hal9k-backlight,68616C396B2D6261636B6C696768742E,rev?*
G04 #@! TF.SameCoordinates,PX6acfc00PY55d4a80*
G04 #@! TF.FileFunction,Soldermask,Top*
G04 #@! TF.FilePolarity,Negative*
%FSLAX46Y46*%
G04 Gerber Fmt 4.6, Leading zero omitted, Abs format (unit mm)*
G04 Created by KiCad (PCBNEW (5.0.0)) date 09/11/18 10:20:56*
%MOMM*%
%LPD*%
G01*
G04 APERTURE LIST*
%ADD10C,0.100000*%
%ADD11C,1.550000*%
%ADD12R,1.900000X1.400000*%
%ADD13R,1.750000X1.750000*%
G04 APERTURE END LIST*
D10*
G04 #@! TO.C,C1*
G36*
X18596071Y4748377D02*
X18628781Y4743525D01*
X18660857Y4735491D01*
X18691991Y4724351D01*
X18721884Y4710213D01*
X18750247Y4693213D01*
X18776807Y4673515D01*
X18801308Y4651308D01*
X18823515Y4626807D01*
X18843213Y4600247D01*
X18860213Y4571884D01*
X18874351Y4541991D01*
X18885491Y4510857D01*
X18893525Y4478781D01*
X18898377Y4446071D01*
X18900000Y4413044D01*
X18900000Y3536956D01*
X18898377Y3503929D01*
X18893525Y3471219D01*
X18885491Y3439143D01*
X18874351Y3408009D01*
X18860213Y3378116D01*
X18843213Y3349753D01*
X18823515Y3323193D01*
X18801308Y3298692D01*
X18776807Y3276485D01*
X18750247Y3256787D01*
X18721884Y3239787D01*
X18691991Y3225649D01*
X18660857Y3214509D01*
X18628781Y3206475D01*
X18596071Y3201623D01*
X18563044Y3200000D01*
X17436956Y3200000D01*
X17403929Y3201623D01*
X17371219Y3206475D01*
X17339143Y3214509D01*
X17308009Y3225649D01*
X17278116Y3239787D01*
X17249753Y3256787D01*
X17223193Y3276485D01*
X17198692Y3298692D01*
X17176485Y3323193D01*
X17156787Y3349753D01*
X17139787Y3378116D01*
X17125649Y3408009D01*
X17114509Y3439143D01*
X17106475Y3471219D01*
X17101623Y3503929D01*
X17100000Y3536956D01*
X17100000Y4413044D01*
X17101623Y4446071D01*
X17106475Y4478781D01*
X17114509Y4510857D01*
X17125649Y4541991D01*
X17139787Y4571884D01*
X17156787Y4600247D01*
X17176485Y4626807D01*
X17198692Y4651308D01*
X17223193Y4673515D01*
X17249753Y4693213D01*
X17278116Y4710213D01*
X17308009Y4724351D01*
X17339143Y4735491D01*
X17371219Y4743525D01*
X17403929Y4748377D01*
X17436956Y4750000D01*
X18563044Y4750000D01*
X18596071Y4748377D01*
X18596071Y4748377D01*
G37*
D11*
X18000000Y3975000D03*
D10*
G36*
X18596071Y6798377D02*
X18628781Y6793525D01*
X18660857Y6785491D01*
X18691991Y6774351D01*
X18721884Y6760213D01*
X18750247Y6743213D01*
X18776807Y6723515D01*
X18801308Y6701308D01*
X18823515Y6676807D01*
X18843213Y6650247D01*
X18860213Y6621884D01*
X18874351Y6591991D01*
X18885491Y6560857D01*
X18893525Y6528781D01*
X18898377Y6496071D01*
X18900000Y6463044D01*
X18900000Y5586956D01*
X18898377Y5553929D01*
X18893525Y5521219D01*
X18885491Y5489143D01*
X18874351Y5458009D01*
X18860213Y5428116D01*
X18843213Y5399753D01*
X18823515Y5373193D01*
X18801308Y5348692D01*
X18776807Y5326485D01*
X18750247Y5306787D01*
X18721884Y5289787D01*
X18691991Y5275649D01*
X18660857Y5264509D01*
X18628781Y5256475D01*
X18596071Y5251623D01*
X18563044Y5250000D01*
X17436956Y5250000D01*
X17403929Y5251623D01*
X17371219Y5256475D01*
X17339143Y5264509D01*
X17308009Y5275649D01*
X17278116Y5289787D01*
X17249753Y5306787D01*
X17223193Y5326485D01*
X17198692Y5348692D01*
X17176485Y5373193D01*
X17156787Y5399753D01*
X17139787Y5428116D01*
X17125649Y5458009D01*
X17114509Y5489143D01*
X17106475Y5521219D01*
X17101623Y5553929D01*
X17100000Y5586956D01*
X17100000Y6463044D01*
X17101623Y6496071D01*
X17106475Y6528781D01*
X17114509Y6560857D01*
X17125649Y6591991D01*
X17139787Y6621884D01*
X17156787Y6650247D01*
X17176485Y6676807D01*
X17198692Y6701308D01*
X17223193Y6723515D01*
X17249753Y6743213D01*
X17278116Y6760213D01*
X17308009Y6774351D01*
X17339143Y6785491D01*
X17371219Y6793525D01*
X17403929Y6798377D01*
X17436956Y6800000D01*
X18563044Y6800000D01*
X18596071Y6798377D01*
X18596071Y6798377D01*
G37*
D11*
X18000000Y6025000D03*
G04 #@! TD*
D10*
G04 #@! TO.C,C2*
G36*
X32796071Y6898377D02*
X32828781Y6893525D01*
X32860857Y6885491D01*
X32891991Y6874351D01*
X32921884Y6860213D01*
X32950247Y6843213D01*
X32976807Y6823515D01*
X33001308Y6801308D01*
X33023515Y6776807D01*
X33043213Y6750247D01*
X33060213Y6721884D01*
X33074351Y6691991D01*
X33085491Y6660857D01*
X33093525Y6628781D01*
X33098377Y6596071D01*
X33100000Y6563044D01*
X33100000Y5686956D01*
X33098377Y5653929D01*
X33093525Y5621219D01*
X33085491Y5589143D01*
X33074351Y5558009D01*
X33060213Y5528116D01*
X33043213Y5499753D01*
X33023515Y5473193D01*
X33001308Y5448692D01*
X32976807Y5426485D01*
X32950247Y5406787D01*
X32921884Y5389787D01*
X32891991Y5375649D01*
X32860857Y5364509D01*
X32828781Y5356475D01*
X32796071Y5351623D01*
X32763044Y5350000D01*
X31636956Y5350000D01*
X31603929Y5351623D01*
X31571219Y5356475D01*
X31539143Y5364509D01*
X31508009Y5375649D01*
X31478116Y5389787D01*
X31449753Y5406787D01*
X31423193Y5426485D01*
X31398692Y5448692D01*
X31376485Y5473193D01*
X31356787Y5499753D01*
X31339787Y5528116D01*
X31325649Y5558009D01*
X31314509Y5589143D01*
X31306475Y5621219D01*
X31301623Y5653929D01*
X31300000Y5686956D01*
X31300000Y6563044D01*
X31301623Y6596071D01*
X31306475Y6628781D01*
X31314509Y6660857D01*
X31325649Y6691991D01*
X31339787Y6721884D01*
X31356787Y6750247D01*
X31376485Y6776807D01*
X31398692Y6801308D01*
X31423193Y6823515D01*
X31449753Y6843213D01*
X31478116Y6860213D01*
X31508009Y6874351D01*
X31539143Y6885491D01*
X31571219Y6893525D01*
X31603929Y6898377D01*
X31636956Y6900000D01*
X32763044Y6900000D01*
X32796071Y6898377D01*
X32796071Y6898377D01*
G37*
D11*
X32200000Y6125000D03*
D10*
G36*
X32796071Y4848377D02*
X32828781Y4843525D01*
X32860857Y4835491D01*
X32891991Y4824351D01*
X32921884Y4810213D01*
X32950247Y4793213D01*
X32976807Y4773515D01*
X33001308Y4751308D01*
X33023515Y4726807D01*
X33043213Y4700247D01*
X33060213Y4671884D01*
X33074351Y4641991D01*
X33085491Y4610857D01*
X33093525Y4578781D01*
X33098377Y4546071D01*
X33100000Y4513044D01*
X33100000Y3636956D01*
X33098377Y3603929D01*
X33093525Y3571219D01*
X33085491Y3539143D01*
X33074351Y3508009D01*
X33060213Y3478116D01*
X33043213Y3449753D01*
X33023515Y3423193D01*
X33001308Y3398692D01*
X32976807Y3376485D01*
X32950247Y3356787D01*
X32921884Y3339787D01*
X32891991Y3325649D01*
X32860857Y3314509D01*
X32828781Y3306475D01*
X32796071Y3301623D01*
X32763044Y3300000D01*
X31636956Y3300000D01*
X31603929Y3301623D01*
X31571219Y3306475D01*
X31539143Y3314509D01*
X31508009Y3325649D01*
X31478116Y3339787D01*
X31449753Y3356787D01*
X31423193Y3376485D01*
X31398692Y3398692D01*
X31376485Y3423193D01*
X31356787Y3449753D01*
X31339787Y3478116D01*
X31325649Y3508009D01*
X31314509Y3539143D01*
X31306475Y3571219D01*
X31301623Y3603929D01*
X31300000Y3636956D01*
X31300000Y4513044D01*
X31301623Y4546071D01*
X31306475Y4578781D01*
X31314509Y4610857D01*
X31325649Y4641991D01*
X31339787Y4671884D01*
X31356787Y4700247D01*
X31376485Y4726807D01*
X31398692Y4751308D01*
X31423193Y4773515D01*
X31449753Y4793213D01*
X31478116Y4810213D01*
X31508009Y4824351D01*
X31539143Y4835491D01*
X31571219Y4843525D01*
X31603929Y4848377D01*
X31636956Y4850000D01*
X32763044Y4850000D01*
X32796071Y4848377D01*
X32796071Y4848377D01*
G37*
D11*
X32200000Y4075000D03*
G04 #@! TD*
D10*
G04 #@! TO.C,C3*
G36*
X45096071Y4748377D02*
X45128781Y4743525D01*
X45160857Y4735491D01*
X45191991Y4724351D01*
X45221884Y4710213D01*
X45250247Y4693213D01*
X45276807Y4673515D01*
X45301308Y4651308D01*
X45323515Y4626807D01*
X45343213Y4600247D01*
X45360213Y4571884D01*
X45374351Y4541991D01*
X45385491Y4510857D01*
X45393525Y4478781D01*
X45398377Y4446071D01*
X45400000Y4413044D01*
X45400000Y3536956D01*
X45398377Y3503929D01*
X45393525Y3471219D01*
X45385491Y3439143D01*
X45374351Y3408009D01*
X45360213Y3378116D01*
X45343213Y3349753D01*
X45323515Y3323193D01*
X45301308Y3298692D01*
X45276807Y3276485D01*
X45250247Y3256787D01*
X45221884Y3239787D01*
X45191991Y3225649D01*
X45160857Y3214509D01*
X45128781Y3206475D01*
X45096071Y3201623D01*
X45063044Y3200000D01*
X43936956Y3200000D01*
X43903929Y3201623D01*
X43871219Y3206475D01*
X43839143Y3214509D01*
X43808009Y3225649D01*
X43778116Y3239787D01*
X43749753Y3256787D01*
X43723193Y3276485D01*
X43698692Y3298692D01*
X43676485Y3323193D01*
X43656787Y3349753D01*
X43639787Y3378116D01*
X43625649Y3408009D01*
X43614509Y3439143D01*
X43606475Y3471219D01*
X43601623Y3503929D01*
X43600000Y3536956D01*
X43600000Y4413044D01*
X43601623Y4446071D01*
X43606475Y4478781D01*
X43614509Y4510857D01*
X43625649Y4541991D01*
X43639787Y4571884D01*
X43656787Y4600247D01*
X43676485Y4626807D01*
X43698692Y4651308D01*
X43723193Y4673515D01*
X43749753Y4693213D01*
X43778116Y4710213D01*
X43808009Y4724351D01*
X43839143Y4735491D01*
X43871219Y4743525D01*
X43903929Y4748377D01*
X43936956Y4750000D01*
X45063044Y4750000D01*
X45096071Y4748377D01*
X45096071Y4748377D01*
G37*
D11*
X44500000Y3975000D03*
D10*
G36*
X45096071Y6798377D02*
X45128781Y6793525D01*
X45160857Y6785491D01*
X45191991Y6774351D01*
X45221884Y6760213D01*
X45250247Y6743213D01*
X45276807Y6723515D01*
X45301308Y6701308D01*
X45323515Y6676807D01*
X45343213Y6650247D01*
X45360213Y6621884D01*
X45374351Y6591991D01*
X45385491Y6560857D01*
X45393525Y6528781D01*
X45398377Y6496071D01*
X45400000Y6463044D01*
X45400000Y5586956D01*
X45398377Y5553929D01*
X45393525Y5521219D01*
X45385491Y5489143D01*
X45374351Y5458009D01*
X45360213Y5428116D01*
X45343213Y5399753D01*
X45323515Y5373193D01*
X45301308Y5348692D01*
X45276807Y5326485D01*
X45250247Y5306787D01*
X45221884Y5289787D01*
X45191991Y5275649D01*
X45160857Y5264509D01*
X45128781Y5256475D01*
X45096071Y5251623D01*
X45063044Y5250000D01*
X43936956Y5250000D01*
X43903929Y5251623D01*
X43871219Y5256475D01*
X43839143Y5264509D01*
X43808009Y5275649D01*
X43778116Y5289787D01*
X43749753Y5306787D01*
X43723193Y5326485D01*
X43698692Y5348692D01*
X43676485Y5373193D01*
X43656787Y5399753D01*
X43639787Y5428116D01*
X43625649Y5458009D01*
X43614509Y5489143D01*
X43606475Y5521219D01*
X43601623Y5553929D01*
X43600000Y5586956D01*
X43600000Y6463044D01*
X43601623Y6496071D01*
X43606475Y6528781D01*
X43614509Y6560857D01*
X43625649Y6591991D01*
X43639787Y6621884D01*
X43656787Y6650247D01*
X43676485Y6676807D01*
X43698692Y6701308D01*
X43723193Y6723515D01*
X43749753Y6743213D01*
X43778116Y6760213D01*
X43808009Y6774351D01*
X43839143Y6785491D01*
X43871219Y6793525D01*
X43903929Y6798377D01*
X43936956Y6800000D01*
X45063044Y6800000D01*
X45096071Y6798377D01*
X45096071Y6798377D01*
G37*
D11*
X44500000Y6025000D03*
G04 #@! TD*
D10*
G04 #@! TO.C,C4*
G36*
X56996071Y6798377D02*
X57028781Y6793525D01*
X57060857Y6785491D01*
X57091991Y6774351D01*
X57121884Y6760213D01*
X57150247Y6743213D01*
X57176807Y6723515D01*
X57201308Y6701308D01*
X57223515Y6676807D01*
X57243213Y6650247D01*
X57260213Y6621884D01*
X57274351Y6591991D01*
X57285491Y6560857D01*
X57293525Y6528781D01*
X57298377Y6496071D01*
X57300000Y6463044D01*
X57300000Y5586956D01*
X57298377Y5553929D01*
X57293525Y5521219D01*
X57285491Y5489143D01*
X57274351Y5458009D01*
X57260213Y5428116D01*
X57243213Y5399753D01*
X57223515Y5373193D01*
X57201308Y5348692D01*
X57176807Y5326485D01*
X57150247Y5306787D01*
X57121884Y5289787D01*
X57091991Y5275649D01*
X57060857Y5264509D01*
X57028781Y5256475D01*
X56996071Y5251623D01*
X56963044Y5250000D01*
X55836956Y5250000D01*
X55803929Y5251623D01*
X55771219Y5256475D01*
X55739143Y5264509D01*
X55708009Y5275649D01*
X55678116Y5289787D01*
X55649753Y5306787D01*
X55623193Y5326485D01*
X55598692Y5348692D01*
X55576485Y5373193D01*
X55556787Y5399753D01*
X55539787Y5428116D01*
X55525649Y5458009D01*
X55514509Y5489143D01*
X55506475Y5521219D01*
X55501623Y5553929D01*
X55500000Y5586956D01*
X55500000Y6463044D01*
X55501623Y6496071D01*
X55506475Y6528781D01*
X55514509Y6560857D01*
X55525649Y6591991D01*
X55539787Y6621884D01*
X55556787Y6650247D01*
X55576485Y6676807D01*
X55598692Y6701308D01*
X55623193Y6723515D01*
X55649753Y6743213D01*
X55678116Y6760213D01*
X55708009Y6774351D01*
X55739143Y6785491D01*
X55771219Y6793525D01*
X55803929Y6798377D01*
X55836956Y6800000D01*
X56963044Y6800000D01*
X56996071Y6798377D01*
X56996071Y6798377D01*
G37*
D11*
X56400000Y6025000D03*
D10*
G36*
X56996071Y4748377D02*
X57028781Y4743525D01*
X57060857Y4735491D01*
X57091991Y4724351D01*
X57121884Y4710213D01*
X57150247Y4693213D01*
X57176807Y4673515D01*
X57201308Y4651308D01*
X57223515Y4626807D01*
X57243213Y4600247D01*
X57260213Y4571884D01*
X57274351Y4541991D01*
X57285491Y4510857D01*
X57293525Y4478781D01*
X57298377Y4446071D01*
X57300000Y4413044D01*
X57300000Y3536956D01*
X57298377Y3503929D01*
X57293525Y3471219D01*
X57285491Y3439143D01*
X57274351Y3408009D01*
X57260213Y3378116D01*
X57243213Y3349753D01*
X57223515Y3323193D01*
X57201308Y3298692D01*
X57176807Y3276485D01*
X57150247Y3256787D01*
X57121884Y3239787D01*
X57091991Y3225649D01*
X57060857Y3214509D01*
X57028781Y3206475D01*
X56996071Y3201623D01*
X56963044Y3200000D01*
X55836956Y3200000D01*
X55803929Y3201623D01*
X55771219Y3206475D01*
X55739143Y3214509D01*
X55708009Y3225649D01*
X55678116Y3239787D01*
X55649753Y3256787D01*
X55623193Y3276485D01*
X55598692Y3298692D01*
X55576485Y3323193D01*
X55556787Y3349753D01*
X55539787Y3378116D01*
X55525649Y3408009D01*
X55514509Y3439143D01*
X55506475Y3471219D01*
X55501623Y3503929D01*
X55500000Y3536956D01*
X55500000Y4413044D01*
X55501623Y4446071D01*
X55506475Y4478781D01*
X55514509Y4510857D01*
X55525649Y4541991D01*
X55539787Y4571884D01*
X55556787Y4600247D01*
X55576485Y4626807D01*
X55598692Y4651308D01*
X55623193Y4673515D01*
X55649753Y4693213D01*
X55678116Y4710213D01*
X55708009Y4724351D01*
X55739143Y4735491D01*
X55771219Y4743525D01*
X55803929Y4748377D01*
X55836956Y4750000D01*
X56963044Y4750000D01*
X56996071Y4748377D01*
X56996071Y4748377D01*
G37*
D11*
X56400000Y3975000D03*
G04 #@! TD*
D10*
G04 #@! TO.C,C5*
G36*
X69396071Y4748377D02*
X69428781Y4743525D01*
X69460857Y4735491D01*
X69491991Y4724351D01*
X69521884Y4710213D01*
X69550247Y4693213D01*
X69576807Y4673515D01*
X69601308Y4651308D01*
X69623515Y4626807D01*
X69643213Y4600247D01*
X69660213Y4571884D01*
X69674351Y4541991D01*
X69685491Y4510857D01*
X69693525Y4478781D01*
X69698377Y4446071D01*
X69700000Y4413044D01*
X69700000Y3536956D01*
X69698377Y3503929D01*
X69693525Y3471219D01*
X69685491Y3439143D01*
X69674351Y3408009D01*
X69660213Y3378116D01*
X69643213Y3349753D01*
X69623515Y3323193D01*
X69601308Y3298692D01*
X69576807Y3276485D01*
X69550247Y3256787D01*
X69521884Y3239787D01*
X69491991Y3225649D01*
X69460857Y3214509D01*
X69428781Y3206475D01*
X69396071Y3201623D01*
X69363044Y3200000D01*
X68236956Y3200000D01*
X68203929Y3201623D01*
X68171219Y3206475D01*
X68139143Y3214509D01*
X68108009Y3225649D01*
X68078116Y3239787D01*
X68049753Y3256787D01*
X68023193Y3276485D01*
X67998692Y3298692D01*
X67976485Y3323193D01*
X67956787Y3349753D01*
X67939787Y3378116D01*
X67925649Y3408009D01*
X67914509Y3439143D01*
X67906475Y3471219D01*
X67901623Y3503929D01*
X67900000Y3536956D01*
X67900000Y4413044D01*
X67901623Y4446071D01*
X67906475Y4478781D01*
X67914509Y4510857D01*
X67925649Y4541991D01*
X67939787Y4571884D01*
X67956787Y4600247D01*
X67976485Y4626807D01*
X67998692Y4651308D01*
X68023193Y4673515D01*
X68049753Y4693213D01*
X68078116Y4710213D01*
X68108009Y4724351D01*
X68139143Y4735491D01*
X68171219Y4743525D01*
X68203929Y4748377D01*
X68236956Y4750000D01*
X69363044Y4750000D01*
X69396071Y4748377D01*
X69396071Y4748377D01*
G37*
D11*
X68800000Y3975000D03*
D10*
G36*
X69396071Y6798377D02*
X69428781Y6793525D01*
X69460857Y6785491D01*
X69491991Y6774351D01*
X69521884Y6760213D01*
X69550247Y6743213D01*
X69576807Y6723515D01*
X69601308Y6701308D01*
X69623515Y6676807D01*
X69643213Y6650247D01*
X69660213Y6621884D01*
X69674351Y6591991D01*
X69685491Y6560857D01*
X69693525Y6528781D01*
X69698377Y6496071D01*
X69700000Y6463044D01*
X69700000Y5586956D01*
X69698377Y5553929D01*
X69693525Y5521219D01*
X69685491Y5489143D01*
X69674351Y5458009D01*
X69660213Y5428116D01*
X69643213Y5399753D01*
X69623515Y5373193D01*
X69601308Y5348692D01*
X69576807Y5326485D01*
X69550247Y5306787D01*
X69521884Y5289787D01*
X69491991Y5275649D01*
X69460857Y5264509D01*
X69428781Y5256475D01*
X69396071Y5251623D01*
X69363044Y5250000D01*
X68236956Y5250000D01*
X68203929Y5251623D01*
X68171219Y5256475D01*
X68139143Y5264509D01*
X68108009Y5275649D01*
X68078116Y5289787D01*
X68049753Y5306787D01*
X68023193Y5326485D01*
X67998692Y5348692D01*
X67976485Y5373193D01*
X67956787Y5399753D01*
X67939787Y5428116D01*
X67925649Y5458009D01*
X67914509Y5489143D01*
X67906475Y5521219D01*
X67901623Y5553929D01*
X67900000Y5586956D01*
X67900000Y6463044D01*
X67901623Y6496071D01*
X67906475Y6528781D01*
X67914509Y6560857D01*
X67925649Y6591991D01*
X67939787Y6621884D01*
X67956787Y6650247D01*
X67976485Y6676807D01*
X67998692Y6701308D01*
X68023193Y6723515D01*
X68049753Y6743213D01*
X68078116Y6760213D01*
X68108009Y6774351D01*
X68139143Y6785491D01*
X68171219Y6793525D01*
X68203929Y6798377D01*
X68236956Y6800000D01*
X69363044Y6800000D01*
X69396071Y6798377D01*
X69396071Y6798377D01*
G37*
D11*
X68800000Y6025000D03*
G04 #@! TD*
D12*
G04 #@! TO.C,D26*
X14050000Y3400000D03*
X14050000Y6600000D03*
X9150000Y3400000D03*
X9150000Y6600000D03*
G04 #@! TD*
G04 #@! TO.C,D27*
X23550000Y6600000D03*
X23550000Y3400000D03*
X28450000Y6600000D03*
X28450000Y3400000D03*
G04 #@! TD*
G04 #@! TO.C,D28*
X40850000Y3400000D03*
X40850000Y6600000D03*
X35950000Y3400000D03*
X35950000Y6600000D03*
G04 #@! TD*
G04 #@! TO.C,D29*
X47950000Y6600000D03*
X47950000Y3400000D03*
X52850000Y6600000D03*
X52850000Y3400000D03*
G04 #@! TD*
G04 #@! TO.C,D30*
X65450000Y3400000D03*
X65450000Y6600000D03*
X60550000Y3400000D03*
X60550000Y6600000D03*
G04 #@! TD*
D13*
G04 #@! TO.C,J1*
X2000000Y2000000D03*
G04 #@! TD*
G04 #@! TO.C,J2*
X73000000Y9000000D03*
G04 #@! TD*
G04 #@! TO.C,J3*
X3000000Y9000000D03*
G04 #@! TD*
G04 #@! TO.C,J4*
X74000000Y2000000D03*
G04 #@! TD*
M02*
