<?xml version="1.0" standalone="no"?>
 <!DOCTYPE svg PUBLIC "-//W3C//DTD SVG 1.1//EN" 
 "http://www.w3.org/Graphics/SVG/1.1/DTD/svg11.dtd"> 
<svg xmlns="http://www.w3.org/2000/svg" version="1.1" 
    width="29.7002cm" height="21.0007cm" viewBox="0 0 116930 82680 ">
<title>SVG Picture created as hal9k-backlight-F.Paste.svg date 2018/09/30 19:04:36 </title>
  <desc>Picture generated by PCBNEW </desc>
<g style="fill:#000000; fill-opacity:1;stroke:#000000; stroke-opacity:1;
stroke-linecap:round; stroke-linejoin:round; "
 transform="translate(0 0) scale(1 1)">
</g>
<g style="fill:#000000; fill-opacity:0.0; 
stroke:#000000; stroke-width:-0.000393701; stroke-opacity:1; 
stroke-linecap:round; stroke-linejoin:round;">
</g>
<g style="fill:#000000; fill-opacity:0.0; 
stroke:#000000; stroke-width:0; stroke-opacity:1; 
stroke-linecap:round; stroke-linejoin:round;">
</g>
<g style="fill:#000000; fill-opacity:1.0; 
stroke:#000000; stroke-width:0; stroke-opacity:1; 
stroke-linecap:round; stroke-linejoin:round;">
<polyline style="fill-rule:evenodd;"
points="51320,33720
51326,33721
51332,33723
51338,33725
51344,33728
51349,33731
51354,33735
51359,33739
51363,33743
51367,33749
51370,33754
51373,33760
51375,33766
51376,33772
51377,33778
51377,33784
51377,33951
51377,33957
51376,33964
51375,33970
51373,33976
51370,33981
51367,33987
51363,33992
51359,33996
51354,34001
51349,34004
51344,34008
51338,34010
51332,34012
51326,34014
51320,34015
51313,34015
51048,34015
51042,34015
51035,34014
51029,34012
51023,34010
51018,34008
51012,34004
51007,34001
51003,33996
50998,33992
50995,33987
50991,33981
50989,33976
50987,33970
50985,33964
50984,33957
50984,33951
50984,33784
50984,33778
50985,33772
50987,33766
50989,33760
50991,33754
50995,33749
50998,33743
51003,33739
51007,33735
51012,33731
51018,33728
51023,33725
51029,33723
51035,33721
51042,33720
51048,33720
51313,33720
51320,33720
" /> 
<polyline style="fill-rule:evenodd;"
points="51320,32913
51326,32914
51332,32916
51338,32918
51344,32920
51349,32924
51354,32927
51359,32932
51363,32936
51367,32941
51370,32947
51373,32953
51375,32958
51376,32965
51377,32971
51377,32977
51377,33144
51377,33150
51376,33156
51375,33163
51373,33169
51370,33174
51367,33180
51363,33185
51359,33189
51354,33194
51349,33197
51344,33201
51338,33203
51332,33205
51326,33207
51320,33208
51313,33208
51048,33208
51042,33208
51035,33207
51029,33205
51023,33203
51018,33201
51012,33197
51007,33194
51003,33189
50998,33185
50995,33180
50991,33174
50989,33169
50987,33163
50985,33156
50984,33150
50984,33144
50984,32977
50984,32971
50985,32965
50987,32958
50989,32953
50991,32947
50995,32941
50998,32936
51003,32932
51007,32927
51012,32924
51018,32920
51023,32918
51029,32916
51035,32914
51042,32913
51048,32913
51313,32913
51320,32913
" /> 
<polyline style="fill-rule:evenodd;"
points="56910,32874
56916,32875
56922,32876
56928,32878
56934,32881
56939,32884
56945,32888
56949,32892
56953,32897
56957,32902
56960,32907
56963,32913
56965,32919
56967,32925
56968,32931
56968,32938
56968,33105
56968,33111
56967,33117
56965,33123
56963,33129
56960,33135
56957,33140
56953,33145
56949,33150
56945,33154
56939,33158
56934,33161
56928,33164
56922,33166
56916,33168
56910,33168
56904,33169
56638,33169
56632,33168
56626,33168
56620,33166
56614,33164
56608,33161
56603,33158
56598,33154
56593,33150
56589,33145
56585,33140
56582,33135
56579,33129
56577,33123
56576,33117
56575,33111
56574,33105
56574,32938
56575,32931
56576,32925
56577,32919
56579,32913
56582,32907
56585,32902
56589,32897
56593,32892
56598,32888
56603,32884
56608,32881
56614,32878
56620,32876
56626,32875
56632,32874
56638,32874
56904,32874
56910,32874
" /> 
<polyline style="fill-rule:evenodd;"
points="56910,33681
56916,33682
56922,33683
56928,33685
56934,33688
56939,33691
56945,33695
56949,33699
56953,33704
56957,33709
56960,33715
56963,33720
56965,33726
56967,33732
56968,33739
56968,33745
56968,33912
56968,33918
56967,33924
56965,33930
56963,33936
56960,33942
56957,33947
56953,33952
56949,33957
56945,33961
56939,33965
56934,33968
56928,33971
56922,33973
56916,33975
56910,33976
56904,33976
56638,33976
56632,33976
56626,33975
56620,33973
56614,33971
56608,33968
56603,33965
56598,33961
56593,33957
56589,33952
56585,33947
56582,33942
56579,33936
56577,33930
56576,33924
56575,33918
56574,33912
56574,33745
56575,33739
56576,33732
56577,33726
56579,33720
56582,33715
56585,33709
56589,33704
56593,33699
56598,33695
56603,33691
56608,33688
56614,33685
56620,33683
56626,33682
56632,33681
56638,33681
56904,33681
56910,33681
" /> 
<polyline style="fill-rule:evenodd;"
points="61753,33720
61759,33721
61765,33723
61771,33725
61777,33728
61782,33731
61787,33735
61792,33739
61796,33743
61800,33749
61803,33754
61806,33760
61808,33766
61809,33772
61810,33778
61811,33784
61811,33951
61810,33957
61809,33964
61808,33970
61806,33976
61803,33981
61800,33987
61796,33992
61792,33996
61787,34001
61782,34004
61777,34008
61771,34010
61765,34012
61759,34014
61753,34015
61746,34015
61481,34015
61475,34015
61468,34014
61462,34012
61456,34010
61451,34008
61445,34004
61440,34001
61436,33996
61431,33992
61428,33987
61424,33981
61422,33976
61420,33970
61418,33964
61417,33957
61417,33951
61417,33784
61417,33778
61418,33772
61420,33766
61422,33760
61424,33754
61428,33749
61431,33743
61436,33739
61440,33735
61445,33731
61451,33728
61456,33725
61462,33723
61468,33721
61475,33720
61481,33720
61746,33720
61753,33720
" /> 
<polyline style="fill-rule:evenodd;"
points="61753,32913
61759,32914
61765,32916
61771,32918
61777,32920
61782,32924
61787,32927
61792,32932
61796,32936
61800,32941
61803,32947
61806,32953
61808,32958
61809,32965
61810,32971
61811,32977
61811,33144
61810,33150
61809,33156
61808,33163
61806,33169
61803,33174
61800,33180
61796,33185
61792,33189
61787,33194
61782,33197
61777,33201
61771,33203
61765,33205
61759,33207
61753,33208
61746,33208
61481,33208
61475,33208
61468,33207
61462,33205
61456,33203
61451,33201
61445,33197
61440,33194
61436,33189
61431,33185
61428,33180
61424,33174
61422,33169
61420,33163
61418,33156
61417,33150
61417,33144
61417,32977
61417,32971
61418,32965
61420,32958
61422,32953
61424,32947
61428,32941
61431,32936
61436,32932
61440,32927
61445,32924
61451,32920
61456,32918
61462,32916
61468,32914
61475,32913
61481,32913
61746,32913
61753,32913
" /> 
<polyline style="fill-rule:evenodd;"
points="66438,32913
66444,32914
66450,32916
66456,32918
66462,32920
66467,32924
66472,32927
66477,32932
66481,32936
66485,32941
66488,32947
66491,32953
66493,32958
66494,32965
66495,32971
66496,32977
66496,33144
66495,33150
66494,33156
66493,33163
66491,33169
66488,33174
66485,33180
66481,33185
66477,33189
66472,33194
66467,33197
66462,33201
66456,33203
66450,33205
66444,33207
66438,33208
66431,33208
66166,33208
66160,33208
66154,33207
66147,33205
66141,33203
66136,33201
66130,33197
66125,33194
66121,33189
66116,33185
66113,33180
66109,33174
66107,33169
66105,33163
66103,33156
66102,33150
66102,33144
66102,32977
66102,32971
66103,32965
66105,32958
66107,32953
66109,32947
66113,32941
66116,32936
66121,32932
66125,32927
66130,32924
66136,32920
66141,32918
66147,32916
66154,32914
66160,32913
66166,32913
66431,32913
66438,32913
" /> 
<polyline style="fill-rule:evenodd;"
points="66438,33720
66444,33721
66450,33723
66456,33725
66462,33728
66467,33731
66472,33735
66477,33739
66481,33743
66485,33749
66488,33754
66491,33760
66493,33766
66494,33772
66495,33778
66496,33784
66496,33951
66495,33957
66494,33964
66493,33970
66491,33976
66488,33981
66485,33987
66481,33992
66477,33996
66472,34001
66467,34004
66462,34008
66456,34010
66450,34012
66444,34014
66438,34015
66431,34015
66166,34015
66160,34015
66154,34014
66147,34012
66141,34010
66136,34008
66130,34004
66125,34001
66121,33996
66116,33992
66113,33987
66109,33981
66107,33976
66105,33970
66103,33964
66102,33957
66102,33951
66102,33784
66102,33778
66103,33772
66105,33766
66107,33760
66109,33754
66113,33749
66116,33743
66121,33739
66125,33735
66130,33731
66136,33728
66141,33725
66147,33723
66154,33721
66160,33720
66166,33720
66431,33720
66438,33720
" /> 
<polyline style="fill-rule:evenodd;"
points="71320,33720
71326,33721
71332,33723
71338,33725
71344,33728
71349,33731
71354,33735
71359,33739
71363,33743
71367,33749
71370,33754
71373,33760
71375,33766
71376,33772
71377,33778
71377,33784
71377,33951
71377,33957
71376,33964
71375,33970
71373,33976
71370,33981
71367,33987
71363,33992
71359,33996
71354,34001
71349,34004
71344,34008
71338,34010
71332,34012
71326,34014
71320,34015
71313,34015
71048,34015
71042,34015
71035,34014
71029,34012
71023,34010
71018,34008
71012,34004
71007,34001
71003,33996
70998,33992
70995,33987
70991,33981
70989,33976
70987,33970
70985,33964
70984,33957
70984,33951
70984,33784
70984,33778
70985,33772
70987,33766
70989,33760
70991,33754
70995,33749
70998,33743
71003,33739
71007,33735
71012,33731
71018,33728
71023,33725
71029,33723
71035,33721
71042,33720
71048,33720
71313,33720
71320,33720
" /> 
<polyline style="fill-rule:evenodd;"
points="71320,32913
71326,32914
71332,32916
71338,32918
71344,32920
71349,32924
71354,32927
71359,32932
71363,32936
71367,32941
71370,32947
71373,32953
71375,32958
71376,32965
71377,32971
71377,32977
71377,33144
71377,33150
71376,33156
71375,33163
71373,33169
71370,33174
71367,33180
71363,33185
71359,33189
71354,33194
71349,33197
71344,33201
71338,33203
71332,33205
71326,33207
71320,33208
71313,33208
71048,33208
71042,33208
71035,33207
71029,33205
71023,33203
71018,33201
71012,33197
71007,33194
71003,33189
70998,33185
70995,33180
70991,33174
70989,33169
70987,33163
70985,33156
70984,33150
70984,33144
70984,32977
70984,32971
70985,32965
70987,32958
70989,32953
70991,32947
70995,32941
70998,32936
71003,32932
71007,32927
71012,32924
71018,32920
71023,32918
71029,32916
71035,32914
71042,32913
71048,32913
71313,32913
71320,32913
" /> 
<polyline style="fill-rule:evenodd;"
points="49842,33976
49842,34212
49409,34212
49409,33976
49842,33976
" /> 
<polyline style="fill-rule:evenodd;"
points="49842,32716
49842,32952
49409,32952
49409,32716
49842,32716
" /> 
<polyline style="fill-rule:evenodd;"
points="47913,33976
47913,34212
47480,34212
47480,33976
47913,33976
" /> 
<polyline style="fill-rule:evenodd;"
points="47913,32716
47913,32952
47480,32952
47480,32716
47913,32716
" /> 
<polyline style="fill-rule:evenodd;"
points="53582,32716
53582,32952
53149,32952
53149,32716
53582,32716
" /> 
<polyline style="fill-rule:evenodd;"
points="53582,33976
53582,34212
53149,34212
53149,33976
53582,33976
" /> 
<polyline style="fill-rule:evenodd;"
points="55511,32716
55511,32952
55078,32952
55078,32716
55511,32716
" /> 
<polyline style="fill-rule:evenodd;"
points="55511,33976
55511,34212
55078,34212
55078,33976
55511,33976
" /> 
<polyline style="fill-rule:evenodd;"
points="60393,33976
60393,34212
59960,34212
59960,33976
60393,33976
" /> 
<polyline style="fill-rule:evenodd;"
points="60393,32716
60393,32952
59960,32952
59960,32716
60393,32716
" /> 
<polyline style="fill-rule:evenodd;"
points="58464,33976
58464,34212
58031,34212
58031,33976
58464,33976
" /> 
<polyline style="fill-rule:evenodd;"
points="58464,32716
58464,32952
58031,32952
58031,32716
58464,32716
" /> 
<polyline style="fill-rule:evenodd;"
points="63188,32716
63188,32952
62755,32952
62755,32716
63188,32716
" /> 
<polyline style="fill-rule:evenodd;"
points="63188,33976
63188,34212
62755,34212
62755,33976
63188,33976
" /> 
<polyline style="fill-rule:evenodd;"
points="65118,32716
65118,32952
64685,32952
64685,32716
65118,32716
" /> 
<polyline style="fill-rule:evenodd;"
points="65118,33976
65118,34212
64685,34212
64685,33976
65118,33976
" /> 
<polyline style="fill-rule:evenodd;"
points="70078,33976
70078,34212
69645,34212
69645,33976
70078,33976
" /> 
<polyline style="fill-rule:evenodd;"
points="70078,32716
70078,32952
69645,32952
69645,32716
70078,32716
" /> 
<polyline style="fill-rule:evenodd;"
points="68149,33976
68149,34212
67716,34212
67716,33976
68149,33976
" /> 
<polyline style="fill-rule:evenodd;"
points="68149,32716
68149,32952
67716,32952
67716,32716
68149,32716
" /> 
</g> 
</svg>
