G04 #@! TF.GenerationSoftware,KiCad,Pcbnew,(5.0.0)*
G04 #@! TF.CreationDate,2018-09-11T10:20:56+02:00*
G04 #@! TF.ProjectId,hal9k-backlight,68616C396B2D6261636B6C696768742E,rev?*
G04 #@! TF.SameCoordinates,PX6acfc00PY55d4a80*
G04 #@! TF.FileFunction,Legend,Bot*
G04 #@! TF.FilePolarity,Positive*
%FSLAX46Y46*%
G04 Gerber Fmt 4.6, Leading zero omitted, Abs format (unit mm)*
G04 Created by KiCad (PCBNEW (5.0.0)) date 09/11/18 10:20:56*
%MOMM*%
%LPD*%
G01*
G04 APERTURE LIST*
%ADD10C,0.300000*%
G04 APERTURE END LIST*
D10*
X44857142Y5596429D02*
X44857142Y7096429D01*
X44500000Y7096429D01*
X44285714Y7025000D01*
X44142857Y6882143D01*
X44071428Y6739286D01*
X44000000Y6453572D01*
X44000000Y6239286D01*
X44071428Y5953572D01*
X44142857Y5810715D01*
X44285714Y5667858D01*
X44500000Y5596429D01*
X44857142Y5596429D01*
X42785714Y5667858D02*
X42928571Y5596429D01*
X43214285Y5596429D01*
X43357142Y5667858D01*
X43428571Y5810715D01*
X43428571Y6382143D01*
X43357142Y6525000D01*
X43214285Y6596429D01*
X42928571Y6596429D01*
X42785714Y6525000D01*
X42714285Y6382143D01*
X42714285Y6239286D01*
X43428571Y6096429D01*
X42142857Y5667858D02*
X42000000Y5596429D01*
X41714285Y5596429D01*
X41571428Y5667858D01*
X41500000Y5810715D01*
X41500000Y5882143D01*
X41571428Y6025000D01*
X41714285Y6096429D01*
X41928571Y6096429D01*
X42071428Y6167858D01*
X42142857Y6310715D01*
X42142857Y6382143D01*
X42071428Y6525000D01*
X41928571Y6596429D01*
X41714285Y6596429D01*
X41571428Y6525000D01*
X40857142Y5596429D02*
X40857142Y6596429D01*
X40857142Y7096429D02*
X40928571Y7025000D01*
X40857142Y6953572D01*
X40785714Y7025000D01*
X40857142Y7096429D01*
X40857142Y6953572D01*
X39500000Y6596429D02*
X39500000Y5382143D01*
X39571428Y5239286D01*
X39642857Y5167858D01*
X39785714Y5096429D01*
X40000000Y5096429D01*
X40142857Y5167858D01*
X39500000Y5667858D02*
X39642857Y5596429D01*
X39928571Y5596429D01*
X40071428Y5667858D01*
X40142857Y5739286D01*
X40214285Y5882143D01*
X40214285Y6310715D01*
X40142857Y6453572D01*
X40071428Y6525000D01*
X39928571Y6596429D01*
X39642857Y6596429D01*
X39500000Y6525000D01*
X38785714Y6596429D02*
X38785714Y5596429D01*
X38785714Y6453572D02*
X38714285Y6525000D01*
X38571428Y6596429D01*
X38357142Y6596429D01*
X38214285Y6525000D01*
X38142857Y6382143D01*
X38142857Y5596429D01*
X36857142Y5667858D02*
X37000000Y5596429D01*
X37285714Y5596429D01*
X37428571Y5667858D01*
X37500000Y5810715D01*
X37500000Y6382143D01*
X37428571Y6525000D01*
X37285714Y6596429D01*
X37000000Y6596429D01*
X36857142Y6525000D01*
X36785714Y6382143D01*
X36785714Y6239286D01*
X37500000Y6096429D01*
X35500000Y5596429D02*
X35500000Y7096429D01*
X35500000Y5667858D02*
X35642857Y5596429D01*
X35928571Y5596429D01*
X36071428Y5667858D01*
X36142857Y5739286D01*
X36214285Y5882143D01*
X36214285Y6310715D01*
X36142857Y6453572D01*
X36071428Y6525000D01*
X35928571Y6596429D01*
X35642857Y6596429D01*
X35500000Y6525000D01*
X33642857Y5596429D02*
X33642857Y7096429D01*
X33642857Y6525000D02*
X33500000Y6596429D01*
X33214285Y6596429D01*
X33071428Y6525000D01*
X33000000Y6453572D01*
X32928571Y6310715D01*
X32928571Y5882143D01*
X33000000Y5739286D01*
X33071428Y5667858D01*
X33214285Y5596429D01*
X33500000Y5596429D01*
X33642857Y5667858D01*
X32428571Y6596429D02*
X32071428Y5596429D01*
X31714285Y6596429D02*
X32071428Y5596429D01*
X32214285Y5239286D01*
X32285714Y5167858D01*
X32428571Y5096429D01*
X31142857Y5739286D02*
X31071428Y5667858D01*
X31142857Y5596429D01*
X31214285Y5667858D01*
X31142857Y5739286D01*
X31142857Y5596429D01*
X31142857Y6525000D02*
X31071428Y6453572D01*
X31142857Y6382143D01*
X31214285Y6453572D01*
X31142857Y6525000D01*
X31142857Y6382143D01*
X44214285Y3475000D02*
X43500000Y3475000D01*
X44357142Y3046429D02*
X43857142Y4546429D01*
X43357142Y3046429D01*
X42857142Y4046429D02*
X42857142Y3046429D01*
X42857142Y3903572D02*
X42785714Y3975000D01*
X42642857Y4046429D01*
X42428571Y4046429D01*
X42285714Y3975000D01*
X42214285Y3832143D01*
X42214285Y3046429D01*
X40857142Y3046429D02*
X40857142Y4546429D01*
X40857142Y3117858D02*
X41000000Y3046429D01*
X41285714Y3046429D01*
X41428571Y3117858D01*
X41500000Y3189286D01*
X41571428Y3332143D01*
X41571428Y3760715D01*
X41500000Y3903572D01*
X41428571Y3975000D01*
X41285714Y4046429D01*
X41000000Y4046429D01*
X40857142Y3975000D01*
X39571428Y3117858D02*
X39714285Y3046429D01*
X40000000Y3046429D01*
X40142857Y3117858D01*
X40214285Y3260715D01*
X40214285Y3832143D01*
X40142857Y3975000D01*
X40000000Y4046429D01*
X39714285Y4046429D01*
X39571428Y3975000D01*
X39500000Y3832143D01*
X39500000Y3689286D01*
X40214285Y3546429D01*
X38857142Y3046429D02*
X38857142Y4046429D01*
X38857142Y3760715D02*
X38785714Y3903572D01*
X38714285Y3975000D01*
X38571428Y4046429D01*
X38428571Y4046429D01*
X38000000Y3117858D02*
X37857142Y3046429D01*
X37571428Y3046429D01*
X37428571Y3117858D01*
X37357142Y3260715D01*
X37357142Y3332143D01*
X37428571Y3475000D01*
X37571428Y3546429D01*
X37785714Y3546429D01*
X37928571Y3617858D01*
X38000000Y3760715D01*
X38000000Y3832143D01*
X37928571Y3975000D01*
X37785714Y4046429D01*
X37571428Y4046429D01*
X37428571Y3975000D01*
X36928571Y4546429D02*
X36428571Y3046429D01*
X35928571Y4546429D01*
X35500000Y4403572D02*
X35428571Y4475000D01*
X35285714Y4546429D01*
X34928571Y4546429D01*
X34785714Y4475000D01*
X34714285Y4403572D01*
X34642857Y4260715D01*
X34642857Y4117858D01*
X34714285Y3903572D01*
X35571428Y3046429D01*
X34642857Y3046429D01*
X33714285Y4546429D02*
X33571428Y4546429D01*
X33428571Y4475000D01*
X33357142Y4403572D01*
X33285714Y4260715D01*
X33214285Y3975000D01*
X33214285Y3617858D01*
X33285714Y3332143D01*
X33357142Y3189286D01*
X33428571Y3117858D01*
X33571428Y3046429D01*
X33714285Y3046429D01*
X33857142Y3117858D01*
X33928571Y3189286D01*
X34000000Y3332143D01*
X34071428Y3617858D01*
X34071428Y3975000D01*
X34000000Y4260715D01*
X33928571Y4403572D01*
X33857142Y4475000D01*
X33714285Y4546429D01*
X32500000Y3046429D02*
X32214285Y3046429D01*
X32071428Y3117858D01*
X32000000Y3189286D01*
X31857142Y3403572D01*
X31785714Y3689286D01*
X31785714Y4260715D01*
X31857142Y4403572D01*
X31928571Y4475000D01*
X32071428Y4546429D01*
X32357142Y4546429D01*
X32500000Y4475000D01*
X32571428Y4403572D01*
X32642857Y4260715D01*
X32642857Y3903572D01*
X32571428Y3760715D01*
X32500000Y3689286D01*
X32357142Y3617858D01*
X32071428Y3617858D01*
X31928571Y3689286D01*
X31857142Y3760715D01*
X31785714Y3903572D01*
M02*
