G04 #@! TF.GenerationSoftware,KiCad,Pcbnew,(5.0.0)*
G04 #@! TF.CreationDate,2018-09-11T10:20:56+02:00*
G04 #@! TF.ProjectId,hal9k-backlight,68616C396B2D6261636B6C696768742E,rev?*
G04 #@! TF.SameCoordinates,PX6acfc00PY55d4a80*
G04 #@! TF.FileFunction,Legend,Top*
G04 #@! TF.FilePolarity,Positive*
%FSLAX46Y46*%
G04 Gerber Fmt 4.6, Leading zero omitted, Abs format (unit mm)*
G04 Created by KiCad (PCBNEW (5.0.0)) date 09/11/18 10:20:56*
%MOMM*%
%LPD*%
G01*
G04 APERTURE LIST*
%ADD10C,0.120000*%
%ADD11C,0.150000*%
G04 APERTURE END LIST*
D10*
G04 #@! TO.C,C1*
X17290000Y4738748D02*
X17290000Y5261252D01*
X18710000Y4738748D02*
X18710000Y5261252D01*
G04 #@! TO.C,C2*
X32910000Y4838748D02*
X32910000Y5361252D01*
X31490000Y4838748D02*
X31490000Y5361252D01*
G04 #@! TO.C,C3*
X43790000Y4738748D02*
X43790000Y5261252D01*
X45210000Y4738748D02*
X45210000Y5261252D01*
G04 #@! TO.C,C4*
X57110000Y4738748D02*
X57110000Y5261252D01*
X55690000Y4738748D02*
X55690000Y5261252D01*
G04 #@! TO.C,C5*
X68090000Y4738748D02*
X68090000Y5261252D01*
X69510000Y4738748D02*
X69510000Y5261252D01*
G04 #@! TO.C,D26*
X7950000Y7750000D02*
X7950000Y6600000D01*
X15250000Y7750001D02*
X7950000Y7750000D01*
X15250000Y2250000D02*
X7950000Y2249999D01*
G04 #@! TO.C,D27*
X29650000Y2250000D02*
X22350000Y2249999D01*
X29650000Y7750001D02*
X22350000Y7750000D01*
X22350000Y7750000D02*
X22350000Y6600000D01*
G04 #@! TO.C,D28*
X34750000Y7750000D02*
X34750000Y6600000D01*
X42050000Y7750001D02*
X34750000Y7750000D01*
X42050000Y2250000D02*
X34750000Y2249999D01*
G04 #@! TO.C,D29*
X54050000Y2250000D02*
X46750000Y2249999D01*
X54050000Y7750001D02*
X46750000Y7750000D01*
X46750000Y7750000D02*
X46750000Y6600000D01*
G04 #@! TO.C,D30*
X59350000Y7750000D02*
X59350000Y6600000D01*
X66650000Y7750001D02*
X59350000Y7750000D01*
X66650000Y2250000D02*
X59350000Y2249999D01*
G04 #@! TO.C,J1*
X940000Y940000D02*
X3060000Y940000D01*
X940000Y1000000D02*
X940000Y940000D01*
X3060000Y1000000D02*
X3060000Y940000D01*
X940000Y1000000D02*
X3060000Y1000000D01*
X940000Y2000000D02*
X940000Y3060000D01*
X940000Y3060000D02*
X2000000Y3060000D01*
G04 #@! TO.C,J2*
X71940000Y10060000D02*
X73000000Y10060000D01*
X71940000Y9000000D02*
X71940000Y10060000D01*
X71940000Y8000000D02*
X74060000Y8000000D01*
X74060000Y8000000D02*
X74060000Y7940000D01*
X71940000Y8000000D02*
X71940000Y7940000D01*
X71940000Y7940000D02*
X74060000Y7940000D01*
G04 #@! TO.C,J3*
X1940000Y7940000D02*
X4060000Y7940000D01*
X1940000Y8000000D02*
X1940000Y7940000D01*
X4060000Y8000000D02*
X4060000Y7940000D01*
X1940000Y8000000D02*
X4060000Y8000000D01*
X1940000Y9000000D02*
X1940000Y10060000D01*
X1940000Y10060000D02*
X3000000Y10060000D01*
G04 #@! TO.C,J4*
X72940000Y3060000D02*
X74000000Y3060000D01*
X72940000Y2000000D02*
X72940000Y3060000D01*
X72940000Y1000000D02*
X75060000Y1000000D01*
X75060000Y1000000D02*
X75060000Y940000D01*
X72940000Y1000000D02*
X72940000Y940000D01*
X72940000Y940000D02*
X75060000Y940000D01*
G04 #@! TO.C,C1*
D11*
X17833333Y7642858D02*
X17785714Y7595239D01*
X17642857Y7547620D01*
X17547619Y7547620D01*
X17404761Y7595239D01*
X17309523Y7690477D01*
X17261904Y7785715D01*
X17214285Y7976191D01*
X17214285Y8119048D01*
X17261904Y8309524D01*
X17309523Y8404762D01*
X17404761Y8500000D01*
X17547619Y8547620D01*
X17642857Y8547620D01*
X17785714Y8500000D01*
X17833333Y8452381D01*
X18785714Y7547620D02*
X18214285Y7547620D01*
X18500000Y7547620D02*
X18500000Y8547620D01*
X18404761Y8404762D01*
X18309523Y8309524D01*
X18214285Y8261905D01*
G04 #@! TO.C,C2*
X32033333Y7642858D02*
X31985714Y7595239D01*
X31842857Y7547620D01*
X31747619Y7547620D01*
X31604761Y7595239D01*
X31509523Y7690477D01*
X31461904Y7785715D01*
X31414285Y7976191D01*
X31414285Y8119048D01*
X31461904Y8309524D01*
X31509523Y8404762D01*
X31604761Y8500000D01*
X31747619Y8547620D01*
X31842857Y8547620D01*
X31985714Y8500000D01*
X32033333Y8452381D01*
X32414285Y8452381D02*
X32461904Y8500000D01*
X32557142Y8547620D01*
X32795238Y8547620D01*
X32890476Y8500000D01*
X32938095Y8452381D01*
X32985714Y8357143D01*
X32985714Y8261905D01*
X32938095Y8119048D01*
X32366666Y7547620D01*
X32985714Y7547620D01*
G04 #@! TO.C,C3*
X44333333Y7642858D02*
X44285714Y7595239D01*
X44142857Y7547620D01*
X44047619Y7547620D01*
X43904761Y7595239D01*
X43809523Y7690477D01*
X43761904Y7785715D01*
X43714285Y7976191D01*
X43714285Y8119048D01*
X43761904Y8309524D01*
X43809523Y8404762D01*
X43904761Y8500000D01*
X44047619Y8547620D01*
X44142857Y8547620D01*
X44285714Y8500000D01*
X44333333Y8452381D01*
X44666666Y8547620D02*
X45285714Y8547620D01*
X44952380Y8166667D01*
X45095238Y8166667D01*
X45190476Y8119048D01*
X45238095Y8071429D01*
X45285714Y7976191D01*
X45285714Y7738096D01*
X45238095Y7642858D01*
X45190476Y7595239D01*
X45095238Y7547620D01*
X44809523Y7547620D01*
X44714285Y7595239D01*
X44666666Y7642858D01*
G04 #@! TO.C,C4*
X56233333Y7642858D02*
X56185714Y7595239D01*
X56042857Y7547620D01*
X55947619Y7547620D01*
X55804761Y7595239D01*
X55709523Y7690477D01*
X55661904Y7785715D01*
X55614285Y7976191D01*
X55614285Y8119048D01*
X55661904Y8309524D01*
X55709523Y8404762D01*
X55804761Y8500000D01*
X55947619Y8547620D01*
X56042857Y8547620D01*
X56185714Y8500000D01*
X56233333Y8452381D01*
X57090476Y8214286D02*
X57090476Y7547620D01*
X56852380Y8595239D02*
X56614285Y7880953D01*
X57233333Y7880953D01*
G04 #@! TO.C,C5*
X68633333Y7542858D02*
X68585714Y7495239D01*
X68442857Y7447620D01*
X68347619Y7447620D01*
X68204761Y7495239D01*
X68109523Y7590477D01*
X68061904Y7685715D01*
X68014285Y7876191D01*
X68014285Y8019048D01*
X68061904Y8209524D01*
X68109523Y8304762D01*
X68204761Y8400000D01*
X68347619Y8447620D01*
X68442857Y8447620D01*
X68585714Y8400000D01*
X68633333Y8352381D01*
X69538095Y8447620D02*
X69061904Y8447620D01*
X69014285Y7971429D01*
X69061904Y8019048D01*
X69157142Y8066667D01*
X69395238Y8066667D01*
X69490476Y8019048D01*
X69538095Y7971429D01*
X69585714Y7876191D01*
X69585714Y7638096D01*
X69538095Y7542858D01*
X69490476Y7495239D01*
X69395238Y7447620D01*
X69157142Y7447620D01*
X69061904Y7495239D01*
X69014285Y7542858D01*
G04 #@! TO.C,D26*
X10385714Y1047620D02*
X10385714Y2047620D01*
X10623809Y2047620D01*
X10766666Y2000000D01*
X10861904Y1904762D01*
X10909523Y1809524D01*
X10957142Y1619048D01*
X10957142Y1476191D01*
X10909523Y1285715D01*
X10861904Y1190477D01*
X10766666Y1095239D01*
X10623809Y1047620D01*
X10385714Y1047620D01*
X11338095Y1952381D02*
X11385714Y2000000D01*
X11480952Y2047620D01*
X11719047Y2047620D01*
X11814285Y2000000D01*
X11861904Y1952381D01*
X11909523Y1857143D01*
X11909523Y1761905D01*
X11861904Y1619048D01*
X11290476Y1047620D01*
X11909523Y1047620D01*
X12766666Y2047620D02*
X12576190Y2047620D01*
X12480952Y2000000D01*
X12433333Y1952381D01*
X12338095Y1809524D01*
X12290476Y1619048D01*
X12290476Y1238096D01*
X12338095Y1142858D01*
X12385714Y1095239D01*
X12480952Y1047620D01*
X12671428Y1047620D01*
X12766666Y1095239D01*
X12814285Y1142858D01*
X12861904Y1238096D01*
X12861904Y1476191D01*
X12814285Y1571429D01*
X12766666Y1619048D01*
X12671428Y1666667D01*
X12480952Y1666667D01*
X12385714Y1619048D01*
X12338095Y1571429D01*
X12290476Y1476191D01*
X16035714Y2947620D02*
X15464285Y2947620D01*
X15750000Y2947620D02*
X15750000Y3947620D01*
X15654761Y3804762D01*
X15559523Y3709524D01*
X15464285Y3661905D01*
G04 #@! TO.C,D27*
X24785714Y1047620D02*
X24785714Y2047620D01*
X25023809Y2047620D01*
X25166666Y2000000D01*
X25261904Y1904762D01*
X25309523Y1809524D01*
X25357142Y1619048D01*
X25357142Y1476191D01*
X25309523Y1285715D01*
X25261904Y1190477D01*
X25166666Y1095239D01*
X25023809Y1047620D01*
X24785714Y1047620D01*
X25738095Y1952381D02*
X25785714Y2000000D01*
X25880952Y2047620D01*
X26119047Y2047620D01*
X26214285Y2000000D01*
X26261904Y1952381D01*
X26309523Y1857143D01*
X26309523Y1761905D01*
X26261904Y1619048D01*
X25690476Y1047620D01*
X26309523Y1047620D01*
X26642857Y2047620D02*
X27309523Y2047620D01*
X26880952Y1047620D01*
X30435714Y2947620D02*
X29864285Y2947620D01*
X30150000Y2947620D02*
X30150000Y3947620D01*
X30054761Y3804762D01*
X29959523Y3709524D01*
X29864285Y3661905D01*
G04 #@! TO.C,D28*
X37185714Y1047620D02*
X37185714Y2047620D01*
X37423809Y2047620D01*
X37566666Y2000000D01*
X37661904Y1904762D01*
X37709523Y1809524D01*
X37757142Y1619048D01*
X37757142Y1476191D01*
X37709523Y1285715D01*
X37661904Y1190477D01*
X37566666Y1095239D01*
X37423809Y1047620D01*
X37185714Y1047620D01*
X38138095Y1952381D02*
X38185714Y2000000D01*
X38280952Y2047620D01*
X38519047Y2047620D01*
X38614285Y2000000D01*
X38661904Y1952381D01*
X38709523Y1857143D01*
X38709523Y1761905D01*
X38661904Y1619048D01*
X38090476Y1047620D01*
X38709523Y1047620D01*
X39280952Y1619048D02*
X39185714Y1666667D01*
X39138095Y1714286D01*
X39090476Y1809524D01*
X39090476Y1857143D01*
X39138095Y1952381D01*
X39185714Y2000000D01*
X39280952Y2047620D01*
X39471428Y2047620D01*
X39566666Y2000000D01*
X39614285Y1952381D01*
X39661904Y1857143D01*
X39661904Y1809524D01*
X39614285Y1714286D01*
X39566666Y1666667D01*
X39471428Y1619048D01*
X39280952Y1619048D01*
X39185714Y1571429D01*
X39138095Y1523810D01*
X39090476Y1428572D01*
X39090476Y1238096D01*
X39138095Y1142858D01*
X39185714Y1095239D01*
X39280952Y1047620D01*
X39471428Y1047620D01*
X39566666Y1095239D01*
X39614285Y1142858D01*
X39661904Y1238096D01*
X39661904Y1428572D01*
X39614285Y1523810D01*
X39566666Y1571429D01*
X39471428Y1619048D01*
X42835714Y2947620D02*
X42264285Y2947620D01*
X42550000Y2947620D02*
X42550000Y3947620D01*
X42454761Y3804762D01*
X42359523Y3709524D01*
X42264285Y3661905D01*
G04 #@! TO.C,D29*
X49185714Y1047620D02*
X49185714Y2047620D01*
X49423809Y2047620D01*
X49566666Y2000000D01*
X49661904Y1904762D01*
X49709523Y1809524D01*
X49757142Y1619048D01*
X49757142Y1476191D01*
X49709523Y1285715D01*
X49661904Y1190477D01*
X49566666Y1095239D01*
X49423809Y1047620D01*
X49185714Y1047620D01*
X50138095Y1952381D02*
X50185714Y2000000D01*
X50280952Y2047620D01*
X50519047Y2047620D01*
X50614285Y2000000D01*
X50661904Y1952381D01*
X50709523Y1857143D01*
X50709523Y1761905D01*
X50661904Y1619048D01*
X50090476Y1047620D01*
X50709523Y1047620D01*
X51185714Y1047620D02*
X51376190Y1047620D01*
X51471428Y1095239D01*
X51519047Y1142858D01*
X51614285Y1285715D01*
X51661904Y1476191D01*
X51661904Y1857143D01*
X51614285Y1952381D01*
X51566666Y2000000D01*
X51471428Y2047620D01*
X51280952Y2047620D01*
X51185714Y2000000D01*
X51138095Y1952381D01*
X51090476Y1857143D01*
X51090476Y1619048D01*
X51138095Y1523810D01*
X51185714Y1476191D01*
X51280952Y1428572D01*
X51471428Y1428572D01*
X51566666Y1476191D01*
X51614285Y1523810D01*
X51661904Y1619048D01*
X54835714Y2947620D02*
X54264285Y2947620D01*
X54550000Y2947620D02*
X54550000Y3947620D01*
X54454761Y3804762D01*
X54359523Y3709524D01*
X54264285Y3661905D01*
G04 #@! TO.C,D30*
X61785714Y1047620D02*
X61785714Y2047620D01*
X62023809Y2047620D01*
X62166666Y2000000D01*
X62261904Y1904762D01*
X62309523Y1809524D01*
X62357142Y1619048D01*
X62357142Y1476191D01*
X62309523Y1285715D01*
X62261904Y1190477D01*
X62166666Y1095239D01*
X62023809Y1047620D01*
X61785714Y1047620D01*
X62690476Y2047620D02*
X63309523Y2047620D01*
X62976190Y1666667D01*
X63119047Y1666667D01*
X63214285Y1619048D01*
X63261904Y1571429D01*
X63309523Y1476191D01*
X63309523Y1238096D01*
X63261904Y1142858D01*
X63214285Y1095239D01*
X63119047Y1047620D01*
X62833333Y1047620D01*
X62738095Y1095239D01*
X62690476Y1142858D01*
X63928571Y2047620D02*
X64023809Y2047620D01*
X64119047Y2000000D01*
X64166666Y1952381D01*
X64214285Y1857143D01*
X64261904Y1666667D01*
X64261904Y1428572D01*
X64214285Y1238096D01*
X64166666Y1142858D01*
X64119047Y1095239D01*
X64023809Y1047620D01*
X63928571Y1047620D01*
X63833333Y1095239D01*
X63785714Y1142858D01*
X63738095Y1238096D01*
X63690476Y1428572D01*
X63690476Y1666667D01*
X63738095Y1857143D01*
X63785714Y1952381D01*
X63833333Y2000000D01*
X63928571Y2047620D01*
X67435714Y2947620D02*
X66864285Y2947620D01*
X67150000Y2947620D02*
X67150000Y3947620D01*
X67054761Y3804762D01*
X66959523Y3709524D01*
X66864285Y3661905D01*
G04 #@! TD*
M02*
