G04 #@! TF.GenerationSoftware,KiCad,Pcbnew,(5.0.0)*
G04 #@! TF.CreationDate,2018-09-09T18:04:00+02:00*
G04 #@! TF.ProjectId,hal9k-backlight,68616C396B2D6261636B6C696768742E,rev?*
G04 #@! TF.SameCoordinates,PX6acfc00PY56c8cc0*
G04 #@! TF.FileFunction,Legend,Bot*
G04 #@! TF.FilePolarity,Positive*
%FSLAX46Y46*%
G04 Gerber Fmt 4.6, Leading zero omitted, Abs format (unit mm)*
G04 Created by KiCad (PCBNEW (5.0.0)) date 09/09/18 18:04:00*
%MOMM*%
%LPD*%
G01*
G04 APERTURE LIST*
%ADD10C,0.300000*%
G04 APERTURE END LIST*
D10*
X44857142Y6596429D02*
X44857142Y8096429D01*
X44500000Y8096429D01*
X44285714Y8025000D01*
X44142857Y7882143D01*
X44071428Y7739286D01*
X44000000Y7453572D01*
X44000000Y7239286D01*
X44071428Y6953572D01*
X44142857Y6810715D01*
X44285714Y6667858D01*
X44500000Y6596429D01*
X44857142Y6596429D01*
X42785714Y6667858D02*
X42928571Y6596429D01*
X43214285Y6596429D01*
X43357142Y6667858D01*
X43428571Y6810715D01*
X43428571Y7382143D01*
X43357142Y7525000D01*
X43214285Y7596429D01*
X42928571Y7596429D01*
X42785714Y7525000D01*
X42714285Y7382143D01*
X42714285Y7239286D01*
X43428571Y7096429D01*
X42142857Y6667858D02*
X42000000Y6596429D01*
X41714285Y6596429D01*
X41571428Y6667858D01*
X41500000Y6810715D01*
X41500000Y6882143D01*
X41571428Y7025000D01*
X41714285Y7096429D01*
X41928571Y7096429D01*
X42071428Y7167858D01*
X42142857Y7310715D01*
X42142857Y7382143D01*
X42071428Y7525000D01*
X41928571Y7596429D01*
X41714285Y7596429D01*
X41571428Y7525000D01*
X40857142Y6596429D02*
X40857142Y7596429D01*
X40857142Y8096429D02*
X40928571Y8025000D01*
X40857142Y7953572D01*
X40785714Y8025000D01*
X40857142Y8096429D01*
X40857142Y7953572D01*
X39500000Y7596429D02*
X39500000Y6382143D01*
X39571428Y6239286D01*
X39642857Y6167858D01*
X39785714Y6096429D01*
X40000000Y6096429D01*
X40142857Y6167858D01*
X39500000Y6667858D02*
X39642857Y6596429D01*
X39928571Y6596429D01*
X40071428Y6667858D01*
X40142857Y6739286D01*
X40214285Y6882143D01*
X40214285Y7310715D01*
X40142857Y7453572D01*
X40071428Y7525000D01*
X39928571Y7596429D01*
X39642857Y7596429D01*
X39500000Y7525000D01*
X38785714Y7596429D02*
X38785714Y6596429D01*
X38785714Y7453572D02*
X38714285Y7525000D01*
X38571428Y7596429D01*
X38357142Y7596429D01*
X38214285Y7525000D01*
X38142857Y7382143D01*
X38142857Y6596429D01*
X36857142Y6667858D02*
X37000000Y6596429D01*
X37285714Y6596429D01*
X37428571Y6667858D01*
X37500000Y6810715D01*
X37500000Y7382143D01*
X37428571Y7525000D01*
X37285714Y7596429D01*
X37000000Y7596429D01*
X36857142Y7525000D01*
X36785714Y7382143D01*
X36785714Y7239286D01*
X37500000Y7096429D01*
X35500000Y6596429D02*
X35500000Y8096429D01*
X35500000Y6667858D02*
X35642857Y6596429D01*
X35928571Y6596429D01*
X36071428Y6667858D01*
X36142857Y6739286D01*
X36214285Y6882143D01*
X36214285Y7310715D01*
X36142857Y7453572D01*
X36071428Y7525000D01*
X35928571Y7596429D01*
X35642857Y7596429D01*
X35500000Y7525000D01*
X33642857Y6596429D02*
X33642857Y8096429D01*
X33642857Y7525000D02*
X33500000Y7596429D01*
X33214285Y7596429D01*
X33071428Y7525000D01*
X33000000Y7453572D01*
X32928571Y7310715D01*
X32928571Y6882143D01*
X33000000Y6739286D01*
X33071428Y6667858D01*
X33214285Y6596429D01*
X33500000Y6596429D01*
X33642857Y6667858D01*
X32428571Y7596429D02*
X32071428Y6596429D01*
X31714285Y7596429D02*
X32071428Y6596429D01*
X32214285Y6239286D01*
X32285714Y6167858D01*
X32428571Y6096429D01*
X31142857Y6739286D02*
X31071428Y6667858D01*
X31142857Y6596429D01*
X31214285Y6667858D01*
X31142857Y6739286D01*
X31142857Y6596429D01*
X31142857Y7525000D02*
X31071428Y7453572D01*
X31142857Y7382143D01*
X31214285Y7453572D01*
X31142857Y7525000D01*
X31142857Y7382143D01*
X44214285Y4475000D02*
X43500000Y4475000D01*
X44357142Y4046429D02*
X43857142Y5546429D01*
X43357142Y4046429D01*
X42857142Y5046429D02*
X42857142Y4046429D01*
X42857142Y4903572D02*
X42785714Y4975000D01*
X42642857Y5046429D01*
X42428571Y5046429D01*
X42285714Y4975000D01*
X42214285Y4832143D01*
X42214285Y4046429D01*
X40857142Y4046429D02*
X40857142Y5546429D01*
X40857142Y4117858D02*
X41000000Y4046429D01*
X41285714Y4046429D01*
X41428571Y4117858D01*
X41500000Y4189286D01*
X41571428Y4332143D01*
X41571428Y4760715D01*
X41500000Y4903572D01*
X41428571Y4975000D01*
X41285714Y5046429D01*
X41000000Y5046429D01*
X40857142Y4975000D01*
X39571428Y4117858D02*
X39714285Y4046429D01*
X40000000Y4046429D01*
X40142857Y4117858D01*
X40214285Y4260715D01*
X40214285Y4832143D01*
X40142857Y4975000D01*
X40000000Y5046429D01*
X39714285Y5046429D01*
X39571428Y4975000D01*
X39500000Y4832143D01*
X39500000Y4689286D01*
X40214285Y4546429D01*
X38857142Y4046429D02*
X38857142Y5046429D01*
X38857142Y4760715D02*
X38785714Y4903572D01*
X38714285Y4975000D01*
X38571428Y5046429D01*
X38428571Y5046429D01*
X38000000Y4117858D02*
X37857142Y4046429D01*
X37571428Y4046429D01*
X37428571Y4117858D01*
X37357142Y4260715D01*
X37357142Y4332143D01*
X37428571Y4475000D01*
X37571428Y4546429D01*
X37785714Y4546429D01*
X37928571Y4617858D01*
X38000000Y4760715D01*
X38000000Y4832143D01*
X37928571Y4975000D01*
X37785714Y5046429D01*
X37571428Y5046429D01*
X37428571Y4975000D01*
X36928571Y5546429D02*
X36428571Y4046429D01*
X35928571Y5546429D01*
X35500000Y5403572D02*
X35428571Y5475000D01*
X35285714Y5546429D01*
X34928571Y5546429D01*
X34785714Y5475000D01*
X34714285Y5403572D01*
X34642857Y5260715D01*
X34642857Y5117858D01*
X34714285Y4903572D01*
X35571428Y4046429D01*
X34642857Y4046429D01*
X33714285Y5546429D02*
X33571428Y5546429D01*
X33428571Y5475000D01*
X33357142Y5403572D01*
X33285714Y5260715D01*
X33214285Y4975000D01*
X33214285Y4617858D01*
X33285714Y4332143D01*
X33357142Y4189286D01*
X33428571Y4117858D01*
X33571428Y4046429D01*
X33714285Y4046429D01*
X33857142Y4117858D01*
X33928571Y4189286D01*
X34000000Y4332143D01*
X34071428Y4617858D01*
X34071428Y4975000D01*
X34000000Y5260715D01*
X33928571Y5403572D01*
X33857142Y5475000D01*
X33714285Y5546429D01*
X32500000Y4046429D02*
X32214285Y4046429D01*
X32071428Y4117858D01*
X32000000Y4189286D01*
X31857142Y4403572D01*
X31785714Y4689286D01*
X31785714Y5260715D01*
X31857142Y5403572D01*
X31928571Y5475000D01*
X32071428Y5546429D01*
X32357142Y5546429D01*
X32500000Y5475000D01*
X32571428Y5403572D01*
X32642857Y5260715D01*
X32642857Y4903572D01*
X32571428Y4760715D01*
X32500000Y4689286D01*
X32357142Y4617858D01*
X32071428Y4617858D01*
X31928571Y4689286D01*
X31857142Y4760715D01*
X31785714Y4903572D01*
M02*
