G04 #@! TF.GenerationSoftware,KiCad,Pcbnew,(5.0.0)*
G04 #@! TF.CreationDate,2018-09-09T18:04:00+02:00*
G04 #@! TF.ProjectId,hal9k-backlight,68616C396B2D6261636B6C696768742E,rev?*
G04 #@! TF.SameCoordinates,PX6acfc00PY56c8cc0*
G04 #@! TF.FileFunction,Legend,Top*
G04 #@! TF.FilePolarity,Positive*
%FSLAX46Y46*%
G04 Gerber Fmt 4.6, Leading zero omitted, Abs format (unit mm)*
G04 Created by KiCad (PCBNEW (5.0.0)) date 09/09/18 18:04:00*
%MOMM*%
%LPD*%
G01*
G04 APERTURE LIST*
%ADD10C,0.120000*%
%ADD11C,0.150000*%
G04 APERTURE END LIST*
D10*
G04 #@! TO.C,C1*
X17290000Y5738748D02*
X17290000Y6261252D01*
X18710000Y5738748D02*
X18710000Y6261252D01*
G04 #@! TO.C,C2*
X32910000Y5838748D02*
X32910000Y6361252D01*
X31490000Y5838748D02*
X31490000Y6361252D01*
G04 #@! TO.C,C3*
X43790000Y5738748D02*
X43790000Y6261252D01*
X45210000Y5738748D02*
X45210000Y6261252D01*
G04 #@! TO.C,C4*
X57110000Y5738748D02*
X57110000Y6261252D01*
X55690000Y5738748D02*
X55690000Y6261252D01*
G04 #@! TO.C,C5*
X68090000Y5738748D02*
X68090000Y6261252D01*
X69510000Y5738748D02*
X69510000Y6261252D01*
G04 #@! TO.C,D26*
X7950000Y8750000D02*
X7950000Y7600000D01*
X15250000Y8750001D02*
X7950000Y8750000D01*
X15250000Y3250000D02*
X7950000Y3249999D01*
G04 #@! TO.C,D27*
X29650000Y3250000D02*
X22350000Y3249999D01*
X29650000Y8750001D02*
X22350000Y8750000D01*
X22350000Y8750000D02*
X22350000Y7600000D01*
G04 #@! TO.C,D28*
X34750000Y8750000D02*
X34750000Y7600000D01*
X42050000Y8750001D02*
X34750000Y8750000D01*
X42050000Y3250000D02*
X34750000Y3249999D01*
G04 #@! TO.C,D29*
X54050000Y3250000D02*
X46750000Y3249999D01*
X54050000Y8750001D02*
X46750000Y8750000D01*
X46750000Y8750000D02*
X46750000Y7600000D01*
G04 #@! TO.C,D30*
X59350000Y8750000D02*
X59350000Y7600000D01*
X66650000Y8750001D02*
X59350000Y8750000D01*
X66650000Y3250000D02*
X59350000Y3249999D01*
G04 #@! TO.C,J1*
X940000Y1940000D02*
X3060000Y1940000D01*
X940000Y2060000D02*
X940000Y1940000D01*
X3060000Y2060000D02*
X3060000Y1940000D01*
X3060000Y4060000D02*
X3060000Y3000000D01*
X2000000Y4060000D02*
X3060000Y4060000D01*
G04 #@! TO.C,J2*
X73000000Y11060000D02*
X74060000Y11060000D01*
X74060000Y11060000D02*
X74060000Y10000000D01*
X74060000Y9060000D02*
X74060000Y8940000D01*
X71940000Y9060000D02*
X71940000Y8940000D01*
X71940000Y8940000D02*
X74060000Y8940000D01*
G04 #@! TO.C,J3*
X1940000Y8940000D02*
X4060000Y8940000D01*
X1940000Y9060000D02*
X1940000Y8940000D01*
X4060000Y9060000D02*
X4060000Y8940000D01*
X4060000Y11060000D02*
X4060000Y10000000D01*
X3000000Y11060000D02*
X4060000Y11060000D01*
G04 #@! TO.C,J4*
X74000000Y4060000D02*
X75060000Y4060000D01*
X75060000Y4060000D02*
X75060000Y3000000D01*
X75060000Y2060000D02*
X75060000Y1940000D01*
X72940000Y2060000D02*
X72940000Y1940000D01*
X72940000Y1940000D02*
X75060000Y1940000D01*
G04 #@! TO.C,C1*
D11*
X17833333Y8642858D02*
X17785714Y8595239D01*
X17642857Y8547620D01*
X17547619Y8547620D01*
X17404761Y8595239D01*
X17309523Y8690477D01*
X17261904Y8785715D01*
X17214285Y8976191D01*
X17214285Y9119048D01*
X17261904Y9309524D01*
X17309523Y9404762D01*
X17404761Y9500000D01*
X17547619Y9547620D01*
X17642857Y9547620D01*
X17785714Y9500000D01*
X17833333Y9452381D01*
X18785714Y8547620D02*
X18214285Y8547620D01*
X18500000Y8547620D02*
X18500000Y9547620D01*
X18404761Y9404762D01*
X18309523Y9309524D01*
X18214285Y9261905D01*
G04 #@! TO.C,C2*
X32033333Y8642858D02*
X31985714Y8595239D01*
X31842857Y8547620D01*
X31747619Y8547620D01*
X31604761Y8595239D01*
X31509523Y8690477D01*
X31461904Y8785715D01*
X31414285Y8976191D01*
X31414285Y9119048D01*
X31461904Y9309524D01*
X31509523Y9404762D01*
X31604761Y9500000D01*
X31747619Y9547620D01*
X31842857Y9547620D01*
X31985714Y9500000D01*
X32033333Y9452381D01*
X32414285Y9452381D02*
X32461904Y9500000D01*
X32557142Y9547620D01*
X32795238Y9547620D01*
X32890476Y9500000D01*
X32938095Y9452381D01*
X32985714Y9357143D01*
X32985714Y9261905D01*
X32938095Y9119048D01*
X32366666Y8547620D01*
X32985714Y8547620D01*
G04 #@! TO.C,C3*
X44333333Y8642858D02*
X44285714Y8595239D01*
X44142857Y8547620D01*
X44047619Y8547620D01*
X43904761Y8595239D01*
X43809523Y8690477D01*
X43761904Y8785715D01*
X43714285Y8976191D01*
X43714285Y9119048D01*
X43761904Y9309524D01*
X43809523Y9404762D01*
X43904761Y9500000D01*
X44047619Y9547620D01*
X44142857Y9547620D01*
X44285714Y9500000D01*
X44333333Y9452381D01*
X44666666Y9547620D02*
X45285714Y9547620D01*
X44952380Y9166667D01*
X45095238Y9166667D01*
X45190476Y9119048D01*
X45238095Y9071429D01*
X45285714Y8976191D01*
X45285714Y8738096D01*
X45238095Y8642858D01*
X45190476Y8595239D01*
X45095238Y8547620D01*
X44809523Y8547620D01*
X44714285Y8595239D01*
X44666666Y8642858D01*
G04 #@! TO.C,C4*
X56233333Y8642858D02*
X56185714Y8595239D01*
X56042857Y8547620D01*
X55947619Y8547620D01*
X55804761Y8595239D01*
X55709523Y8690477D01*
X55661904Y8785715D01*
X55614285Y8976191D01*
X55614285Y9119048D01*
X55661904Y9309524D01*
X55709523Y9404762D01*
X55804761Y9500000D01*
X55947619Y9547620D01*
X56042857Y9547620D01*
X56185714Y9500000D01*
X56233333Y9452381D01*
X57090476Y9214286D02*
X57090476Y8547620D01*
X56852380Y9595239D02*
X56614285Y8880953D01*
X57233333Y8880953D01*
G04 #@! TO.C,C5*
X68633333Y8542858D02*
X68585714Y8495239D01*
X68442857Y8447620D01*
X68347619Y8447620D01*
X68204761Y8495239D01*
X68109523Y8590477D01*
X68061904Y8685715D01*
X68014285Y8876191D01*
X68014285Y9019048D01*
X68061904Y9209524D01*
X68109523Y9304762D01*
X68204761Y9400000D01*
X68347619Y9447620D01*
X68442857Y9447620D01*
X68585714Y9400000D01*
X68633333Y9352381D01*
X69538095Y9447620D02*
X69061904Y9447620D01*
X69014285Y8971429D01*
X69061904Y9019048D01*
X69157142Y9066667D01*
X69395238Y9066667D01*
X69490476Y9019048D01*
X69538095Y8971429D01*
X69585714Y8876191D01*
X69585714Y8638096D01*
X69538095Y8542858D01*
X69490476Y8495239D01*
X69395238Y8447620D01*
X69157142Y8447620D01*
X69061904Y8495239D01*
X69014285Y8542858D01*
G04 #@! TO.C,D26*
X10385714Y2047620D02*
X10385714Y3047620D01*
X10623809Y3047620D01*
X10766666Y3000000D01*
X10861904Y2904762D01*
X10909523Y2809524D01*
X10957142Y2619048D01*
X10957142Y2476191D01*
X10909523Y2285715D01*
X10861904Y2190477D01*
X10766666Y2095239D01*
X10623809Y2047620D01*
X10385714Y2047620D01*
X11338095Y2952381D02*
X11385714Y3000000D01*
X11480952Y3047620D01*
X11719047Y3047620D01*
X11814285Y3000000D01*
X11861904Y2952381D01*
X11909523Y2857143D01*
X11909523Y2761905D01*
X11861904Y2619048D01*
X11290476Y2047620D01*
X11909523Y2047620D01*
X12766666Y3047620D02*
X12576190Y3047620D01*
X12480952Y3000000D01*
X12433333Y2952381D01*
X12338095Y2809524D01*
X12290476Y2619048D01*
X12290476Y2238096D01*
X12338095Y2142858D01*
X12385714Y2095239D01*
X12480952Y2047620D01*
X12671428Y2047620D01*
X12766666Y2095239D01*
X12814285Y2142858D01*
X12861904Y2238096D01*
X12861904Y2476191D01*
X12814285Y2571429D01*
X12766666Y2619048D01*
X12671428Y2666667D01*
X12480952Y2666667D01*
X12385714Y2619048D01*
X12338095Y2571429D01*
X12290476Y2476191D01*
X16035714Y3947620D02*
X15464285Y3947620D01*
X15750000Y3947620D02*
X15750000Y4947620D01*
X15654761Y4804762D01*
X15559523Y4709524D01*
X15464285Y4661905D01*
G04 #@! TO.C,D27*
X24785714Y2047620D02*
X24785714Y3047620D01*
X25023809Y3047620D01*
X25166666Y3000000D01*
X25261904Y2904762D01*
X25309523Y2809524D01*
X25357142Y2619048D01*
X25357142Y2476191D01*
X25309523Y2285715D01*
X25261904Y2190477D01*
X25166666Y2095239D01*
X25023809Y2047620D01*
X24785714Y2047620D01*
X25738095Y2952381D02*
X25785714Y3000000D01*
X25880952Y3047620D01*
X26119047Y3047620D01*
X26214285Y3000000D01*
X26261904Y2952381D01*
X26309523Y2857143D01*
X26309523Y2761905D01*
X26261904Y2619048D01*
X25690476Y2047620D01*
X26309523Y2047620D01*
X26642857Y3047620D02*
X27309523Y3047620D01*
X26880952Y2047620D01*
X30435714Y3947620D02*
X29864285Y3947620D01*
X30150000Y3947620D02*
X30150000Y4947620D01*
X30054761Y4804762D01*
X29959523Y4709524D01*
X29864285Y4661905D01*
G04 #@! TO.C,D28*
X37185714Y2047620D02*
X37185714Y3047620D01*
X37423809Y3047620D01*
X37566666Y3000000D01*
X37661904Y2904762D01*
X37709523Y2809524D01*
X37757142Y2619048D01*
X37757142Y2476191D01*
X37709523Y2285715D01*
X37661904Y2190477D01*
X37566666Y2095239D01*
X37423809Y2047620D01*
X37185714Y2047620D01*
X38138095Y2952381D02*
X38185714Y3000000D01*
X38280952Y3047620D01*
X38519047Y3047620D01*
X38614285Y3000000D01*
X38661904Y2952381D01*
X38709523Y2857143D01*
X38709523Y2761905D01*
X38661904Y2619048D01*
X38090476Y2047620D01*
X38709523Y2047620D01*
X39280952Y2619048D02*
X39185714Y2666667D01*
X39138095Y2714286D01*
X39090476Y2809524D01*
X39090476Y2857143D01*
X39138095Y2952381D01*
X39185714Y3000000D01*
X39280952Y3047620D01*
X39471428Y3047620D01*
X39566666Y3000000D01*
X39614285Y2952381D01*
X39661904Y2857143D01*
X39661904Y2809524D01*
X39614285Y2714286D01*
X39566666Y2666667D01*
X39471428Y2619048D01*
X39280952Y2619048D01*
X39185714Y2571429D01*
X39138095Y2523810D01*
X39090476Y2428572D01*
X39090476Y2238096D01*
X39138095Y2142858D01*
X39185714Y2095239D01*
X39280952Y2047620D01*
X39471428Y2047620D01*
X39566666Y2095239D01*
X39614285Y2142858D01*
X39661904Y2238096D01*
X39661904Y2428572D01*
X39614285Y2523810D01*
X39566666Y2571429D01*
X39471428Y2619048D01*
X42835714Y3947620D02*
X42264285Y3947620D01*
X42550000Y3947620D02*
X42550000Y4947620D01*
X42454761Y4804762D01*
X42359523Y4709524D01*
X42264285Y4661905D01*
G04 #@! TO.C,D29*
X49185714Y2047620D02*
X49185714Y3047620D01*
X49423809Y3047620D01*
X49566666Y3000000D01*
X49661904Y2904762D01*
X49709523Y2809524D01*
X49757142Y2619048D01*
X49757142Y2476191D01*
X49709523Y2285715D01*
X49661904Y2190477D01*
X49566666Y2095239D01*
X49423809Y2047620D01*
X49185714Y2047620D01*
X50138095Y2952381D02*
X50185714Y3000000D01*
X50280952Y3047620D01*
X50519047Y3047620D01*
X50614285Y3000000D01*
X50661904Y2952381D01*
X50709523Y2857143D01*
X50709523Y2761905D01*
X50661904Y2619048D01*
X50090476Y2047620D01*
X50709523Y2047620D01*
X51185714Y2047620D02*
X51376190Y2047620D01*
X51471428Y2095239D01*
X51519047Y2142858D01*
X51614285Y2285715D01*
X51661904Y2476191D01*
X51661904Y2857143D01*
X51614285Y2952381D01*
X51566666Y3000000D01*
X51471428Y3047620D01*
X51280952Y3047620D01*
X51185714Y3000000D01*
X51138095Y2952381D01*
X51090476Y2857143D01*
X51090476Y2619048D01*
X51138095Y2523810D01*
X51185714Y2476191D01*
X51280952Y2428572D01*
X51471428Y2428572D01*
X51566666Y2476191D01*
X51614285Y2523810D01*
X51661904Y2619048D01*
X54835714Y3947620D02*
X54264285Y3947620D01*
X54550000Y3947620D02*
X54550000Y4947620D01*
X54454761Y4804762D01*
X54359523Y4709524D01*
X54264285Y4661905D01*
G04 #@! TO.C,D30*
X61785714Y2047620D02*
X61785714Y3047620D01*
X62023809Y3047620D01*
X62166666Y3000000D01*
X62261904Y2904762D01*
X62309523Y2809524D01*
X62357142Y2619048D01*
X62357142Y2476191D01*
X62309523Y2285715D01*
X62261904Y2190477D01*
X62166666Y2095239D01*
X62023809Y2047620D01*
X61785714Y2047620D01*
X62690476Y3047620D02*
X63309523Y3047620D01*
X62976190Y2666667D01*
X63119047Y2666667D01*
X63214285Y2619048D01*
X63261904Y2571429D01*
X63309523Y2476191D01*
X63309523Y2238096D01*
X63261904Y2142858D01*
X63214285Y2095239D01*
X63119047Y2047620D01*
X62833333Y2047620D01*
X62738095Y2095239D01*
X62690476Y2142858D01*
X63928571Y3047620D02*
X64023809Y3047620D01*
X64119047Y3000000D01*
X64166666Y2952381D01*
X64214285Y2857143D01*
X64261904Y2666667D01*
X64261904Y2428572D01*
X64214285Y2238096D01*
X64166666Y2142858D01*
X64119047Y2095239D01*
X64023809Y2047620D01*
X63928571Y2047620D01*
X63833333Y2095239D01*
X63785714Y2142858D01*
X63738095Y2238096D01*
X63690476Y2428572D01*
X63690476Y2666667D01*
X63738095Y2857143D01*
X63785714Y2952381D01*
X63833333Y3000000D01*
X63928571Y3047620D01*
X67435714Y3947620D02*
X66864285Y3947620D01*
X67150000Y3947620D02*
X67150000Y4947620D01*
X67054761Y4804762D01*
X66959523Y4709524D01*
X66864285Y4661905D01*
G04 #@! TO.C,J1*
X1666666Y6047620D02*
X1666666Y5333334D01*
X1619047Y5190477D01*
X1523809Y5095239D01*
X1380952Y5047620D01*
X1285714Y5047620D01*
X2666666Y5047620D02*
X2095238Y5047620D01*
X2380952Y5047620D02*
X2380952Y6047620D01*
X2285714Y5904762D01*
X2190476Y5809524D01*
X2095238Y5761905D01*
G04 #@! TO.C,J2*
X72666666Y13047620D02*
X72666666Y12333334D01*
X72619047Y12190477D01*
X72523809Y12095239D01*
X72380952Y12047620D01*
X72285714Y12047620D01*
X73095238Y12952381D02*
X73142857Y13000000D01*
X73238095Y13047620D01*
X73476190Y13047620D01*
X73571428Y13000000D01*
X73619047Y12952381D01*
X73666666Y12857143D01*
X73666666Y12761905D01*
X73619047Y12619048D01*
X73047619Y12047620D01*
X73666666Y12047620D01*
G04 #@! TO.C,J3*
X2666666Y13047620D02*
X2666666Y12333334D01*
X2619047Y12190477D01*
X2523809Y12095239D01*
X2380952Y12047620D01*
X2285714Y12047620D01*
X3047619Y13047620D02*
X3666666Y13047620D01*
X3333333Y12666667D01*
X3476190Y12666667D01*
X3571428Y12619048D01*
X3619047Y12571429D01*
X3666666Y12476191D01*
X3666666Y12238096D01*
X3619047Y12142858D01*
X3571428Y12095239D01*
X3476190Y12047620D01*
X3190476Y12047620D01*
X3095238Y12095239D01*
X3047619Y12142858D01*
G04 #@! TO.C,J4*
X73666666Y6047620D02*
X73666666Y5333334D01*
X73619047Y5190477D01*
X73523809Y5095239D01*
X73380952Y5047620D01*
X73285714Y5047620D01*
X74571428Y5714286D02*
X74571428Y5047620D01*
X74333333Y6095239D02*
X74095238Y5380953D01*
X74714285Y5380953D01*
G04 #@! TD*
M02*
