G04 #@! TF.GenerationSoftware,KiCad,Pcbnew,(5.0.0)*
G04 #@! TF.CreationDate,2018-09-09T18:04:00+02:00*
G04 #@! TF.ProjectId,hal9k-backlight,68616C396B2D6261636B6C696768742E,rev?*
G04 #@! TF.SameCoordinates,PX6acfc00PY56c8cc0*
G04 #@! TF.FileFunction,Copper,L1,Top,Signal*
G04 #@! TF.FilePolarity,Positive*
%FSLAX46Y46*%
G04 Gerber Fmt 4.6, Leading zero omitted, Abs format (unit mm)*
G04 Created by KiCad (PCBNEW (5.0.0)) date 09/09/18 18:04:00*
%MOMM*%
%LPD*%
G01*
G04 APERTURE LIST*
G04 #@! TA.AperFunction,Conductor*
%ADD10C,0.100000*%
G04 #@! TD*
G04 #@! TA.AperFunction,SMDPad,CuDef*
%ADD11C,1.150000*%
G04 #@! TD*
G04 #@! TA.AperFunction,SMDPad,CuDef*
%ADD12R,1.500000X1.000000*%
G04 #@! TD*
G04 #@! TA.AperFunction,ComponentPad*
%ADD13R,1.350000X1.350000*%
G04 #@! TD*
G04 #@! TA.AperFunction,Conductor*
%ADD14C,0.200000*%
G04 #@! TD*
G04 #@! TA.AperFunction,Conductor*
%ADD15C,0.400000*%
G04 #@! TD*
G04 #@! TA.AperFunction,Conductor*
%ADD16C,0.254000*%
G04 #@! TD*
G04 APERTURE END LIST*
D10*
G04 #@! TO.N,+BATT*
G04 #@! TO.C,C1*
G36*
X18474505Y5548796D02*
X18498773Y5545196D01*
X18522572Y5539235D01*
X18545671Y5530970D01*
X18567850Y5520480D01*
X18588893Y5507868D01*
X18608599Y5493253D01*
X18626777Y5476777D01*
X18643253Y5458599D01*
X18657868Y5438893D01*
X18670480Y5417850D01*
X18680970Y5395671D01*
X18689235Y5372572D01*
X18695196Y5348773D01*
X18698796Y5324505D01*
X18700000Y5300001D01*
X18700000Y4649999D01*
X18698796Y4625495D01*
X18695196Y4601227D01*
X18689235Y4577428D01*
X18680970Y4554329D01*
X18670480Y4532150D01*
X18657868Y4511107D01*
X18643253Y4491401D01*
X18626777Y4473223D01*
X18608599Y4456747D01*
X18588893Y4442132D01*
X18567850Y4429520D01*
X18545671Y4419030D01*
X18522572Y4410765D01*
X18498773Y4404804D01*
X18474505Y4401204D01*
X18450001Y4400000D01*
X17549999Y4400000D01*
X17525495Y4401204D01*
X17501227Y4404804D01*
X17477428Y4410765D01*
X17454329Y4419030D01*
X17432150Y4429520D01*
X17411107Y4442132D01*
X17391401Y4456747D01*
X17373223Y4473223D01*
X17356747Y4491401D01*
X17342132Y4511107D01*
X17329520Y4532150D01*
X17319030Y4554329D01*
X17310765Y4577428D01*
X17304804Y4601227D01*
X17301204Y4625495D01*
X17300000Y4649999D01*
X17300000Y5300001D01*
X17301204Y5324505D01*
X17304804Y5348773D01*
X17310765Y5372572D01*
X17319030Y5395671D01*
X17329520Y5417850D01*
X17342132Y5438893D01*
X17356747Y5458599D01*
X17373223Y5476777D01*
X17391401Y5493253D01*
X17411107Y5507868D01*
X17432150Y5520480D01*
X17454329Y5530970D01*
X17477428Y5539235D01*
X17501227Y5545196D01*
X17525495Y5548796D01*
X17549999Y5550000D01*
X18450001Y5550000D01*
X18474505Y5548796D01*
X18474505Y5548796D01*
G37*
D11*
G04 #@! TD*
G04 #@! TO.P,C1,1*
G04 #@! TO.N,+BATT*
X18000000Y4975000D03*
D10*
G04 #@! TO.N,GND*
G04 #@! TO.C,C1*
G36*
X18474505Y7598796D02*
X18498773Y7595196D01*
X18522572Y7589235D01*
X18545671Y7580970D01*
X18567850Y7570480D01*
X18588893Y7557868D01*
X18608599Y7543253D01*
X18626777Y7526777D01*
X18643253Y7508599D01*
X18657868Y7488893D01*
X18670480Y7467850D01*
X18680970Y7445671D01*
X18689235Y7422572D01*
X18695196Y7398773D01*
X18698796Y7374505D01*
X18700000Y7350001D01*
X18700000Y6699999D01*
X18698796Y6675495D01*
X18695196Y6651227D01*
X18689235Y6627428D01*
X18680970Y6604329D01*
X18670480Y6582150D01*
X18657868Y6561107D01*
X18643253Y6541401D01*
X18626777Y6523223D01*
X18608599Y6506747D01*
X18588893Y6492132D01*
X18567850Y6479520D01*
X18545671Y6469030D01*
X18522572Y6460765D01*
X18498773Y6454804D01*
X18474505Y6451204D01*
X18450001Y6450000D01*
X17549999Y6450000D01*
X17525495Y6451204D01*
X17501227Y6454804D01*
X17477428Y6460765D01*
X17454329Y6469030D01*
X17432150Y6479520D01*
X17411107Y6492132D01*
X17391401Y6506747D01*
X17373223Y6523223D01*
X17356747Y6541401D01*
X17342132Y6561107D01*
X17329520Y6582150D01*
X17319030Y6604329D01*
X17310765Y6627428D01*
X17304804Y6651227D01*
X17301204Y6675495D01*
X17300000Y6699999D01*
X17300000Y7350001D01*
X17301204Y7374505D01*
X17304804Y7398773D01*
X17310765Y7422572D01*
X17319030Y7445671D01*
X17329520Y7467850D01*
X17342132Y7488893D01*
X17356747Y7508599D01*
X17373223Y7526777D01*
X17391401Y7543253D01*
X17411107Y7557868D01*
X17432150Y7570480D01*
X17454329Y7580970D01*
X17477428Y7589235D01*
X17501227Y7595196D01*
X17525495Y7598796D01*
X17549999Y7600000D01*
X18450001Y7600000D01*
X18474505Y7598796D01*
X18474505Y7598796D01*
G37*
D11*
G04 #@! TD*
G04 #@! TO.P,C1,2*
G04 #@! TO.N,GND*
X18000000Y7025000D03*
D10*
G04 #@! TO.N,GND*
G04 #@! TO.C,C2*
G36*
X32674505Y7698796D02*
X32698773Y7695196D01*
X32722572Y7689235D01*
X32745671Y7680970D01*
X32767850Y7670480D01*
X32788893Y7657868D01*
X32808599Y7643253D01*
X32826777Y7626777D01*
X32843253Y7608599D01*
X32857868Y7588893D01*
X32870480Y7567850D01*
X32880970Y7545671D01*
X32889235Y7522572D01*
X32895196Y7498773D01*
X32898796Y7474505D01*
X32900000Y7450001D01*
X32900000Y6799999D01*
X32898796Y6775495D01*
X32895196Y6751227D01*
X32889235Y6727428D01*
X32880970Y6704329D01*
X32870480Y6682150D01*
X32857868Y6661107D01*
X32843253Y6641401D01*
X32826777Y6623223D01*
X32808599Y6606747D01*
X32788893Y6592132D01*
X32767850Y6579520D01*
X32745671Y6569030D01*
X32722572Y6560765D01*
X32698773Y6554804D01*
X32674505Y6551204D01*
X32650001Y6550000D01*
X31749999Y6550000D01*
X31725495Y6551204D01*
X31701227Y6554804D01*
X31677428Y6560765D01*
X31654329Y6569030D01*
X31632150Y6579520D01*
X31611107Y6592132D01*
X31591401Y6606747D01*
X31573223Y6623223D01*
X31556747Y6641401D01*
X31542132Y6661107D01*
X31529520Y6682150D01*
X31519030Y6704329D01*
X31510765Y6727428D01*
X31504804Y6751227D01*
X31501204Y6775495D01*
X31500000Y6799999D01*
X31500000Y7450001D01*
X31501204Y7474505D01*
X31504804Y7498773D01*
X31510765Y7522572D01*
X31519030Y7545671D01*
X31529520Y7567850D01*
X31542132Y7588893D01*
X31556747Y7608599D01*
X31573223Y7626777D01*
X31591401Y7643253D01*
X31611107Y7657868D01*
X31632150Y7670480D01*
X31654329Y7680970D01*
X31677428Y7689235D01*
X31701227Y7695196D01*
X31725495Y7698796D01*
X31749999Y7700000D01*
X32650001Y7700000D01*
X32674505Y7698796D01*
X32674505Y7698796D01*
G37*
D11*
G04 #@! TD*
G04 #@! TO.P,C2,2*
G04 #@! TO.N,GND*
X32200000Y7125000D03*
D10*
G04 #@! TO.N,+BATT*
G04 #@! TO.C,C2*
G36*
X32674505Y5648796D02*
X32698773Y5645196D01*
X32722572Y5639235D01*
X32745671Y5630970D01*
X32767850Y5620480D01*
X32788893Y5607868D01*
X32808599Y5593253D01*
X32826777Y5576777D01*
X32843253Y5558599D01*
X32857868Y5538893D01*
X32870480Y5517850D01*
X32880970Y5495671D01*
X32889235Y5472572D01*
X32895196Y5448773D01*
X32898796Y5424505D01*
X32900000Y5400001D01*
X32900000Y4749999D01*
X32898796Y4725495D01*
X32895196Y4701227D01*
X32889235Y4677428D01*
X32880970Y4654329D01*
X32870480Y4632150D01*
X32857868Y4611107D01*
X32843253Y4591401D01*
X32826777Y4573223D01*
X32808599Y4556747D01*
X32788893Y4542132D01*
X32767850Y4529520D01*
X32745671Y4519030D01*
X32722572Y4510765D01*
X32698773Y4504804D01*
X32674505Y4501204D01*
X32650001Y4500000D01*
X31749999Y4500000D01*
X31725495Y4501204D01*
X31701227Y4504804D01*
X31677428Y4510765D01*
X31654329Y4519030D01*
X31632150Y4529520D01*
X31611107Y4542132D01*
X31591401Y4556747D01*
X31573223Y4573223D01*
X31556747Y4591401D01*
X31542132Y4611107D01*
X31529520Y4632150D01*
X31519030Y4654329D01*
X31510765Y4677428D01*
X31504804Y4701227D01*
X31501204Y4725495D01*
X31500000Y4749999D01*
X31500000Y5400001D01*
X31501204Y5424505D01*
X31504804Y5448773D01*
X31510765Y5472572D01*
X31519030Y5495671D01*
X31529520Y5517850D01*
X31542132Y5538893D01*
X31556747Y5558599D01*
X31573223Y5576777D01*
X31591401Y5593253D01*
X31611107Y5607868D01*
X31632150Y5620480D01*
X31654329Y5630970D01*
X31677428Y5639235D01*
X31701227Y5645196D01*
X31725495Y5648796D01*
X31749999Y5650000D01*
X32650001Y5650000D01*
X32674505Y5648796D01*
X32674505Y5648796D01*
G37*
D11*
G04 #@! TD*
G04 #@! TO.P,C2,1*
G04 #@! TO.N,+BATT*
X32200000Y5075000D03*
D10*
G04 #@! TO.N,+BATT*
G04 #@! TO.C,C3*
G36*
X44974505Y5548796D02*
X44998773Y5545196D01*
X45022572Y5539235D01*
X45045671Y5530970D01*
X45067850Y5520480D01*
X45088893Y5507868D01*
X45108599Y5493253D01*
X45126777Y5476777D01*
X45143253Y5458599D01*
X45157868Y5438893D01*
X45170480Y5417850D01*
X45180970Y5395671D01*
X45189235Y5372572D01*
X45195196Y5348773D01*
X45198796Y5324505D01*
X45200000Y5300001D01*
X45200000Y4649999D01*
X45198796Y4625495D01*
X45195196Y4601227D01*
X45189235Y4577428D01*
X45180970Y4554329D01*
X45170480Y4532150D01*
X45157868Y4511107D01*
X45143253Y4491401D01*
X45126777Y4473223D01*
X45108599Y4456747D01*
X45088893Y4442132D01*
X45067850Y4429520D01*
X45045671Y4419030D01*
X45022572Y4410765D01*
X44998773Y4404804D01*
X44974505Y4401204D01*
X44950001Y4400000D01*
X44049999Y4400000D01*
X44025495Y4401204D01*
X44001227Y4404804D01*
X43977428Y4410765D01*
X43954329Y4419030D01*
X43932150Y4429520D01*
X43911107Y4442132D01*
X43891401Y4456747D01*
X43873223Y4473223D01*
X43856747Y4491401D01*
X43842132Y4511107D01*
X43829520Y4532150D01*
X43819030Y4554329D01*
X43810765Y4577428D01*
X43804804Y4601227D01*
X43801204Y4625495D01*
X43800000Y4649999D01*
X43800000Y5300001D01*
X43801204Y5324505D01*
X43804804Y5348773D01*
X43810765Y5372572D01*
X43819030Y5395671D01*
X43829520Y5417850D01*
X43842132Y5438893D01*
X43856747Y5458599D01*
X43873223Y5476777D01*
X43891401Y5493253D01*
X43911107Y5507868D01*
X43932150Y5520480D01*
X43954329Y5530970D01*
X43977428Y5539235D01*
X44001227Y5545196D01*
X44025495Y5548796D01*
X44049999Y5550000D01*
X44950001Y5550000D01*
X44974505Y5548796D01*
X44974505Y5548796D01*
G37*
D11*
G04 #@! TD*
G04 #@! TO.P,C3,1*
G04 #@! TO.N,+BATT*
X44500000Y4975000D03*
D10*
G04 #@! TO.N,GND*
G04 #@! TO.C,C3*
G36*
X44974505Y7598796D02*
X44998773Y7595196D01*
X45022572Y7589235D01*
X45045671Y7580970D01*
X45067850Y7570480D01*
X45088893Y7557868D01*
X45108599Y7543253D01*
X45126777Y7526777D01*
X45143253Y7508599D01*
X45157868Y7488893D01*
X45170480Y7467850D01*
X45180970Y7445671D01*
X45189235Y7422572D01*
X45195196Y7398773D01*
X45198796Y7374505D01*
X45200000Y7350001D01*
X45200000Y6699999D01*
X45198796Y6675495D01*
X45195196Y6651227D01*
X45189235Y6627428D01*
X45180970Y6604329D01*
X45170480Y6582150D01*
X45157868Y6561107D01*
X45143253Y6541401D01*
X45126777Y6523223D01*
X45108599Y6506747D01*
X45088893Y6492132D01*
X45067850Y6479520D01*
X45045671Y6469030D01*
X45022572Y6460765D01*
X44998773Y6454804D01*
X44974505Y6451204D01*
X44950001Y6450000D01*
X44049999Y6450000D01*
X44025495Y6451204D01*
X44001227Y6454804D01*
X43977428Y6460765D01*
X43954329Y6469030D01*
X43932150Y6479520D01*
X43911107Y6492132D01*
X43891401Y6506747D01*
X43873223Y6523223D01*
X43856747Y6541401D01*
X43842132Y6561107D01*
X43829520Y6582150D01*
X43819030Y6604329D01*
X43810765Y6627428D01*
X43804804Y6651227D01*
X43801204Y6675495D01*
X43800000Y6699999D01*
X43800000Y7350001D01*
X43801204Y7374505D01*
X43804804Y7398773D01*
X43810765Y7422572D01*
X43819030Y7445671D01*
X43829520Y7467850D01*
X43842132Y7488893D01*
X43856747Y7508599D01*
X43873223Y7526777D01*
X43891401Y7543253D01*
X43911107Y7557868D01*
X43932150Y7570480D01*
X43954329Y7580970D01*
X43977428Y7589235D01*
X44001227Y7595196D01*
X44025495Y7598796D01*
X44049999Y7600000D01*
X44950001Y7600000D01*
X44974505Y7598796D01*
X44974505Y7598796D01*
G37*
D11*
G04 #@! TD*
G04 #@! TO.P,C3,2*
G04 #@! TO.N,GND*
X44500000Y7025000D03*
D10*
G04 #@! TO.N,GND*
G04 #@! TO.C,C4*
G36*
X56874505Y7598796D02*
X56898773Y7595196D01*
X56922572Y7589235D01*
X56945671Y7580970D01*
X56967850Y7570480D01*
X56988893Y7557868D01*
X57008599Y7543253D01*
X57026777Y7526777D01*
X57043253Y7508599D01*
X57057868Y7488893D01*
X57070480Y7467850D01*
X57080970Y7445671D01*
X57089235Y7422572D01*
X57095196Y7398773D01*
X57098796Y7374505D01*
X57100000Y7350001D01*
X57100000Y6699999D01*
X57098796Y6675495D01*
X57095196Y6651227D01*
X57089235Y6627428D01*
X57080970Y6604329D01*
X57070480Y6582150D01*
X57057868Y6561107D01*
X57043253Y6541401D01*
X57026777Y6523223D01*
X57008599Y6506747D01*
X56988893Y6492132D01*
X56967850Y6479520D01*
X56945671Y6469030D01*
X56922572Y6460765D01*
X56898773Y6454804D01*
X56874505Y6451204D01*
X56850001Y6450000D01*
X55949999Y6450000D01*
X55925495Y6451204D01*
X55901227Y6454804D01*
X55877428Y6460765D01*
X55854329Y6469030D01*
X55832150Y6479520D01*
X55811107Y6492132D01*
X55791401Y6506747D01*
X55773223Y6523223D01*
X55756747Y6541401D01*
X55742132Y6561107D01*
X55729520Y6582150D01*
X55719030Y6604329D01*
X55710765Y6627428D01*
X55704804Y6651227D01*
X55701204Y6675495D01*
X55700000Y6699999D01*
X55700000Y7350001D01*
X55701204Y7374505D01*
X55704804Y7398773D01*
X55710765Y7422572D01*
X55719030Y7445671D01*
X55729520Y7467850D01*
X55742132Y7488893D01*
X55756747Y7508599D01*
X55773223Y7526777D01*
X55791401Y7543253D01*
X55811107Y7557868D01*
X55832150Y7570480D01*
X55854329Y7580970D01*
X55877428Y7589235D01*
X55901227Y7595196D01*
X55925495Y7598796D01*
X55949999Y7600000D01*
X56850001Y7600000D01*
X56874505Y7598796D01*
X56874505Y7598796D01*
G37*
D11*
G04 #@! TD*
G04 #@! TO.P,C4,2*
G04 #@! TO.N,GND*
X56400000Y7025000D03*
D10*
G04 #@! TO.N,+BATT*
G04 #@! TO.C,C4*
G36*
X56874505Y5548796D02*
X56898773Y5545196D01*
X56922572Y5539235D01*
X56945671Y5530970D01*
X56967850Y5520480D01*
X56988893Y5507868D01*
X57008599Y5493253D01*
X57026777Y5476777D01*
X57043253Y5458599D01*
X57057868Y5438893D01*
X57070480Y5417850D01*
X57080970Y5395671D01*
X57089235Y5372572D01*
X57095196Y5348773D01*
X57098796Y5324505D01*
X57100000Y5300001D01*
X57100000Y4649999D01*
X57098796Y4625495D01*
X57095196Y4601227D01*
X57089235Y4577428D01*
X57080970Y4554329D01*
X57070480Y4532150D01*
X57057868Y4511107D01*
X57043253Y4491401D01*
X57026777Y4473223D01*
X57008599Y4456747D01*
X56988893Y4442132D01*
X56967850Y4429520D01*
X56945671Y4419030D01*
X56922572Y4410765D01*
X56898773Y4404804D01*
X56874505Y4401204D01*
X56850001Y4400000D01*
X55949999Y4400000D01*
X55925495Y4401204D01*
X55901227Y4404804D01*
X55877428Y4410765D01*
X55854329Y4419030D01*
X55832150Y4429520D01*
X55811107Y4442132D01*
X55791401Y4456747D01*
X55773223Y4473223D01*
X55756747Y4491401D01*
X55742132Y4511107D01*
X55729520Y4532150D01*
X55719030Y4554329D01*
X55710765Y4577428D01*
X55704804Y4601227D01*
X55701204Y4625495D01*
X55700000Y4649999D01*
X55700000Y5300001D01*
X55701204Y5324505D01*
X55704804Y5348773D01*
X55710765Y5372572D01*
X55719030Y5395671D01*
X55729520Y5417850D01*
X55742132Y5438893D01*
X55756747Y5458599D01*
X55773223Y5476777D01*
X55791401Y5493253D01*
X55811107Y5507868D01*
X55832150Y5520480D01*
X55854329Y5530970D01*
X55877428Y5539235D01*
X55901227Y5545196D01*
X55925495Y5548796D01*
X55949999Y5550000D01*
X56850001Y5550000D01*
X56874505Y5548796D01*
X56874505Y5548796D01*
G37*
D11*
G04 #@! TD*
G04 #@! TO.P,C4,1*
G04 #@! TO.N,+BATT*
X56400000Y4975000D03*
D10*
G04 #@! TO.N,+BATT*
G04 #@! TO.C,C5*
G36*
X69274505Y5548796D02*
X69298773Y5545196D01*
X69322572Y5539235D01*
X69345671Y5530970D01*
X69367850Y5520480D01*
X69388893Y5507868D01*
X69408599Y5493253D01*
X69426777Y5476777D01*
X69443253Y5458599D01*
X69457868Y5438893D01*
X69470480Y5417850D01*
X69480970Y5395671D01*
X69489235Y5372572D01*
X69495196Y5348773D01*
X69498796Y5324505D01*
X69500000Y5300001D01*
X69500000Y4649999D01*
X69498796Y4625495D01*
X69495196Y4601227D01*
X69489235Y4577428D01*
X69480970Y4554329D01*
X69470480Y4532150D01*
X69457868Y4511107D01*
X69443253Y4491401D01*
X69426777Y4473223D01*
X69408599Y4456747D01*
X69388893Y4442132D01*
X69367850Y4429520D01*
X69345671Y4419030D01*
X69322572Y4410765D01*
X69298773Y4404804D01*
X69274505Y4401204D01*
X69250001Y4400000D01*
X68349999Y4400000D01*
X68325495Y4401204D01*
X68301227Y4404804D01*
X68277428Y4410765D01*
X68254329Y4419030D01*
X68232150Y4429520D01*
X68211107Y4442132D01*
X68191401Y4456747D01*
X68173223Y4473223D01*
X68156747Y4491401D01*
X68142132Y4511107D01*
X68129520Y4532150D01*
X68119030Y4554329D01*
X68110765Y4577428D01*
X68104804Y4601227D01*
X68101204Y4625495D01*
X68100000Y4649999D01*
X68100000Y5300001D01*
X68101204Y5324505D01*
X68104804Y5348773D01*
X68110765Y5372572D01*
X68119030Y5395671D01*
X68129520Y5417850D01*
X68142132Y5438893D01*
X68156747Y5458599D01*
X68173223Y5476777D01*
X68191401Y5493253D01*
X68211107Y5507868D01*
X68232150Y5520480D01*
X68254329Y5530970D01*
X68277428Y5539235D01*
X68301227Y5545196D01*
X68325495Y5548796D01*
X68349999Y5550000D01*
X69250001Y5550000D01*
X69274505Y5548796D01*
X69274505Y5548796D01*
G37*
D11*
G04 #@! TD*
G04 #@! TO.P,C5,1*
G04 #@! TO.N,+BATT*
X68800000Y4975000D03*
D10*
G04 #@! TO.N,GND*
G04 #@! TO.C,C5*
G36*
X69274505Y7598796D02*
X69298773Y7595196D01*
X69322572Y7589235D01*
X69345671Y7580970D01*
X69367850Y7570480D01*
X69388893Y7557868D01*
X69408599Y7543253D01*
X69426777Y7526777D01*
X69443253Y7508599D01*
X69457868Y7488893D01*
X69470480Y7467850D01*
X69480970Y7445671D01*
X69489235Y7422572D01*
X69495196Y7398773D01*
X69498796Y7374505D01*
X69500000Y7350001D01*
X69500000Y6699999D01*
X69498796Y6675495D01*
X69495196Y6651227D01*
X69489235Y6627428D01*
X69480970Y6604329D01*
X69470480Y6582150D01*
X69457868Y6561107D01*
X69443253Y6541401D01*
X69426777Y6523223D01*
X69408599Y6506747D01*
X69388893Y6492132D01*
X69367850Y6479520D01*
X69345671Y6469030D01*
X69322572Y6460765D01*
X69298773Y6454804D01*
X69274505Y6451204D01*
X69250001Y6450000D01*
X68349999Y6450000D01*
X68325495Y6451204D01*
X68301227Y6454804D01*
X68277428Y6460765D01*
X68254329Y6469030D01*
X68232150Y6479520D01*
X68211107Y6492132D01*
X68191401Y6506747D01*
X68173223Y6523223D01*
X68156747Y6541401D01*
X68142132Y6561107D01*
X68129520Y6582150D01*
X68119030Y6604329D01*
X68110765Y6627428D01*
X68104804Y6651227D01*
X68101204Y6675495D01*
X68100000Y6699999D01*
X68100000Y7350001D01*
X68101204Y7374505D01*
X68104804Y7398773D01*
X68110765Y7422572D01*
X68119030Y7445671D01*
X68129520Y7467850D01*
X68142132Y7488893D01*
X68156747Y7508599D01*
X68173223Y7526777D01*
X68191401Y7543253D01*
X68211107Y7557868D01*
X68232150Y7570480D01*
X68254329Y7580970D01*
X68277428Y7589235D01*
X68301227Y7595196D01*
X68325495Y7598796D01*
X68349999Y7600000D01*
X69250001Y7600000D01*
X69274505Y7598796D01*
X69274505Y7598796D01*
G37*
D11*
G04 #@! TD*
G04 #@! TO.P,C5,2*
G04 #@! TO.N,GND*
X68800000Y7025000D03*
D12*
G04 #@! TO.P,D26,1*
G04 #@! TO.N,+BATT*
X14050000Y4400000D03*
G04 #@! TO.P,D26,2*
G04 #@! TO.N,Net-(D26-Pad2)*
X14050000Y7600000D03*
G04 #@! TO.P,D26,4*
G04 #@! TO.N,Net-(D26-Pad4)*
X9150000Y4400000D03*
G04 #@! TO.P,D26,3*
G04 #@! TO.N,GND*
X9150000Y7600000D03*
G04 #@! TD*
G04 #@! TO.P,D27,3*
G04 #@! TO.N,GND*
X23550000Y7600000D03*
G04 #@! TO.P,D27,4*
G04 #@! TO.N,Net-(D26-Pad2)*
X23550000Y4400000D03*
G04 #@! TO.P,D27,2*
G04 #@! TO.N,Net-(D27-Pad2)*
X28450000Y7600000D03*
G04 #@! TO.P,D27,1*
G04 #@! TO.N,+BATT*
X28450000Y4400000D03*
G04 #@! TD*
G04 #@! TO.P,D28,1*
G04 #@! TO.N,+BATT*
X40850000Y4400000D03*
G04 #@! TO.P,D28,2*
G04 #@! TO.N,Net-(D28-Pad2)*
X40850000Y7600000D03*
G04 #@! TO.P,D28,4*
G04 #@! TO.N,Net-(D27-Pad2)*
X35950000Y4400000D03*
G04 #@! TO.P,D28,3*
G04 #@! TO.N,GND*
X35950000Y7600000D03*
G04 #@! TD*
G04 #@! TO.P,D29,3*
G04 #@! TO.N,GND*
X47950000Y7600000D03*
G04 #@! TO.P,D29,4*
G04 #@! TO.N,Net-(D28-Pad2)*
X47950000Y4400000D03*
G04 #@! TO.P,D29,2*
G04 #@! TO.N,Net-(D29-Pad2)*
X52850000Y7600000D03*
G04 #@! TO.P,D29,1*
G04 #@! TO.N,+BATT*
X52850000Y4400000D03*
G04 #@! TD*
G04 #@! TO.P,D30,1*
G04 #@! TO.N,+BATT*
X65450000Y4400000D03*
G04 #@! TO.P,D30,2*
G04 #@! TO.N,Net-(D30-Pad2)*
X65450000Y7600000D03*
G04 #@! TO.P,D30,4*
G04 #@! TO.N,Net-(D29-Pad2)*
X60550000Y4400000D03*
G04 #@! TO.P,D30,3*
G04 #@! TO.N,GND*
X60550000Y7600000D03*
G04 #@! TD*
D13*
G04 #@! TO.P,J1,1*
G04 #@! TO.N,+BATT*
X2000000Y3000000D03*
G04 #@! TD*
G04 #@! TO.P,J2,1*
G04 #@! TO.N,GND*
X73000000Y10000000D03*
G04 #@! TD*
G04 #@! TO.P,J3,1*
G04 #@! TO.N,Net-(D26-Pad4)*
X3000000Y10000000D03*
G04 #@! TD*
G04 #@! TO.P,J4,1*
G04 #@! TO.N,Net-(D30-Pad2)*
X74000000Y3000000D03*
G04 #@! TD*
D14*
G04 #@! TO.N,Net-(D26-Pad2)*
X14050000Y7600000D02*
X14300000Y7600000D01*
D15*
X14300000Y7600000D02*
X15900000Y6000000D01*
X22400000Y4400000D02*
X23550000Y4400000D01*
X20800000Y6000000D02*
X22400000Y4400000D01*
X15900000Y6000000D02*
X20800000Y6000000D01*
G04 #@! TO.N,Net-(D26-Pad4)*
X8000000Y4400000D02*
X9150000Y4400000D01*
X7525000Y4400000D02*
X8000000Y4400000D01*
X3000000Y8925000D02*
X7525000Y4400000D01*
X3000000Y10000000D02*
X3000000Y8925000D01*
G04 #@! TO.N,Net-(D27-Pad2)*
X29600000Y7600000D02*
X31100000Y6100000D01*
X28450000Y7600000D02*
X29600000Y7600000D01*
X34800000Y4400000D02*
X35950000Y4400000D01*
X33100000Y6100000D02*
X34800000Y4400000D01*
X31100000Y6100000D02*
X33100000Y6100000D01*
G04 #@! TO.N,Net-(D28-Pad2)*
X41100000Y7600000D02*
X42700000Y6000000D01*
X40850000Y7600000D02*
X41100000Y7600000D01*
X46800000Y4400000D02*
X47950000Y4400000D01*
X45200000Y6000000D02*
X46800000Y4400000D01*
X42700000Y6000000D02*
X45200000Y6000000D01*
G04 #@! TO.N,Net-(D29-Pad2)*
X52850000Y6700000D02*
X53550000Y6000000D01*
X52850000Y7600000D02*
X52850000Y6700000D01*
X59400000Y4400000D02*
X60550000Y4400000D01*
X57800000Y6000000D02*
X59400000Y4400000D01*
X53550000Y6000000D02*
X57800000Y6000000D01*
G04 #@! TO.N,Net-(D30-Pad2)*
X65450000Y6700000D02*
X66150000Y6000000D01*
X65450000Y7600000D02*
X65450000Y6700000D01*
X72925000Y3000000D02*
X74000000Y3000000D01*
X69925000Y6000000D02*
X72925000Y3000000D01*
X66150000Y6000000D02*
X69925000Y6000000D01*
G04 #@! TD*
D16*
G04 #@! TO.N,GND*
G36*
X75105655Y12255074D02*
X75195225Y12195226D01*
X75255074Y12105655D01*
X75290001Y11930065D01*
X75290000Y6327000D01*
X70778867Y6327000D01*
X70573587Y6532280D01*
X70527001Y6602001D01*
X70250801Y6786552D01*
X70047199Y6827051D01*
X69976250Y6898000D01*
X68927000Y6898000D01*
X68927000Y6878000D01*
X68673000Y6878000D01*
X68673000Y6898000D01*
X67623750Y6898000D01*
X67560750Y6835000D01*
X66786641Y6835000D01*
X66798157Y6852235D01*
X66847440Y7100000D01*
X66847440Y7726309D01*
X67465000Y7726309D01*
X67465000Y7310750D01*
X67623750Y7152000D01*
X68673000Y7152000D01*
X68673000Y8076250D01*
X68927000Y8076250D01*
X68927000Y7152000D01*
X69976250Y7152000D01*
X70135000Y7310750D01*
X70135000Y7726309D01*
X70038327Y7959698D01*
X69859699Y8138327D01*
X69626310Y8235000D01*
X69085750Y8235000D01*
X68927000Y8076250D01*
X68673000Y8076250D01*
X68514250Y8235000D01*
X67973690Y8235000D01*
X67740301Y8138327D01*
X67561673Y7959698D01*
X67465000Y7726309D01*
X66847440Y7726309D01*
X66847440Y8100000D01*
X66798157Y8347765D01*
X66657809Y8557809D01*
X66447765Y8698157D01*
X66200000Y8747440D01*
X64700000Y8747440D01*
X64452235Y8698157D01*
X64242191Y8557809D01*
X64101843Y8347765D01*
X64052560Y8100000D01*
X64052560Y7100000D01*
X64101843Y6852235D01*
X64242191Y6642191D01*
X64452235Y6501843D01*
X64645714Y6463358D01*
X64663448Y6374200D01*
X64694986Y6327000D01*
X58653867Y6327000D01*
X58448587Y6532280D01*
X58402001Y6602001D01*
X58125801Y6786552D01*
X57882237Y6835000D01*
X57882233Y6835000D01*
X57800000Y6851357D01*
X57717767Y6835000D01*
X57639250Y6835000D01*
X57576250Y6898000D01*
X56527000Y6898000D01*
X56527000Y6878000D01*
X56273000Y6878000D01*
X56273000Y6898000D01*
X55223750Y6898000D01*
X55160750Y6835000D01*
X54186641Y6835000D01*
X54198157Y6852235D01*
X54247440Y7100000D01*
X54247440Y7726309D01*
X55065000Y7726309D01*
X55065000Y7310750D01*
X55223750Y7152000D01*
X56273000Y7152000D01*
X56273000Y8076250D01*
X56527000Y8076250D01*
X56527000Y7152000D01*
X57576250Y7152000D01*
X57735000Y7310750D01*
X57735000Y7314250D01*
X59165000Y7314250D01*
X59165000Y6973690D01*
X59261673Y6740301D01*
X59440302Y6561673D01*
X59673691Y6465000D01*
X60264250Y6465000D01*
X60423000Y6623750D01*
X60423000Y7473000D01*
X60677000Y7473000D01*
X60677000Y6623750D01*
X60835750Y6465000D01*
X61426309Y6465000D01*
X61659698Y6561673D01*
X61838327Y6740301D01*
X61935000Y6973690D01*
X61935000Y7314250D01*
X61776250Y7473000D01*
X60677000Y7473000D01*
X60423000Y7473000D01*
X59323750Y7473000D01*
X59165000Y7314250D01*
X57735000Y7314250D01*
X57735000Y7726309D01*
X57638327Y7959698D01*
X57459699Y8138327D01*
X57247290Y8226310D01*
X59165000Y8226310D01*
X59165000Y7885750D01*
X59323750Y7727000D01*
X60423000Y7727000D01*
X60423000Y8576250D01*
X60677000Y8576250D01*
X60677000Y7727000D01*
X61776250Y7727000D01*
X61935000Y7885750D01*
X61935000Y8226310D01*
X61838327Y8459699D01*
X61659698Y8638327D01*
X61426309Y8735000D01*
X60835750Y8735000D01*
X60677000Y8576250D01*
X60423000Y8576250D01*
X60264250Y8735000D01*
X59673691Y8735000D01*
X59440302Y8638327D01*
X59261673Y8459699D01*
X59165000Y8226310D01*
X57247290Y8226310D01*
X57226310Y8235000D01*
X56685750Y8235000D01*
X56527000Y8076250D01*
X56273000Y8076250D01*
X56114250Y8235000D01*
X55573690Y8235000D01*
X55340301Y8138327D01*
X55161673Y7959698D01*
X55065000Y7726309D01*
X54247440Y7726309D01*
X54247440Y8100000D01*
X54198157Y8347765D01*
X54057809Y8557809D01*
X53847765Y8698157D01*
X53600000Y8747440D01*
X52100000Y8747440D01*
X51852235Y8698157D01*
X51642191Y8557809D01*
X51501843Y8347765D01*
X51452560Y8100000D01*
X51452560Y7100000D01*
X51501843Y6852235D01*
X51642191Y6642191D01*
X51852235Y6501843D01*
X52045714Y6463358D01*
X52063448Y6374200D01*
X52094986Y6327000D01*
X46053867Y6327000D01*
X45848587Y6532280D01*
X45835000Y6552615D01*
X45835000Y6739250D01*
X45676250Y6898000D01*
X44627000Y6898000D01*
X44627000Y6878000D01*
X44373000Y6878000D01*
X44373000Y6898000D01*
X43323750Y6898000D01*
X43260750Y6835000D01*
X43045868Y6835000D01*
X42247440Y7633427D01*
X42247440Y7726309D01*
X43165000Y7726309D01*
X43165000Y7310750D01*
X43323750Y7152000D01*
X44373000Y7152000D01*
X44373000Y8076250D01*
X44627000Y8076250D01*
X44627000Y7152000D01*
X45676250Y7152000D01*
X45835000Y7310750D01*
X45835000Y7314250D01*
X46565000Y7314250D01*
X46565000Y6973690D01*
X46661673Y6740301D01*
X46840302Y6561673D01*
X47073691Y6465000D01*
X47664250Y6465000D01*
X47823000Y6623750D01*
X47823000Y7473000D01*
X48077000Y7473000D01*
X48077000Y6623750D01*
X48235750Y6465000D01*
X48826309Y6465000D01*
X49059698Y6561673D01*
X49238327Y6740301D01*
X49335000Y6973690D01*
X49335000Y7314250D01*
X49176250Y7473000D01*
X48077000Y7473000D01*
X47823000Y7473000D01*
X46723750Y7473000D01*
X46565000Y7314250D01*
X45835000Y7314250D01*
X45835000Y7726309D01*
X45738327Y7959698D01*
X45559699Y8138327D01*
X45347290Y8226310D01*
X46565000Y8226310D01*
X46565000Y7885750D01*
X46723750Y7727000D01*
X47823000Y7727000D01*
X47823000Y8576250D01*
X48077000Y8576250D01*
X48077000Y7727000D01*
X49176250Y7727000D01*
X49335000Y7885750D01*
X49335000Y8226310D01*
X49238327Y8459699D01*
X49059698Y8638327D01*
X48826309Y8735000D01*
X48235750Y8735000D01*
X48077000Y8576250D01*
X47823000Y8576250D01*
X47664250Y8735000D01*
X47073691Y8735000D01*
X46840302Y8638327D01*
X46661673Y8459699D01*
X46565000Y8226310D01*
X45347290Y8226310D01*
X45326310Y8235000D01*
X44785750Y8235000D01*
X44627000Y8076250D01*
X44373000Y8076250D01*
X44214250Y8235000D01*
X43673690Y8235000D01*
X43440301Y8138327D01*
X43261673Y7959698D01*
X43165000Y7726309D01*
X42247440Y7726309D01*
X42247440Y8100000D01*
X42198157Y8347765D01*
X42057809Y8557809D01*
X41847765Y8698157D01*
X41600000Y8747440D01*
X40100000Y8747440D01*
X39852235Y8698157D01*
X39642191Y8557809D01*
X39501843Y8347765D01*
X39452560Y8100000D01*
X39452560Y7100000D01*
X39501843Y6852235D01*
X39642191Y6642191D01*
X39852235Y6501843D01*
X40100000Y6452560D01*
X41066573Y6452560D01*
X41192133Y6327000D01*
X34053867Y6327000D01*
X33748587Y6632280D01*
X33702001Y6702001D01*
X33535000Y6813588D01*
X33535000Y6839250D01*
X33376250Y6998000D01*
X32327000Y6998000D01*
X32327000Y6978000D01*
X32073000Y6978000D01*
X32073000Y6998000D01*
X32053000Y6998000D01*
X32053000Y7252000D01*
X32073000Y7252000D01*
X32073000Y8176250D01*
X32327000Y8176250D01*
X32327000Y7252000D01*
X33376250Y7252000D01*
X33438500Y7314250D01*
X34565000Y7314250D01*
X34565000Y6973690D01*
X34661673Y6740301D01*
X34840302Y6561673D01*
X35073691Y6465000D01*
X35664250Y6465000D01*
X35823000Y6623750D01*
X35823000Y7473000D01*
X36077000Y7473000D01*
X36077000Y6623750D01*
X36235750Y6465000D01*
X36826309Y6465000D01*
X37059698Y6561673D01*
X37238327Y6740301D01*
X37335000Y6973690D01*
X37335000Y7314250D01*
X37176250Y7473000D01*
X36077000Y7473000D01*
X35823000Y7473000D01*
X34723750Y7473000D01*
X34565000Y7314250D01*
X33438500Y7314250D01*
X33535000Y7410750D01*
X33535000Y7826309D01*
X33438327Y8059698D01*
X33271716Y8226310D01*
X34565000Y8226310D01*
X34565000Y7885750D01*
X34723750Y7727000D01*
X35823000Y7727000D01*
X35823000Y8576250D01*
X36077000Y8576250D01*
X36077000Y7727000D01*
X37176250Y7727000D01*
X37335000Y7885750D01*
X37335000Y8226310D01*
X37238327Y8459699D01*
X37059698Y8638327D01*
X36826309Y8735000D01*
X36235750Y8735000D01*
X36077000Y8576250D01*
X35823000Y8576250D01*
X35664250Y8735000D01*
X35073691Y8735000D01*
X34840302Y8638327D01*
X34661673Y8459699D01*
X34565000Y8226310D01*
X33271716Y8226310D01*
X33259699Y8238327D01*
X33026310Y8335000D01*
X32485750Y8335000D01*
X32327000Y8176250D01*
X32073000Y8176250D01*
X31914250Y8335000D01*
X31373690Y8335000D01*
X31140301Y8238327D01*
X30961673Y8059698D01*
X30865000Y7826309D01*
X30865000Y7515868D01*
X30248587Y8132280D01*
X30202001Y8202001D01*
X29925801Y8386552D01*
X29748702Y8421779D01*
X29657809Y8557809D01*
X29447765Y8698157D01*
X29200000Y8747440D01*
X27700000Y8747440D01*
X27452235Y8698157D01*
X27242191Y8557809D01*
X27101843Y8347765D01*
X27052560Y8100000D01*
X27052560Y7100000D01*
X27101843Y6852235D01*
X27242191Y6642191D01*
X27452235Y6501843D01*
X27700000Y6452560D01*
X29200000Y6452560D01*
X29447765Y6501843D01*
X29489442Y6529691D01*
X29692133Y6327000D01*
X21653867Y6327000D01*
X21448587Y6532280D01*
X21402001Y6602001D01*
X21125801Y6786552D01*
X20882237Y6835000D01*
X20882233Y6835000D01*
X20800000Y6851357D01*
X20717767Y6835000D01*
X19239250Y6835000D01*
X19176250Y6898000D01*
X18127000Y6898000D01*
X18127000Y6878000D01*
X17873000Y6878000D01*
X17873000Y6898000D01*
X16823750Y6898000D01*
X16760750Y6835000D01*
X16245868Y6835000D01*
X15447440Y7633427D01*
X15447440Y7726309D01*
X16665000Y7726309D01*
X16665000Y7310750D01*
X16823750Y7152000D01*
X17873000Y7152000D01*
X17873000Y8076250D01*
X18127000Y8076250D01*
X18127000Y7152000D01*
X19176250Y7152000D01*
X19335000Y7310750D01*
X19335000Y7314250D01*
X22165000Y7314250D01*
X22165000Y6973690D01*
X22261673Y6740301D01*
X22440302Y6561673D01*
X22673691Y6465000D01*
X23264250Y6465000D01*
X23423000Y6623750D01*
X23423000Y7473000D01*
X23677000Y7473000D01*
X23677000Y6623750D01*
X23835750Y6465000D01*
X24426309Y6465000D01*
X24659698Y6561673D01*
X24838327Y6740301D01*
X24935000Y6973690D01*
X24935000Y7314250D01*
X24776250Y7473000D01*
X23677000Y7473000D01*
X23423000Y7473000D01*
X22323750Y7473000D01*
X22165000Y7314250D01*
X19335000Y7314250D01*
X19335000Y7726309D01*
X19238327Y7959698D01*
X19059699Y8138327D01*
X18847290Y8226310D01*
X22165000Y8226310D01*
X22165000Y7885750D01*
X22323750Y7727000D01*
X23423000Y7727000D01*
X23423000Y8576250D01*
X23677000Y8576250D01*
X23677000Y7727000D01*
X24776250Y7727000D01*
X24935000Y7885750D01*
X24935000Y8226310D01*
X24838327Y8459699D01*
X24659698Y8638327D01*
X24426309Y8735000D01*
X23835750Y8735000D01*
X23677000Y8576250D01*
X23423000Y8576250D01*
X23264250Y8735000D01*
X22673691Y8735000D01*
X22440302Y8638327D01*
X22261673Y8459699D01*
X22165000Y8226310D01*
X18847290Y8226310D01*
X18826310Y8235000D01*
X18285750Y8235000D01*
X18127000Y8076250D01*
X17873000Y8076250D01*
X17714250Y8235000D01*
X17173690Y8235000D01*
X16940301Y8138327D01*
X16761673Y7959698D01*
X16665000Y7726309D01*
X15447440Y7726309D01*
X15447440Y8100000D01*
X15398157Y8347765D01*
X15257809Y8557809D01*
X15047765Y8698157D01*
X14800000Y8747440D01*
X13300000Y8747440D01*
X13052235Y8698157D01*
X12842191Y8557809D01*
X12701843Y8347765D01*
X12652560Y8100000D01*
X12652560Y7100000D01*
X12701843Y6852235D01*
X12842191Y6642191D01*
X13052235Y6501843D01*
X13300000Y6452560D01*
X14266573Y6452560D01*
X14392133Y6327000D01*
X6778869Y6327000D01*
X5791619Y7314250D01*
X7765000Y7314250D01*
X7765000Y6973690D01*
X7861673Y6740301D01*
X8040302Y6561673D01*
X8273691Y6465000D01*
X8864250Y6465000D01*
X9023000Y6623750D01*
X9023000Y7473000D01*
X9277000Y7473000D01*
X9277000Y6623750D01*
X9435750Y6465000D01*
X10026309Y6465000D01*
X10259698Y6561673D01*
X10438327Y6740301D01*
X10535000Y6973690D01*
X10535000Y7314250D01*
X10376250Y7473000D01*
X9277000Y7473000D01*
X9023000Y7473000D01*
X7923750Y7473000D01*
X7765000Y7314250D01*
X5791619Y7314250D01*
X4879559Y8226310D01*
X7765000Y8226310D01*
X7765000Y7885750D01*
X7923750Y7727000D01*
X9023000Y7727000D01*
X9023000Y8576250D01*
X9277000Y8576250D01*
X9277000Y7727000D01*
X10376250Y7727000D01*
X10535000Y7885750D01*
X10535000Y8226310D01*
X10438327Y8459699D01*
X10259698Y8638327D01*
X10026309Y8735000D01*
X9435750Y8735000D01*
X9277000Y8576250D01*
X9023000Y8576250D01*
X8864250Y8735000D01*
X8273691Y8735000D01*
X8040302Y8638327D01*
X7861673Y8459699D01*
X7765000Y8226310D01*
X4879559Y8226310D01*
X4175214Y8930654D01*
X4273157Y9077235D01*
X4322440Y9325000D01*
X4322440Y9714250D01*
X71690000Y9714250D01*
X71690000Y9198690D01*
X71786673Y8965301D01*
X71965302Y8786673D01*
X72198691Y8690000D01*
X72714250Y8690000D01*
X72873000Y8848750D01*
X72873000Y9873000D01*
X73127000Y9873000D01*
X73127000Y8848750D01*
X73285750Y8690000D01*
X73801309Y8690000D01*
X74034698Y8786673D01*
X74213327Y8965301D01*
X74310000Y9198690D01*
X74310000Y9714250D01*
X74151250Y9873000D01*
X73127000Y9873000D01*
X72873000Y9873000D01*
X71848750Y9873000D01*
X71690000Y9714250D01*
X4322440Y9714250D01*
X4322440Y10675000D01*
X4297316Y10801310D01*
X71690000Y10801310D01*
X71690000Y10285750D01*
X71848750Y10127000D01*
X72873000Y10127000D01*
X72873000Y11151250D01*
X73127000Y11151250D01*
X73127000Y10127000D01*
X74151250Y10127000D01*
X74310000Y10285750D01*
X74310000Y10801310D01*
X74213327Y11034699D01*
X74034698Y11213327D01*
X73801309Y11310000D01*
X73285750Y11310000D01*
X73127000Y11151250D01*
X72873000Y11151250D01*
X72714250Y11310000D01*
X72198691Y11310000D01*
X71965302Y11213327D01*
X71786673Y11034699D01*
X71690000Y10801310D01*
X4297316Y10801310D01*
X4273157Y10922765D01*
X4132809Y11132809D01*
X3922765Y11273157D01*
X3675000Y11322440D01*
X2325000Y11322440D01*
X2077235Y11273157D01*
X1867191Y11132809D01*
X1726843Y10922765D01*
X1677560Y10675000D01*
X1677560Y9325000D01*
X1726843Y9077235D01*
X1867191Y8867191D01*
X2077235Y8726843D01*
X2192624Y8703891D01*
X2213448Y8599200D01*
X2213449Y8599199D01*
X2398000Y8322999D01*
X2467718Y8276415D01*
X4417132Y6327000D01*
X710000Y6327000D01*
X710000Y11930070D01*
X744926Y12105655D01*
X804774Y12195225D01*
X894345Y12255074D01*
X1069930Y12290000D01*
X74930070Y12290000D01*
X75105655Y12255074D01*
X75105655Y12255074D01*
G37*
X75105655Y12255074D02*
X75195225Y12195226D01*
X75255074Y12105655D01*
X75290001Y11930065D01*
X75290000Y6327000D01*
X70778867Y6327000D01*
X70573587Y6532280D01*
X70527001Y6602001D01*
X70250801Y6786552D01*
X70047199Y6827051D01*
X69976250Y6898000D01*
X68927000Y6898000D01*
X68927000Y6878000D01*
X68673000Y6878000D01*
X68673000Y6898000D01*
X67623750Y6898000D01*
X67560750Y6835000D01*
X66786641Y6835000D01*
X66798157Y6852235D01*
X66847440Y7100000D01*
X66847440Y7726309D01*
X67465000Y7726309D01*
X67465000Y7310750D01*
X67623750Y7152000D01*
X68673000Y7152000D01*
X68673000Y8076250D01*
X68927000Y8076250D01*
X68927000Y7152000D01*
X69976250Y7152000D01*
X70135000Y7310750D01*
X70135000Y7726309D01*
X70038327Y7959698D01*
X69859699Y8138327D01*
X69626310Y8235000D01*
X69085750Y8235000D01*
X68927000Y8076250D01*
X68673000Y8076250D01*
X68514250Y8235000D01*
X67973690Y8235000D01*
X67740301Y8138327D01*
X67561673Y7959698D01*
X67465000Y7726309D01*
X66847440Y7726309D01*
X66847440Y8100000D01*
X66798157Y8347765D01*
X66657809Y8557809D01*
X66447765Y8698157D01*
X66200000Y8747440D01*
X64700000Y8747440D01*
X64452235Y8698157D01*
X64242191Y8557809D01*
X64101843Y8347765D01*
X64052560Y8100000D01*
X64052560Y7100000D01*
X64101843Y6852235D01*
X64242191Y6642191D01*
X64452235Y6501843D01*
X64645714Y6463358D01*
X64663448Y6374200D01*
X64694986Y6327000D01*
X58653867Y6327000D01*
X58448587Y6532280D01*
X58402001Y6602001D01*
X58125801Y6786552D01*
X57882237Y6835000D01*
X57882233Y6835000D01*
X57800000Y6851357D01*
X57717767Y6835000D01*
X57639250Y6835000D01*
X57576250Y6898000D01*
X56527000Y6898000D01*
X56527000Y6878000D01*
X56273000Y6878000D01*
X56273000Y6898000D01*
X55223750Y6898000D01*
X55160750Y6835000D01*
X54186641Y6835000D01*
X54198157Y6852235D01*
X54247440Y7100000D01*
X54247440Y7726309D01*
X55065000Y7726309D01*
X55065000Y7310750D01*
X55223750Y7152000D01*
X56273000Y7152000D01*
X56273000Y8076250D01*
X56527000Y8076250D01*
X56527000Y7152000D01*
X57576250Y7152000D01*
X57735000Y7310750D01*
X57735000Y7314250D01*
X59165000Y7314250D01*
X59165000Y6973690D01*
X59261673Y6740301D01*
X59440302Y6561673D01*
X59673691Y6465000D01*
X60264250Y6465000D01*
X60423000Y6623750D01*
X60423000Y7473000D01*
X60677000Y7473000D01*
X60677000Y6623750D01*
X60835750Y6465000D01*
X61426309Y6465000D01*
X61659698Y6561673D01*
X61838327Y6740301D01*
X61935000Y6973690D01*
X61935000Y7314250D01*
X61776250Y7473000D01*
X60677000Y7473000D01*
X60423000Y7473000D01*
X59323750Y7473000D01*
X59165000Y7314250D01*
X57735000Y7314250D01*
X57735000Y7726309D01*
X57638327Y7959698D01*
X57459699Y8138327D01*
X57247290Y8226310D01*
X59165000Y8226310D01*
X59165000Y7885750D01*
X59323750Y7727000D01*
X60423000Y7727000D01*
X60423000Y8576250D01*
X60677000Y8576250D01*
X60677000Y7727000D01*
X61776250Y7727000D01*
X61935000Y7885750D01*
X61935000Y8226310D01*
X61838327Y8459699D01*
X61659698Y8638327D01*
X61426309Y8735000D01*
X60835750Y8735000D01*
X60677000Y8576250D01*
X60423000Y8576250D01*
X60264250Y8735000D01*
X59673691Y8735000D01*
X59440302Y8638327D01*
X59261673Y8459699D01*
X59165000Y8226310D01*
X57247290Y8226310D01*
X57226310Y8235000D01*
X56685750Y8235000D01*
X56527000Y8076250D01*
X56273000Y8076250D01*
X56114250Y8235000D01*
X55573690Y8235000D01*
X55340301Y8138327D01*
X55161673Y7959698D01*
X55065000Y7726309D01*
X54247440Y7726309D01*
X54247440Y8100000D01*
X54198157Y8347765D01*
X54057809Y8557809D01*
X53847765Y8698157D01*
X53600000Y8747440D01*
X52100000Y8747440D01*
X51852235Y8698157D01*
X51642191Y8557809D01*
X51501843Y8347765D01*
X51452560Y8100000D01*
X51452560Y7100000D01*
X51501843Y6852235D01*
X51642191Y6642191D01*
X51852235Y6501843D01*
X52045714Y6463358D01*
X52063448Y6374200D01*
X52094986Y6327000D01*
X46053867Y6327000D01*
X45848587Y6532280D01*
X45835000Y6552615D01*
X45835000Y6739250D01*
X45676250Y6898000D01*
X44627000Y6898000D01*
X44627000Y6878000D01*
X44373000Y6878000D01*
X44373000Y6898000D01*
X43323750Y6898000D01*
X43260750Y6835000D01*
X43045868Y6835000D01*
X42247440Y7633427D01*
X42247440Y7726309D01*
X43165000Y7726309D01*
X43165000Y7310750D01*
X43323750Y7152000D01*
X44373000Y7152000D01*
X44373000Y8076250D01*
X44627000Y8076250D01*
X44627000Y7152000D01*
X45676250Y7152000D01*
X45835000Y7310750D01*
X45835000Y7314250D01*
X46565000Y7314250D01*
X46565000Y6973690D01*
X46661673Y6740301D01*
X46840302Y6561673D01*
X47073691Y6465000D01*
X47664250Y6465000D01*
X47823000Y6623750D01*
X47823000Y7473000D01*
X48077000Y7473000D01*
X48077000Y6623750D01*
X48235750Y6465000D01*
X48826309Y6465000D01*
X49059698Y6561673D01*
X49238327Y6740301D01*
X49335000Y6973690D01*
X49335000Y7314250D01*
X49176250Y7473000D01*
X48077000Y7473000D01*
X47823000Y7473000D01*
X46723750Y7473000D01*
X46565000Y7314250D01*
X45835000Y7314250D01*
X45835000Y7726309D01*
X45738327Y7959698D01*
X45559699Y8138327D01*
X45347290Y8226310D01*
X46565000Y8226310D01*
X46565000Y7885750D01*
X46723750Y7727000D01*
X47823000Y7727000D01*
X47823000Y8576250D01*
X48077000Y8576250D01*
X48077000Y7727000D01*
X49176250Y7727000D01*
X49335000Y7885750D01*
X49335000Y8226310D01*
X49238327Y8459699D01*
X49059698Y8638327D01*
X48826309Y8735000D01*
X48235750Y8735000D01*
X48077000Y8576250D01*
X47823000Y8576250D01*
X47664250Y8735000D01*
X47073691Y8735000D01*
X46840302Y8638327D01*
X46661673Y8459699D01*
X46565000Y8226310D01*
X45347290Y8226310D01*
X45326310Y8235000D01*
X44785750Y8235000D01*
X44627000Y8076250D01*
X44373000Y8076250D01*
X44214250Y8235000D01*
X43673690Y8235000D01*
X43440301Y8138327D01*
X43261673Y7959698D01*
X43165000Y7726309D01*
X42247440Y7726309D01*
X42247440Y8100000D01*
X42198157Y8347765D01*
X42057809Y8557809D01*
X41847765Y8698157D01*
X41600000Y8747440D01*
X40100000Y8747440D01*
X39852235Y8698157D01*
X39642191Y8557809D01*
X39501843Y8347765D01*
X39452560Y8100000D01*
X39452560Y7100000D01*
X39501843Y6852235D01*
X39642191Y6642191D01*
X39852235Y6501843D01*
X40100000Y6452560D01*
X41066573Y6452560D01*
X41192133Y6327000D01*
X34053867Y6327000D01*
X33748587Y6632280D01*
X33702001Y6702001D01*
X33535000Y6813588D01*
X33535000Y6839250D01*
X33376250Y6998000D01*
X32327000Y6998000D01*
X32327000Y6978000D01*
X32073000Y6978000D01*
X32073000Y6998000D01*
X32053000Y6998000D01*
X32053000Y7252000D01*
X32073000Y7252000D01*
X32073000Y8176250D01*
X32327000Y8176250D01*
X32327000Y7252000D01*
X33376250Y7252000D01*
X33438500Y7314250D01*
X34565000Y7314250D01*
X34565000Y6973690D01*
X34661673Y6740301D01*
X34840302Y6561673D01*
X35073691Y6465000D01*
X35664250Y6465000D01*
X35823000Y6623750D01*
X35823000Y7473000D01*
X36077000Y7473000D01*
X36077000Y6623750D01*
X36235750Y6465000D01*
X36826309Y6465000D01*
X37059698Y6561673D01*
X37238327Y6740301D01*
X37335000Y6973690D01*
X37335000Y7314250D01*
X37176250Y7473000D01*
X36077000Y7473000D01*
X35823000Y7473000D01*
X34723750Y7473000D01*
X34565000Y7314250D01*
X33438500Y7314250D01*
X33535000Y7410750D01*
X33535000Y7826309D01*
X33438327Y8059698D01*
X33271716Y8226310D01*
X34565000Y8226310D01*
X34565000Y7885750D01*
X34723750Y7727000D01*
X35823000Y7727000D01*
X35823000Y8576250D01*
X36077000Y8576250D01*
X36077000Y7727000D01*
X37176250Y7727000D01*
X37335000Y7885750D01*
X37335000Y8226310D01*
X37238327Y8459699D01*
X37059698Y8638327D01*
X36826309Y8735000D01*
X36235750Y8735000D01*
X36077000Y8576250D01*
X35823000Y8576250D01*
X35664250Y8735000D01*
X35073691Y8735000D01*
X34840302Y8638327D01*
X34661673Y8459699D01*
X34565000Y8226310D01*
X33271716Y8226310D01*
X33259699Y8238327D01*
X33026310Y8335000D01*
X32485750Y8335000D01*
X32327000Y8176250D01*
X32073000Y8176250D01*
X31914250Y8335000D01*
X31373690Y8335000D01*
X31140301Y8238327D01*
X30961673Y8059698D01*
X30865000Y7826309D01*
X30865000Y7515868D01*
X30248587Y8132280D01*
X30202001Y8202001D01*
X29925801Y8386552D01*
X29748702Y8421779D01*
X29657809Y8557809D01*
X29447765Y8698157D01*
X29200000Y8747440D01*
X27700000Y8747440D01*
X27452235Y8698157D01*
X27242191Y8557809D01*
X27101843Y8347765D01*
X27052560Y8100000D01*
X27052560Y7100000D01*
X27101843Y6852235D01*
X27242191Y6642191D01*
X27452235Y6501843D01*
X27700000Y6452560D01*
X29200000Y6452560D01*
X29447765Y6501843D01*
X29489442Y6529691D01*
X29692133Y6327000D01*
X21653867Y6327000D01*
X21448587Y6532280D01*
X21402001Y6602001D01*
X21125801Y6786552D01*
X20882237Y6835000D01*
X20882233Y6835000D01*
X20800000Y6851357D01*
X20717767Y6835000D01*
X19239250Y6835000D01*
X19176250Y6898000D01*
X18127000Y6898000D01*
X18127000Y6878000D01*
X17873000Y6878000D01*
X17873000Y6898000D01*
X16823750Y6898000D01*
X16760750Y6835000D01*
X16245868Y6835000D01*
X15447440Y7633427D01*
X15447440Y7726309D01*
X16665000Y7726309D01*
X16665000Y7310750D01*
X16823750Y7152000D01*
X17873000Y7152000D01*
X17873000Y8076250D01*
X18127000Y8076250D01*
X18127000Y7152000D01*
X19176250Y7152000D01*
X19335000Y7310750D01*
X19335000Y7314250D01*
X22165000Y7314250D01*
X22165000Y6973690D01*
X22261673Y6740301D01*
X22440302Y6561673D01*
X22673691Y6465000D01*
X23264250Y6465000D01*
X23423000Y6623750D01*
X23423000Y7473000D01*
X23677000Y7473000D01*
X23677000Y6623750D01*
X23835750Y6465000D01*
X24426309Y6465000D01*
X24659698Y6561673D01*
X24838327Y6740301D01*
X24935000Y6973690D01*
X24935000Y7314250D01*
X24776250Y7473000D01*
X23677000Y7473000D01*
X23423000Y7473000D01*
X22323750Y7473000D01*
X22165000Y7314250D01*
X19335000Y7314250D01*
X19335000Y7726309D01*
X19238327Y7959698D01*
X19059699Y8138327D01*
X18847290Y8226310D01*
X22165000Y8226310D01*
X22165000Y7885750D01*
X22323750Y7727000D01*
X23423000Y7727000D01*
X23423000Y8576250D01*
X23677000Y8576250D01*
X23677000Y7727000D01*
X24776250Y7727000D01*
X24935000Y7885750D01*
X24935000Y8226310D01*
X24838327Y8459699D01*
X24659698Y8638327D01*
X24426309Y8735000D01*
X23835750Y8735000D01*
X23677000Y8576250D01*
X23423000Y8576250D01*
X23264250Y8735000D01*
X22673691Y8735000D01*
X22440302Y8638327D01*
X22261673Y8459699D01*
X22165000Y8226310D01*
X18847290Y8226310D01*
X18826310Y8235000D01*
X18285750Y8235000D01*
X18127000Y8076250D01*
X17873000Y8076250D01*
X17714250Y8235000D01*
X17173690Y8235000D01*
X16940301Y8138327D01*
X16761673Y7959698D01*
X16665000Y7726309D01*
X15447440Y7726309D01*
X15447440Y8100000D01*
X15398157Y8347765D01*
X15257809Y8557809D01*
X15047765Y8698157D01*
X14800000Y8747440D01*
X13300000Y8747440D01*
X13052235Y8698157D01*
X12842191Y8557809D01*
X12701843Y8347765D01*
X12652560Y8100000D01*
X12652560Y7100000D01*
X12701843Y6852235D01*
X12842191Y6642191D01*
X13052235Y6501843D01*
X13300000Y6452560D01*
X14266573Y6452560D01*
X14392133Y6327000D01*
X6778869Y6327000D01*
X5791619Y7314250D01*
X7765000Y7314250D01*
X7765000Y6973690D01*
X7861673Y6740301D01*
X8040302Y6561673D01*
X8273691Y6465000D01*
X8864250Y6465000D01*
X9023000Y6623750D01*
X9023000Y7473000D01*
X9277000Y7473000D01*
X9277000Y6623750D01*
X9435750Y6465000D01*
X10026309Y6465000D01*
X10259698Y6561673D01*
X10438327Y6740301D01*
X10535000Y6973690D01*
X10535000Y7314250D01*
X10376250Y7473000D01*
X9277000Y7473000D01*
X9023000Y7473000D01*
X7923750Y7473000D01*
X7765000Y7314250D01*
X5791619Y7314250D01*
X4879559Y8226310D01*
X7765000Y8226310D01*
X7765000Y7885750D01*
X7923750Y7727000D01*
X9023000Y7727000D01*
X9023000Y8576250D01*
X9277000Y8576250D01*
X9277000Y7727000D01*
X10376250Y7727000D01*
X10535000Y7885750D01*
X10535000Y8226310D01*
X10438327Y8459699D01*
X10259698Y8638327D01*
X10026309Y8735000D01*
X9435750Y8735000D01*
X9277000Y8576250D01*
X9023000Y8576250D01*
X8864250Y8735000D01*
X8273691Y8735000D01*
X8040302Y8638327D01*
X7861673Y8459699D01*
X7765000Y8226310D01*
X4879559Y8226310D01*
X4175214Y8930654D01*
X4273157Y9077235D01*
X4322440Y9325000D01*
X4322440Y9714250D01*
X71690000Y9714250D01*
X71690000Y9198690D01*
X71786673Y8965301D01*
X71965302Y8786673D01*
X72198691Y8690000D01*
X72714250Y8690000D01*
X72873000Y8848750D01*
X72873000Y9873000D01*
X73127000Y9873000D01*
X73127000Y8848750D01*
X73285750Y8690000D01*
X73801309Y8690000D01*
X74034698Y8786673D01*
X74213327Y8965301D01*
X74310000Y9198690D01*
X74310000Y9714250D01*
X74151250Y9873000D01*
X73127000Y9873000D01*
X72873000Y9873000D01*
X71848750Y9873000D01*
X71690000Y9714250D01*
X4322440Y9714250D01*
X4322440Y10675000D01*
X4297316Y10801310D01*
X71690000Y10801310D01*
X71690000Y10285750D01*
X71848750Y10127000D01*
X72873000Y10127000D01*
X72873000Y11151250D01*
X73127000Y11151250D01*
X73127000Y10127000D01*
X74151250Y10127000D01*
X74310000Y10285750D01*
X74310000Y10801310D01*
X74213327Y11034699D01*
X74034698Y11213327D01*
X73801309Y11310000D01*
X73285750Y11310000D01*
X73127000Y11151250D01*
X72873000Y11151250D01*
X72714250Y11310000D01*
X72198691Y11310000D01*
X71965302Y11213327D01*
X71786673Y11034699D01*
X71690000Y10801310D01*
X4297316Y10801310D01*
X4273157Y10922765D01*
X4132809Y11132809D01*
X3922765Y11273157D01*
X3675000Y11322440D01*
X2325000Y11322440D01*
X2077235Y11273157D01*
X1867191Y11132809D01*
X1726843Y10922765D01*
X1677560Y10675000D01*
X1677560Y9325000D01*
X1726843Y9077235D01*
X1867191Y8867191D01*
X2077235Y8726843D01*
X2192624Y8703891D01*
X2213448Y8599200D01*
X2213449Y8599199D01*
X2398000Y8322999D01*
X2467718Y8276415D01*
X4417132Y6327000D01*
X710000Y6327000D01*
X710000Y11930070D01*
X744926Y12105655D01*
X804774Y12195225D01*
X894345Y12255074D01*
X1069930Y12290000D01*
X74930070Y12290000D01*
X75105655Y12255074D01*
G04 #@! TO.N,+BATT*
G36*
X5077804Y5666327D02*
X6876417Y3867714D01*
X6922999Y3797999D01*
X7199199Y3613448D01*
X7442763Y3565000D01*
X7442766Y3565000D01*
X7524999Y3548643D01*
X7607232Y3565000D01*
X7860132Y3565000D01*
X7942191Y3442191D01*
X8152235Y3301843D01*
X8400000Y3252560D01*
X9900000Y3252560D01*
X10147765Y3301843D01*
X10357809Y3442191D01*
X10498157Y3652235D01*
X10547440Y3900000D01*
X10547440Y4114250D01*
X12665000Y4114250D01*
X12665000Y3773690D01*
X12761673Y3540301D01*
X12940302Y3361673D01*
X13173691Y3265000D01*
X13764250Y3265000D01*
X13923000Y3423750D01*
X13923000Y4273000D01*
X14177000Y4273000D01*
X14177000Y3423750D01*
X14335750Y3265000D01*
X14926309Y3265000D01*
X15159698Y3361673D01*
X15338327Y3540301D01*
X15435000Y3773690D01*
X15435000Y4114250D01*
X15276250Y4273000D01*
X14177000Y4273000D01*
X13923000Y4273000D01*
X12823750Y4273000D01*
X12665000Y4114250D01*
X10547440Y4114250D01*
X10547440Y4900000D01*
X10522316Y5026310D01*
X12665000Y5026310D01*
X12665000Y4685750D01*
X12823750Y4527000D01*
X13923000Y4527000D01*
X13923000Y5376250D01*
X14177000Y5376250D01*
X14177000Y4527000D01*
X15276250Y4527000D01*
X15435000Y4685750D01*
X15435000Y4689250D01*
X16665000Y4689250D01*
X16665000Y4273691D01*
X16761673Y4040302D01*
X16940301Y3861673D01*
X17173690Y3765000D01*
X17714250Y3765000D01*
X17873000Y3923750D01*
X17873000Y4848000D01*
X18127000Y4848000D01*
X18127000Y3923750D01*
X18285750Y3765000D01*
X18826310Y3765000D01*
X19059699Y3861673D01*
X19238327Y4040302D01*
X19335000Y4273691D01*
X19335000Y4689250D01*
X19176250Y4848000D01*
X18127000Y4848000D01*
X17873000Y4848000D01*
X16823750Y4848000D01*
X16665000Y4689250D01*
X15435000Y4689250D01*
X15435000Y5026310D01*
X15338327Y5259699D01*
X15159698Y5438327D01*
X14926309Y5535000D01*
X14335750Y5535000D01*
X14177000Y5376250D01*
X13923000Y5376250D01*
X13764250Y5535000D01*
X13173691Y5535000D01*
X12940302Y5438327D01*
X12761673Y5259699D01*
X12665000Y5026310D01*
X10522316Y5026310D01*
X10498157Y5147765D01*
X10357809Y5357809D01*
X10147765Y5498157D01*
X9900000Y5547440D01*
X8400000Y5547440D01*
X8152235Y5498157D01*
X7942191Y5357809D01*
X7864433Y5241436D01*
X7442649Y5663220D01*
X15065930Y5653202D01*
X15251415Y5467717D01*
X15297999Y5397999D01*
X15574199Y5213448D01*
X15817763Y5165000D01*
X15900000Y5148642D01*
X15982237Y5165000D01*
X16760750Y5165000D01*
X16823750Y5102000D01*
X17873000Y5102000D01*
X17873000Y5122000D01*
X18127000Y5122000D01*
X18127000Y5102000D01*
X19176250Y5102000D01*
X19239250Y5165000D01*
X20454133Y5165000D01*
X21751415Y3867717D01*
X21797999Y3797999D01*
X22074199Y3613448D01*
X22251298Y3578221D01*
X22342191Y3442191D01*
X22552235Y3301843D01*
X22800000Y3252560D01*
X24300000Y3252560D01*
X24547765Y3301843D01*
X24757809Y3442191D01*
X24898157Y3652235D01*
X24947440Y3900000D01*
X24947440Y4114250D01*
X27065000Y4114250D01*
X27065000Y3773690D01*
X27161673Y3540301D01*
X27340302Y3361673D01*
X27573691Y3265000D01*
X28164250Y3265000D01*
X28323000Y3423750D01*
X28323000Y4273000D01*
X28577000Y4273000D01*
X28577000Y3423750D01*
X28735750Y3265000D01*
X29326309Y3265000D01*
X29559698Y3361673D01*
X29738327Y3540301D01*
X29835000Y3773690D01*
X29835000Y4114250D01*
X29676250Y4273000D01*
X28577000Y4273000D01*
X28323000Y4273000D01*
X27223750Y4273000D01*
X27065000Y4114250D01*
X24947440Y4114250D01*
X24947440Y4900000D01*
X24922316Y5026310D01*
X27065000Y5026310D01*
X27065000Y4685750D01*
X27223750Y4527000D01*
X28323000Y4527000D01*
X28323000Y5376250D01*
X28577000Y5376250D01*
X28577000Y4527000D01*
X29676250Y4527000D01*
X29835000Y4685750D01*
X29835000Y4789250D01*
X30865000Y4789250D01*
X30865000Y4373691D01*
X30961673Y4140302D01*
X31140301Y3961673D01*
X31373690Y3865000D01*
X31914250Y3865000D01*
X32073000Y4023750D01*
X32073000Y4948000D01*
X31023750Y4948000D01*
X30865000Y4789250D01*
X29835000Y4789250D01*
X29835000Y5026310D01*
X29738327Y5259699D01*
X29559698Y5438327D01*
X29326309Y5535000D01*
X28735750Y5535000D01*
X28577000Y5376250D01*
X28323000Y5376250D01*
X28164250Y5535000D01*
X27573691Y5535000D01*
X27340302Y5438327D01*
X27161673Y5259699D01*
X27065000Y5026310D01*
X24922316Y5026310D01*
X24898157Y5147765D01*
X24757809Y5357809D01*
X24547765Y5498157D01*
X24300000Y5547440D01*
X22800000Y5547440D01*
X22552235Y5498157D01*
X22510558Y5470309D01*
X22337219Y5643648D01*
X30386060Y5633071D01*
X30451416Y5567715D01*
X30497999Y5497999D01*
X30567714Y5451417D01*
X30567715Y5451416D01*
X30707808Y5357809D01*
X30774199Y5313448D01*
X30946593Y5279157D01*
X31023750Y5202000D01*
X32073000Y5202000D01*
X32073000Y5222000D01*
X32327000Y5222000D01*
X32327000Y5202000D01*
X32347000Y5202000D01*
X32347000Y4948000D01*
X32327000Y4948000D01*
X32327000Y4023750D01*
X32485750Y3865000D01*
X33026310Y3865000D01*
X33259699Y3961673D01*
X33438327Y4140302D01*
X33535000Y4373691D01*
X33535000Y4484132D01*
X34151415Y3867717D01*
X34197999Y3797999D01*
X34474199Y3613448D01*
X34651298Y3578221D01*
X34742191Y3442191D01*
X34952235Y3301843D01*
X35200000Y3252560D01*
X36700000Y3252560D01*
X36947765Y3301843D01*
X37157809Y3442191D01*
X37298157Y3652235D01*
X37347440Y3900000D01*
X37347440Y4114250D01*
X39465000Y4114250D01*
X39465000Y3773690D01*
X39561673Y3540301D01*
X39740302Y3361673D01*
X39973691Y3265000D01*
X40564250Y3265000D01*
X40723000Y3423750D01*
X40723000Y4273000D01*
X40977000Y4273000D01*
X40977000Y3423750D01*
X41135750Y3265000D01*
X41726309Y3265000D01*
X41959698Y3361673D01*
X42138327Y3540301D01*
X42235000Y3773690D01*
X42235000Y4114250D01*
X42076250Y4273000D01*
X40977000Y4273000D01*
X40723000Y4273000D01*
X39623750Y4273000D01*
X39465000Y4114250D01*
X37347440Y4114250D01*
X37347440Y4900000D01*
X37322316Y5026310D01*
X39465000Y5026310D01*
X39465000Y4685750D01*
X39623750Y4527000D01*
X40723000Y4527000D01*
X40723000Y5376250D01*
X40977000Y5376250D01*
X40977000Y4527000D01*
X42076250Y4527000D01*
X42235000Y4685750D01*
X42235000Y4689250D01*
X43165000Y4689250D01*
X43165000Y4273691D01*
X43261673Y4040302D01*
X43440301Y3861673D01*
X43673690Y3765000D01*
X44214250Y3765000D01*
X44373000Y3923750D01*
X44373000Y4848000D01*
X43323750Y4848000D01*
X43165000Y4689250D01*
X42235000Y4689250D01*
X42235000Y5026310D01*
X42138327Y5259699D01*
X41959698Y5438327D01*
X41726309Y5535000D01*
X41135750Y5535000D01*
X40977000Y5376250D01*
X40723000Y5376250D01*
X40564250Y5535000D01*
X39973691Y5535000D01*
X39740302Y5438327D01*
X39561673Y5259699D01*
X39465000Y5026310D01*
X37322316Y5026310D01*
X37298157Y5147765D01*
X37157809Y5357809D01*
X36947765Y5498157D01*
X36700000Y5547440D01*
X35200000Y5547440D01*
X34952235Y5498157D01*
X34910558Y5470309D01*
X34753535Y5627332D01*
X41901193Y5617939D01*
X42051415Y5467717D01*
X42097999Y5397999D01*
X42374199Y5213448D01*
X42617763Y5165000D01*
X42700000Y5148642D01*
X42782237Y5165000D01*
X43260750Y5165000D01*
X43323750Y5102000D01*
X44373000Y5102000D01*
X44373000Y5122000D01*
X44627000Y5122000D01*
X44627000Y5102000D01*
X44647000Y5102000D01*
X44647000Y4848000D01*
X44627000Y4848000D01*
X44627000Y3923750D01*
X44785750Y3765000D01*
X45326310Y3765000D01*
X45559699Y3861673D01*
X45738327Y4040302D01*
X45808769Y4210363D01*
X46151415Y3867717D01*
X46197999Y3797999D01*
X46474199Y3613448D01*
X46651298Y3578221D01*
X46742191Y3442191D01*
X46952235Y3301843D01*
X47200000Y3252560D01*
X48700000Y3252560D01*
X48947765Y3301843D01*
X49157809Y3442191D01*
X49298157Y3652235D01*
X49347440Y3900000D01*
X49347440Y4114250D01*
X51465000Y4114250D01*
X51465000Y3773690D01*
X51561673Y3540301D01*
X51740302Y3361673D01*
X51973691Y3265000D01*
X52564250Y3265000D01*
X52723000Y3423750D01*
X52723000Y4273000D01*
X52977000Y4273000D01*
X52977000Y3423750D01*
X53135750Y3265000D01*
X53726309Y3265000D01*
X53959698Y3361673D01*
X54138327Y3540301D01*
X54235000Y3773690D01*
X54235000Y4114250D01*
X54076250Y4273000D01*
X52977000Y4273000D01*
X52723000Y4273000D01*
X51623750Y4273000D01*
X51465000Y4114250D01*
X49347440Y4114250D01*
X49347440Y4900000D01*
X49298157Y5147765D01*
X49157809Y5357809D01*
X48947765Y5498157D01*
X48700000Y5547440D01*
X47200000Y5547440D01*
X46952235Y5498157D01*
X46910558Y5470309D01*
X46769325Y5611542D01*
X52765468Y5603663D01*
X52834131Y5535000D01*
X52722998Y5535000D01*
X52722998Y5376252D01*
X52564250Y5535000D01*
X51973691Y5535000D01*
X51740302Y5438327D01*
X51561673Y5259699D01*
X51465000Y5026310D01*
X51465000Y4685750D01*
X51623750Y4527000D01*
X52723000Y4527000D01*
X52723000Y4547000D01*
X52977000Y4547000D01*
X52977000Y4527000D01*
X54076250Y4527000D01*
X54235000Y4685750D01*
X54235000Y4689250D01*
X55065000Y4689250D01*
X55065000Y4273691D01*
X55161673Y4040302D01*
X55340301Y3861673D01*
X55573690Y3765000D01*
X56114250Y3765000D01*
X56273000Y3923750D01*
X56273000Y4848000D01*
X55223750Y4848000D01*
X55065000Y4689250D01*
X54235000Y4689250D01*
X54235000Y5026310D01*
X54177553Y5165000D01*
X55160750Y5165000D01*
X55223750Y5102000D01*
X56273000Y5102000D01*
X56273000Y5122000D01*
X56527000Y5122000D01*
X56527000Y5102000D01*
X56547000Y5102000D01*
X56547000Y4848000D01*
X56527000Y4848000D01*
X56527000Y3923750D01*
X56685750Y3765000D01*
X57226310Y3765000D01*
X57459699Y3861673D01*
X57638327Y4040302D01*
X57735000Y4273691D01*
X57735000Y4689250D01*
X57576252Y4847998D01*
X57735000Y4847998D01*
X57735000Y4884133D01*
X58751415Y3867717D01*
X58797999Y3797999D01*
X59074199Y3613448D01*
X59251298Y3578221D01*
X59342191Y3442191D01*
X59552235Y3301843D01*
X59800000Y3252560D01*
X61300000Y3252560D01*
X61547765Y3301843D01*
X61757809Y3442191D01*
X61898157Y3652235D01*
X61947440Y3900000D01*
X61947440Y4114250D01*
X64065000Y4114250D01*
X64065000Y3773690D01*
X64161673Y3540301D01*
X64340302Y3361673D01*
X64573691Y3265000D01*
X65164250Y3265000D01*
X65323000Y3423750D01*
X65323000Y4273000D01*
X65577000Y4273000D01*
X65577000Y3423750D01*
X65735750Y3265000D01*
X66326309Y3265000D01*
X66559698Y3361673D01*
X66738327Y3540301D01*
X66835000Y3773690D01*
X66835000Y4114250D01*
X66676250Y4273000D01*
X65577000Y4273000D01*
X65323000Y4273000D01*
X64223750Y4273000D01*
X64065000Y4114250D01*
X61947440Y4114250D01*
X61947440Y4900000D01*
X61898157Y5147765D01*
X61757809Y5357809D01*
X61547765Y5498157D01*
X61300000Y5547440D01*
X59800000Y5547440D01*
X59552235Y5498157D01*
X59510558Y5470309D01*
X59385904Y5594963D01*
X65382047Y5587084D01*
X65434131Y5535000D01*
X65322998Y5535000D01*
X65322998Y5376252D01*
X65164250Y5535000D01*
X64573691Y5535000D01*
X64340302Y5438327D01*
X64161673Y5259699D01*
X64065000Y5026310D01*
X64065000Y4685750D01*
X64223750Y4527000D01*
X65323000Y4527000D01*
X65323000Y4547000D01*
X65577000Y4547000D01*
X65577000Y4527000D01*
X66676250Y4527000D01*
X66835000Y4685750D01*
X66835000Y4689250D01*
X67465000Y4689250D01*
X67465000Y4273691D01*
X67561673Y4040302D01*
X67740301Y3861673D01*
X67973690Y3765000D01*
X68514250Y3765000D01*
X68673000Y3923750D01*
X68673000Y4848000D01*
X67623750Y4848000D01*
X67465000Y4689250D01*
X66835000Y4689250D01*
X66835000Y5026310D01*
X66777553Y5165000D01*
X67560750Y5165000D01*
X67623750Y5102000D01*
X68673000Y5102000D01*
X68673000Y5122000D01*
X68927000Y5122000D01*
X68927000Y5102000D01*
X68947000Y5102000D01*
X68947000Y4848000D01*
X68927000Y4848000D01*
X68927000Y3923750D01*
X69085750Y3765000D01*
X69626310Y3765000D01*
X69859699Y3861673D01*
X70038327Y4040302D01*
X70135000Y4273691D01*
X70135000Y4609133D01*
X72276415Y2467717D01*
X72322999Y2397999D01*
X72599199Y2213448D01*
X72703891Y2192623D01*
X72726843Y2077235D01*
X72867191Y1867191D01*
X73077235Y1726843D01*
X73325000Y1677560D01*
X74675000Y1677560D01*
X74922765Y1726843D01*
X75132809Y1867191D01*
X75273157Y2077235D01*
X75290000Y2161912D01*
X75290000Y1069930D01*
X75255074Y894345D01*
X75195225Y804774D01*
X75105655Y744926D01*
X74930070Y710000D01*
X1069930Y710000D01*
X894345Y744926D01*
X804774Y804775D01*
X744926Y894345D01*
X710000Y1069930D01*
X710000Y2150406D01*
X786673Y1965301D01*
X965302Y1786673D01*
X1198691Y1690000D01*
X1714250Y1690000D01*
X1873000Y1848750D01*
X1873000Y2873000D01*
X2127000Y2873000D01*
X2127000Y1848750D01*
X2285750Y1690000D01*
X2801309Y1690000D01*
X3034698Y1786673D01*
X3213327Y1965301D01*
X3310000Y2198690D01*
X3310000Y2714250D01*
X3151250Y2873000D01*
X2127000Y2873000D01*
X1873000Y2873000D01*
X1853000Y2873000D01*
X1853000Y3127000D01*
X1873000Y3127000D01*
X1873000Y4151250D01*
X2127000Y4151250D01*
X2127000Y3127000D01*
X3151250Y3127000D01*
X3310000Y3285750D01*
X3310000Y3801310D01*
X3213327Y4034699D01*
X3034698Y4213327D01*
X2801309Y4310000D01*
X2285750Y4310000D01*
X2127000Y4151250D01*
X1873000Y4151250D01*
X1714250Y4310000D01*
X1198691Y4310000D01*
X965302Y4213327D01*
X786673Y4034699D01*
X710000Y3849594D01*
X710000Y5672067D01*
X5077804Y5666327D01*
X5077804Y5666327D01*
G37*
X5077804Y5666327D02*
X6876417Y3867714D01*
X6922999Y3797999D01*
X7199199Y3613448D01*
X7442763Y3565000D01*
X7442766Y3565000D01*
X7524999Y3548643D01*
X7607232Y3565000D01*
X7860132Y3565000D01*
X7942191Y3442191D01*
X8152235Y3301843D01*
X8400000Y3252560D01*
X9900000Y3252560D01*
X10147765Y3301843D01*
X10357809Y3442191D01*
X10498157Y3652235D01*
X10547440Y3900000D01*
X10547440Y4114250D01*
X12665000Y4114250D01*
X12665000Y3773690D01*
X12761673Y3540301D01*
X12940302Y3361673D01*
X13173691Y3265000D01*
X13764250Y3265000D01*
X13923000Y3423750D01*
X13923000Y4273000D01*
X14177000Y4273000D01*
X14177000Y3423750D01*
X14335750Y3265000D01*
X14926309Y3265000D01*
X15159698Y3361673D01*
X15338327Y3540301D01*
X15435000Y3773690D01*
X15435000Y4114250D01*
X15276250Y4273000D01*
X14177000Y4273000D01*
X13923000Y4273000D01*
X12823750Y4273000D01*
X12665000Y4114250D01*
X10547440Y4114250D01*
X10547440Y4900000D01*
X10522316Y5026310D01*
X12665000Y5026310D01*
X12665000Y4685750D01*
X12823750Y4527000D01*
X13923000Y4527000D01*
X13923000Y5376250D01*
X14177000Y5376250D01*
X14177000Y4527000D01*
X15276250Y4527000D01*
X15435000Y4685750D01*
X15435000Y4689250D01*
X16665000Y4689250D01*
X16665000Y4273691D01*
X16761673Y4040302D01*
X16940301Y3861673D01*
X17173690Y3765000D01*
X17714250Y3765000D01*
X17873000Y3923750D01*
X17873000Y4848000D01*
X18127000Y4848000D01*
X18127000Y3923750D01*
X18285750Y3765000D01*
X18826310Y3765000D01*
X19059699Y3861673D01*
X19238327Y4040302D01*
X19335000Y4273691D01*
X19335000Y4689250D01*
X19176250Y4848000D01*
X18127000Y4848000D01*
X17873000Y4848000D01*
X16823750Y4848000D01*
X16665000Y4689250D01*
X15435000Y4689250D01*
X15435000Y5026310D01*
X15338327Y5259699D01*
X15159698Y5438327D01*
X14926309Y5535000D01*
X14335750Y5535000D01*
X14177000Y5376250D01*
X13923000Y5376250D01*
X13764250Y5535000D01*
X13173691Y5535000D01*
X12940302Y5438327D01*
X12761673Y5259699D01*
X12665000Y5026310D01*
X10522316Y5026310D01*
X10498157Y5147765D01*
X10357809Y5357809D01*
X10147765Y5498157D01*
X9900000Y5547440D01*
X8400000Y5547440D01*
X8152235Y5498157D01*
X7942191Y5357809D01*
X7864433Y5241436D01*
X7442649Y5663220D01*
X15065930Y5653202D01*
X15251415Y5467717D01*
X15297999Y5397999D01*
X15574199Y5213448D01*
X15817763Y5165000D01*
X15900000Y5148642D01*
X15982237Y5165000D01*
X16760750Y5165000D01*
X16823750Y5102000D01*
X17873000Y5102000D01*
X17873000Y5122000D01*
X18127000Y5122000D01*
X18127000Y5102000D01*
X19176250Y5102000D01*
X19239250Y5165000D01*
X20454133Y5165000D01*
X21751415Y3867717D01*
X21797999Y3797999D01*
X22074199Y3613448D01*
X22251298Y3578221D01*
X22342191Y3442191D01*
X22552235Y3301843D01*
X22800000Y3252560D01*
X24300000Y3252560D01*
X24547765Y3301843D01*
X24757809Y3442191D01*
X24898157Y3652235D01*
X24947440Y3900000D01*
X24947440Y4114250D01*
X27065000Y4114250D01*
X27065000Y3773690D01*
X27161673Y3540301D01*
X27340302Y3361673D01*
X27573691Y3265000D01*
X28164250Y3265000D01*
X28323000Y3423750D01*
X28323000Y4273000D01*
X28577000Y4273000D01*
X28577000Y3423750D01*
X28735750Y3265000D01*
X29326309Y3265000D01*
X29559698Y3361673D01*
X29738327Y3540301D01*
X29835000Y3773690D01*
X29835000Y4114250D01*
X29676250Y4273000D01*
X28577000Y4273000D01*
X28323000Y4273000D01*
X27223750Y4273000D01*
X27065000Y4114250D01*
X24947440Y4114250D01*
X24947440Y4900000D01*
X24922316Y5026310D01*
X27065000Y5026310D01*
X27065000Y4685750D01*
X27223750Y4527000D01*
X28323000Y4527000D01*
X28323000Y5376250D01*
X28577000Y5376250D01*
X28577000Y4527000D01*
X29676250Y4527000D01*
X29835000Y4685750D01*
X29835000Y4789250D01*
X30865000Y4789250D01*
X30865000Y4373691D01*
X30961673Y4140302D01*
X31140301Y3961673D01*
X31373690Y3865000D01*
X31914250Y3865000D01*
X32073000Y4023750D01*
X32073000Y4948000D01*
X31023750Y4948000D01*
X30865000Y4789250D01*
X29835000Y4789250D01*
X29835000Y5026310D01*
X29738327Y5259699D01*
X29559698Y5438327D01*
X29326309Y5535000D01*
X28735750Y5535000D01*
X28577000Y5376250D01*
X28323000Y5376250D01*
X28164250Y5535000D01*
X27573691Y5535000D01*
X27340302Y5438327D01*
X27161673Y5259699D01*
X27065000Y5026310D01*
X24922316Y5026310D01*
X24898157Y5147765D01*
X24757809Y5357809D01*
X24547765Y5498157D01*
X24300000Y5547440D01*
X22800000Y5547440D01*
X22552235Y5498157D01*
X22510558Y5470309D01*
X22337219Y5643648D01*
X30386060Y5633071D01*
X30451416Y5567715D01*
X30497999Y5497999D01*
X30567714Y5451417D01*
X30567715Y5451416D01*
X30707808Y5357809D01*
X30774199Y5313448D01*
X30946593Y5279157D01*
X31023750Y5202000D01*
X32073000Y5202000D01*
X32073000Y5222000D01*
X32327000Y5222000D01*
X32327000Y5202000D01*
X32347000Y5202000D01*
X32347000Y4948000D01*
X32327000Y4948000D01*
X32327000Y4023750D01*
X32485750Y3865000D01*
X33026310Y3865000D01*
X33259699Y3961673D01*
X33438327Y4140302D01*
X33535000Y4373691D01*
X33535000Y4484132D01*
X34151415Y3867717D01*
X34197999Y3797999D01*
X34474199Y3613448D01*
X34651298Y3578221D01*
X34742191Y3442191D01*
X34952235Y3301843D01*
X35200000Y3252560D01*
X36700000Y3252560D01*
X36947765Y3301843D01*
X37157809Y3442191D01*
X37298157Y3652235D01*
X37347440Y3900000D01*
X37347440Y4114250D01*
X39465000Y4114250D01*
X39465000Y3773690D01*
X39561673Y3540301D01*
X39740302Y3361673D01*
X39973691Y3265000D01*
X40564250Y3265000D01*
X40723000Y3423750D01*
X40723000Y4273000D01*
X40977000Y4273000D01*
X40977000Y3423750D01*
X41135750Y3265000D01*
X41726309Y3265000D01*
X41959698Y3361673D01*
X42138327Y3540301D01*
X42235000Y3773690D01*
X42235000Y4114250D01*
X42076250Y4273000D01*
X40977000Y4273000D01*
X40723000Y4273000D01*
X39623750Y4273000D01*
X39465000Y4114250D01*
X37347440Y4114250D01*
X37347440Y4900000D01*
X37322316Y5026310D01*
X39465000Y5026310D01*
X39465000Y4685750D01*
X39623750Y4527000D01*
X40723000Y4527000D01*
X40723000Y5376250D01*
X40977000Y5376250D01*
X40977000Y4527000D01*
X42076250Y4527000D01*
X42235000Y4685750D01*
X42235000Y4689250D01*
X43165000Y4689250D01*
X43165000Y4273691D01*
X43261673Y4040302D01*
X43440301Y3861673D01*
X43673690Y3765000D01*
X44214250Y3765000D01*
X44373000Y3923750D01*
X44373000Y4848000D01*
X43323750Y4848000D01*
X43165000Y4689250D01*
X42235000Y4689250D01*
X42235000Y5026310D01*
X42138327Y5259699D01*
X41959698Y5438327D01*
X41726309Y5535000D01*
X41135750Y5535000D01*
X40977000Y5376250D01*
X40723000Y5376250D01*
X40564250Y5535000D01*
X39973691Y5535000D01*
X39740302Y5438327D01*
X39561673Y5259699D01*
X39465000Y5026310D01*
X37322316Y5026310D01*
X37298157Y5147765D01*
X37157809Y5357809D01*
X36947765Y5498157D01*
X36700000Y5547440D01*
X35200000Y5547440D01*
X34952235Y5498157D01*
X34910558Y5470309D01*
X34753535Y5627332D01*
X41901193Y5617939D01*
X42051415Y5467717D01*
X42097999Y5397999D01*
X42374199Y5213448D01*
X42617763Y5165000D01*
X42700000Y5148642D01*
X42782237Y5165000D01*
X43260750Y5165000D01*
X43323750Y5102000D01*
X44373000Y5102000D01*
X44373000Y5122000D01*
X44627000Y5122000D01*
X44627000Y5102000D01*
X44647000Y5102000D01*
X44647000Y4848000D01*
X44627000Y4848000D01*
X44627000Y3923750D01*
X44785750Y3765000D01*
X45326310Y3765000D01*
X45559699Y3861673D01*
X45738327Y4040302D01*
X45808769Y4210363D01*
X46151415Y3867717D01*
X46197999Y3797999D01*
X46474199Y3613448D01*
X46651298Y3578221D01*
X46742191Y3442191D01*
X46952235Y3301843D01*
X47200000Y3252560D01*
X48700000Y3252560D01*
X48947765Y3301843D01*
X49157809Y3442191D01*
X49298157Y3652235D01*
X49347440Y3900000D01*
X49347440Y4114250D01*
X51465000Y4114250D01*
X51465000Y3773690D01*
X51561673Y3540301D01*
X51740302Y3361673D01*
X51973691Y3265000D01*
X52564250Y3265000D01*
X52723000Y3423750D01*
X52723000Y4273000D01*
X52977000Y4273000D01*
X52977000Y3423750D01*
X53135750Y3265000D01*
X53726309Y3265000D01*
X53959698Y3361673D01*
X54138327Y3540301D01*
X54235000Y3773690D01*
X54235000Y4114250D01*
X54076250Y4273000D01*
X52977000Y4273000D01*
X52723000Y4273000D01*
X51623750Y4273000D01*
X51465000Y4114250D01*
X49347440Y4114250D01*
X49347440Y4900000D01*
X49298157Y5147765D01*
X49157809Y5357809D01*
X48947765Y5498157D01*
X48700000Y5547440D01*
X47200000Y5547440D01*
X46952235Y5498157D01*
X46910558Y5470309D01*
X46769325Y5611542D01*
X52765468Y5603663D01*
X52834131Y5535000D01*
X52722998Y5535000D01*
X52722998Y5376252D01*
X52564250Y5535000D01*
X51973691Y5535000D01*
X51740302Y5438327D01*
X51561673Y5259699D01*
X51465000Y5026310D01*
X51465000Y4685750D01*
X51623750Y4527000D01*
X52723000Y4527000D01*
X52723000Y4547000D01*
X52977000Y4547000D01*
X52977000Y4527000D01*
X54076250Y4527000D01*
X54235000Y4685750D01*
X54235000Y4689250D01*
X55065000Y4689250D01*
X55065000Y4273691D01*
X55161673Y4040302D01*
X55340301Y3861673D01*
X55573690Y3765000D01*
X56114250Y3765000D01*
X56273000Y3923750D01*
X56273000Y4848000D01*
X55223750Y4848000D01*
X55065000Y4689250D01*
X54235000Y4689250D01*
X54235000Y5026310D01*
X54177553Y5165000D01*
X55160750Y5165000D01*
X55223750Y5102000D01*
X56273000Y5102000D01*
X56273000Y5122000D01*
X56527000Y5122000D01*
X56527000Y5102000D01*
X56547000Y5102000D01*
X56547000Y4848000D01*
X56527000Y4848000D01*
X56527000Y3923750D01*
X56685750Y3765000D01*
X57226310Y3765000D01*
X57459699Y3861673D01*
X57638327Y4040302D01*
X57735000Y4273691D01*
X57735000Y4689250D01*
X57576252Y4847998D01*
X57735000Y4847998D01*
X57735000Y4884133D01*
X58751415Y3867717D01*
X58797999Y3797999D01*
X59074199Y3613448D01*
X59251298Y3578221D01*
X59342191Y3442191D01*
X59552235Y3301843D01*
X59800000Y3252560D01*
X61300000Y3252560D01*
X61547765Y3301843D01*
X61757809Y3442191D01*
X61898157Y3652235D01*
X61947440Y3900000D01*
X61947440Y4114250D01*
X64065000Y4114250D01*
X64065000Y3773690D01*
X64161673Y3540301D01*
X64340302Y3361673D01*
X64573691Y3265000D01*
X65164250Y3265000D01*
X65323000Y3423750D01*
X65323000Y4273000D01*
X65577000Y4273000D01*
X65577000Y3423750D01*
X65735750Y3265000D01*
X66326309Y3265000D01*
X66559698Y3361673D01*
X66738327Y3540301D01*
X66835000Y3773690D01*
X66835000Y4114250D01*
X66676250Y4273000D01*
X65577000Y4273000D01*
X65323000Y4273000D01*
X64223750Y4273000D01*
X64065000Y4114250D01*
X61947440Y4114250D01*
X61947440Y4900000D01*
X61898157Y5147765D01*
X61757809Y5357809D01*
X61547765Y5498157D01*
X61300000Y5547440D01*
X59800000Y5547440D01*
X59552235Y5498157D01*
X59510558Y5470309D01*
X59385904Y5594963D01*
X65382047Y5587084D01*
X65434131Y5535000D01*
X65322998Y5535000D01*
X65322998Y5376252D01*
X65164250Y5535000D01*
X64573691Y5535000D01*
X64340302Y5438327D01*
X64161673Y5259699D01*
X64065000Y5026310D01*
X64065000Y4685750D01*
X64223750Y4527000D01*
X65323000Y4527000D01*
X65323000Y4547000D01*
X65577000Y4547000D01*
X65577000Y4527000D01*
X66676250Y4527000D01*
X66835000Y4685750D01*
X66835000Y4689250D01*
X67465000Y4689250D01*
X67465000Y4273691D01*
X67561673Y4040302D01*
X67740301Y3861673D01*
X67973690Y3765000D01*
X68514250Y3765000D01*
X68673000Y3923750D01*
X68673000Y4848000D01*
X67623750Y4848000D01*
X67465000Y4689250D01*
X66835000Y4689250D01*
X66835000Y5026310D01*
X66777553Y5165000D01*
X67560750Y5165000D01*
X67623750Y5102000D01*
X68673000Y5102000D01*
X68673000Y5122000D01*
X68927000Y5122000D01*
X68927000Y5102000D01*
X68947000Y5102000D01*
X68947000Y4848000D01*
X68927000Y4848000D01*
X68927000Y3923750D01*
X69085750Y3765000D01*
X69626310Y3765000D01*
X69859699Y3861673D01*
X70038327Y4040302D01*
X70135000Y4273691D01*
X70135000Y4609133D01*
X72276415Y2467717D01*
X72322999Y2397999D01*
X72599199Y2213448D01*
X72703891Y2192623D01*
X72726843Y2077235D01*
X72867191Y1867191D01*
X73077235Y1726843D01*
X73325000Y1677560D01*
X74675000Y1677560D01*
X74922765Y1726843D01*
X75132809Y1867191D01*
X75273157Y2077235D01*
X75290000Y2161912D01*
X75290000Y1069930D01*
X75255074Y894345D01*
X75195225Y804774D01*
X75105655Y744926D01*
X74930070Y710000D01*
X1069930Y710000D01*
X894345Y744926D01*
X804774Y804775D01*
X744926Y894345D01*
X710000Y1069930D01*
X710000Y2150406D01*
X786673Y1965301D01*
X965302Y1786673D01*
X1198691Y1690000D01*
X1714250Y1690000D01*
X1873000Y1848750D01*
X1873000Y2873000D01*
X2127000Y2873000D01*
X2127000Y1848750D01*
X2285750Y1690000D01*
X2801309Y1690000D01*
X3034698Y1786673D01*
X3213327Y1965301D01*
X3310000Y2198690D01*
X3310000Y2714250D01*
X3151250Y2873000D01*
X2127000Y2873000D01*
X1873000Y2873000D01*
X1853000Y2873000D01*
X1853000Y3127000D01*
X1873000Y3127000D01*
X1873000Y4151250D01*
X2127000Y4151250D01*
X2127000Y3127000D01*
X3151250Y3127000D01*
X3310000Y3285750D01*
X3310000Y3801310D01*
X3213327Y4034699D01*
X3034698Y4213327D01*
X2801309Y4310000D01*
X2285750Y4310000D01*
X2127000Y4151250D01*
X1873000Y4151250D01*
X1714250Y4310000D01*
X1198691Y4310000D01*
X965302Y4213327D01*
X786673Y4034699D01*
X710000Y3849594D01*
X710000Y5672067D01*
X5077804Y5666327D01*
G04 #@! TD*
M02*
